<?xml version="1.0" encoding="UTF-8"?>
<svg id="Tribe_of_Abraham_Logo" xmlns="http://www.w3.org/2000/svg" version="1.1" viewBox="0 0 864 864">
  <!-- Generator: Adobe Illustrator 30.2.1, SVG Export Plug-In . SVG Version: 2.1.1 Build 1)  -->
  <defs>
    <style>
      .st0 {
        fill: #4cafdd;
      }

      .st1 {
        fill: #245dab;
      }

      .st2 {
        fill: #fff;
      }

      .st3 {
        fill: #c12827;
      }

      .st4 {
        fill: #7ea840;
      }

      .st5 {
        fill: #ffc80f;
      }
    </style>
  </defs>
  <g id="Background_Fill">
    <path d="M429.26,668.88c-1.15,6.61-5.44,10.3-9.68,14.08-8.51,7.59-16.94,15.27-25.43,22.89-14.84,13.3-29.7,26.57-44.55,39.86-11.59,10.37-23.12,20.8-34.77,31.1-5.35,4.73-10.64,9.52-16.4,13.78-3.08,2.28-6.53,3.62-10.15,4.02-3.16.35-6.39-.69-9.16-2.46-4.36-2.78-7.11-6.68-8.37-11.79-1.61-6.57-1.48-13.27-1.82-19.93-.89-17.62-1.65-35.24-2.41-52.86-.63-14.4-1.16-28.8-1.78-43.2-.76-17.62-1.58-35.24-2.36-52.87-.14-3.23-.17-6.46-.35-9.68-.16-2.76-.37-2.94-3.15-2.2-3.04.81-6.11,1.2-9.23,1-8.85-.56-17.69-1.21-26.53-1.76-5.98-.37-11.97-.61-17.95-.97-9.54-.58-19.07-1.25-28.61-1.81-6.44-.38-12.89-.59-19.33-.96-10.23-.58-20.46-1.24-30.69-1.82-6.33-.36-12.67-.45-18.98-.99-8.01-.69-16.12-.3-23.98-2.59-5.92-1.73-9.65-5.29-11.34-11.32-1.69-6.05.03-11.32,3.14-16.27,3.26-5.2,7.86-9.32,11.94-13.85,8.09-8.99,16.25-17.92,24.41-26.85,6.45-7.06,12.94-14.08,19.39-21.14,8.31-9.1,16.59-18.23,24.91-27.32,6.61-7.23,13.27-14.41,19.88-21.63,6.22-6.79,12.4-13.61,18.82-20.65-7.42-2.96-11.6-9.23-16.51-14.63-10.53-11.59-20.93-23.3-31.36-35-12.57-14.1-25.12-28.21-37.65-42.34-10.16-11.46-20.32-22.92-30.42-34.43-2.89-3.29-5.26-6.81-6.35-11.3-2.29-9.45,4.11-17.9,12.37-20.17,5.62-1.55,11.38-1.66,17.1-1.97,9.09-.49,18.2-.53,27.3-1,10.47-.53,20.95-.97,31.42-1.41,10.13-.43,20.25-.94,30.38-1.37,10.47-.44,20.95-.95,31.42-1.41,10.36-.45,20.71-1.08,31.08-1.34,3.78-.09,7.56-.48,11.27-.73.49-1.07.02-1.93-.22-2.79-1.53-5.47-.74-11-.43-16.51.77-13.7,1.54-27.39,2.33-41.08.6-10.36,1.24-20.71,1.84-31.07.79-13.81,1.52-27.62,2.32-41.43.59-10.24,1.29-20.48,1.87-30.72.26-4.61.51-9.2,1.72-13.69,2.3-8.55,8.24-12.46,15.99-12.75,4.04-.15,8.15,1.12,11.71,3.59,5.43,3.77,10,8.5,14.87,12.9,9.48,8.58,18.9,17.23,28.32,25.87,7.47,6.85,14.89,13.76,22.36,20.62,9.17,8.41,18.38,16.78,27.55,25.18,7.47,6.85,14.91,13.74,22.38,20.6,5.26,4.83,10.55,9.63,15.83,14.44.33.3.72.52,1.12.82.21-.42.47-.71.51-1.03.81-6.44,5-10.66,9.53-14.7,11-9.82,21.94-19.69,32.94-29.51,11.25-10.05,22.55-20.05,33.82-30.08,9.81-8.73,19.53-17.56,29.41-26.21,8.4-7.36,16.33-15.28,25.33-21.93,4.48-3.31,9.47-4.29,15.02-2.99,6.58,1.54,10.17,5.92,12.16,11.93,1.57,4.74,1.88,9.71,2.09,14.67.68,16.59,1.37,33.18,2.05,49.77.59,14.28,1.15,28.57,1.79,42.85.75,16.93,1.59,33.86,2.35,50.79.3,6.56.51,13.13.76,19.7.03.8-.1,1.62.35,2.35,2.02.25,3.85-.65,5.78-.93,5.31-.76,10.57.2,15.85.33,6.67.16,13.33.81,19.99,1.24,9.88.63,19.76,1.28,29.64,1.86,6.21.37,12.43.58,18.64.94,9.88.58,19.76,1.25,29.64,1.82,6.21.36,12.43.58,18.64.94,10.8.63,21.61,1.19,32.4,2.04,3.75.3,7.61.92,10.93,2.93,6.87,4.15,8.8,9.65,7.59,18.43-.81,5.84-4.45,10.01-8.18,14.11-12.02,13.2-24.06,26.39-36.12,39.56-9.1,9.94-18.25,19.84-27.35,29.79-9.1,9.94-18.15,19.93-27.23,29.88-7.84,8.59-15.71,17.17-23.57,25.75-.61.67-1.37,1.22-1.81,2.41,7.21,1.59,11.13,7.33,15.6,12.29,14.19,15.74,28.27,31.58,42.36,47.41,19.52,21.93,39.04,43.88,58.51,65.86,3.45,3.89,6.57,7.98,7.35,13.43.87,6.08-.87,11.08-5.45,15.1-4.39,3.87-9.89,4.88-15.4,5.3-7.69.58-15.43.57-23.14.98-10.7.57-21.41.98-32.11,1.44-10.13.43-20.26.93-30.39,1.36-10.71.45-21.41.96-32.11,1.41-10.01.42-20.03.81-30.04,1.38-8.26.48-16.57.29-24.79,1.38-.09.21-.28.44-.23.59,2.58,8.06,1.07,16.24.65,24.37-.7,13.7-1.48,27.39-2.26,41.09-.58,10.13-1.26,20.25-1.85,30.37-.79,13.69-1.51,27.39-2.31,41.09-.59,10.01-1.32,20.01-1.88,30.03-.19,3.36-.75,6.61-1.48,9.88-1.84,8.23-7.54,12.82-15.51,13.29-4.19.25-8.4-1.04-12.06-3.54-3.73-2.55-6.99-5.65-10.3-8.68-10.88-9.96-21.74-19.93-32.6-29.9-9.08-8.34-18.13-16.71-27.21-25.04-9.17-8.41-18.38-16.77-27.55-25.18-7.56-6.93-15.08-13.9-22.62-20.85-3.55-3.27-7.12-6.51-11.22-10.25Z"/>
  </g>
  <g id="Accents_4">
    <path class="st5" d="M611.88,273.38c15.33.92,30.67,1.84,46,2.74,15.6.91,31.2,1.8,46.79,2.69,18.8,1.08,37.6,2.11,56.39,3.25,4.3.26,8.63.22,12.89.97.39.07.78.11,1.16.22,4.12,1.22,5.08,3.16,3.77,7.65-.57,1.95-1.95,3.54-3.33,5.04-18.41,20.14-36.82,40.27-55.23,60.42-25.64,28.06-51.27,56.14-76.91,84.2-6.18,6.76-12.37,13.52-18.56,20.27-.57.63-1.17,1.24-1.81,1.8-2.53,2.23-5.37,2.42-8.03.37-1.55-1.19-2.94-2.6-4.33-3.97-4.21-4.12-8.4-8.26-12.56-12.43-3.44-3.45-3.53-6.18-.23-9.69,15.38-16.36,29.72-33.62,44.65-50.37,3.05-3.42,6.33-6.62,9.07-10.31,6.8-9.15,9.13-19.27,6.46-30.41-2.35-9.78-6.49-18.63-13.92-25.66-5.59-5.29-12.3-8.07-19.94-8.58-4.76-.32-9.52-.6-14.26-1.21-3.64-.47-5.48-2.38-5.79-6.01-.66-7.89-.96-15.8-1.01-23.71-.03-5.82,1.28-7.12,7.13-7.2.52,0,1.05,0,1.57,0,0-.01,0-.03,0-.04ZM696,342.39c2.48.26,6.25-2.21,9.62-5.29,1.96-1.79,3.3-4.16,4.56-6.53.6-1.13,1.68-2.01,1.78-3.41.17-2.34.66-4.67.4-7.02-.2-1.79-.03-3.77-1.17-5.27-4.37-5.82-9.59-10.39-17.24-11.3-5.5-.65-10.04,1.27-14.13,4.77-2.09,1.79-3.28,4.17-4.47,6.54-2.45,4.84-3.01,9.98-.76,14.9,3.65,7.98,10.12,12.1,21.4,12.61Z"/>
    <path class="st5" d="M248.39,587.74c-10.64-.64-21.28-1.29-31.92-1.93-7.05-.43-14.09-.86-21.14-1.28-11.09-.65-22.18-1.31-33.28-1.93-8.68-.49-17.37-.89-26.05-1.39-15.07-.86-30.15-1.75-45.22-2.68-1.49-.09-2.98-.43-4.42-.82-2.86-.78-4.07-2.94-3.4-5.87.58-2.58,2.08-4.64,3.81-6.53,8.9-9.77,17.82-19.52,26.74-29.27,17.26-18.88,34.52-37.76,51.78-56.64,14.96-16.37,29.93-32.74,44.89-49.11,8.83-9.66,17.65-19.32,26.47-28.98.93-1.01,1.85-2.03,2.95-2.87,2.99-2.27,5.76-2.28,8.46.32,5.56,5.36,11.07,10.77,16.49,16.26,3.11,3.15,2.99,5.97-.17,9.48-6.62,7.33-13.35,14.57-19.89,21.97-11.22,12.7-22.43,25.4-33.44,38.28-6.64,7.77-9.08,16.97-7.47,27.09,1.89,11.83,6.65,22.26,15.79,30.31,5.45,4.8,11.98,7.07,19.16,7.61,4.56.35,9.12.72,13.67,1.15,3.51.33,5.35,2.03,5.82,5.49.32,2.33.48,4.68.57,7.03.24,6.08.48,12.16.57,18.24.07,4.45-1.55,5.96-6.06,6.03-1.57.02-3.14,0-4.71,0,0,.02,0,.03,0,.05ZM151.37,539.97c0,1.27-.16,2.34.03,3.35.35,1.88-.02,3.98,1.52,5.54,1.38,1.39,2.69,2.86,4.16,4.15,5.08,4.45,11.02,6.6,17.69,5.21,7.42-1.54,11.9-6.67,14.24-13.62,1.64-4.87,1.39-9.65-1.3-14.3-2.36-4.09-5.8-6.84-9.92-8.7-5.21-2.35-10.59-2.83-15.77.18-3.14,1.82-5.74,4.31-7.57,7.48-.96,1.67-2.59,2.96-2.75,5.1-.15,1.95-.44,3.89-.33,5.63Z"/>
    <path class="st5" d="M549.25,690.51c.18,5.5-4.34,11.94-9.86,11.7-6.48-.27-12.18-5.53-12.09-10.7.08-4.66,4.26-11.57,10.72-11.29,6.32.27,11.64,4.07,11.23,10.28Z"/>
    <path class="st5" d="M325.2,181.78c-6.33.22-9.78-3.04-11.36-8.31-.45-1.49-.01-2.9.3-4.23.64-2.73,1.93-5.24,4.06-7.14,1.79-1.6,4.17-2.18,6.33-1.72,2.19.47,4.55.55,6.56,2.13,3.7,2.92,6.02,6.67,4.13,11.39-1.39,3.47-3.09,6.43-6.92,7.61-1.04.32-2.06.22-3.09.26Z"/>
  </g>
  <g id="Accents_3">
    <path class="st4" d="M286.13,781.78c-3.74-1.67-4.56-5.09-4.78-8.6-.56-8.88-.91-17.76-1.3-26.65-.84-19.01-1.64-38.03-2.46-57.04-1.02-23.59-2.06-47.17-3.07-70.76-.59-13.79-1.12-27.58-1.71-41.37-.41-9.6-.96-19.2-1.33-28.8-.26-6.7,1.65-8.62,8.29-8.65,7.26-.04,14.53-.07,21.79-.02,4.02.03,5.95,1.78,5.9,5.7-.18,14.35,1.51,28.6,2.38,42.89.72,11.75,1.34,23.5,2.12,35.25.61,9.13,3.15,17.64,10.13,23.96,9.43,8.52,20.31,14.01,33.4,14,8.23-.01,15.52-2.57,21.75-8.06,3.24-2.86,6.55-5.63,9.86-8.4,4.06-3.39,7.04-3.29,10.89.27,5.1,4.7,10.22,9.38,15.33,14.07.39.35.77.71,1.14,1.08,3.61,3.49,3.69,6.22-.06,9.62-12.65,11.47-25.35,22.89-38.08,34.28-19.99,17.89-39.99,35.76-60.04,53.6-7.53,6.7-14.91,13.56-22.67,19.99-1.71,1.42-3.55,2.64-5.52,3.66h-1.96ZM340.62,694.25c-.17-1.67.23-3.36-.28-5.05-1.9-6.29-5.8-10.9-11.78-13.5-4.22-1.84-8.79-1.63-13.03-.12-3.14,1.12-5.96,3-8.46,5.47-4.3,4.25-6.28,9.29-4.87,15.01,1.35,5.48,3.84,10.55,8.63,14.2,4.52,3.45,9.5,4.5,14.65,2.64,3.42-1.23,6.86-2.69,9.56-5.68,3.41-3.79,6.2-7.55,5.58-12.95Z"/>
    <path class="st4" d="M159.26,319.51c.87-1.38,1.5-2.91,2.81-3.99,3.01-2.49,6.64-3.67,10.33-3.52,4.05.17,6.92,2.8,8.19,6.7,1.53,4.67,1.53,8.74-2.54,12.06-6.03,4.91-15.36,3.76-17.91-5.01-.15-.52.03-1.39-.88-1.53v-4.71Z"/>
    <path class="st4" d="M704.02,541.81c-.37,2.85-1.59,4.31-3.56,5.88-3.99,3.19-11,4.8-15.61,1.04-1.06-.87-1.4-2.04-1.92-3.08-2.08-4.12-2.5-10,1.77-13.38,3.17-2.5,6.68-3.49,11.02-2.22,4.92,1.44,6.26,5.18,7.69,9.17.22.6.61,2.34.61,2.6Z"/>
    <path class="st4" d="M573.39,323.4c-3.92,0-7.84.09-11.76-.02-3.84-.11-5.6-1.77-5.57-5.59.1-10.55-.87-21.03-1.58-31.54-1.08-15.85-1.9-31.72-3.02-47.57-.98-13.95-8.03-23.97-20.27-30.58-7.38-3.98-15.08-6.52-23.55-6.51-8.45.01-15.67,3.02-21.96,8.55-3.19,2.81-6.42,5.58-9.74,8.24-3.72,2.98-6.64,2.92-10.17-.27-5.64-5.08-11.21-10.24-16.73-15.45-3.7-3.5-3.64-6.34.16-9.8,6.91-6.31,13.87-12.57,20.84-18.81,16.44-14.7,32.89-29.38,49.36-44.06,16.66-14.85,33.33-29.68,50.02-44.49,1.12-1,2.34-1.9,3.61-2.7,3.33-2.14,6.44-1.17,8.04,2.44,1.03,2.32,1.22,4.81,1.32,7.29.75,18.04,1.46,36.08,2.22,54.11.75,17.64,1.56,35.28,2.34,52.93.63,14.24,1.27,28.49,1.9,42.73.88,19.74,1.77,39.47,2.64,59.21.22,4.9.47,9.8.55,14.71.08,4.79-1.9,6.89-6.66,7.06-3.99.14-7.98.03-11.98.03,0,.03,0,.06,0,.1ZM540.51,188.63c11.6-.17,20.19-8.46,20.24-17.9.06-10.83-7.26-20.55-18.01-20.88-11.87-.36-21.1,10.15-20.94,18.81.2,10.37,8.78,20.34,18.71,19.97Z"/>
  </g>
  <g id="Accents_2">
    <path class="st1" d="M159.27,540.26c.48-2.9,1.29-5.59,3.23-7.97,3.38-4.16,8.2-5.08,12.74-2.16,2.96,1.9,5.69,3.92,5.95,7.87.39,5.96-3.58,13.98-11.71,12.3-.76-.16-1.57-.13-2.3-.35-3.96-1.2-6.99-3.39-7.92-7.72v-1.96Z"/>
    <path class="st1" d="M702.67,326.52c-.91,2.22-1.85,4.42-3.99,5.83-4.96,3.27-12.19,1.86-15.49-3.11-2.2-3.31-1.88-6.86-.5-10.28.62-1.56,1.3-3.2,2.87-4.32,4.04-2.89,8.05-2.5,12.31-.53,3.08,1.43,4.95,3.69,5.87,6.85.12.41-.53,4.25-1.07,5.56Z"/>
    <path class="st1" d="M586.52,612.16c-.55,9.19-1.14,18.64-1.68,28.1-.53,9.27-1,18.54-1.54,27.81-.98,16.77-2.03,33.53-3.01,50.3-.63,10.77-1.16,21.54-1.78,32.31-.43,7.37-.94,14.74-1.44,22.1-.04.65-.21,1.29-.37,1.92-1.2,4.8-4.05,6.1-8.51,3.86-1.71-.86-3.18-2.05-4.58-3.34-27.28-25.05-54.57-50.09-81.86-75.14-20.49-18.8-40.98-37.61-61.49-56.4-6.7-6.15-13.44-12.26-20.16-18.39-1.55-1.42-3.04-2.88-3.82-4.9-.78-2.01-.62-3.91.89-5.48,5.87-6.07,11.73-12.15,17.72-18.1,2.5-2.48,5.17-2.29,8.03.26,2.73,2.44,5.38,4.98,8.06,7.48,11.47,10.73,23.68,20.63,35.39,31.09,4.78,4.27,9.3,8.84,14.14,13.04,7.61,6.59,16.38,10.9,26.63,10.14,14.49-1.09,26.93-6.76,35.85-18.71,3.74-5.01,5.07-10.98,5.58-17.13.32-3.91.56-7.82.84-11.73.35-4.81,2.15-6.85,6.96-7.37,3.44-.38,6.91-.4,10.38-.54,4.31-.18,8.63-.4,12.94-.47,5-.08,6.75,1.69,6.84,6.67.02.79,0,1.57,0,2.63ZM539.21,710.63c9.82,0,17.58-8.56,18.39-18.45.97-11.91-10.72-20.27-19.62-20.21-10.74.07-18.98,10.17-19.57,20.03-.49,8.21,10.32,19.86,20.81,18.64Z"/>
    <path class="st1" d="M465.97,245.72c.02,1.47-.65,2.83-1.72,3.93-5.78,5.97-11.55,11.95-17.45,17.8-2.16,2.15-4.58,2.14-7.07.08-2.67-2.21-5.16-4.63-7.7-6.99-14.54-13.47-29.66-26.31-44.52-39.42-3.04-2.68-5.99-5.48-9.12-8.05-9.01-7.38-19.27-9.6-30.55-6.96-10.83,2.54-20.44,7.25-27.57,16.12-4.27,5.32-6.35,11.48-6.79,18.26-.3,4.56-.7,9.12-1.17,13.67-.36,3.49-2.23,5.38-5.72,6-2.91.52-5.87.35-8.81.5-5.29.27-10.58.55-15.88.63-4.61.07-6.16-1.41-6.35-6.01-.23-5.36.32-10.71.6-16.06.6-11.43,1.33-22.85,1.99-34.28.9-15.53,1.78-31.06,2.67-46.59.8-14.09,1.6-28.19,2.41-42.28.46-7.96.96-15.92,1.46-23.88.1-1.64.36-3.25,1.05-4.76,1.09-2.37,3.09-3.31,5.62-2.72,2.78.65,4.94,2.34,6.97,4.21,14.86,13.62,29.7,27.25,44.55,40.87,26.52,24.32,53.04,48.64,79.57,72.97,13.31,12.21,26.62,24.41,39.91,36.63,1.83,1.68,3.74,3.37,3.61,6.34ZM323.91,152.69c-10.01-1.75-19.41,9.19-18.78,20.99.45,8.34,7.91,17.38,20.76,17.17,9.48-.16,17.88-8.76,18.22-20.14.25-8.18-9.32-19.31-20.21-18.02Z"/>
  </g>
  <g id="Accents_1">
    <path class="st0" d="M317.65,704.63c-2.61-1.26-4.18-3.42-5.34-5.93-1.2-2.62-1.41-5.36-.9-8.2.74-4.13,6.08-6.97,10.03-7.25,6.36-.46,9.53,2.66,11.04,7.99,1.58,5.58-.67,10.98-6.88,12.86-1.23.37-2.41.88-3.62,1.33-.13,0-3.06-.19-4.33-.8Z"/>
    <path class="st0" d="M324.69,285.01c0,5.29,0,10.59,0,15.88,0,.52,0,1.05,0,1.57-.11,4.68-1.8,6.44-6.44,6.47-5.56.03-11.12.14-16.67.54-9.78.7-19.55,1.49-29.34,2.15-7.89.53-15.8.88-23.7,1.41-5.14.35-10.32.31-15.39,1.57-8.57,2.13-15.43,6.75-20.38,14.01-5.46,8.01-9.19,16.7-9.68,26.56-.44,8.83,2.14,16.62,7.88,23.36,2.84,3.33,5.73,6.64,8.5,10.03,3.38,4.13,3.32,6.96-.27,10.94-4.87,5.39-9.78,10.74-14.76,16.04-3.92,4.18-6.62,4.14-10.47-.14-11.59-12.9-23.15-25.83-34.69-38.77-15.38-17.24-30.74-34.48-46.09-51.75-8.91-10.02-17.78-20.08-26.64-30.16-.94-1.07-1.78-2.28-2.46-3.54-1.48-2.73-.65-5.36,2.06-6.85,2.05-1.13,4.31-1.51,6.61-1.6,14.44-.62,28.88-1.21,43.33-1.84,11.56-.5,23.13-1.04,34.69-1.55,22.61-1.02,45.21-2.04,67.82-3.04,13.26-.59,26.53-1.1,39.8-1.68,12.61-.55,25.22-1.15,37.82-1.73.65-.03,1.31-.02,1.96,0,3.6.15,5.52,1.89,6.03,5.46.32,2.21.2,4.44.46,6.66ZM190.35,323.12c.08-5.2-2-10.36-6.46-14.44-3.63-3.32-7.86-5.88-12.91-5.24-4.85.62-9.58,2.41-13.27,5.7-2.83,2.53-5.9,5.25-5.95,9.67-.02,2.35-.2,4.7.13,7.05.21,1.47-.03,3.03.88,4.34,2.17,3.1,4.4,6.17,7.34,8.62,3.69,3.07,8.12,4.13,12.67,3.44,4.92-.75,9.39-2.73,12.82-6.74,2.9-3.39,4.81-7.03,4.75-12.4Z"/>
    <path class="st0" d="M537.8,572.55c0-3.66.02-7.32,0-10.99-.03-4.83,1.75-6.71,6.6-6.69,12.05.03,24.03-1.09,36.03-2.01,9.19-.7,18.4-1.14,27.6-1.7,5.16-.32,10.32-.53,15.46-1,11.53-1.05,20.65-6.34,27.01-16.05,5.51-8.41,9.01-17.54,8.99-27.78-.02-7.77-2.59-14.61-7.54-20.56-2.89-3.47-5.88-6.85-8.76-10.33-3.53-4.27-3.46-7.16.25-11.24,4.84-5.33,9.72-10.62,14.59-15.92.35-.39.73-.75,1.12-1.1,3.09-2.72,5.52-2.73,8.38.24,3.08,3.21,6.03,6.54,9,9.86,24.3,27.25,48.6,54.51,72.89,81.77,8.49,9.53,16.95,19.08,25.41,28.63,1.3,1.47,2.54,3,3.51,4.72,1.75,3.12.92,5.67-2.32,7.27-2.17,1.07-4.52,1.27-6.87,1.38-16.66.75-33.32,1.48-49.98,2.22-11.82.52-23.65,1.04-35.47,1.57-28.62,1.27-57.24,2.56-85.86,3.81-13.4.59-26.8,1.12-40.19,1.68-4.31.18-8.62.42-12.94.49-4.33.07-6.36-1.95-6.59-6.27-.01-.2-.02-.39-.02-.59,0-3.8-.17-11.39-.25-11.39ZM673.51,539.59c-.07,3.84.93,7.35,2.78,10.64,3.64,6.49,9.41,10.04,16.61,9.61,5.8-.35,11.37-2.71,15.25-7.59,1.43-1.8,3.51-3.27,3.96-5.66.86-4.6,1.03-9.14-1.53-13.42-.52-.86-1.05-1.78-1.55-2.67-2.24-3.98-5.51-7.04-9.87-8.35-5.21-1.57-10.36-1.41-15.4,1.44-6.36,3.6-9.95,8.68-10.26,16Z"/>
    <path class="st0" d="M541.37,180.1c-6.17-.05-10.55-4.75-10.63-11.28-.08-6.32,6.75-10.52,12.53-10.98,4.25-.34,9.62,7.1,9.61,12.85-.01,4.74-5.12,10.1-11.51,9.41Z"/>
  </g>
  <g id="Heart_Highlights">
    <path class="st2" d="M365.98,330.57c1.02.21,2.03.49,3.06.61,1.4.16,2.11.94,2.24,2.28.13,1.38-.5,2.35-1.75,2.97-6.66,3.28-13.35,6.5-19.96,9.87-8.92,4.53-17.35,9.77-24.18,17.25-5.49,6.01-9.77,12.8-13.19,20.15-1.48,3.18-2.92,6.38-4.28,9.6-.59,1.39-1.39,2.4-2.97,2.4-1.52,0-2.5-.86-2.99-2.29,0-2.75,0-5.5,0-8.25.15-.62.38-1.24.45-1.88.92-7.83,3.62-15.02,7.88-21.62,4.17-6.46,9.53-11.85,15.5-16.63,5.86-4.69,12.18-8.63,19.25-11.27,4.49-1.67,9.18-2.42,13.87-3.19,2.36,0,4.71,0,7.07,0Z"/>
    <path class="st2" d="M559.61,401.66c-1.05-.52-1.6-1.35-1.93-2.49-3.3-11.48-8.3-22.16-15.44-31.76-7.33-9.86-16.52-17.63-27.25-23.61-5.01-2.79-10.21-5.15-15.63-7.03-1.27-.44-2.24-1.21-2.11-2.68.12-1.41,1.04-2.1,2.41-2.43,7.23-1.76,14.14-.59,20.8,2.37,9.24,4.11,17.69,9.42,24.71,16.82,7.63,8.04,12.91,17.41,16.02,28.01.88,2.99,1.56,6.04,2.34,9.06v7.86c-.45.49-.26,1.12-.4,1.68-.39,1.62-.56,3.37-2.35,4.21h-1.18Z"/>
  </g>
  <g id="Heart">
    <path class="st3" d="M576.35,404.42c0,3.04-.38,10.79-.44,11.62-1.2,15.69-5.53,30.5-12.51,44.56-7.97,16.06-18.92,29.97-31.21,42.88-5.59,5.87-11.52,11.41-17.5,16.89-7.71,7.06-15.51,14.02-23.58,20.66-14.26,11.73-29.16,22.61-44.55,32.82-3.46,2.3-6.73,4.93-10.72,6.4-1.2.44-4.41,1.01-4.8,1.01-3.61-.72-6.94-2.04-10.03-4.13-7.35-4.95-14.72-9.87-21.93-15.04-17.36-12.44-34-25.79-49.7-40.28-9.08-8.38-17.85-17.08-26.1-26.31-10.99-12.29-20.39-25.63-26.95-40.81-6.06-14.01-9.71-28.63-10.35-43.92-.59-14.06,1.61-27.69,6.56-40.88,3.59-9.55,8.47-18.34,15.34-25.93,10.52-11.63,23.77-18.46,38.82-22.2,4.37-1.09,17.69-2.46,19.9-2.46,2.1,0,7.55.41,8.19.48,7.6.83,14.81,3.04,21.64,6.42,11.24,5.55,20.53,13.56,28.74,22.94,1.33,1.52,2.48,3.22,4.12,4.45,1.69,1.28,2.8,1.21,4.33-.22.57-.54,1.13-1.09,1.65-1.68,4.99-5.71,10.06-11.34,16.05-16.05,8.84-6.95,18.57-11.99,29.64-14.37,4.16-.89,16.02-1.97,17.75-1.97s13.15.94,17.16,1.92c12.15,2.96,22.77,8.74,32.24,16.89,13.75,11.83,22.48,26.53,26.2,44.27.91,4.34,2.07,19.07,2.07,22.05ZM369.14,333.89c-4.41-1.28-12.38-.97-18.09.57-13.6,3.67-24.44,11.64-33.72,21.91-9.06,10.03-13.52,21.89-13.15,35.48.01.55-.28,1.37.47,1.53.76.16.79-.74,1.02-1.22,1.36-2.9,2.7-5.8,3.99-8.73,5.79-13.1,14.28-23.98,26.26-31.98,7.63-5.1,15.94-8.93,24.13-13.01,2.91-1.45,5.82-2.9,9.1-4.53ZM499.74,334.26c31.12,11.3,51,33,60.35,64.65,1.12-4.01,1.38-8.04.55-12.02-5.26-25.38-20.35-42.4-44.31-51.78-5.36-2.1-10.9-2.31-16.6-.85Z"/>
  </g>
</svg>