<?xml version="1.0" encoding="UTF-8"?>
<svg xmlns="http://www.w3.org/2000/svg" version="1.1" viewBox="0 0 122 342.4">
  <!-- Generator: Adobe Illustrator 29.8.1, SVG Export Plug-In . SVG Version: 2.1.1 Build 2)  -->
  <defs>
    <style>
      .st0 {
        fill: #fff;
        stroke: #000;
        stroke-miterlimit: 10;
      }
    </style>
  </defs>
  <g id="white1">
    <path class="st0" d="M96.3,1.2v209.7c0,6.5,5.3,11.7,11.7,11.7h12.9v106.9c0,6.4-5.3,11.7-11.7,11.7H36.5s-.1,0-.1,0c-6.4,0-11.7-5.3-11.7-11.7V1.2h71.6Z"/>
  </g>
  <g id="white2">
    <path class="st0" d="M98.5,210.9V0h-48.1v209.7c0,6.5-5.3,11.7-11.7,11.7h-12.9v106.9c0,6.4,5.3,11.7,11.7,11.7h72.8c6.4,0,11.7-5.3,11.7-11.7v-105.7h-11.8c-6.5,0-11.7-5.3-11.7-11.7Z"/>
  </g>
  <g id="white3">
    <path class="st0" d="M49.3,1.2v209.7c0,6.5-5.3,11.7-11.7,11.7h-12.9v106.9c0,6.4,5.3,11.7,11.7,11.7h72.8c6.4,0,11.7-5.3,11.7-11.7V1.2H49.3Z"/>
  </g>
  <g id="white4">
    <path class="st0" d="M109.1,341.2H36.4c-6.4,0-11.7-5.3-11.7-11.7V1.2h96.2v328.3c0,6.4-5.3,11.7-11.7,11.7h0Z"/>
  </g>
  <g id="black">
    <path d="M0,0h49.3v210.9c0,6.5-5.3,11.7-11.7,11.7H11.7c-6.5,0-11.7-5.3-11.7-11.7V0h0Z"/>
  </g>
</svg>