<?xml version="1.0" encoding="UTF-8"?>
<svg id="Layer_1" xmlns="http://www.w3.org/2000/svg" version="1.1" viewBox="0 0 800 800">
  <!-- Generator: Adobe Illustrator 29.8.1, SVG Export Plug-In . SVG Version: 2.1.1 Build 2)  -->
  <defs>
    <style>
      .st0 {
        fill: #101213;
      }

      .st1, .st2, .st3, .st4, .st5, .st6, .st7, .st8, .st9, .st10, .st11, .st12, .st13 {
        stroke-miterlimit: 10;
      }

      .st1, .st3, .st4, .st6, .st7, .st8, .st9, .st10, .st12 {
        stroke: #240c0c;
      }

      .st14 {
        fill: #89ab3d;
      }

      .st15 {
        fill: #89ab3e;
      }

      .st16 {
        fill: #fcfcfc;
      }

      .st2 {
        stroke: #230000;
        stroke-width: 2px;
      }

      .st2, .st3, .st17, .st11 {
        fill: none;
      }

      .st18, .st7 {
        fill: #7ea740;
      }

      .st19, .st5 {
        fill: #fff;
      }

      .st20 {
        fill: #5eb5e1;
      }

      .st4, .st21 {
        fill: #4caedc;
      }

      .st22 {
        fill: #5cb0da;
      }

      .st23 {
        fill: #c42b27;
      }

      .st5 {
        stroke: #000;
      }

      .st24 {
        fill: #f9ca0b;
      }

      .st6 {
        fill: #ff7415;
      }

      .st25 {
        fill: #89ac3d;
      }

      .st26 {
        fill: #fbcb0a;
      }

      .st27 {
        fill: #f7c70a;
      }

      .st28 {
        fill: #11100e;
      }

      .st29, .st9 {
        fill: #ffc70f;
      }

      .st8 {
        fill: #5226a8;
      }

      .st30 {
        fill: #5db1dc;
      }

      .st31 {
        fill: #89ac3e;
      }

      .st32 {
        fill: #c32a26;
      }

      .st33, .st12 {
        fill: #235daa;
      }

      .st34 {
        fill: #c32b27;
      }

      .st35 {
        fill: #0e0e0e;
      }

      .st36 {
        fill: #17150e;
      }

      .st37 {
        fill: #110d0d;
      }

      .st38 {
        display: none;
      }

      .st39 {
        fill: #c02a26;
      }

      .st40 {
        fill: #5eb4e0;
      }

      .st41 {
        fill: #0e1011;
      }

      .st42, .st10 {
        fill: #c02727;
      }

      .st43 {
        fill: #88aa3e;
      }

      .st44 {
        fill: #111210;
      }

      .st45 {
        fill: #5eb4e1;
      }

      .st46 {
        fill: #fafafa;
      }

      .st11, .st13 {
        stroke: #231f20;
      }

      .st47 {
        fill: #f8c80a;
      }

      .st13 {
        fill: #c6c6c6;
      }
    </style>
  </defs>
  <g id="circleset">
    <g id="Layer_7" class="st38">
      <g>
        <line class="st17" x1="400" y1="122.9" x2="400" y2="677.1"/>
        <line class="st17" x1="261.5" y1="160" x2="538.5" y2="640"/>
        <line class="st17" x1="160" y1="261.5" x2="640" y2="538.5"/>
        <line class="st17" x1="122.9" y1="400" x2="677.1" y2="400"/>
        <line class="st17" x1="160" y1="538.5" x2="640" y2="261.5"/>
        <line class="st17" x1="261.5" y1="640" x2="538.5" y2="160"/>
      </g>
    </g>
    <g id="Layer_8">
      <g>
        <line class="st17" x1="317.1" y1="90.7" x2="482.9" y2="709.3"/>
        <line class="st17" x1="173.6" y1="173.6" x2="626.4" y2="626.4"/>
        <line class="st17" x1="90.7" y1="317.1" x2="709.3" y2="482.9"/>
        <line class="st17" x1="90.7" y1="482.9" x2="709.3" y2="317.1"/>
        <line class="st17" x1="173.6" y1="626.4" x2="626.4" y2="173.6"/>
        <line class="st17" x1="317.1" y1="709.3" x2="482.9" y2="90.7"/>
      </g>
    </g>
    <g id="Layer_1_copy_2">
      <circle class="st3" cx="400" cy="400" r="153.6"/>
    </g>
    <g id="Layer_11">
      <circle class="st3" cx="400" cy="400" r="217.5"/>
    </g>
    <g id="Layer_27">
      <circle class="st11" cx="400" cy="400" r="293.3"/>
    </g>
  </g>
  <g id="circleset_copy">
    <g id="Layer_7_copy" class="st38">
      <g>
        <line class="st17" x1="400" y1="122.9" x2="400" y2="677.1"/>
        <line class="st17" x1="261.5" y1="160" x2="538.5" y2="640"/>
        <line class="st17" x1="160" y1="261.5" x2="640" y2="538.5"/>
        <line class="st17" x1="122.9" y1="400" x2="677.1" y2="400"/>
        <line class="st17" x1="160" y1="538.5" x2="640" y2="261.5"/>
        <line class="st17" x1="261.5" y1="640" x2="538.5" y2="160"/>
      </g>
    </g>
    <g id="Layer_27_copy">
      <path class="st10" d="M400,246.4c13.8,0,27.1,1.8,39.8,5.2l16.5-61.7c-18-4.8-36.8-7.4-56.3-7.4s-38.3,2.6-56.3,7.4l16.5,61.7c12.7-3.4,26-5.2,39.8-5.2Z"/>
      <path class="st6" d="M360.2,251.6l-16.5-61.7c-37.4,10-70.9,29.7-97.5,56.3l45.2,45.2c18.8-18.8,42.4-32.7,68.9-39.8h-.1Z"/>
      <path class="st3" d="M291.4,291.4l-45.2-45.2c-26.6,26.6-46.3,60.1-56.3,97.5l61.7,16.5c7.1-26.4,21-50.1,39.8-68.9h0v.1Z"/>
      <path class="st9" d="M246.4,400c0-13.8,1.8-27.1,5.2-39.8l-61.7-16.5c-4.8,18-7.4,36.8-7.4,56.3s2.6,38.3,7.4,56.3l61.7-16.5c-3.4-12.7-5.2-26-5.2-39.8Z"/>
      <path class="st3" d="M508.6,291.4l45.2-45.2c-26.6-26.6-60.1-46.3-97.5-56.3l-16.5,61.7c26.4,7.1,50.1,21,68.9,39.8h-.1Z"/>
      <path class="st8" d="M548.4,360.2l61.7-16.5c-10-37.4-29.7-70.9-56.3-97.5l-45.2,45.2c18.8,18.8,32.7,42.4,39.8,68.9h0v-.1Z"/>
      <path class="st3" d="M610.1,343.7l-61.7,16.5c3.4,12.7,5.2,26,5.2,39.8s-1.8,27.1-5.2,39.8l61.7,16.5c4.8-18,7.4-36.8,7.4-56.3s-2.6-38.3-7.4-56.3Z"/>
      <path class="st3" d="M251.6,439.8l-61.7,16.5c10,37.4,29.7,70.9,56.3,97.5l45.2-45.2c-18.8-18.8-32.7-42.4-39.8-68.9h0v.1Z"/>
      <path class="st4" d="M439.8,548.4l16.5,61.7c37.4-10,70.9-29.7,97.5-56.3l-45.2-45.2c-18.8,18.8-42.4,32.7-68.9,39.8h.1Z"/>
      <path class="st12" d="M508.6,508.6l45.2,45.2c26.6-26.6,46.3-60.1,56.3-97.5l-61.7-16.5c-7.1,26.4-21,50.1-39.8,68.9h0v-.1Z"/>
      <path class="st3" d="M400,553.6c-13.8,0-27.1-1.8-39.8-5.2l-16.5,61.7c18,4.8,36.8,7.4,56.3,7.4s38.3-2.6,56.3-7.4l-16.5-61.7c-12.7,3.4-26,5.2-39.8,5.2Z"/>
      <path class="st7" d="M291.4,508.6l-45.2,45.2c26.6,26.6,60.1,46.3,97.5,56.3l16.5-61.7c-26.4-7.1-50.1-21-68.9-39.8h.1Z"/>
      <polygon class="st3" points="400 400 400 400 400 400 400 400"/>
      <polygon class="st3" points="400 400 400 400 400 400 400 400"/>
      <polygon class="st3" points="400 400 400 400 400 400 400 400"/>
      <polygon class="st3" points="400 400 400 400 400 400 400 400"/>
      <polygon class="st3" points="400 400 400 400 400 400 400 400"/>
      <polygon class="st3" points="400 400 400 400 400 400 400 400"/>
      <polygon class="st3" points="400 400 400 400 400 400 400 400"/>
    </g>
  </g>
  <g id="Layer_16_copy">
    <g id="I">
      <path class="st19" d="M409.1,230.9h-20.5v-.7h.8c.3,0,.9,0,1.7-.2.8-.1,1.4-.3,1.7-.7.3-.4.5-1,.6-1.9v-24.7c-.2-.9-.4-1.6-.7-1.9-.3-.4-.9-.6-1.8-.7l-2.4-.2v-.7h20.4v.7h-2.4c-.9.2-1.5.4-1.8.8-.3.3-.5,1-.6,2v24.9c.2,1,.4,1.6.7,1.9.3.3,1,.6,1.9.7h2.3v.8h0l.1-.1Z"/>
    </g>
    <g id="II">
      <g>
        <path class="st19" d="M544.8,315.6l-10.3-17.8.6-.3c0,.2.2.4.4.7.2.3.5.8,1,1.4s1,1,1.5,1.1,1.2,0,2-.4l1.8-.9,17.9-10.4,1.7-1.1c.8-.5,1.2-1,1.4-1.5.2-.4,0-1.1-.3-1.9l-1-2.1.6-.3,10.2,17.7-.6.3-1.3-2c-.5-.7-1-1.2-1.5-1.3-.4,0-1.1,0-2,.5l-1.8.9-18.1,10.4-1.7,1.1c-.8.6-1.2,1.1-1.4,1.5s0,1.1.3,1.9l1,2-.6.3.2.2h0Z"/>
        <path class="st19" d="M556.5,335.8l-10.3-17.8.6-.3c0,.2.2.4.4.7.2.3.5.8,1,1.4s1,1,1.5,1.1,1.2,0,2-.4l1.8-.9,17.9-10.4,1.7-1.1c.8-.5,1.2-1,1.4-1.5.2-.4,0-1.1-.3-1.9l-1-2.1.6-.3,10.2,17.7-.6.3-1.3-2c-.5-.7-1-1.2-1.5-1.3s-1.1,0-2,.5l-1.8.9-18.1,10.4-1.7,1.1c-.8.6-1.2,1.1-1.4,1.5,0,.5,0,1.1.3,1.9l1,2-.6.3.2.2h0Z"/>
      </g>
    </g>
    <g id="III">
      <g>
        <path class="st19" d="M551.8,471.8l10.3-17.8.6.3c0,.2-.2.4-.4.7-.2.3-.4.8-.7,1.6-.3.7-.4,1.4-.2,1.8.2.5.6,1,1.3,1.5l1.7,1.1,17.9,10.4,1.8.9c.8.4,1.5.5,2,.5s1-.5,1.5-1.2l1.3-2,.6.3-10.2,17.7-.6-.3,1.1-2.1c.4-.8.5-1.5.4-1.9s-.6-.9-1.4-1.5l-1.7-1.1-18.1-10.4-1.8-.9c-.9-.4-1.5-.5-2-.4s-1,.5-1.5,1.3l-1.2,1.9-.6-.3h0l-.1-.1Z"/>
        <path class="st19" d="M540.1,492l10.3-17.8.6.3c0,.2-.2.4-.4.7-.2.3-.4.8-.7,1.6-.3.7-.4,1.4-.2,1.8.2.5.6,1,1.3,1.5l1.7,1.1,17.9,10.4,1.8.9c.8.4,1.5.5,2,.5s1-.5,1.5-1.2l1.3-2,.6.3-10.2,17.7-.6-.3,1.1-2.1c.4-.8.5-1.5.4-1.9s-.6-.9-1.4-1.5l-1.7-1.1-18.1-10.4-1.8-.9c-.9-.4-1.5-.5-2-.4s-1,.5-1.5,1.3l-1.2,1.9-.6-.3h0l-.1-.1Z"/>
        <path class="st19" d="M528.4,512.3l10.3-17.8.6.3c0,.2-.2.4-.4.7-.2.3-.4.8-.7,1.6-.3.7-.4,1.4-.2,1.8s.6,1,1.3,1.5l1.7,1.1,17.9,10.4,1.8.9c.8.4,1.5.5,2,.5s1-.5,1.5-1.2l1.3-2,.6.3-10.2,17.7-.6-.3,1.1-2.1c.4-.8.5-1.5.4-1.9s-.6-.9-1.4-1.5l-1.7-1.1-18.1-10.4-1.8-.9c-.9-.4-1.5-.5-2-.4s-1,.5-1.5,1.3l-1.2,1.9-.6-.3h0l-.1-.1Z"/>
      </g>
    </g>
    <g id="IV">
      <g>
        <path class="st19" d="M489.5,541.9l17.8-10.3.3.6c-.2,0-.4.2-.7.4-.3.2-.8.5-1.4,1s-1,1-1.1,1.5,0,1.2.4,2l.9,1.8,10.4,17.9,1.1,1.7c.5.8,1,1.2,1.5,1.4.4.2,1.1,0,1.9-.3l2.1-1,.3.6-17.7,10.2-.3-.6,2-1.3c.7-.5,1.2-1,1.2-1.5s0-1.1-.5-2l-.9-1.8-10.4-18.1-1.1-1.7c-.6-.8-1.1-1.2-1.5-1.4-.5,0-1.1,0-1.9.3l-2,1-.3-.6v.2h-.1Z"/>
        <path class="st19" d="M473.8,586.9c.2-.2.5-.3.8-.5s.7-.5,1.3-1c.6-.5,1-1,1.3-1.6s.3-1.4.2-2.4l-.5-3.6-4.8-26,3.9-2.2,20.2,17.2,2.9,2.3c.8.6,1.5.9,2.1,1.1.5,0,1.2,0,1.9-.2l1.6-.7.3.6-17.5,10.1-.3-.6,1.6-1.1c.5-.4.9-.8,1.1-1.1.3-.3.2-.8-.2-1.5-.3-.5-.9-1.1-1.9-2s-2.4-2.1-4.3-3.7c-1.9-1.6-4.6-3.8-8.3-6.8.5,2.9,1,5.8,1.6,8.9.6,3.1,1,5.2,1.3,6.5s.6,2.2,1,2.8.8,1,1.2,1.1h1.4c.5,0,.9-.3,1.3-.5s.8-.4,1.1-.6l.3.6-10,5.8-.3-.6-.3-.2h0v-.1Z"/>
      </g>
    </g>
    <g id="V">
      <path class="st19" d="M286.1,563.3c.2,0,.5.2.8.4s.8.4,1.5.6,1.4.4,2,.3c.6,0,1.4-.4,2.2-1l2.8-2.3,20-17.2,3.9,2.2-4.8,26.1-.5,3.6c0,1,0,1.8.1,2.4.2.5.5,1,1.2,1.5l1.5,1-.3.6-17.5-10.1.3-.6,1.7.8c.6.2,1.1.4,1.5.4s.8-.2,1.2-.9c.3-.5.5-1.3.8-2.7.3-1.3.6-3.2,1-5.6s1-5.9,1.8-10.6c-2.2,1.9-4.6,3.8-6.9,5.8-2.4,2-4,3.5-5,4.4s-1.6,1.7-1.9,2.2c-.4.6-.5,1.2-.3,1.6s.4.8.8,1.1.7.6,1.1.8.7.5,1,.7l-.3.6-10-5.8.3-.6v.3h0Z"/>
    </g>
    <g id="VI">
      <g>
        <path class="st19" d="M200.8,392.2v.9c0,.3,0,.9.2,1.6.1.7.4,1.4.7,1.9.4.5,1,1,2,1.4l3.4,1.3,24.9,8.8v4.5l-25,8.9-3.4,1.4c-.9.4-1.6.9-2,1.3s-.6,1-.7,1.7l-.2,1.8h-.7v-20.2h.7l.2,1.9c.1.6.2,1.2.4,1.5.1.4.6.6,1.4.6s1.4-.2,2.7-.6,3.1-1.1,5.3-1.9c2.3-.8,5.6-2.1,10.1-3.8-2.7-1-5.6-2-8.5-3.1-2.9-1-5-1.8-6.3-2.1-1.3-.4-2.3-.6-2.9-.6s-1.2.2-1.5.5-.5.8-.6,1.2c-.1.5-.2.9-.2,1.4v1.2h-.7v-11.6h.7v.1Z"/>
        <path class="st19" d="M231.9,372.4v20.5h-.7v-.8c0-.3,0-.9-.2-1.7-.1-.8-.3-1.4-.7-1.7-.4-.3-1-.5-1.9-.6h-24.7c-.9.2-1.6.4-1.9.7-.4.3-.6.9-.7,1.8l-.2,2.4h-.7v-20.4h.7v2.4c.2.9.4,1.5.8,1.8.3.3,1,.5,2,.6h24.9c1-.2,1.6-.4,1.9-.7.3-.3.6-1,.7-1.9v-2.3h.8-.1v-.1Z"/>
      </g>
    </g>
    <g id="VII">
      <g>
        <path class="st19" d="M296.7,230.1c-.2.2-.5.3-.8.5s-.7.5-1.3,1c-.6.5-1,1-1.3,1.6s-.3,1.4-.2,2.4l.5,3.6,4.8,26-3.9,2.2-20.2-17.2-2.9-2.3c-.8-.6-1.5-.9-2.1-1.1-.5-.1-1.2,0-1.9.2l-1.6.7-.3-.6,17.5-10.1.3.6-1.6,1.1c-.5.4-.9.8-1.1,1.1-.3.3-.2.8.2,1.5.3.5.9,1.1,1.9,2s2.4,2.1,4.3,3.7c1.9,1.6,4.6,3.8,8.3,6.8-.5-2.9-1-5.8-1.6-8.9-.6-3.1-1-5.2-1.3-6.5s-.6-2.2-1-2.8-.8-1-1.2-1.1c-.4,0-.9,0-1.4.1s-.9.3-1.3.5-.8.4-1.1.6l-.3-.6,10-5.8.3.6.3.2h0Z"/>
        <path class="st19" d="M329.4,247.1l-17.8,10.3-.3-.6c.2-.1.4-.2.7-.4.3-.2.8-.5,1.4-1s1-1,1.1-1.5,0-1.2-.4-2l-.9-1.8-10.4-17.9-1.1-1.7c-.5-.8-1-1.2-1.5-1.4-.4-.2-1.1,0-1.9.3l-2.1,1-.3-.6,17.7-10.2.3.6-2,1.3c-.7.5-1.2,1-1.3,1.5,0,.4,0,1.1.5,2l.9,1.8,10.4,18.1,1.1,1.7c.6.8,1.1,1.2,1.5,1.4.5.1,1.1,0,1.9-.3l2-1,.3.6.2-.2h0Z"/>
        <path class="st19" d="M349.6,235.4l-17.8,10.3-.3-.6c.2-.1.4-.2.7-.4.3-.2.8-.5,1.4-1s1-1,1.1-1.5,0-1.2-.4-2l-.9-1.8-10.4-17.9-1.1-1.7c-.5-.8-1-1.2-1.5-1.4s-1.1,0-1.9.3l-2.1,1-.3-.6,17.7-10.2.3.6-2,1.3c-.7.5-1.2,1-1.3,1.5,0,.4,0,1.1.5,2l.9,1.8,10.4,18.1,1.1,1.7c.6.8,1.1,1.2,1.5,1.4.5.1,1.1,0,1.9-.3l2-1,.3.6.2-.2h0Z"/>
      </g>
    </g>
  </g>
  <g id="circleBack">
    <g id="slice12">
      <path class="st5" d="M343.7,189.9l-19.6-73.2c-50.5,13.5-95.6,40.1-131.5,76l53.6,53.6c26.6-26.6,60.1-46.3,97.5-56.3h0v-.1Z"/>
    </g>
    <g id="slice11" class="st38">
      <path class="st13" d="M246.2,246.2l-53.6-53.6c-35.9,35.9-62.5,81-76,131.5l73.2,19.6c10-37.4,29.7-70.9,56.3-97.5h.1Z"/>
    </g>
    <g id="slice10">
      <path class="st5" d="M182.5,400c0-19.5,2.6-38.3,7.4-56.3l-73.2-19.6c-6.5,24.2-9.9,49.7-9.9,75.9s3.5,51.7,9.9,75.9l73.2-19.6c-4.8-18-7.4-36.8-7.4-56.3Z"/>
    </g>
    <g id="slice9" class="st38">
      <path class="st13" d="M189.9,456.3l-73.2,19.6c13.5,50.5,40.1,95.6,76,131.5l53.6-53.6c-26.6-26.6-46.3-60.1-56.3-97.5h-.1Z"/>
    </g>
    <g id="slice8">
      <path class="st5" d="M246.2,553.8l-53.6,53.6c35.9,35.9,81,62.5,131.5,76l19.6-73.2c-37.4-10-70.9-29.7-97.5-56.3h0v-.1Z"/>
    </g>
    <g id="slice7" class="st38">
      <path class="st13" d="M400,617.5c-19.5,0-38.3-2.6-56.3-7.4l-19.6,73.2c24.2,6.5,49.7,9.9,75.9,9.9s51.7-3.5,75.9-9.9l-19.6-73.2c-18,4.8-36.8,7.4-56.3,7.4Z"/>
    </g>
    <g id="slice6">
      <path class="st5" d="M456.3,610.1l19.6,73.2c50.5-13.5,95.6-40.1,131.5-76l-53.6-53.6c-26.6,26.6-60.1,46.3-97.5,56.3h0v.1Z"/>
    </g>
    <g id="slice5">
      <path class="st5" d="M610.1,456.3c-10,37.4-29.7,70.9-56.3,97.5l53.6,53.6c35.9-35.9,62.5-81,76-131.5l-73.2-19.6h-.1Z"/>
    </g>
    <g id="slice4" class="st38">
      <path class="st13" d="M617.5,400c0,19.5-2.6,38.3-7.4,56.3l73.2,19.6c6.5-24.2,9.9-49.7,9.9-75.9s-3.5-51.7-9.9-75.9l-73.2,19.6c4.8,18,7.4,36.8,7.4,56.3Z"/>
    </g>
    <g id="slice3">
      <path class="st5" d="M610.1,343.7l73.2-19.6c-13.5-50.5-40.1-95.6-76-131.5l-53.6,53.6c26.6,26.6,46.3,60.1,56.3,97.5h.1Z"/>
    </g>
    <g id="slice2" class="st38">
      <path class="st13" d="M553.8,246.2l53.6-53.6c-35.9-35.9-81-62.5-131.5-76l-19.6,73.2c37.4,10,70.9,29.7,97.5,56.3h0v.1Z"/>
    </g>
    <g id="slice1">
      <path class="st5" d="M400,182.5c19.5,0,38.3,2.6,56.3,7.4l19.6-73.2c-24.2-6.5-49.7-9.9-75.9-9.9s-51.7,3.5-75.9,9.9l19.6,73.2c18-4.8,36.8-7.4,56.3-7.4Z"/>
    </g>
  </g>
  <g id="circleBack1">
    <g id="slice121">
      <path class="st2" d="M343.7,189.9l-19.6-73.2c-50.5,13.5-95.6,40.1-131.5,76l53.6,53.6c26.6-26.6,60.1-46.3,97.5-56.3h0v-.1Z"/>
    </g>
    <g id="slice111">
      <path class="st2" d="M246.2,246.2l-53.6-53.6c-35.9,35.9-62.5,81-76,131.5l73.2,19.6c10-37.4,29.7-70.9,56.3-97.5h.1Z"/>
    </g>
    <g id="slice101">
      <path class="st2" d="M182.5,400c0-19.5,2.6-38.3,7.4-56.3l-73.2-19.6c-6.5,24.2-9.9,49.7-9.9,75.9s3.5,51.7,9.9,75.9l73.2-19.6c-4.8-18-7.4-36.8-7.4-56.3Z"/>
    </g>
    <g id="slice91">
      <path class="st2" d="M189.9,456.3l-73.2,19.6c13.5,50.5,40.1,95.6,76,131.5l53.6-53.6c-26.6-26.6-46.3-60.1-56.3-97.5h-.1Z"/>
    </g>
    <g id="slice81">
      <path class="st2" d="M246.2,553.8l-53.6,53.6c35.9,35.9,81,62.5,131.5,76l19.6-73.2c-37.4-10-70.9-29.7-97.5-56.3h0v-.1Z"/>
    </g>
    <g id="slice71">
      <path class="st2" d="M400,617.5c-19.5,0-38.3-2.6-56.3-7.4l-19.6,73.2c24.2,6.5,49.7,9.9,75.9,9.9s51.7-3.5,75.9-9.9l-19.6-73.2c-18,4.8-36.8,7.4-56.3,7.4Z"/>
    </g>
    <g id="slice61">
      <path class="st2" d="M456.3,610.1l19.6,73.2c50.5-13.5,95.6-40.1,131.5-76l-53.6-53.6c-26.6,26.6-60.1,46.3-97.5,56.3h0v.1Z"/>
    </g>
    <g id="slice51">
      <path class="st2" d="M610.1,456.3c-10,37.4-29.7,70.9-56.3,97.5l53.6,53.6c35.9-35.9,62.5-81,76-131.5l-73.2-19.6h-.1Z"/>
    </g>
    <g id="slice41">
      <path class="st2" d="M617.5,400c0,19.5-2.6,38.3-7.4,56.3l73.2,19.6c6.5-24.2,9.9-49.7,9.9-75.9s-3.5-51.7-9.9-75.9l-73.2,19.6c4.8,18,7.4,36.8,7.4,56.3Z"/>
    </g>
    <g id="slice31">
      <path class="st2" d="M610.1,343.7l73.2-19.6c-13.5-50.5-40.1-95.6-76-131.5l-53.6,53.6c26.6,26.6,46.3,60.1,56.3,97.5h.1Z"/>
    </g>
    <g id="slice21">
      <path class="st2" d="M553.8,246.2l53.6-53.6c-35.9-35.9-81-62.5-131.5-76l-19.6,73.2c37.4,10,70.9,29.7,97.5,56.3h0v.1Z"/>
    </g>
    <g id="slice13">
      <path class="st2" d="M400,182.5c19.5,0,38.3,2.6,56.3,7.4l19.6-73.2c-24.2-6.5-49.7-9.9-75.9-9.9s-51.7,3.5-75.9,9.9l19.6,73.2c18-4.8,36.8-7.4,56.3-7.4Z"/>
    </g>
    <g id="sliceOutline" class="st38">
      <polygon class="st2" points="400 400 400 400 400 400 400 400"/>
      <polygon class="st2" points="400 400 400 400 400 400 400 400"/>
      <polygon class="st2" points="400 400 400 400 400 400 400 400"/>
      <polygon class="st2" points="400 400 400 400 400 400 400 400"/>
      <polygon class="st2" points="400 400 400 400 400 400 400 400"/>
      <polygon class="st2" points="400 400 400 400 400 400 400 400"/>
      <polygon class="st2" points="400 400 400 400 400 400 400 400"/>
    </g>
  </g>
  <circle class="st1" cx="400" cy="400" r="153"/>
  <g class="st38">
    <path class="st16" d="M507,293v214h-214v-214h214ZM401.1,308.6c-1.6-.2-4.5.5-5.7-.3s-2.7-5.8-5.5-6.6-7.3-.4-8.9,0c-4.2.9-6.4,7.4-6.5,11.3l-4.6,2.6,16.9,42.7-1.7,1.6-18.1-43.3-5.3,1.9c-7.8-8.5-20.3-3.5-18.8,8.3s1.5,2.7,1.3,3.5c-.3,1.5-4.4,2.5-4.1,4.3l31.9,34.2-2.1.7-31.3-32h-2.1c-2.4,5.3-4.2,1.7-8.2,1.7-7.4,0-11.6,6.8-10.1,13.8s3.3,4.4,3.4,5.9-2.3,3.8-1.1,5.3l40.9,17.4.7,2.5-44.1-17.1c-.8,7.3-1.6,4.8-6.5,6-7.4,1.8-9.8,11.4-4.9,17.1s7.2,1.3,5.7,8.9h46.2v2.8h-46.2c1.5,7.5-5.5,5.2-7.6,11.9s3.4,14.5,11.8,14.5l2,4.9,43.6-17.1-.4,2.9-41.4,17.1c-.8,2.2,1.6,4,1.4,5.9s-2.7,2.7-3.3,4.6c-1.8,5.6.7,13.2,7.2,14.2s8.4-2.8,12.1,2.9h1l32.4-32.7,1,2.4-31.8,32.2,4,4.9c-6,11.6,8.9,22.3,17,11.7l5.8,1.4,17.1-42.1,2.9-.4-17.1,44.3c6.6,2.4,4,1.4,5.2,6.3,2.1,8.6,13.4,11.3,18.9,3.6s.3-4.5,7.2-3.8v-46.9h2.8v46.9c6-.9,4.6.9,6.9,4.1,7.1,9.5,20.2,2.8,18.7-8.3l5.6-1.5-17.1-44.8,2.5.7,17.4,41.6c1.7,1.1,3.4-1.3,5.3-1.1s2.6,2.3,4.1,3c7.8,3.6,15.7-2.6,14.8-11.2s-1.5-3.4-1.3-4.1c.3-1.7,4.5-2.8,4.1-4.3l-32.3-32.4.7-2.1,2.5,1,30.9,31.6,1-.3c3-5.7,3.5-3,7.5-2.6,11.2,1.2,15.8-12.4,7.6-19.5l1.9-5.3-42.7-17.5.7-2.5,43.3,17.8,1.5-5.6c10.1,1.3,16.9-10.2,9.9-18-1.3-1.4-4.9-2.5-5.4-3.4s1.4-5.7-.7-5.7h-43.4c-.2,0-1,1-1.8.7v-2.8h45.1c2.2,0,.2-5.4.4-5.7s2.8-.9,3.8-1.6c9.4-6.7,3.8-20.2-7.4-19.4l-2.5-5.3-42.5,17.1-1.2-1.8,42.4-18.1-1.7-5.3c9.9-9.6,1.4-22.6-11.7-18.3l-4.3-3.4-32.8,32.6-1.8-1.8,31.6-32.4c1.6-2.3-2.9-4-3-5.3s1.1-2.1,1.3-3.5c1.2-11.8-11.1-16.6-19-8.3l-5.3-1.7-18.1,43-1.8-1.2,17.1-43.2-5.3-2.5c.3-3.7-2.5-10.7-6.4-11.4s-9.3-.6-12.4,3.2-1.2,4.9-7.1,3.9v47.6h-2.8v-47.6h.2v.1Z"/>
    <path class="st28" d="M401.1,308.6v47.6h2.8v-47.6c5.9,1,4.7-1,7.1-3.9s7.6-4.1,12.4-3.2,6.7,7.7,6.4,11.4l5.3,2.5-17.1,43.2,1.8,1.2,18.1-43,5.3,1.7c7.9-8.3,20.1-3.4,19,8.3s-1.3,3.2-1.3,3.5c0,1.3,4.6,3,3,5.3l-31.6,32.4,1.8,1.8,32.8-32.6,4.3,3.4c13.1-4.3,21.6,8.7,11.7,18.3l1.7,5.3-42.4,18.1,1.2,1.8,42.5-17.1,2.5,5.3c11.2-.8,16.8,12.7,7.4,19.4-1,.7-3.7,1.4-3.8,1.6-.2.2,1.9,5.7-.4,5.7h-45.1v2.8c.8.3,1.6-.7,1.8-.7h43.4c2.1,0,.2,5,.7,5.7s4.1,2,5.4,3.4c7,7.9.2,19.3-9.9,18l-1.5,5.6-43.3-17.8-.7,2.5,42.7,17.5-1.9,5.3c8.2,7.1,3.6,20.7-7.6,19.5-4-.4-4.5-3.1-7.5,2.6l-1,.3-30.9-31.6-2.5-1-.7,2.1,32.3,32.4c.3,1.5-3.8,2.6-4.1,4.3s1.2,2.6,1.3,4.1c1,8.6-6.9,14.8-14.8,11.2s-2.5-2.9-4.1-3-3.6,2.2-5.3,1.1l-17.4-41.6-2.5-.7,17.1,44.8-5.6,1.5c1.4,11.1-11.6,17.7-18.7,8.3-2.4-3.1-.9-5-6.9-4.1v-46.9h-2.8v46.9c-6.9-.8-4.6.2-7.2,3.8-5.6,7.7-16.8,5-18.9-3.6-1.2-4.9,1.4-4-5.2-6.3l17.1-44.3-2.9.4-17.1,42.1-5.8-1.4c-8.1,10.6-23,0-17-11.7l-4-4.9,31.8-32.2-1-2.4-32.4,32.7h-1c-3.7-5.7-6.9-2.1-12.1-2.9s-9-8.6-7.2-14.2,3.1-2.9,3.3-4.6-2.2-3.8-1.4-5.9l41.4-17.1.4-2.9-43.6,17.1-2-4.9c-8.3,0-14.5-6-11.8-14.5s9.2-4.4,7.6-11.9h46.2v-2.8h-46.2c1.6-7.6-2.5-5-5.7-8.9-4.8-5.8-2.4-15.3,4.9-17.1s5.6,1.3,6.5-6l44.1,17.1-.7-2.5-40.9-17.4c-1.1-1.5,1.3-3.4,1.1-5.3s-2.9-3.5-3.4-5.9c-1.4-6.9,2.7-13.8,10.1-13.8s5.8,3.6,8.2-1.8h2.1l31.3,32,2.1-.7-31.9-34.2c-.3-1.8,3.8-2.8,4.1-4.3s-1.1-2.2-1.3-3.5c-1.5-11.8,11-16.8,18.8-8.3l5.3-1.9,18.1,43.3,1.7-1.6-16.9-42.7,4.6-2.6c0-3.9,2.3-10.3,6.5-11.3s7.5-.4,8.9,0c2.8.8,4.7,6.1,5.5,6.6,1.2.8,4.2.1,5.7.3h-.2,0ZM398.9,311.5c-7.2,1.6-4.9-3.7-8.6-6.7s-12-.9-13.2,5.3.7,3.7-.4,4.8-4.1.4-4.1,2.6l16,39.5c1.7,2,7.8-1.1,10.3-.7v-44.8h0ZM406,311.5v44.8l9.9,1.3,16.4-40.8c-6.2-2.5-3.9-2.8-5.3-7.6s-8.9-8.8-13.6-4.2c-2.9,2.8-1,7.8-7.4,6.4h0v.1ZM351.1,316.6c-4.2.8-6.8,5.3-6.2,9.4s1.6,2.7,1.4,4.3-3.4,2.7-2.8,4.9l31.2,30.8c1.7-1.8,7.2-3.8,7-6.3l-16.7-39.6c-6.7,2.8-6.8-4.8-13.9-3.5h0ZM461.5,335.6v-1c-5.2-3.5-1-6.2-1.3-10.7-.6-8.4-11.9-9.2-16.1-2.6l-5.2-1.3-16.4,41.1,8.5,4.7,30.5-30.3h0v.1ZM364.1,379.7l4.7-8.5-29.9-29.9-2.1-.7c-2.7,5.6-5.7.3-9.8.9-5.5.8-8.7,7.3-6.1,12.2s4,2.5,3.4,5.6-2.2,2.6-.6,3.7l40.5,16.7h-.1ZM482.6,356c2.6-3.7,3.6-7.8.3-11.5s-9.7-.4-12.3-1.1-2.3-2.9-3.6-2.7l-30.7,31.3,4.7,7.8,41.2-17.4c-1-1.2-1.7-2.7-1.5-4.3s1.5-1.5,1.9-2h0v-.1ZM398.1,358.6c-53.7,5.7-46.7,88.2,9,83s45.8-88.8-9-83ZM360.5,386.2l-41.2-16.3c-1.3,6.8-1.9,4.1-6.6,5.1s-8.3,8.9-4.7,13.6,7.4,1.1,6.6,7.6l43.3.6,1.1-1.1,1.5-9.5h0ZM489.9,396.8c-1.5-7,3.5-5,6.4-8.9s1.7-11.8-4.1-13-5,1.2-7.7-5.1l-40.1,16.4,2.4,10.6h43.1ZM358.1,403.9h-43.7v4.9c-6.7.9-10.4,7.5-6.4,13.2s10.2.1,11.8,8.2l40.7-16.5-2.4-9.9h0v.1ZM489.9,403.9h-44.1l-1.4,9.9,39.4,16.4c2.3,0,1.6-3.4,2.9-4.3s3,0,4.5-.2c6.3-1.3,9.1-8.5,5-13.6s-7.8-1.8-6.4-8.2h.1ZM364,421.1l-41.1,16.3c2.4,6.2.6,4.7-1.6,8.7-3.6,6.5.7,13.7,8.3,12.6,3.6-.6,4.3-3.2,8,1.4l30.5-30.5.2-1.6-4.3-6.8h0v-.1ZM482.1,437.3l-39.6-16.3c-2.9-.3-3.9,5.9-6.5,7.4l30.9,31.6,4.3-3.4c7.6,5.5,17-2.5,12.5-10.6s-4.8-3.3-1.6-8.7h0ZM365.5,480.7l17-40.9-8.2-5.3-30.9,31c-.2,1.4,2.6,2.3,2.8,4.2s-1.2,3.4-1.4,5c-.7,6.6,6.4,11.8,12.3,8s1.9-5,8.3-2h.1ZM445.6,480.2c.4.3.6,1.3,1.4,1.8,5.6,3.7,12.7.9,13.1-6,.2-2.8-1.9-5.1-1.3-6.9s2.9-2.3,2.7-3.6l-29.4-30.4c-3.4-2-5.9,3.6-9.6,3.6l16.3,41.9c3,0,4-2.6,6.9-.5h-.1v.1ZM398.9,443.7l-9.9-1.3-16.5,41.4c6.3,1.4,3.2,5,5.6,9.5s10.4,5.2,13.7.6.7-5.6,7.1-4.6v-45.5h0v-.1ZM406,443.7v45.5c5.7-1,4.2,1.6,6.1,4.2,6.5,9.1,16.6,1.8,15.6-7.8l4.7-1.8-16.4-41.5-9.9,1.4h-.1Z"/>
    <path class="st46" d="M398.1,358.6c54.8-5.8,62.4,78,9,83s-62.7-77.2-9-83ZM406,372.6c-10.7-1-22.6,4.1-27,14.2l18.5,3.2c1.1-2.6,10-15.9,8.5-17.4h0ZM429.5,396.8c-1.2-11.6-10.6-21.7-22-23.5l2.2,19.9,19.9,3.6h-.1ZM382.6,417.4c.1.2,0,1.5.7,2.5,4.5,6.1,21.9,9.6,28.5,4.9l-12.6-13.7-16.6,6.3,8.5-15.9c-3.4-3-6.1-6.9-9.2-10.1s-3.4-3.8-4.3-3.2c-4.2,9.9-3.4,19.9,3.2,28.5s1.7.6,1.8.7h0ZM404.8,397.4l-.9-6.3-2.9,4.9h-6.3c1.7,2.6,3.7,3,2.5,6.6s-2,2-1.8,3.5l5.9-2,4.8,4.2c-1.9-6.6-.9-5.6,3.4-8.4s1.3,0,.9-1.6l-5.6-.9h0ZM430.2,398.2c-1.2-1.1-16.4,6-18.9,7.1.3,5.5.4,11.2,1.1,16.7s.2,2.3,1.1,2.5,6.5-3.7,7.5-4.6c6.2-5.6,8.7-13.6,9.2-21.7h0Z"/>
    <path class="st47" d="M360.5,386.2l-1.5,9.5-1.1,1.1-43.3-.6c.7-6.5-4-4.3-6.6-7.6s-1.4-12.3,4.7-13.6,5.4,1.7,6.6-5.1l41.2,16.3h0Z"/>
    <path class="st24" d="M398.9,443.7v45.5c-6.4-1-4.8,1.3-7.1,4.6s-10.9,4.6-13.7-.6.7-8.1-5.6-9.5l16.5-41.4,9.9,1.3h0v.1Z"/>
    <path class="st32" d="M398.9,311.5v44.8c-2.5-.4-8.6,2.7-10.3.7l-16-39.5c0-2.2,3.1-1.6,4.1-2.6s.2-3.3.4-4.8c1.2-6.1,8-9.5,13.2-5.3s1.3,8.4,8.6,6.7h0Z"/>
    <path class="st34" d="M489.9,396.8h-43l-2.4-10.6,40.1-16.4c2.7,6.3,2.6,4,7.7,5.1s7.6,8.3,4.1,13-7.9,1.9-6.4,8.9h-.1Z"/>
    <path class="st31" d="M461.5,335.6l-30.5,30.3-8.5-4.7,16.4-41.1,5.2,1.3c4.3-6.6,15.6-5.8,16.1,2.6.3,4.4-3.9,7.2,1.4,10.7v1h-.1v-.1Z"/>
    <path class="st23" d="M406,443.7l9.9-1.4,16.4,41.5-4.7,1.8c1,9.6-9,16.9-15.6,7.8-1.9-2.6-.4-5.2-6.1-4.2v-45.5h.1Z"/>
    <path class="st26" d="M406,311.5c6.4,1.4,4.6-3.7,7.4-6.4,4.7-4.5,11.9-1.8,13.6,4.2s-1,5,5.3,7.6l-16.4,40.8-9.9-1.3v-44.8h0v-.1Z"/>
    <path class="st40" d="M364,421.1l4.3,6.8-.2,1.6-30.5,30.5c-3.7-4.6-4.3-2-8-1.4-7.6,1.2-11.8-6.1-8.3-12.6s4-2.5,1.6-8.7l41.1-16.3h0v.1Z"/>
    <path class="st40" d="M445.6,480.2c-2.9-2.1-3.9.5-6.9.5l-16.3-41.9c3.7,0,6.2-5.7,9.6-3.6l29.4,30.4c.2,1.3-2.3,2.3-2.7,3.6s1.5,4.1,1.3,6.9c-.4,6.8-7.5,9.6-13.1,6s-1-1.5-1.4-1.8h.1v-.1Z"/>
    <path class="st23" d="M358.1,403.9l2.4,9.9-40.7,16.5c-1.6-8.1-7.8-2.5-11.8-8.2s-.3-12.3,6.3-13.2v-4.9h43.8v-.1Z"/>
    <path class="st20" d="M351.1,316.6c7.1-1.4,7.2,6.2,13.9,3.5l16.7,39.6c.3,2.5-5.3,4.5-7,6.3l-31.2-30.8c-.6-2.2,2.6-2.8,2.8-4.9s-1.2-2.8-1.4-4.3c-.6-4.1,2-8.6,6.2-9.4h0Z"/>
    <path class="st25" d="M364.1,379.7l-40.5-16.7c-1.6-1.2.3-2.4.6-3.7.7-3.1-2.3-3.5-3.4-5.6-2.5-4.9.6-11.5,6.1-12.2,4.1-.6,7.2,4.7,9.8-.9l2.1.7,29.9,29.9-4.7,8.5h.1Z"/>
    <path class="st26" d="M489.9,403.9c-1.4,6.4,3.8,4.9,6.4,8.2,4.1,5.1,1.3,12.3-5,13.6s-3.3-.6-4.5.2-.6,4.3-2.9,4.3l-39.4-16.4,1.4-9.9h44.1-.1Z"/>
    <path class="st14" d="M482.1,437.3c-3.2,5.4-.4,5.2,1.6,8.7,4.5,8.1-4.9,16.1-12.5,10.6l-4.3,3.4-30.9-31.6c2.6-1.5,3.7-7.7,6.5-7.4l39.6,16.3h0Z"/>
    <path class="st15" d="M365.5,480.7c-6.3-2.9-5,0-8.3,2-5.9,3.8-13-1.4-12.3-8s1.6-3.4,1.4-5-3.1-2.8-2.8-4.2l30.9-31,8.2,5.3-17,40.9h-.1Z"/>
    <path class="st45" d="M482.6,356c-.4.6-1.7.4-1.9,2s.5,3.1,1.5,4.3l-41.2,17.4-4.7-7.8,30.7-31.3c1.3-.2,2.3,2.3,3.6,2.7,2.6.7,7.6-4.1,12.3,1.1s2.3,7.8-.3,11.5h0v.1Z"/>
    <path class="st44" d="M430.2,398.2c-.5,8.1-3,16.1-9.2,21.7s-6.6,4.8-7.5,4.6-1-1.7-1.1-2.5c-.7-5.5-.8-11.2-1.1-16.7,2.4-1.1,17.7-8.2,18.9-7.1h0ZM427.4,401.1l-13.2,5.7.4,14.2c7.5-2.8,12.6-12,12.8-19.9h0Z"/>
    <path class="st36" d="M429.5,396.8l-19.9-3.6-2.2-19.9c11.5,1.8,20.9,11.9,22,23.5h.1ZM426.7,394c-1.9-8.5-8.2-15-16.3-17.8l1.5,14.8,14.8,3Z"/>
    <path class="st0" d="M406,372.6c1.5,1.5-7.5,14.9-8.5,17.4l-18.5-3.2c4.5-10.1,16.3-15.2,27-14.2h0ZM403.2,374.8c-4.5.4-8.8,1-12.8,3.2s-9,6.2-7.8,7.5l13.5,2.5,7.1-13.2h0Z"/>
    <path class="st41" d="M382.6,417.4l16.6-6.3,12.6,13.7c-6.6,4.7-24,1.2-28.5-4.9s-.5-2.3-.7-2.5h0ZM408.2,424.5c.3-1.2-.5-1.4-1.1-2.1-.9-1.1-6.9-7.9-7.5-8.2-3.7-1.7-9.6,4.1-13.5,4.6,1.2,1.9,8.6,5.7,10.3,5.7h11.8Z"/>
    <path class="st37" d="M382.6,417.4s-1.3-.1-1.8-.7c-6.6-8.6-7.3-18.6-3.2-28.5.9-.7,3.6,2.5,4.3,3.2,3,3.2,5.8,7.1,9.2,10.1l-8.5,15.9ZM379.7,391.8c-1.5-1.4-2,3.3-2,4-.6,6,0,13.1,3.8,18l6.5-11.7c-1.7-3.3-4.7-5.5-7.3-8.2s-.9-2.1-1-2.1h0Z"/>
    <path class="st35" d="M404.8,397.4l5.6.9c.3,1.7-.2,1.1-.9,1.6-4.3,2.7-5.2,1.8-3.4,8.4l-4.8-4.2-5.9,2c-.2-1.5,1.4-2.2,1.8-3.5,1.2-3.5-.8-4-2.5-6.4h6.3c0-.1,2.9-5,2.9-5l.9,6.3h0v-.1Z"/>
    <path class="st43" d="M427.4,401.1c-.2,7.9-5.3,17.1-12.8,19.9l-.4-14.2,13.2-5.7h0Z"/>
    <path class="st27" d="M426.7,394l-14.8-3-1.5-14.8c8.1,2.7,14.4,9.3,16.3,17.8Z"/>
    <path class="st22" d="M403.2,374.8l-7.1,13.2-13.5-2.5c-1.2-1.3,6.7-6.9,7.8-7.5,4.1-2.2,8.3-2.7,12.8-3.2h0Z"/>
    <path class="st30" d="M408.2,424.5h-11.7c-1.7,0-9.1-3.7-10.3-5.7,3.9-.5,9.8-6.3,13.5-4.6s6.6,7,7.5,8.2,1.4.9,1.1,2.1h-.1Z"/>
    <path class="st39" d="M379.7,391.8s.3,1.4,1,2.1c2.5,2.6,5.5,4.9,7.3,8.2l-6.5,11.7c-3.8-4.9-4.5-12-3.8-18s.5-5.3,2-4h0Z"/>
  </g>
  <g>
    <g id="Accents_4">
      <path class="st29" d="M461.9,346c5.3.3,10.5.6,15.8.9s10.7.6,15.9.9c6.5.3,12.8.8,19.3,1.1,1.5,0,2.9,0,4.5.3h.5c1.4.5,1.7,1.1,1.2,2.6-.2.6-.6,1.2-1.1,1.7-6.3,7-12.5,13.8-18.9,20.7-8.8,9.6-17.5,19.2-26.3,28.8-2.2,2.3-4.2,4.6-6.3,7l-.6.6c-.9.8-1.9.8-2.8,0-.5-.5-.9-.9-1.5-1.4-1.4-1.4-2.9-2.8-4.3-4.2-1.2-1.2-1.2-2.2,0-3.3,5.3-5.6,10.2-11.5,15.3-17.2,1.1-1.2,2.2-2.3,3.1-3.6,2.3-3.1,3.1-6.7,2.2-10.4-.8-3.4-2.2-6.3-4.8-8.8-1.9-1.9-4.2-2.8-6.8-2.9-1.7,0-3.3-.2-5-.5-1.2-.2-1.9-.8-2-2-.2-2.6-.3-5.4-.3-8s.5-2.5,2.5-2.5h.5l-.1.2ZM490.7,369.7c.8,0,2.2-.8,3.3-1.9s1.1-1.4,1.5-2.2c.2-.5.6-.6.6-1.2s.2-1.5,0-2.5c0-.6,0-1.2-.5-1.9-1.5-2-3.3-3.6-5.9-3.9-1.9-.2-3.4.5-4.8,1.7-.8.6-1.1,1.4-1.5,2.2-.8,1.7-1.1,3.4-.3,5.1,1.2,2.8,3.4,4.2,7.3,4.3l.3.2v.1Z"/>
      <path class="st29" d="M337.5,453.6c-3.7-.2-7.3-.5-11-.6-2.5,0-4.8-.3-7.3-.5-3.9-.2-7.6-.5-11.5-.6-2.9-.2-5.9-.3-9-.5-5.1-.3-10.4-.6-15.5-.9-.5,0-1.1,0-1.5-.3-.9-.3-1.4-.9-1.2-2,.2-.9.8-1.5,1.2-2.2,3.1-3.4,6-6.7,9.1-10.1,5.9-6.5,11.8-13,17.6-19.3,5.1-5.6,10.2-11.1,15.3-16.9,3.1-3.3,6-6.7,9.1-9.9.3-.3.6-.6,1.1-.9,1.1-.8,2-.8,2.9,0l5.6,5.6c1.1,1.1,1.1,2,0,3.3-2.3,2.5-4.6,5-6.8,7.6-3.9,4.3-7.7,8.7-11.5,13.2-2.3,2.6-3.1,5.9-2.6,9.3.6,4,2.3,7.6,5.4,10.4,1.9,1.7,4,2.5,6.5,2.6,1.5,0,3.1.3,4.6.5,1.2,0,1.9.6,2,1.9,0,.8.2,1.5.2,2.5,0,2,.2,4.2.2,6.2s-.5,2-2,2h-1.5l.5-.2.1-.2ZM304.2,437.1v1.1c0,.6,0,1.4.5,1.9l1.4,1.4c1.7,1.5,3.7,2.3,6,1.9,2.5-.5,4-2.3,4.8-4.6.6-1.7.5-3.3-.5-5-.8-1.4-2-2.3-3.4-2.9-1.9-.8-3.6-.9-5.4,0-1.1.6-2,1.5-2.6,2.6-.3.6-.9,1.1-.9,1.7v1.9l.2.2-.1-.2Z"/>
      <path class="st29" d="M440.4,488.7c0,1.9-1.5,4-3.4,4s-4.2-1.9-4.2-3.7,1.4-4,3.7-3.9c2.2,0,4,1.4,3.9,3.6h0Z"/>
      <path class="st29" d="M363.8,314.5c-2.2,0-3.4-1.1-3.9-2.8v-1.4c.2-.9.6-1.9,1.4-2.5.6-.6,1.4-.8,2.2-.6s1.5.2,2.3.8c1.2.9,2,2.3,1.4,3.9-.5,1.2-1.1,2.2-2.3,2.6h-1.1Z"/>
    </g>
    <g>
      <g id="Accents_3">
        <path class="st18" d="M350.2,519.8c-1.2-.6-1.5-1.7-1.7-2.9-.2-3.1-.3-6-.5-9.1-.3-6.5-.6-13-.8-19.5-.3-8-.8-16.1-1.1-24.1-.2-4.6-.3-9.4-.6-14.1,0-3.3-.3-6.5-.5-9.9,0-2.3.6-2.9,2.8-2.9h7.4c1.4,0,2,.6,2,2,0,5,.5,9.8.8,14.7.3,4,.5,8,.8,12.1.2,3.1,1.1,6,3.4,8.2,3.3,2.9,7,4.8,11.5,4.8s5.3-.9,7.4-2.8c1.1-.9,2.2-1.9,3.4-2.9,1.4-1.2,2.5-1.1,3.7,0,1.7,1.5,3.6,3.3,5.3,4.8,0,0,.3.3.5.3,1.2,1.2,1.2,2.2,0,3.3-4.3,3.9-8.7,7.9-13,11.8-6.8,6.2-13.6,12.2-20.6,18.4-2.6,2.3-5.1,4.6-7.7,6.8-.6.5-1.2.9-1.9,1.2h-.6v-.2ZM368.9,489.9v-1.7c-.6-2.2-2-3.7-4-4.6-1.4-.6-2.9-.6-4.5,0-1.1.3-2,1.1-2.9,1.9-1.5,1.4-2.2,3.3-1.7,5.1.5,1.9,1.2,3.6,2.9,4.8,1.5,1.2,3.3,1.5,5,.9,1.2-.5,2.3-.9,3.3-2,1.2-1.2,2.2-2.6,1.9-4.5l.2.2-.2-.1Z"/>
        <path class="st18" d="M306.8,361.6c.3-.5.5-.9.9-1.4,1.1-.8,2.3-1.2,3.6-1.2s2.3.9,2.8,2.3c.5,1.5.5,2.9-.9,4.2-2,1.7-5.3,1.2-6.2-1.7,0-.2,0-.5-.3-.5v-1.5l.2-.2h-.1Z"/>
        <path class="st18" d="M493.2,437.6c0,.9-.6,1.5-1.2,2-1.4,1.1-3.7,1.7-5.4.3-.3-.3-.5-.8-.6-1.1-.8-1.4-.9-3.4.6-4.6,1.1-.9,2.3-1.2,3.7-.8,1.7.5,2.2,1.7,2.6,3.1,0,.2.2.8.2.9l.2.2h-.1Z"/>
        <path class="st18" d="M448.5,362.8h-4c-1.2,0-1.9-.6-1.9-1.9,0-3.6-.3-7.3-.6-10.8-.3-5.4-.6-10.8-1.1-16.3-.3-4.8-2.8-8.2-7-10.5-2.5-1.4-5.1-2.2-8-2.2s-5.4,1.1-7.6,2.9c-1.1.9-2.2,1.9-3.4,2.8-1.2,1.1-2.3.9-3.4,0-1.9-1.7-3.9-3.6-5.7-5.3-1.2-1.2-1.2-2.2,0-3.4,2.3-2.2,4.8-4.3,7.1-6.5,5.6-5.1,11.3-10.1,16.9-15,5.7-5.1,11.5-10.2,17.2-15.2.3-.3.8-.6,1.2-.9,1.1-.8,2.2-.5,2.8.8.3.8.5,1.7.5,2.5.3,6.2.5,12.4.8,18.6.3,6,.5,12.1.8,18.1.2,4.8.5,9.8.6,14.6.3,6.8.6,13.5.9,20.3,0,1.7.2,3.4.2,5.1s-.6,2.3-2.3,2.5h-4l.2-.2h-.2ZM437.3,316.7c4,0,7-2.9,7-6.2s-2.5-7-6.2-7.1c-4,0-7.3,3.4-7.1,6.5,0,3.6,2.9,7,6.3,6.8h0Z"/>
      </g>
      <g id="Accents_2">
        <path class="st33" d="M306.8,437c.2-.9.5-1.9,1.1-2.8,1.1-1.4,2.8-1.7,4.3-.8,1.1.6,2,1.4,2,2.6,0,2-1.2,4.8-4,4.2h-.8c-1.4-.5-2.3-1.1-2.8-2.6v-.6h.2,0Z"/>
        <path class="st33" d="M492.9,363.9c-.3.8-.6,1.5-1.4,2-1.7,1.1-4.2.6-5.3-1.1-.8-1.1-.6-2.3-.2-3.6.2-.5.5-1.1.9-1.5,1.4-.9,2.8-.9,4.2-.2,1.1.5,1.7,1.2,2,2.3,0,0-.2,1.4-.3,1.9v.2h.1Z"/>
        <path class="st33" d="M453.1,461.6c-.2,3.1-.5,6.3-.6,9.6-.2,3.1-.3,6.3-.5,9.6-.3,5.7-.6,11.5-1.1,17.2-.2,3.7-.5,7.4-.6,11,0,2.5-.3,5.1-.5,7.6v.6c-.5,1.7-1.4,2-2.9,1.4-.6-.3-1.1-.8-1.5-1.1-9.3-8.5-18.7-17.2-28-25.7-7-6.5-14.1-12.8-21.1-19.3-2.3-2.2-4.6-4.2-7-6.3-.5-.5-1.1-.9-1.2-1.7-.3-.6-.2-1.4.3-1.9,2-2,4-4.2,6-6.2.9-.8,1.7-.8,2.8,0,.9.8,1.9,1.7,2.8,2.6,3.9,3.7,8,7.1,12.1,10.7,1.7,1.4,3.3,3.1,4.8,4.5,2.6,2.3,5.6,3.7,9.1,3.4,5-.3,9.3-2.3,12.2-6.3,1.2-1.7,1.7-3.7,1.9-5.9,0-1.4.2-2.6.3-4,0-1.7.8-2.3,2.3-2.5,1.2,0,2.3,0,3.6-.2,1.5,0,2.9,0,4.5-.2,1.7,0,2.3.6,2.3,2.3v.9-.2.1ZM436.9,495.3c3.4,0,6-2.9,6.3-6.3.3-4-3.7-7-6.7-7s-6.5,3.4-6.7,6.8c-.2,2.8,3.6,6.8,7.1,6.3l-.2.2h.2Z"/>
        <path class="st33" d="M411.8,336.2c0,.5-.2.9-.6,1.4l-6,6c-.8.8-1.5.8-2.5,0s-1.7-1.5-2.6-2.3c-5-4.6-10.2-9-15.2-13.5-1.1-.9-2-1.9-3.1-2.8-3.1-2.5-6.7-3.3-10.5-2.3-3.7.9-7,2.5-9.4,5.6-1.4,1.9-2.2,3.9-2.3,6.2,0,1.5-.3,3.1-.5,4.6,0,1.2-.8,1.9-2,2-.9.2-2,0-2.9.2-1.9,0-3.6.2-5.4.2s-2.2-.5-2.2-2,0-3.7.2-5.6c.2-3.9.5-7.9.6-11.8.3-5.3.6-10.7.9-15.9.3-4.8.6-9.6.8-14.6.2-2.8.3-5.4.5-8.2,0-.6,0-1.1.3-1.7.3-.8,1.1-1.1,1.9-.9.9.2,1.7.8,2.3,1.4,5.1,4.6,10.2,9.3,15.3,13.9,9.1,8.4,18.1,16.7,27.2,24.9,4.5,4.2,9.1,8.4,13.6,12.5.6.6,1.2,1.1,1.2,2.2l.5.5h-.1ZM363.2,304.3c-3.4-.6-6.7,3.1-6.5,7.1,0,2.8,2.6,5.9,7.1,5.9s6.2-2.9,6.2-7-3.3-6.7-7-6.2l.2.2h0Z"/>
      </g>
      <g id="Accents_1">
        <path class="st21" d="M361.2,493.5c-.9-.5-1.4-1.2-1.9-2-.5-.9-.5-1.9-.3-2.8.3-1.4,2-2.3,3.4-2.5,2.2-.2,3.3.9,3.7,2.8.5,1.9-.2,3.7-2.3,4.3-.5,0-.8.3-1.2.5,0,0-1.1,0-1.5-.3h.2-.1Z"/>
        <path class="st21" d="M363.5,349.8v5.9c0,1.5-.6,2.2-2.2,2.2s-3.9,0-5.7.2c-3.4.3-6.7.5-10.1.8-2.6.2-5.4.3-8,.5-1.7,0-3.6,0-5.3.5-2.9.8-5.3,2.3-7,4.8-1.9,2.8-3.1,5.7-3.3,9.1,0,3.1.8,5.7,2.6,8,.9,1.1,2,2.3,2.9,3.4,1.1,1.4,1.1,2.3,0,3.7-1.7,1.9-3.4,3.7-5.1,5.4-1.4,1.4-2.3,1.4-3.6,0-4-4.5-7.9-8.8-11.9-13.3-5.3-5.9-10.5-11.8-15.8-17.6-3.1-3.4-6-6.8-9.1-10.4-.3-.3-.6-.8-.8-1.2-.5-.9-.2-1.9.8-2.3.8-.3,1.5-.5,2.3-.6,5-.2,9.9-.5,14.9-.6,4-.2,7.9-.3,11.9-.5,7.7-.3,15.5-.8,23.2-1.1,4.5-.2,9.1-.3,13.6-.6,4.3-.2,8.7-.5,13-.6h.6c1.2,0,1.9.6,2,1.9,0,.8,0,1.5.2,2.3l-.3.3.2-.2ZM317.5,362.8c0-1.9-.6-3.6-2.2-5-1.2-1.1-2.6-2-4.5-1.9-1.7.2-3.3.8-4.5,2s-2,1.9-2,3.3v2.5c0,.5,0,1.1.3,1.5.8,1.1,1.5,2.2,2.5,2.9,1.2,1.1,2.8,1.4,4.3,1.2,1.7-.3,3.3-.9,4.3-2.3.9-1.1,1.7-2.5,1.5-4.2l.2-.2.1.2Z"/>
        <path class="st21" d="M436.6,448.3v-3.7c0-1.7.6-2.3,2.3-2.3,4.2,0,8.2-.3,12.4-.6,3.1-.3,6.3-.5,9.4-.6,1.7,0,3.6-.2,5.3-.3,3.9-.3,7.1-2.2,9.3-5.4,1.9-2.9,3.1-6,3.1-9.4s-.9-5-2.6-7c-.9-1.2-2-2.3-2.9-3.6-1.2-1.4-1.2-2.5,0-3.9,1.7-1.9,3.3-3.6,5-5.4l.3-.3c1.1-.9,1.9-.9,2.9,0,1.1,1.1,2,2.2,3.1,3.4,8.4,9.3,16.6,18.7,24.9,28,2.9,3.3,5.7,6.5,8.7,9.8.5.5.9,1.1,1.2,1.5.6,1.1.3,2-.8,2.5-.8.3-1.5.5-2.3.5-5.7.3-11.5.5-17.2.8-4,.2-8,.3-12.1.5-9.8.5-19.7.9-29.4,1.2-4.6.2-9.1.3-13.8.6-1.5,0-2.9,0-4.5.2-1.5,0-2.2-.6-2.3-2.2v-4.3ZM483,437c0,1.2.3,2.5.9,3.7,1.2,2.2,3.3,3.4,5.7,3.3,2,0,3.9-.9,5.3-2.6.5-.6,1.2-1.1,1.4-2,.3-1.5.3-3.1-.5-4.6s-.3-.6-.5-.9c-.8-1.4-1.9-2.5-3.4-2.8-1.9-.5-3.6-.5-5.3.5-2.2,1.2-3.4,2.9-3.6,5.4l-.2.2.2-.2Z"/>
        <path class="st21" d="M437.6,313.9c-2.2,0-3.6-1.7-3.7-3.9,0-2.2,2.3-3.6,4.3-3.7,1.4,0,3.3,2.5,3.3,4.3s-1.7,3.4-3.9,3.3h0Z"/>
      </g>
      <g id="Heart">
        <path class="st42" d="M449.7,384.4v4c-.5,5.4-1.9,10.4-4.3,15.3-2.8,5.6-6.5,10.2-10.7,14.7-1.9,2-3.9,3.9-6,5.7-2.6,2.5-5.3,4.8-8,7.1-5,4-9.9,7.7-15.3,11.3-1.2.8-2.3,1.7-3.7,2.2-.5,0-1.5.3-1.7.3-1.2-.3-2.3-.8-3.4-1.4-2.5-1.7-5.1-3.4-7.4-5.1-5.9-4.3-11.6-8.8-17-13.8-3.1-2.9-6-5.9-9-9-3.7-4.2-7-8.8-9.3-13.9-2-4.8-3.3-9.8-3.6-15-.2-4.8.6-9.4,2.3-13.9,1.2-3.3,2.9-6.3,5.3-8.8,3.6-4,8.2-6.3,13.3-7.6,1.5-.3,6-.8,6.8-.8s2.6,0,2.8.2c2.6.3,5.1,1.1,7.4,2.2,3.9,1.9,7,4.6,9.9,7.9.5.5.8,1.1,1.4,1.5s.9.5,1.5,0c.2-.2.5-.3.6-.6,1.7-2,3.4-3.9,5.4-5.4,3.1-2.3,6.3-4.2,10.2-5,1.4-.3,5.4-.6,6-.6s4.5.3,5.9.6c4.2,1.1,7.7,2.9,11,5.7,4.6,4,7.7,9.1,9,15.2.3,1.5.8,6.5.8,7.6l-.2-.6h0ZM378.8,360.2c-1.5-.5-4.2-.3-6.2.2-4.6,1.2-8.4,4-11.6,7.4-3.1,3.4-4.6,7.4-4.5,12.1,0,.2,0,.5.2.5.3,0,.3-.3.3-.5.5-.9.9-2,1.4-2.9,2-4.5,5-8.2,9-11,2.6-1.7,5.4-3.1,8.2-4.5.9-.5,2-.9,3.1-1.5l.2.3-.1-.1ZM423.6,360.2c10.7,3.9,17.5,11.3,20.6,22.1.3-1.4.5-2.8.2-4.2-1.9-8.7-7-14.6-15.2-17.8-1.9-.8-3.7-.8-5.7-.3l.2.2h-.1Z"/>
      </g>
    </g>
  </g>
</svg>