<?xml version="1.0" encoding="UTF-8"?>
<svg id="Layer_2" xmlns="http://www.w3.org/2000/svg" version="1.1" viewBox="0 0 587.9 587.9">
  <!-- Generator: Adobe Illustrator 29.8.1, SVG Export Plug-In . SVG Version: 2.1.1 Build 2)  -->
  <defs>
    <style>
      .st0, .st1, .st2, .st3, .st4, .st5, .st6, .st7, .st8, .st9, .st10, .st11 {
        stroke-miterlimit: 10;
      }

      .st0, .st2, .st3, .st5, .st6, .st7, .st8, .st9, .st11 {
        stroke: #240c0c;
      }

      .st1 {
        stroke: #230000;
        stroke-width: 2px;
      }

      .st1, .st2, .st12, .st10 {
        fill: none;
      }

      .st13, .st6 {
        fill: #7ea740;
      }

      .st14, .st4 {
        fill: #fff;
      }

      .st3, .st15 {
        fill: #4caedc;
      }

      .st4 {
        stroke: #000;
      }

      .st5 {
        fill: #ff7415;
      }

      .st16, .st8 {
        fill: #ffc70f;
      }

      .st7 {
        fill: #5226a8;
      }

      .st17, .st11 {
        fill: #235daa;
      }

      .st18 {
        display: none;
      }

      .st19, .st9 {
        fill: #c02727;
      }

      .st10 {
        stroke: #231f20;
      }
    </style>
  </defs>
  <g id="circleset">
    <g id="Layer_8">
      <g>
        <line class="st12" x1="211.3" y1="-15.1" x2="377.1" y2="603.5"/>
        <line class="st12" x1="67.8" y1="67.8" x2="520.6" y2="520.6"/>
        <line class="st12" x1="-15.1" y1="211.3" x2="603.5" y2="377.1"/>
        <line class="st12" x1="-15.1" y1="377.1" x2="603.5" y2="211.3"/>
        <line class="st12" x1="67.8" y1="520.6" x2="520.6" y2="67.8"/>
        <line class="st12" x1="211.3" y1="603.5" x2="377.1" y2="-15.1"/>
      </g>
    </g>
    <g id="Layer_1_copy_2">
      <circle class="st2" cx="294.2" cy="294.2" r="153.6"/>
    </g>
    <g id="Layer_11">
      <circle class="st2" cx="294.2" cy="294.2" r="217.5"/>
    </g>
    <g id="Layer_27">
      <circle class="st10" cx="294.2" cy="294.2" r="293.3"/>
    </g>
  </g>
  <g id="circleset_copy">
    <g id="Layer_27_copy">
      <path class="st9" d="M294.2,140.6c13.8,0,27.1,1.8,39.8,5.2l16.5-61.7c-18-4.8-36.8-7.4-56.3-7.4s-38.3,2.6-56.3,7.4l16.5,61.7c12.7-3.4,26-5.2,39.8-5.2Z"/>
      <path class="st5" d="M254.4,145.8l-16.5-61.7c-37.4,10-70.9,29.7-97.5,56.3l45.2,45.2c18.8-18.8,42.4-32.7,68.9-39.8h-.1Z"/>
      <path class="st2" d="M185.6,185.6l-45.2-45.2c-26.6,26.6-46.3,60.1-56.3,97.5l61.7,16.5c7.1-26.4,21-50.1,39.8-68.9h0v.1Z"/>
      <path class="st8" d="M140.6,294.2c0-13.8,1.8-27.1,5.2-39.8l-61.7-16.5c-4.8,18-7.4,36.8-7.4,56.3s2.6,38.3,7.4,56.3l61.7-16.5c-3.4-12.7-5.2-26-5.2-39.8Z"/>
      <path class="st2" d="M402.8,185.6l45.2-45.2c-26.6-26.6-60.1-46.3-97.5-56.3l-16.5,61.7c26.4,7.1,50.1,21,68.9,39.8h-.1Z"/>
      <path class="st7" d="M442.6,254.4l61.7-16.5c-10-37.4-29.7-70.9-56.3-97.5l-45.2,45.2c18.8,18.8,32.7,42.4,39.8,68.9h0v-.1Z"/>
      <path class="st2" d="M504.3,237.9l-61.7,16.5c3.4,12.7,5.2,26,5.2,39.8s-1.8,27.1-5.2,39.8l61.7,16.5c4.8-18,7.4-36.8,7.4-56.3s-2.6-38.3-7.4-56.3h0Z"/>
      <path class="st2" d="M145.8,334l-61.7,16.5c10,37.4,29.7,70.9,56.3,97.5l45.2-45.2c-18.8-18.8-32.7-42.4-39.8-68.9h0v.1Z"/>
      <path class="st3" d="M334,442.6l16.5,61.7c37.4-10,70.9-29.7,97.5-56.3l-45.2-45.2c-18.8,18.8-42.4,32.7-68.9,39.8h.1Z"/>
      <path class="st11" d="M402.8,402.8l45.2,45.2c26.6-26.6,46.3-60.1,56.3-97.5l-61.7-16.5c-7.1,26.4-21,50.1-39.8,68.9h0v-.1Z"/>
      <path class="st2" d="M294.2,447.8c-13.8,0-27.1-1.8-39.8-5.2l-16.5,61.7c18,4.8,36.8,7.4,56.3,7.4s38.3-2.6,56.3-7.4l-16.5-61.7c-12.7,3.4-26,5.2-39.8,5.2Z"/>
      <path class="st6" d="M185.6,402.8l-45.2,45.2c26.6,26.6,60.1,46.3,97.5,56.3l16.5-61.7c-26.4-7.1-50.1-21-68.9-39.8h.1Z"/>
    </g>
  </g>
  <g id="Layer_16_copy">
    <g id="I" class="st18">
      <path class="st14" d="M303.3,125.1h-20.5v-.7h.8c.3,0,.9,0,1.7-.2.8-.1,1.4-.3,1.7-.7.3-.4.5-1,.6-1.9v-24.7c-.2-.9-.4-1.6-.7-1.9-.3-.4-.9-.6-1.8-.7l-2.4-.2v-.7h20.4v.7h-2.4c-.9.2-1.5.4-1.8.8-.3.3-.5,1-.6,2v24.9c.2,1,.4,1.6.7,1.9.3.3,1,.6,1.9.7h2.3v.8h0l.1-.1h0Z"/>
    </g>
    <g id="II" class="st18">
      <path class="st14" d="M450.7,230l-10.3-17.8.6-.3c0,.2.2.4.4.7.2.3.5.8,1,1.4s1,1,1.5,1.1,1.2,0,2-.4l1.8-.9,17.9-10.4,1.7-1.1c.8-.5,1.2-1,1.4-1.5.2-.4,0-1.1-.3-1.9l-1-2.1.6-.3,10.2,17.7-.6.3-1.3-2c-.5-.7-1-1.2-1.5-1.3s-1.1,0-2,.5l-1.8.9-18.1,10.4-1.7,1.1c-.8.6-1.2,1.1-1.4,1.5,0,.5,0,1.1.3,1.9l1,2-.6.3.2.2h0Z"/>
    </g>
    <g id="III" class="st18">
      <g>
        <path class="st14" d="M446,366l10.3-17.8.6.3c0,.2-.2.4-.4.7-.2.3-.4.8-.7,1.6-.3.7-.4,1.4-.2,1.8.2.5.6,1,1.3,1.5l1.7,1.1,17.9,10.4,1.8.9c.8.4,1.5.5,2,.5s1-.5,1.5-1.2l1.3-2,.6.3-10.2,17.7-.6-.3,1.1-2.1c.4-.8.5-1.5.4-1.9s-.6-.9-1.4-1.5l-1.7-1.1-18.1-10.4-1.8-.9c-.9-.4-1.5-.5-2-.4s-1,.5-1.5,1.3l-1.2,1.9-.6-.3h0l-.1-.1h0Z"/>
        <path class="st14" d="M434.3,386.2l10.3-17.8.6.3c0,.2-.2.4-.4.7-.2.3-.4.8-.7,1.6-.3.7-.4,1.4-.2,1.8.2.5.6,1,1.3,1.5l1.7,1.1,17.9,10.4,1.8.9c.8.4,1.5.5,2,.5s1-.5,1.5-1.2l1.3-2,.6.3-10.2,17.7-.6-.3,1.1-2.1c.4-.8.5-1.5.4-1.9s-.6-.9-1.4-1.5l-1.7-1.1-18.1-10.4-1.8-.9c-.9-.4-1.5-.5-2-.4s-1,.5-1.5,1.3l-1.2,1.9-.6-.3h0l-.1-.1h0Z"/>
        <path class="st14" d="M422.6,406.5l10.3-17.8.6.3c0,.2-.2.4-.4.7-.2.3-.4.8-.7,1.6-.3.7-.4,1.4-.2,1.8s.6,1,1.3,1.5l1.7,1.1,17.9,10.4,1.8.9c.8.4,1.5.5,2,.5s1-.5,1.5-1.2l1.3-2,.6.3-10.2,17.7-.6-.3,1.1-2.1c.4-.8.5-1.5.4-1.9s-.6-.9-1.4-1.5l-1.7-1.1-18.1-10.4-1.8-.9c-.9-.4-1.5-.5-2-.4s-1,.5-1.5,1.3l-1.2,1.9-.6-.3h0l-.1-.1h0Z"/>
      </g>
    </g>
    <g id="IV" class="st18">
      <g>
        <path class="st14" d="M383.7,436.1l17.8-10.3.3.6c-.2,0-.4.2-.7.4-.3.2-.8.5-1.4,1s-1,1-1.1,1.5,0,1.2.4,2l.9,1.8,10.4,17.9,1.1,1.7c.5.8,1,1.2,1.5,1.4.4.2,1.1,0,1.9-.3l2.1-1,.3.6-17.7,10.2-.3-.6,2-1.3c.7-.5,1.2-1,1.2-1.5s0-1.1-.5-2l-.9-1.8-10.4-18.1-1.1-1.7c-.6-.8-1.1-1.2-1.5-1.4-.5,0-1.1,0-1.9.3l-2,1-.3-.6v.2h-.1,0Z"/>
        <path class="st14" d="M368,481.1c.2-.2.5-.3.8-.5s.7-.5,1.3-1c.6-.5,1-1,1.3-1.6s.3-1.4.2-2.4l-.5-3.6-4.8-26,3.9-2.2,20.2,17.2,2.9,2.3c.8.6,1.5.9,2.1,1.1.5,0,1.2,0,1.9-.2l1.6-.7.3.6-17.5,10.1-.3-.6,1.6-1.1c.5-.4.9-.8,1.1-1.1.3-.3.2-.8-.2-1.5-.3-.5-.9-1.1-1.9-2s-2.4-2.1-4.3-3.7-4.6-3.8-8.3-6.8c.5,2.9,1,5.8,1.6,8.9s1,5.2,1.3,6.5.6,2.2,1,2.8.8,1,1.2,1.1h1.4c.5,0,.9-.3,1.3-.5s.8-.4,1.1-.6l.3.6-10,5.8-.3-.6-.3-.2h0v-.1h0Z"/>
      </g>
    </g>
    <g id="V" class="st18">
      <path class="st14" d="M180.3,457.5c.2,0,.5.2.8.4s.8.4,1.5.6,1.4.4,2,.3c.6,0,1.4-.4,2.2-1l2.8-2.3,20-17.2,3.9,2.2-4.8,26.1-.5,3.6c0,1,0,1.8.1,2.4.2.5.5,1,1.2,1.5l1.5,1-.3.6-17.5-10.1.3-.6,1.7.8c.6.2,1.1.4,1.5.4s.8-.2,1.2-.9c.3-.5.5-1.3.8-2.7.3-1.3.6-3.2,1-5.6s1-5.9,1.8-10.6c-2.2,1.9-4.6,3.8-6.9,5.8-2.4,2-4,3.5-5,4.4s-1.6,1.7-1.9,2.2c-.4.6-.5,1.2-.3,1.6s.4.8.8,1.1.7.6,1.1.8.7.5,1,.7l-.3.6-10-5.8.3-.6v.3h0Z"/>
    </g>
    <g id="VI" class="st18">
      <g>
        <path class="st14" d="M95,286.4v.9c0,.3,0,.9.2,1.6.1.7.4,1.4.7,1.9.4.5,1,1,2,1.4l3.4,1.3,24.9,8.8v4.5l-25,8.9-3.4,1.4c-.9.4-1.6.9-2,1.3s-.6,1-.7,1.7l-.2,1.8h-.7v-20.2h.7l.2,1.9c.1.6.2,1.2.4,1.5.1.4.6.6,1.4.6s1.4-.2,2.7-.6,3.1-1.1,5.3-1.9c2.3-.8,5.6-2.1,10.1-3.8-2.7-1-5.6-2-8.5-3.1-2.9-1-5-1.8-6.3-2.1-1.3-.4-2.3-.6-2.9-.6s-1.2.2-1.5.5-.5.8-.6,1.2c-.1.5-.2.9-.2,1.4v1.2h-.7v-11.6h.7v.1h0Z"/>
        <path class="st14" d="M126.1,266.6v20.5h-.7v-.8c0-.3,0-.9-.2-1.7-.1-.8-.3-1.4-.7-1.7-.4-.3-1-.5-1.9-.6h-24.7c-.9.2-1.6.4-1.9.7-.4.3-.6.9-.7,1.8l-.2,2.4h-.7v-20.4h.7v2.4c.2.9.4,1.5.8,1.8.3.3,1,.5,2,.6h24.9c1-.2,1.6-.4,1.9-.7.3-.3.6-1,.7-1.9v-2.3h.8-.1v-.1h0Z"/>
      </g>
    </g>
    <g id="VII" class="st18">
      <g>
        <path class="st14" d="M190.9,124.3c-.2.2-.5.3-.8.5s-.7.5-1.3,1-1,1-1.3,1.6-.3,1.4-.2,2.4l.5,3.6,4.8,26-3.9,2.2-20.2-17.2-2.9-2.3c-.8-.6-1.5-.9-2.1-1.1-.5-.1-1.2,0-1.9.2l-1.6.7-.3-.6,17.5-10.1.3.6-1.6,1.1c-.5.4-.9.8-1.1,1.1-.3.3-.2.8.2,1.5.3.5.9,1.1,1.9,2s2.4,2.1,4.3,3.7c1.9,1.6,4.6,3.8,8.3,6.8-.5-2.9-1-5.8-1.6-8.9-.6-3.1-1-5.2-1.3-6.5s-.6-2.2-1-2.8-.8-1-1.2-1.1c-.4,0-.9,0-1.4.1s-.9.3-1.3.5-.8.4-1.1.6l-.3-.6,10-5.8.3.6.3.2h0Z"/>
        <path class="st14" d="M223.6,141.3l-17.8,10.3-.3-.6c.2-.1.4-.2.7-.4s.8-.5,1.4-1,1-1,1.1-1.5,0-1.2-.4-2l-.9-1.8-10.4-17.9-1.1-1.7c-.5-.8-1-1.2-1.5-1.4-.4-.2-1.1,0-1.9.3l-2.1,1-.3-.6,17.7-10.2.3.6-2,1.3c-.7.5-1.2,1-1.3,1.5,0,.4,0,1.1.5,2l.9,1.8,10.4,18.1,1.1,1.7c.6.8,1.1,1.2,1.5,1.4.5.1,1.1,0,1.9-.3l2-1,.3.6.2-.2h0Z"/>
        <path class="st14" d="M243.8,129.6l-17.8,10.3-.3-.6c.2-.1.4-.2.7-.4s.8-.5,1.4-1,1-1,1.1-1.5,0-1.2-.4-2l-.9-1.8-10.4-17.9-1.1-1.7c-.5-.8-1-1.2-1.5-1.4s-1.1,0-1.9.3l-2.1,1-.3-.6,17.7-10.2.3.6-2,1.3c-.7.5-1.2,1-1.3,1.5,0,.4,0,1.1.5,2l.9,1.8,10.4,18.1,1.1,1.7c.6.8,1.1,1.2,1.5,1.4.5.1,1.1,0,1.9-.3l2-1,.3.6.2-.2h0Z"/>
      </g>
    </g>
    <path class="st14" d="M301.33,86.13v47.43h-11.84v-25.43c0-3.67-.09-5.88-.26-6.62-.18-.74-.66-1.3-1.45-1.68s-2.55-.57-5.29-.57h-1.17v-5.53c5.72-1.23,10.07-3.76,13.04-7.6h6.97Z"/>
    <path class="st14" d="M446.76,220.72l-7,4.04-13.02-22.55,5.86-3.38c14.78.37,23.84.44,27.16.2s5.71-.78,7.17-1.62c1.12-.64,1.84-1.32,2.17-2.02.33-.7.27-1.44-.18-2.21-.45-.78-1.09-1.18-1.92-1.21-.83-.03-2.15.48-3.96,1.52l-3.91,2.26-5.3-9.18,1.5-.87c2.3-1.33,4.18-2.26,5.65-2.79,1.46-.53,3.11-.7,4.93-.51s3.49.84,5.01,1.94c1.52,1.11,2.88,2.7,4.08,4.78,2.35,4.08,3.12,7.74,2.31,11-.82,3.26-2.77,5.78-5.87,7.56-2.35,1.36-5.18,2.21-8.48,2.54-3.3.34-10.87.09-22.69-.75l6.49,11.24h0Z"/>
    <path class="st14" d="M452.85,395.6c-1.42,1.25-2.95,1.92-4.58,1.99s-4.65-1.16-9.05-3.7c-3.27-1.88-5.59-3.72-6.96-5.5-1.37-1.79-2-3.86-1.89-6.23.12-2.37,1-4.98,2.65-7.84,1.88-3.25,3.89-5.48,6.05-6.71,2.16-1.22,4.2-1.67,6.12-1.34s4.83,1.62,8.74,3.88l3.25,1.88-5.92,10.25-6.67-3.85c-1.78-1.03-2.97-1.57-3.57-1.64s-1.12.26-1.54.99c-.46.79-.46,1.5,0,2.1.46.61,1.98,1.65,4.55,3.13l2.84,1.64c1.57.91,2.83,1.39,3.76,1.46s1.71-.18,2.34-.75c.63-.56,1.54-1.83,2.72-3.81l5.96,3.44c-1.41,2.44-2.18,4-2.33,4.68s.02,1.33.5,1.95c.48.61,1.39,1.31,2.72,2.08l2.28,1.32c1.44.83,2.47,1.23,3.1,1.2s1.12-.36,1.48-.99c.41-.71.45-1.34.12-1.88-.33-.54-1.28-1.26-2.86-2.17l-3.37-1.95,5.92-10.25,3.5,2.02c3.92,2.27,6.06,4.69,6.4,7.28s-.61,5.84-2.87,9.74c-2.82,4.89-5.69,7.65-8.61,8.29s-6.07-.02-9.47-1.98c-2.3-1.33-3.78-2.6-4.44-3.82s-.96-2.85-.9-4.92h.03Z"/>
    <path class="st14" d="M389.41,479.67l-15.5-26.84-2.92,1.68-4.04-7,2.92-1.68-4.17-7.23,10.25-5.92,4.17,7.23,12.18-7.03,4.04,7,6.64,31.96-13.57,7.84h0ZM384.16,446.91l10.09,17.48-5.56-20.1-4.53,2.62Z"/>
    <path class="st14" d="M176.6,467.12l3.79-6.57,12.71,7.34,4.03-6.98c-2.67.96-5.26.72-7.77-.73-2.82-1.63-4.5-3.65-5.04-6.07-.53-2.42.5-5.87,3.1-10.37l3.38-5.86c1.68-2.91,3.05-4.96,4.12-6.17,1.06-1.2,2.39-2.12,3.97-2.75s3.37-.78,5.36-.46c1.99.33,4.16,1.17,6.51,2.52,2.64,1.52,4.7,3.33,6.18,5.41,1.48,2.08,2.12,4.28,1.91,6.6-.21,2.32-1.42,5.38-3.62,9.21l-1.29,2.23-10.25-5.92,1.48-2.56c1.53-2.66,2.53-4.59,2.99-5.82.46-1.22.14-2.15-.96-2.79-.51-.29-1.01-.37-1.51-.23-.5.14-.87.39-1.11.75s-1.2,1.96-2.89,4.79l-4.7,8.14c-.89,1.54-1.33,2.68-1.33,3.42s.37,1.33,1.12,1.76c.47.27.95.36,1.44.26.49-.1.87-.29,1.16-.57s.77-1.01,1.47-2.22l10.15,5.86-12.38,20.46-22-12.7-.02.02Z"/>
    <path class="st14" d="M97.98,279.27v11.84c-2.21,0-3.6.02-4.17.07-.58.05-1.06.28-1.45.7s-.59.99-.59,1.71c0,.61.19,1.1.56,1.49.37.39.85.62,1.44.67s1.77.09,3.54.09h7.56c-1.27-.6-2.22-1.49-2.86-2.67-.63-1.17-.95-2.62-.95-4.34,0-2.17.59-4.08,1.76-5.74,1.17-1.66,2.58-2.71,4.22-3.16s3.86-.67,6.65-.67h3.78c3.32,0,5.79.13,7.41.38s3.12.93,4.5,2.04c1.38,1.1,2.45,2.62,3.21,4.54.76,1.92,1.14,4.17,1.14,6.72,0,3.18-.44,5.79-1.32,7.82s-2.14,3.6-3.79,4.7c-1.65,1.1-3.38,1.75-5.2,1.93s-5.34.28-10.58.28h-6.56c-5.64,0-9.42-.08-11.32-.25s-3.71-.84-5.41-2.04c-1.7-1.19-2.97-2.82-3.82-4.88s-1.27-4.44-1.27-7.13c0-3.32.54-6.04,1.61-8.17s2.59-3.65,4.54-4.57c1.95-.92,4.41-1.38,7.38-1.38v.02ZM112.77,291.1c-1.68,0-2.83.19-3.46.56-.62.37-.94.98-.94,1.82s.3,1.42.89,1.8c.6.38,1.76.57,3.5.57h8.58c2.09,0,3.46-.18,4.1-.54s.97-.96.97-1.8c0-.51-.25-1.04-.75-1.58-.5-.55-1.84-.82-4.03-.82h-8.88.02Z"/>
    <path class="st14" d="M198.6,109.67l5.17,8.95,12,35.91-10.2,5.89-12.16-37.91-10.14,5.85-4.26-7.38s19.59-11.31,19.59-11.31Z"/>
  </g>
  <g id="circleBack">
    <g id="slice12">
      <path class="st4" d="M237.9,84.1l-19.6-73.2c-50.5,13.5-95.6,40.1-131.5,76l53.6,53.6c26.6-26.6,60.1-46.3,97.5-56.3h0v-.1Z"/>
    </g>
    <g id="slice10">
      <path class="st4" d="M76.7,294.2c0-19.5,2.6-38.3,7.4-56.3l-73.2-19.6c-6.5,24.2-9.9,49.7-9.9,75.9s3.5,51.7,9.9,75.9l73.2-19.6c-4.8-18-7.4-36.8-7.4-56.3Z"/>
    </g>
    <g id="slice8">
      <path class="st4" d="M140.4,448l-53.6,53.6c35.9,35.9,81,62.5,131.5,76l19.6-73.2c-37.4-10-70.9-29.7-97.5-56.3h0v-.1h0Z"/>
    </g>
    <g id="slice6">
      <path class="st4" d="M350.5,504.3l19.6,73.2c50.5-13.5,95.6-40.1,131.5-76l-53.6-53.6c-26.6,26.6-60.1,46.3-97.5,56.3h0v.1Z"/>
    </g>
    <g id="slice5">
      <path class="st4" d="M504.3,350.5c-10,37.4-29.7,70.9-56.3,97.5l53.6,53.6c35.9-35.9,62.5-81,76-131.5l-73.2-19.6h-.1,0Z"/>
    </g>
    <g id="slice3">
      <path class="st4" d="M504.3,237.9l73.2-19.6c-13.5-50.5-40.1-95.6-76-131.5l-53.6,53.6c26.6,26.6,46.3,60.1,56.3,97.5h.1Z"/>
    </g>
    <g id="slice1">
      <path class="st4" d="M294.2,76.7c19.5,0,38.3,2.6,56.3,7.4l19.6-73.2c-24.2-6.5-49.7-9.9-75.9-9.9s-51.7,3.5-75.9,9.9l19.6,73.2c18-4.8,36.8-7.4,56.3-7.4Z"/>
    </g>
  </g>
  <g id="circleBack1">
    <g id="slice121">
      <path class="st1" d="M237.9,84.1l-19.6-73.2c-50.5,13.5-95.6,40.1-131.5,76l53.6,53.6c26.6-26.6,60.1-46.3,97.5-56.3h0v-.1Z"/>
    </g>
    <g id="slice111">
      <path class="st1" d="M140.4,140.4l-53.6-53.6C50.9,122.7,24.3,167.8,10.8,218.3l73.2,19.6c10-37.4,29.7-70.9,56.3-97.5h.1,0Z"/>
    </g>
    <g id="slice101">
      <path class="st1" d="M76.7,294.2c0-19.5,2.6-38.3,7.4-56.3l-73.2-19.6c-6.5,24.2-9.9,49.7-9.9,75.9s3.5,51.7,9.9,75.9l73.2-19.6c-4.8-18-7.4-36.8-7.4-56.3Z"/>
    </g>
    <g id="slice91">
      <path class="st1" d="M84.1,350.5l-73.2,19.6c13.5,50.5,40.1,95.6,76,131.5l53.6-53.6c-26.6-26.6-46.3-60.1-56.3-97.5h-.1Z"/>
    </g>
    <g id="slice81">
      <path class="st1" d="M140.4,448l-53.6,53.6c35.9,35.9,81,62.5,131.5,76l19.6-73.2c-37.4-10-70.9-29.7-97.5-56.3h0v-.1h0Z"/>
    </g>
    <g id="slice71">
      <path class="st1" d="M294.2,511.7c-19.5,0-38.3-2.6-56.3-7.4l-19.6,73.2c24.2,6.5,49.7,9.9,75.9,9.9s51.7-3.5,75.9-9.9l-19.6-73.2c-18,4.8-36.8,7.4-56.3,7.4h0Z"/>
    </g>
    <g id="slice61">
      <path class="st1" d="M350.5,504.3l19.6,73.2c50.5-13.5,95.6-40.1,131.5-76l-53.6-53.6c-26.6,26.6-60.1,46.3-97.5,56.3h0v.1Z"/>
    </g>
    <g id="slice51">
      <path class="st1" d="M504.3,350.5c-10,37.4-29.7,70.9-56.3,97.5l53.6,53.6c35.9-35.9,62.5-81,76-131.5l-73.2-19.6h-.1,0Z"/>
    </g>
    <g id="slice41">
      <path class="st1" d="M511.7,294.2c0,19.5-2.6,38.3-7.4,56.3l73.2,19.6c6.5-24.2,9.9-49.7,9.9-75.9s-3.5-51.7-9.9-75.9l-73.2,19.6c4.8,18,7.4,36.8,7.4,56.3h0Z"/>
    </g>
    <g id="slice31">
      <path class="st1" d="M504.3,237.9l73.2-19.6c-13.5-50.5-40.1-95.6-76-131.5l-53.6,53.6c26.6,26.6,46.3,60.1,56.3,97.5h.1Z"/>
    </g>
    <g id="slice21">
      <path class="st1" d="M448,140.4l53.6-53.6c-35.9-35.9-81-62.5-131.5-76l-19.6,73.2c37.4,10,70.9,29.7,97.5,56.3h0v.1Z"/>
    </g>
    <g id="slice13">
      <path class="st1" d="M294.2,76.7c19.5,0,38.3,2.6,56.3,7.4l19.6-73.2c-24.2-6.5-49.7-9.9-75.9-9.9s-51.7,3.5-75.9,9.9l19.6,73.2c18-4.8,36.8-7.4,56.3-7.4Z"/>
    </g>
  </g>
  <circle class="st0" cx="294.2" cy="294.2" r="153"/>
  <g>
    <g id="Accents_4">
      <path class="st16" d="M356.1,240.2c5.3.3,10.5.6,15.8.9s10.7.6,15.9.9c6.5.3,12.8.8,19.3,1.1,1.5,0,2.9,0,4.5.3h.5c1.4.5,1.7,1.1,1.2,2.6-.2.6-.6,1.2-1.1,1.7-6.3,7-12.5,13.8-18.9,20.7-8.8,9.6-17.5,19.2-26.3,28.8-2.2,2.3-4.2,4.6-6.3,7l-.6.6c-.9.8-1.9.8-2.8,0-.5-.5-.9-.9-1.5-1.4-1.4-1.4-2.9-2.8-4.3-4.2-1.2-1.2-1.2-2.2,0-3.3,5.3-5.6,10.2-11.5,15.3-17.2,1.1-1.2,2.2-2.3,3.1-3.6,2.3-3.1,3.1-6.7,2.2-10.4-.8-3.4-2.2-6.3-4.8-8.8-1.9-1.9-4.2-2.8-6.8-2.9-1.7,0-3.3-.2-5-.5-1.2-.2-1.9-.8-2-2-.2-2.6-.3-5.4-.3-8s.5-2.5,2.5-2.5h.5l-.1.2h0ZM384.9,263.9c.8,0,2.2-.8,3.3-1.9s1.1-1.4,1.5-2.2c.2-.5.6-.6.6-1.2s.2-1.5,0-2.5c0-.6,0-1.2-.5-1.9-1.5-2-3.3-3.6-5.9-3.9-1.9-.2-3.4.5-4.8,1.7-.8.6-1.1,1.4-1.5,2.2-.8,1.7-1.1,3.4-.3,5.1,1.2,2.8,3.4,4.2,7.3,4.3l.3.2v.1Z"/>
      <path class="st16" d="M231.7,347.8c-3.7-.2-7.3-.5-11-.6-2.5,0-4.8-.3-7.3-.5-3.9-.2-7.6-.5-11.5-.6-2.9-.2-5.9-.3-9-.5-5.1-.3-10.4-.6-15.5-.9-.5,0-1.1,0-1.5-.3-.9-.3-1.4-.9-1.2-2,.2-.9.8-1.5,1.2-2.2,3.1-3.4,6-6.7,9.1-10.1,5.9-6.5,11.8-13,17.6-19.3,5.1-5.6,10.2-11.1,15.3-16.9,3.1-3.3,6-6.7,9.1-9.9.3-.3.6-.6,1.1-.9,1.1-.8,2-.8,2.9,0l5.6,5.6c1.1,1.1,1.1,2,0,3.3-2.3,2.5-4.6,5-6.8,7.6-3.9,4.3-7.7,8.7-11.5,13.2-2.3,2.6-3.1,5.9-2.6,9.3.6,4,2.3,7.6,5.4,10.4,1.9,1.7,4,2.5,6.5,2.6,1.5,0,3.1.3,4.6.5,1.2,0,1.9.6,2,1.9,0,.8.2,1.5.2,2.5,0,2,.2,4.2.2,6.2s-.5,2-2,2h-1.5l.5-.2.1-.2h0ZM198.4,331.3v1.1c0,.6,0,1.4.5,1.9l1.4,1.4c1.7,1.5,3.7,2.3,6,1.9,2.5-.5,4-2.3,4.8-4.6.6-1.7.5-3.3-.5-5-.8-1.4-2-2.3-3.4-2.9-1.9-.8-3.6-.9-5.4,0-1.1.6-2,1.5-2.6,2.6-.3.6-.9,1.1-.9,1.7v1.9l.2.2-.1-.2Z"/>
      <path class="st16" d="M334.6,382.9c0,1.9-1.5,4-3.4,4s-4.2-1.9-4.2-3.7,1.4-4,3.7-3.9c2.2,0,4,1.4,3.9,3.6h0Z"/>
      <path class="st16" d="M258,208.7c-2.2,0-3.4-1.1-3.9-2.8v-1.4c.2-.9.6-1.9,1.4-2.5.6-.6,1.4-.8,2.2-.6s1.5.2,2.3.8c1.2.9,2,2.3,1.4,3.9-.5,1.2-1.1,2.2-2.3,2.6h-1.1Z"/>
    </g>
    <g>
      <g id="Accents_3">
        <path class="st13" d="M244.4,414c-1.2-.6-1.5-1.7-1.7-2.9-.2-3.1-.3-6-.5-9.1-.3-6.5-.6-13-.8-19.5-.3-8-.8-16.1-1.1-24.1-.2-4.6-.3-9.4-.6-14.1,0-3.3-.3-6.5-.5-9.9,0-2.3.6-2.9,2.8-2.9h7.4c1.4,0,2,.6,2,2,0,5,.5,9.8.8,14.7.3,4,.5,8,.8,12.1.2,3.1,1.1,6,3.4,8.2,3.3,2.9,7,4.8,11.5,4.8s5.3-.9,7.4-2.8c1.1-.9,2.2-1.9,3.4-2.9,1.4-1.2,2.5-1.1,3.7,0,1.7,1.5,3.6,3.3,5.3,4.8,0,0,.3.3.5.3,1.2,1.2,1.2,2.2,0,3.3-4.3,3.9-8.7,7.9-13,11.8-6.8,6.2-13.6,12.2-20.6,18.4-2.6,2.3-5.1,4.6-7.7,6.8-.6.5-1.2.9-1.9,1.2h-.6v-.2h0ZM263.1,384.1v-1.7c-.6-2.2-2-3.7-4-4.6-1.4-.6-2.9-.6-4.5,0-1.1.3-2,1.1-2.9,1.9-1.5,1.4-2.2,3.3-1.7,5.1.5,1.9,1.2,3.6,2.9,4.8,1.5,1.2,3.3,1.5,5,.9,1.2-.5,2.3-.9,3.3-2,1.2-1.2,2.2-2.6,1.9-4.5l.2.2-.2-.1h0Z"/>
        <path class="st13" d="M201,255.8c.3-.5.5-.9.9-1.4,1.1-.8,2.3-1.2,3.6-1.2s2.3.9,2.8,2.3c.5,1.5.5,2.9-.9,4.2-2,1.7-5.3,1.2-6.2-1.7,0-.2,0-.5-.3-.5v-1.5l.2-.2h-.1Z"/>
        <path class="st13" d="M387.4,331.8c0,.9-.6,1.5-1.2,2-1.4,1.1-3.7,1.7-5.4.3-.3-.3-.5-.8-.6-1.1-.8-1.4-.9-3.4.6-4.6,1.1-.9,2.3-1.2,3.7-.8,1.7.5,2.2,1.7,2.6,3.1,0,.2.2.8.2.9l.2.2h-.1Z"/>
        <path class="st13" d="M342.7,257h-4c-1.2,0-1.9-.6-1.9-1.9,0-3.6-.3-7.3-.6-10.8-.3-5.4-.6-10.8-1.1-16.3-.3-4.8-2.8-8.2-7-10.5-2.5-1.4-5.1-2.2-8-2.2s-5.4,1.1-7.6,2.9c-1.1.9-2.2,1.9-3.4,2.8-1.2,1.1-2.3.9-3.4,0-1.9-1.7-3.9-3.6-5.7-5.3-1.2-1.2-1.2-2.2,0-3.4,2.3-2.2,4.8-4.3,7.1-6.5,5.6-5.1,11.3-10.1,16.9-15,5.7-5.1,11.5-10.2,17.2-15.2.3-.3.8-.6,1.2-.9,1.1-.8,2.2-.5,2.8.8.3.8.5,1.7.5,2.5.3,6.2.5,12.4.8,18.6.3,6,.5,12.1.8,18.1.2,4.8.5,9.8.6,14.6.3,6.8.6,13.5.9,20.3,0,1.7.2,3.4.2,5.1s-.6,2.3-2.3,2.5h-4l.2-.2h-.2ZM331.5,210.9c4,0,7-2.9,7-6.2s-2.5-7-6.2-7.1c-4,0-7.3,3.4-7.1,6.5,0,3.6,2.9,7,6.3,6.8h0Z"/>
      </g>
      <g id="Accents_2">
        <path class="st17" d="M201,331.2c.2-.9.5-1.9,1.1-2.8,1.1-1.4,2.8-1.7,4.3-.8,1.1.6,2,1.4,2,2.6,0,2-1.2,4.8-4,4.2h-.8c-1.4-.5-2.3-1.1-2.8-2.6v-.6h.2Z"/>
        <path class="st17" d="M387.1,258.1c-.3.8-.6,1.5-1.4,2-1.7,1.1-4.2.6-5.3-1.1-.8-1.1-.6-2.3-.2-3.6.2-.5.5-1.1.9-1.5,1.4-.9,2.8-.9,4.2-.2,1.1.5,1.7,1.2,2,2.3,0,0-.2,1.4-.3,1.9v.2h.1,0Z"/>
        <path class="st17" d="M347.3,355.8c-.2,3.1-.5,6.3-.6,9.6-.2,3.1-.3,6.3-.5,9.6-.3,5.7-.6,11.5-1.1,17.2-.2,3.7-.5,7.4-.6,11,0,2.5-.3,5.1-.5,7.6v.6c-.5,1.7-1.4,2-2.9,1.4-.6-.3-1.1-.8-1.5-1.1-9.3-8.5-18.7-17.2-28-25.7-7-6.5-14.1-12.8-21.1-19.3-2.3-2.2-4.6-4.2-7-6.3-.5-.5-1.1-.9-1.2-1.7-.3-.6-.2-1.4.3-1.9,2-2,4-4.2,6-6.2.9-.8,1.7-.8,2.8,0,.9.8,1.9,1.7,2.8,2.6,3.9,3.7,8,7.1,12.1,10.7,1.7,1.4,3.3,3.1,4.8,4.5,2.6,2.3,5.6,3.7,9.1,3.4,5-.3,9.3-2.3,12.2-6.3,1.2-1.7,1.7-3.7,1.9-5.9,0-1.4.2-2.6.3-4,0-1.7.8-2.3,2.3-2.5,1.2,0,2.3,0,3.6-.2,1.5,0,2.9,0,4.5-.2,1.7,0,2.3.6,2.3,2.3v.9-.2.1h0ZM331.1,389.5c3.4,0,6-2.9,6.3-6.3.3-4-3.7-7-6.7-7s-6.5,3.4-6.7,6.8c-.2,2.8,3.6,6.8,7.1,6.3l-.2.2h.2Z"/>
        <path class="st17" d="M306,230.4c0,.5-.2.9-.6,1.4l-6,6c-.8.8-1.5.8-2.5,0s-1.7-1.5-2.6-2.3c-5-4.6-10.2-9-15.2-13.5-1.1-.9-2-1.9-3.1-2.8-3.1-2.5-6.7-3.3-10.5-2.3-3.7.9-7,2.5-9.4,5.6-1.4,1.9-2.2,3.9-2.3,6.2,0,1.5-.3,3.1-.5,4.6,0,1.2-.8,1.9-2,2-.9.2-2,0-2.9.2-1.9,0-3.6.2-5.4.2s-2.2-.5-2.2-2,0-3.7.2-5.6c.2-3.9.5-7.9.6-11.8.3-5.3.6-10.7.9-15.9.3-4.8.6-9.6.8-14.6.2-2.8.3-5.4.5-8.2,0-.6,0-1.1.3-1.7.3-.8,1.1-1.1,1.9-.9.9.2,1.7.8,2.3,1.4,5.1,4.6,10.2,9.3,15.3,13.9,9.1,8.4,18.1,16.7,27.2,24.9,4.5,4.2,9.1,8.4,13.6,12.5.6.6,1.2,1.1,1.2,2.2l.5.5h-.1ZM257.4,198.5c-3.4-.6-6.7,3.1-6.5,7.1,0,2.8,2.6,5.9,7.1,5.9s6.2-2.9,6.2-7-3.3-6.7-7-6.2l.2.2h0Z"/>
      </g>
      <g id="Accents_1">
        <path class="st15" d="M255.4,387.7c-.9-.5-1.4-1.2-1.9-2-.5-.9-.5-1.9-.3-2.8.3-1.4,2-2.3,3.4-2.5,2.2-.2,3.3.9,3.7,2.8.5,1.9-.2,3.7-2.3,4.3-.5,0-.8.3-1.2.5,0,0-1.1,0-1.5-.3h.2-.1Z"/>
        <path class="st15" d="M257.7,244v5.9c0,1.5-.6,2.2-2.2,2.2s-3.9,0-5.7.2c-3.4.3-6.7.5-10.1.8-2.6.2-5.4.3-8,.5-1.7,0-3.6,0-5.3.5-2.9.8-5.3,2.3-7,4.8-1.9,2.8-3.1,5.7-3.3,9.1,0,3.1.8,5.7,2.6,8,.9,1.1,2,2.3,2.9,3.4,1.1,1.4,1.1,2.3,0,3.7-1.7,1.9-3.4,3.7-5.1,5.4-1.4,1.4-2.3,1.4-3.6,0-4-4.5-7.9-8.8-11.9-13.3-5.3-5.9-10.5-11.8-15.8-17.6-3.1-3.4-6-6.8-9.1-10.4-.3-.3-.6-.8-.8-1.2-.5-.9-.2-1.9.8-2.3.8-.3,1.5-.5,2.3-.6,5-.2,9.9-.5,14.9-.6,4-.2,7.9-.3,11.9-.5,7.7-.3,15.5-.8,23.2-1.1,4.5-.2,9.1-.3,13.6-.6,4.3-.2,8.7-.5,13-.6h.6c1.2,0,1.9.6,2,1.9,0,.8,0,1.5.2,2.3l-.3.3.2-.2h0ZM211.7,257c0-1.9-.6-3.6-2.2-5-1.2-1.1-2.6-2-4.5-1.9-1.7.2-3.3.8-4.5,2s-2,1.9-2,3.3v2.5c0,.5,0,1.1.3,1.5.8,1.1,1.5,2.2,2.5,2.9,1.2,1.1,2.8,1.4,4.3,1.2,1.7-.3,3.3-.9,4.3-2.3.9-1.1,1.7-2.5,1.5-4.2l.2-.2.1.2h0Z"/>
        <path class="st15" d="M330.8,342.5v-3.7c0-1.7.6-2.3,2.3-2.3,4.2,0,8.2-.3,12.4-.6,3.1-.3,6.3-.5,9.4-.6,1.7,0,3.6-.2,5.3-.3,3.9-.3,7.1-2.2,9.3-5.4,1.9-2.9,3.1-6,3.1-9.4s-.9-5-2.6-7c-.9-1.2-2-2.3-2.9-3.6-1.2-1.4-1.2-2.5,0-3.9,1.7-1.9,3.3-3.6,5-5.4l.3-.3c1.1-.9,1.9-.9,2.9,0,1.1,1.1,2,2.2,3.1,3.4,8.4,9.3,16.6,18.7,24.9,28,2.9,3.3,5.7,6.5,8.7,9.8.5.5.9,1.1,1.2,1.5.6,1.1.3,2-.8,2.5-.8.3-1.5.5-2.3.5-5.7.3-11.5.5-17.2.8-4,.2-8,.3-12.1.5-9.8.5-19.7.9-29.4,1.2-4.6.2-9.1.3-13.8.6-1.5,0-2.9,0-4.5.2-1.5,0-2.2-.6-2.3-2.2v-4.3h0ZM377.2,331.2c0,1.2.3,2.5.9,3.7,1.2,2.2,3.3,3.4,5.7,3.3,2,0,3.9-.9,5.3-2.6.5-.6,1.2-1.1,1.4-2,.3-1.5.3-3.1-.5-4.6s-.3-.6-.5-.9c-.8-1.4-1.9-2.5-3.4-2.8-1.9-.5-3.6-.5-5.3.5-2.2,1.2-3.4,2.9-3.6,5.4l-.2.2.2-.2Z"/>
        <path class="st15" d="M331.8,208.1c-2.2,0-3.6-1.7-3.7-3.9,0-2.2,2.3-3.6,4.3-3.7,1.4,0,3.3,2.5,3.3,4.3s-1.7,3.4-3.9,3.3h0Z"/>
      </g>
      <g id="Heart">
        <path class="st19" d="M343.9,278.6v4c-.5,5.4-1.9,10.4-4.3,15.3-2.8,5.6-6.5,10.2-10.7,14.7-1.9,2-3.9,3.9-6,5.7-2.6,2.5-5.3,4.8-8,7.1-5,4-9.9,7.7-15.3,11.3-1.2.8-2.3,1.7-3.7,2.2-.5,0-1.5.3-1.7.3-1.2-.3-2.3-.8-3.4-1.4-2.5-1.7-5.1-3.4-7.4-5.1-5.9-4.3-11.6-8.8-17-13.8-3.1-2.9-6-5.9-9-9-3.7-4.2-7-8.8-9.3-13.9-2-4.8-3.3-9.8-3.6-15-.2-4.8.6-9.4,2.3-13.9,1.2-3.3,2.9-6.3,5.3-8.8,3.6-4,8.2-6.3,13.3-7.6,1.5-.3,6-.8,6.8-.8s2.6,0,2.8.2c2.6.3,5.1,1.1,7.4,2.2,3.9,1.9,7,4.6,9.9,7.9.5.5.8,1.1,1.4,1.5s.9.5,1.5,0c.2-.2.5-.3.6-.6,1.7-2,3.4-3.9,5.4-5.4,3.1-2.3,6.3-4.2,10.2-5,1.4-.3,5.4-.6,6-.6s4.5.3,5.9.6c4.2,1.1,7.7,2.9,11,5.7,4.6,4,7.7,9.1,9,15.2.3,1.5.8,6.5.8,7.6l-.2-.6h0ZM273,254.4c-1.5-.5-4.2-.3-6.2.2-4.6,1.2-8.4,4-11.6,7.4-3.1,3.4-4.6,7.4-4.5,12.1,0,.2,0,.5.2.5.3,0,.3-.3.3-.5.5-.9.9-2,1.4-2.9,2-4.5,5-8.2,9-11,2.6-1.7,5.4-3.1,8.2-4.5.9-.5,2-.9,3.1-1.5l.2.3-.1-.1h0ZM317.8,254.4c10.7,3.9,17.5,11.3,20.6,22.1.3-1.4.5-2.8.2-4.2-1.9-8.7-7-14.6-15.2-17.8-1.9-.8-3.7-.8-5.7-.3l.2.2h-.1Z"/>
      </g>
    </g>
  </g>
</svg>