<?xml version="1.0" encoding="UTF-8"?>
<svg xmlns="http://www.w3.org/2000/svg" version="1.1" viewBox="0 0 3565.7 847.66">
  <!-- Generator: Adobe Illustrator 29.8.5, SVG Export Plug-In . SVG Version: 2.1.1 Build 2)  -->
  <defs>
    <style>
      .st0 {
        fill: #010101;
      }

      .st1 {
        fill: #b7b6ad;
      }

      .st2, .st3 {
        fill: #fff;
      }

      .st4 {
        fill: #285080;
      }

      .st5 {
        fill: #2d5939;
      }

      .st6 {
        fill: #779c35;
      }

      .st3 {
        stroke: #000;
        stroke-miterlimit: 10;
        stroke-width: 5px;
      }

      .st7 {
        fill: #529ebf;
      }

      .st8 {
        display: none;
      }

      .st9 {
        fill: #f4b803;
      }

      .st10 {
        fill: #a61415;
      }
    </style>
  </defs>
  <g id="Layer_1" class="st8">
    <path class="st0" d="M1001.1-88.17V935.83H-22.9V-88.17H1001.1ZM80.1,233.83c-13.12,3.01-20.68,14.46-17.31,27.82,2.03,8.06,19.51,25.98,25.8,33.2,10.96,12.58,22.9,24.45,34.03,36.97,27.1,30.49,53.87,61.36,81.28,91.53l-135.21,150.57c-6.48,8.48-9.18,17.74-3.98,27.82,7.89,15.29,31.73,12.17,45.94,13.06,51.62,3.22,103.22,6.51,154.92,9.08,3.38.17,17.82-.94,19.1.9.47.68,1.37,14.13,1.48,16.52,3.06,65.22,5.1,130.64,9.02,195.98,5.39,14.38,15.46,21.61,30.98,17.1,8.41-2.44,23.71-19.59,30.95-26.06,38.13-34.06,76.21-68.73,114.03-102.97,2.68-2.42,16.12-16.83,18.35-16.44l149.62,137.45c11.75,11.74,29.64,13.51,39.02-2.01,6.77-11.19,4.38-36.46,4.95-50.05,1.89-45.2,4.05-90.62,6.08-135.92.5-11.18-.83-22.44.96-33.55,7.81-.27,15.73.36,23.54.05,47.63-1.91,95.29-5.18,142.97-8.03,12.69-.76,39.68.96,50.02-4.98,6.69-3.85,10.93-14.5,10.07-22.05-1.53-13.47-27.42-36.06-37.12-46.97-32.54-36.61-66.17-72.83-98-110-1.31-1.53-7.59-9.15-7.37-10.37,44.33-51.55,91.1-100.9,136.31-151.73,10.39-12.4,5.87-33.16-10.61-37.24-12.57-3.11-30.95-1.88-44.31-2.69-51.31-3.13-102.71-6.82-154-9.06-2.35-.1-7.47,1.43-8.56.65-2.13-1.52-1.71-22.26-1.96-26.07-3.28-50.35-5.22-101.05-7.98-151.02-.65-11.74,1.44-34.53-6.97-43.03-11.88-12-24.01-7.52-35.39,1.73-35.34,28.74-71.4,63.57-105.66,94.29-15.26,13.69-29.89,28.44-45.66,41.37-2.54.21-30.88-27.41-35.31-31.37-24.46-21.89-49.52-43.14-74.03-64.97-13.37-11.91-26.61-26.45-40.52-37.48-15.5-12.3-32.89-8.04-39.41,10.53-3.65,59.99-7.08,120-11.07,179.93-.35,5.25-1.81,11.84-1.99,17.01-.08,2.24,2.08,5.46.58,7.57-.47.65-11.08,1.8-13.08,1.92-61.29,3.65-123.58,4.34-184.49,10.01-3.87.36-5.88.06-10,1Z"/>
  </g>
  <g id="Layer_2">
    <path class="st0" d="M161.78,251.29c7.61-.56,15.83.41,23.51.04,41.76-2.02,83.6-5.17,125.15-7.39,13.63-.73,27.36-.47,40.95-1.85-2.04-5.83-2.05-10.91-1.88-17.06,1.32-47.73,6.73-98.47,10.15-146.32.64-8.98-.16-19.68.91-28.55,1.65-13.72,18.24-16.86,27.15-7.78l143.6,128.84c2.07-8.11,10.33-12.55,16.13-17.94,37.52-34.9,76.18-69.35,115.05-103.09,7.8-6.77,18.01-21.01,29.74-15.03,6.71,3.43,7.87,8.03,8.9,15.03,2.09,14.2,1.14,31.4,1.86,46,.83,16.8,1.99,33.77,2.79,50.59,1.56,32.69,2.83,65.39,4.57,98.06,3.48.08,6.13-2.76,9.65-2.77,5.67,0,13.52,1.58,19.35,1.84,49.35,2.16,98.92,3.62,148.17,7.38,4.92.38,14.98.69,19.08,2.09,8.79,2.98,12.72,14.85,7.58,22.72-38.89,43.74-78.76,86.3-117.79,129.8-1.88,2.1-14.28,15.92-14.27,17.03,0,.54,1.94.97,2.79,1.8,7.98,7.68,14.73,16.51,22.08,24.64,33.82,37.41,72.54,76.39,103.97,115.35,4.35,5.39,6.34,8.26,5.55,15.62-1.24,11.51-12.21,12.58-21.63,13.33-53.53,4.25-109.86,5.53-163.79,8.33-4.57.24-20.12-1.2-22.61,1.32-1.84,1.86-.68,23.1-.86,27.67-1.84,47.56-4.13,95.06-6.52,142.59-.45,9.05,1.96,28.99-4.52,35.72-.57.59-6.29,4.2-6.96,4.33-6.26,1.24-12.65-1.77-17.45-5.52-17.52-13.68-36.03-33.9-52.93-49.23-30.07-27.29-60.58-54.12-89.88-82.3-41.14,37.34-82.35,74.61-123.68,111.75-7.12,6.4-21.73,23.12-30.31,24.92-11.29,2.36-18.1-3.8-19.39-14.77-1.94-16.46-1.93-36.47-2.79-53.35-2.27-44.37-2.48-89.08-5.45-133.54-.1-1.43-1.08-9.28-1.36-9.69-1.1-1.63-12.73-.7-15.7-.87-56.24-3.23-114.46-4.51-170.27-9.21-6.04-.51-12.01-2.07-15.7-7.31-6.51-9.24-.7-16.26,5.13-23.48,36.38-45.11,80.11-88.23,118.23-132.12,1.5-1.73,7.34-6.6,7.83-7.82.65-1.65-7.03-3.99-7.84-5.95-41.42-45.65-82.06-92.15-123.25-138.15-4.59-6.27-3.9-14.93,1.78-20.18.67-.61,6.44-4.47,6.9-4.61,1.01-.3,6.66-.8,8.28-.92ZM681.81,166.62c11.72-23.99,13.25-26.09,12.85-53.81-.27-18.56.44-46.76-2.78-64.41-1.37-7.51-6.91-7.66-11.92-2.83-15.43,16.51-38.84,29.67-49.27,50.13-8.14,15.97-10.14,44.57-30.44,49.64-8.26,2.06-16.31-.85-24.75.1-7.19.82-13.53,6.16-18.88,10.57-2.18,3.61-16.39,12.72-15.5,16.35.62,2.51,10.22,11.75,12.74,14.05,3.09,2.82,10.74,10.18,14.44,10.34s19.33-15.48,24.49-18.37c27.78-15.58,62.9,2.57,66.81,33.9l4.9,92.66c23.89,21.71,35.57,49.21,38.46,81.2.39,4.36-.89,11.84.2,15.45.25.82,6.27,8.9,8.09,7.61l24.52-28.11c.78-2.95-9.17-10.66-11.65-13.34-3-3.25-7.92-8.37-10.48-11.61-11.92-15.13-9.37-64.53-10.63-85.09-.88-14.39-1.19-28.55-8.17-41.54-5.49-10.22-16.32-17.87-19.92-28.86-2.66-8.14-.55-14.14,1.36-22.06,2.9-3.24,3.68-8.19,5.52-11.97ZM386.9,53.79c-5.46-4.62-15.61-14.17-16.98-.73-2.49,24.37-2.24,49.12-4.53,73.52-.53,18.3,17.53,28.93,15.46,46.95-1.41,12.33-17.79,22.55-20.52,35.62-.9,4.32-1.42,12.19-1.6,16.8-.18,4.59-.98,9.05,4.37,10.43l33.41-2.09c4.01-8.11,2-17.03,4.33-26.04,7.89-30.57,47.78-42.47,72.49-23.19,21.63,16.87,42.08,39.4,63.06,57.52,9.52,8.22,18.22,15.34,31.11,17.67l83.02,16.83c.18-10.41-.33-20.9-1.93-31.19-15.68-1.08-31.47-1.44-47.07-3.1-6.13-1.27-10.67-4.7-15.43-8.5l-67.65-62.13c-1.68-.28-1.15.13-1.59,1.12-1.23,2.81-1.18,19.66,0,22.56,1.76,4.33,14.82,12.25,19.07,15.91,7.2,6.2,23.24,21.63,27.53,29.53.46.85,1.37,2.63,1.04,3.56-6.74-5.14-13.07-10.84-19.39-16.5-1.15-1.03-1.69-2.64-2.57-3.41-7.45-6.5-25.68-18.51-29.91-25.78-6.5-11.16,2.55-29.6-3.15-35.03-3.4-3.24-11.09,6.3-11.57,9.63-.13.89,3.38,10.79,4.06,12.13.85,1.71,3.47,2.34,3.15,4.67-9.47-.55-9.38-9.6-15.7-14.2-4.98-3.62-12.83-5.92-17.89-9.72-18.39-13.82-12.64-33.7-21.74-51.89-5.97-11.92-17.18-18.98-26.59-27.71-11.97-11.11-23.79-22.67-36.27-33.22ZM618.3,116.92l6-21.15c-1.87,1.77-13.9,11.46-14.19,12.57-.56,2.11,4.65,6.54,6.36,8.01.57.49,1.33,1.03,1.83.57ZM606.32,112.32c-1.2-.85-10.27,8.31-10.05,9.54.27,1.49,6.01,6.1,7.29,7.49,1.67,1.81,2.35,5.91,5.02,5.09.6-.18,6.96-9.86,6.85-10.48-.25-1.42-6.7-7.77-8.21-9.36-.72-.76-.81-2.2-.91-2.27ZM457.58,117.43c-.42-.37-.26-2.51-1.29-.96,4.01,9.17,3.8,20.62,7.08,29.74.4,1.1.89,3.3,2.57,2.91,1.16-.27,11.68-11.94,11.47-13.21-.36-2.12-16.95-15.91-19.83-18.48ZM603.58,138.99c.58-.76-3.78-5.84-4.62-6.87-.98-1.21-5.95-6.98-6.87-6.98-2.41-.01-4.2,4.23-5.79,5.58-1.11.95-12.9,8.65-11.24,10.11,10.03-.63,18.98,2.61,28.53-1.85ZM470.41,158.06c1.25,1.5,5.13,4.4,7.06,3.52s13.53-13.16,12.51-15.2c-.54-1.08-7.52-6.71-8.81-6.06-.79.4-11.17,12.63-11.54,13.44-.7,1.54-.26,3.04.78,4.3ZM374.4,167.54c.44-4.4-2.2-8.24-4.13-11.98-.59-1.15-5.54-10.75-6.92-9.18l-.9,20.22,11.95.94ZM682.74,177.65c2.45.18,14.14-.23,15.25-1.77,1.58-2.2-1.56-24.16-1.45-28.59l-7.47,18.74c-2.95,3.71-3.37,5.92-4.5,10.06-.33,1.2-2.19.04-1.82,1.56ZM494.64,152.03c-.9.18-12.33,12.45-12.46,13.35-.25,1.64,7.38,5.65,8.83,5.66,1.64.02,8.98-9.77,11.23-11.52.56-2.52-5.71-7.86-7.59-7.5ZM374.4,173.06l-11.9-.85-1.91,21.09c2.15.59,1.55-.55,2.1-1.17,2.2-2.49,14.68-16.07,11.7-19.07ZM689.18,195.15c3.34-.19,6.77.14,10.12,0-1.35-4.17-.89-8.55-.92-12.88h-17.49c-.7,0-2.42,13.23-1.84,13.81,3.18,0,5.98-.82,9.2-.92h.92ZM699.3,199.75h-13.35c-.83,0-3.33,1.72-5.06.92,2.37,9.87,8.51,13.29,18.3,10.02l.1-10.95ZM493.13,263.26c4.64-3.75,7.57-6.6,11.93-10.62,2.02-1.87,12.09-9.17,12.06-11.02l-25.37-23.45c-3.69-4.04-7.56.63-10.6,3.2-16.86,14.27-17.24,21.84-42.8,24.39-33.86,3.38-73.6.84-106.49,6.73-17.38,3.11-23.52,14.62-38.21,19.77-25.7,9.01-34.28-13.83-55.03-15.42-26.52,2.46-53.66,1.3-80.09,4.56-10.82,1.33-7.94,8.03-3.17,14.27,12.07,15.81,34.96,40.38,51.82,50.34,13.2,7.79,30.02,11.87,39.28,25.14,7.01,10.04,7.19,27.72,13.3,39.16,1.94,3.63,10.27,14.93,13.43,16.94,3.77,2.41,5.02,1.57,8.26-.85,2.94-2.2,10.59-10.3,13.34-13.35,1.44-1.6,6.4-7.38,6.73-8.97,1.38-6.74-8.51-13.85-12.19-18.73-21.65-28.78-3.27-68.45,32.15-72.62,45.58-5.37,94.11-3.8,139.78-9.33,12.32-1.49,15.97-4.93,24.5-12.77,2.55-2.34,5.51-4.32,7.36-7.36ZM700.23,216.31h-7.36s6.9,10.12,6.9,10.12l.46-10.12ZM813.43,264.18c-5.22,2.1-10.42,5.39-16.35,6.2-23.03,3.17-28.63-12.8-46.98-16.98-5.62-1.28-25.85-3.49-30.34-1.43s-3.14,14.51-2.97,19.1c.14,3.75.52,10.16,1,13.73,1.3,9.66,12.53,6.28,19.69,7,27.99,2.83,45.8,33.64,36.81,59.79-6.06,17.61-43.14,53.17-57.06,69.04-7.08,8.07-17.89,18.12-19.66,28.2-1.64,27.6-8.33,56.32-10.23,83.65-.18,2.59.08,5.23,0,7.82l17.38-1.94c2.12-16.51-.76-35.01,6.36-50.25,18.74-24.45,42.73-45.89,62.32-69.3,15.76-18.84,12.42-27,17.43-48.84,6.12-26.71,39.39-26.25,57.86-38.78,8.34-5.66,29.24-25.46,33.77-33.88,3.25-2.01,4.84-5.61,7.36-8.28,3.82-4.04,16.43-15.15,17.75-19.67.38-1.31-.26-1.37-.27-1.49-.43-5.58-.99-2.93-2.76-4.6-.1-.1.35-1.22-.66-1.83-.81-.49-3.3-.82-4.41-.92-21.35-1.99-43.07-1.2-64.41-3.5-8.19.28-14.5,4.31-21.63,7.17ZM312.73,253.14c-8.76.59-14.58-3.52-11.96,8.27.77.9,11.18-6.5,11.96-8.27ZM782.03,255.07l-17.38-1.93c-.39,1.89.92,2.13,2.12,2.94,2.74,1.84,10.59,7.09,13.09,8.09,1.61.64,1.2-.55,1.46-1.24.54-1.44,1.44-6.98.71-7.85ZM280.51,259.58c.23,2.68,1.52,5.65,1,8.69l.84.51c1.93.06,3.84.1,5.76-.22,10.2-1.7,6.64-6.03,7.13-14.51h-14.74c.1,1.82-.15,3.71,0,5.53ZM275.92,254.97l-20.25,1.38,15.68,10.09,4.57.5v-11.97ZM803.31,255.9c-5.5-.37-10.96-1.55-16.57-.93v11.05c5.93,1.11,9.58-1.17,14.73-2.77,2.51-.78,13.49-4.28,14.72-5.54,3.04-3.1-5.68-.98-6.07-1-2.11-.06-4.41-.67-6.81-.83ZM534.93,377.8c16.51-18.94,28.6-35.09,30.03-61.58.85-15.84-3.58-38.05-14.29-50.21-6.42-7.29-7.49-7.17-14.71-.88-15.28,13.3-20.95,41.79-19.85,61.22.45,7.88,5.98,28.93,4.22,34.53-.75,2.41-17.19,16.73-20.3,20.19-21.26,23.57-34.68,46.94-25.54,79.87,8.98,32.34,39.88,51.68,72.95,43.47,2.64,19.13,15.26,51.19-1.63,66.28-7.99,7.13-29.52,10.05-33.33-2.76,18.7,1.9,24.57-26.14,7.99-33.31-15.7-6.79-28.83,7.9-25.99,23.23,7.03,37.91,69.19,35.11,67.68-9.71-.48-14.32-5.73-30.57-7.41-44.97,7.06-4.71,13.63-7.41,19.37-13.97,22.97-26.3,13.01-72.94-24.46-77.65-2.7-.34-10.8.69-11.92-.96-.95-1.4-2.87-17.39-3.41-20.53-1.19-6.9-4.41-6.48.62-12.25ZM510.43,312.22c-.39-.67-11.35-8.02-12.79-8.83-43.88-24.5-101.92-1.98-122.05,42.51-37.68,83.28,30.54,159.67,91.79,206.79,7.62,5.86,16.39,10.42,23.47,17.06,1.9.36,1.56-.74,1.18-2.1-.71-2.56-2.53-6.53-4.38-8.51-6.39-6.86-21.79-15.81-29.93-22.54-50.44-41.7-99.83-100.06-82.34-170.64,10.82-43.63,49.64-71.6,94.98-64.74,13.99,2.12,28.71,9.29,38.89,19.1,2.29.98,1.53-7.48,1.18-8.09ZM569.52,305.6c6.92-.39,13.2-3.32,20.04-4.36,46.3-7.01,86.76,25.2,94.78,70.4,12.89,72.67-37.83,127.34-89.53,169.55-7.11,5.8-24.53,16.43-29.36,22.19-2.03,2.41-3.06,6.97-3.76,10.04,62.96-44.01,143.46-110.62,130.16-197.32-8.22-53.59-58.73-96.18-113.85-79.04-5.28,1.64-9.98,1.94-8.48,8.55ZM371.64,301.92c-1.82.29-3.69.61-5.52.92-2.06-1.85-10.32-1.02-11.97.45-1.76,1.55-1.67,9.02-1.83,11.51-1.41,21.55,1.53,32.06-13.33,49.72-15.58,18.51-33.98,35.47-49.25,54.29-.5.61-1.45.88-2.04,2.06-1.55,3.09.55,2.59,3.88,4.38,4.86,2.61,11.36,4.01,16.5.39,2.81-1.98,9.23-13.93,12.48-17.89,4.21-5.13,10.47-11.21,16.12-14.72v.92c-4.16,5.78-8.61,11.4-12.73,17.18-3.22,4.53-9.26,16.94-13.3,18.91-2.16,1.05-8.3,1.56-9.41,3.47-.74,1.27-.69,5.23-1.56,7.64-2.17,6.07-23.26,30.4-28.77,34.7-14.28,11.13-26.96,3.62-41.83,12.51-9.66,5.77-16.49,15.53-21.25,25.23-1.71,3.48-4.5,6.54-4.59,11.04,1.52-.38,1.54-2.68,2.75-4.14,1.33-1.62,2.93-2.9,4.61-4.14,24.38-17.93,57.77-8.41,67.19,20.25.24.74.9.86.92.92.15.49-.14,1.3,0,1.84.34,1.31.9,1.74.92,1.84.16.83-.13,1.89,0,2.76.1.7.91.86.92.92.13,1.2-.07,2.47,0,3.68.19,3.35-.13,6.77,0,10.12-1.36,9.16-5.51,21.44-13.81,26.69-.63.4-2.68.62-3.68.92-.51.15-1.68-.2-1.84,0-1.69,2.09,1.59,1.74,2.76,1.84,1.51.13,3.09-.14,4.6,0,10.22.95,20.51,1.23,30.82,1.85,11.27.68,24.95,2.98,35.92,2.84,2.34-.03,5.05-1,5.77-3.51.95-3.3.52-20.3.18-24.65-.21-2.67-.95-8.65-2.31-10.57-3.63-5.12-18.4-3.03-24.41-4.12-16.57-2.99-31.65-20.58-33.77-37.1-3.5-27.21,17.07-42.34,31.98-60.97l5.52-6.44c.29-.32.62-.6.92-.92,2.79-3.01,5.93-5.79,8.28-9.2,4.4-4.46,27.18-27.6,28.14-31.3.74-2.85-.73-5.62-.6-8.75,1.23-28.37,7.97-51.58,24-75l13.85-13.53c.72-1.01,1.29-5.41.88-5.79-.72-.68-17.82-.26-19.88-.05-1.29.13-2.02.94-2.21.97ZM513.98,359.61c.92-1.3,1.16-1.98,1.03-3.61-.37-4.35-2.55-11.15-3.36-16.01-.48-2.88.23-5.57-.55-8.65-1.17-4.61-5.9-6.44-9.22-9.19-34.66-28.67-90.61-16.09-111.86,23.46-41.37,76.98,25.6,150.17,82.37,193.8,2.02,1.55,12.99,10.81,13.85,11.01,2.61.6,2.38-5.1,3.15-6.95,5.41-12.94,16-19.12,29.9-15.99,17.84,4.02,22.76,33.56,6.06,42.73,23.1,2.58,25.55-15.54,22.91-33.96-.43-3.03-1.96-5.87-2.45-8.6-.4-2.24-1.3-15.07-2.1-15.85-26.46,1.85-52.16-7.62-66.38-30.72-26.17-42.5-4.55-80.49,25.9-111.55,2.97-3.03,8.63-6.93,10.76-9.93ZM566.77,553.19c1.31,1.26,8.83-3.67,10.42-4.77,36.74-25.26,80.08-69.59,96.79-111.23,24.84-61.9-8.65-136.9-82.8-130.67-3.92.33-17.76,3.87-20.32,6.37-2.39,2.34-.94,6.45-1.44,9.61-2.45,15.8-8.2,30.64-17.37,43.38-3.07,4.27-13.06,12.75-13.77,16.61-.86,4.66.97,14.93,2.2,19.81,1.67,6.63,5.71,3.87,10.85,4.8,11.43,2.06,24.23,8.12,30.57,18.21,16.34,25.98,11.61,57.48-13.53,75.63-2.44,1.76-7.59,3.23-8.06,5.78l6.47,46.47ZM217.01,343.33c.18.17,1.06,3.68,2.3,3.67.26,0,3.95-3.03,4.12-3.23,2.94-3.45-.38-3.19-1.82-4.12-5.13-3.32-10.86-5.18-16.12-8.26,2.37,4.16,5.75,7.79,9.22,11.05.74.7,2.1.71,2.29.89ZM842.88,340.57l-22.09,8.29c-.55.73,3.07,3.08,3.68,3.67,1.3,1.26,2.67,1.7,2.76,1.84.78,1.25-1.83,4.73,3.21.91,2.42-1.83,10.67-10.38,12.44-12.88,3.18-4.5.48-5.65,0-1.84ZM229.55,344.45c-1.2.23-5.82,5.81-5.98,6.88s2.4,3.76,3.23,3.9c1.68.29,6.89-6.55,8.6-7.75-1.06-1.44-4.14-3.36-5.84-3.03ZM816.19,354.38c-.73-.52-1.18-2.93-3.05-2.64-.55.08-9.4,5.08-9.67,5.57-2.07,3.58,3.47,7.15,6.28,8.12,1.03,1.94,3.61,5.82,5.94,5.57s7.12-6.06,7.87-8.33c1.09-3.28-.77-2.64-2.76-4.6-2.25-2.23-2.4-2.09-4.6-3.68ZM231.73,360.82c-.02.11-.65.23-.61.46.04.27.52.3.61.46.61,1.08,2.84,3.81,4.01,3.61.87-.15,7.94-6.09,7.8-7.58-.15-1.72-2.41-5.76-4.75-5.13-.41.11-6.34,5.13-6.59,5.48-.67.94-.33,1.83-.48,2.7ZM251.05,381.99c-1.26-2.76-3.42-17-5.09-17.48-2.1-.59-6.43,3.62-5.85,5.79.53,1.99,8.72,10.02,10.94,11.69ZM799.62,378.31c1.19,2.02,2.68,6.11,5.9,5.59.5-.08,6.1-6.22,6.05-7.92-.06-2.38-12.05-12.66-13.77-11.47-.41.28-2.56,8.45-2.5,9.56.12,2.08,2.58,3.42,4.32,4.23ZM795.93,382.01c-.22-.16-2.02-.38-1.82.55l-2.31,15.06c3.09-.95,10.39-8.8,8.59-11.79-.16-.26-2.9-1.37-3.79-2-.78-.55-.59-1.76-.67-1.82ZM295.14,432.71c-.44-.51-10.57-3.55-12.19-5.53l-6.97,7.6,13.29,11.69c3.78-.68,7.54-11.86,5.86-13.77ZM665.25,576.2c10.94-2.53,40.81-7.36,50.87-5.31,9.47,1.93,10.76,12.15,15.94,18.11,3.84,4.42,6.8,1.69,10.54-2.18,6.38-6.58,9.54-18.67,17.91-24.43,13.88-9.56,25.31,11.13,34.03,18.43,5.66,4.74,10.15,6.23,17.52,7.33l91.06-4.65c3.53-.92,6.19-5.1,3.99-8.46-15.73-15.51-30.69-41.79-50.99-51.2-11.29-5.23-22.47-5.26-31.19-15.75-9.76-11.74-7.77-28.81-15.14-41.92-2.12-3.77-11.72-14.1-15.2-17.93-1.94-2.13-12.56-13.74-13.86-13.84-1.6-.13-3.52,1.2-4.69,2.21-3.97,3.42-12.37,13.25-15.94,17.65-1.12,1.38-4.24,5.2-4.47,6.61-.72,4.49,8,11.73,10.86,15.48,24.34,32,7.18,71.34-32.66,74.98-22.19,2.03-44.87,3-67.19,4.6-18.21,1.31-43.92-1.14-59.28,7.91-18.77,11.05-38.12,26.95-56.29,39.43-4.89,3.36-8.64.97-1.33,7.92,2.35,2.23,18.05,17.5,19.35,17.5,2.32,0,9.26-9.17,11.62-11.38,13.34-12.54,19.13-17.17,38.09-19.02l108.13-5.54-6.42-13.36c-6.16-6.51-26.97-1.77-35.47-1.37-6.05.28-12.78.17-18.86,0l-.92-1.84ZM267.63,450.1c.31.31.61.62.92.92,1.82,1.72,8.59,8.8,10.47,8.23.76-.23,6.2-7.31,5.96-8.56-.43-2.22-4.82-4.03-6.3-5.2-.79-.62-1.16-1.72-2.76-2.76-.99-1.44-2.57-4.32-4.59-3.28-.62.32-6.21,6.13-6.35,6.68-.66,2.55,1.57,2.86,2.66,3.96ZM364.66,476.41c-9.07-10.1-18.03-20.35-27.72-29.89-1.42-.46-2.16.4-3.1,1.22-1.65,1.43-9.37,9.94-10.46,11.62-.62.95-1.45,1.99-1.42,3.2.05,1.69,19.6,21.28,22.46,25.36,11.02,15.73,7.8,37.26,8.78,55.65,4,74.55,7.12,149.1,11.12,223.58.35,6.57-.45,32.75,3.16,36.42,1.56,1.59,6.5,1.3,8.36.02l140.94-128.26c2.49-2.87-.34-4.31-1.88-6.76l-25.91-22.45c-5.03,3.64-9.26,9.31-14.25,13.39-31.93,26.09-71.9,9.47-76.4-31.31-4.29-38.89-4-78.43-7.78-117.39-1.88-11.78-17.85-25.44-25.89-34.39ZM268.55,468.51c1.81-1.55,7.02-1.83,5.06-5.51-.86-1.61-12.4-11.55-14.24-10.64-1.34.66-6.8,6.73-6.41,8.26l12.49,11.5c2.38.41,2.78-3.34,3.1-3.61ZM253.82,469.43c-1.15-.94-3.03-4.87-4.94-4.54-.95.16-13.45,13.06-12.55,13.73,5.93-1.97,19.52.76,23.93-2.29,1.53-1.06.58-.96,0-1.84-1.46-2.25-4.49-3.46-6.45-5.06ZM821.71,482.32c.36,1.17,1.37,14.76,2.31,14.74,11.09-7.51,6.97-7.87.45-14.74-1.55-1.63-2.26-5.12-5.05-5.53-1.85,1.74,2.2,5.23,2.29,5.53ZM835.19,494.35c-1.42.25-7.53,6.56-6.58,9.08,2.35,6.2,6.24,2.12,9.59-1.4,3.65-3.83-1.24-7.99-3.01-7.68ZM856.69,518.2c-2.07-2.49-11.63-15.45-14.61-13.67-.14.08-.64,1.83-1.46,2.64-1.85,1.82-5.82,2.14-1.15,4.79,1.87,1.06,16.5,6.81,17.22,6.24ZM232.65,512.69c-11.11,1.13-22.19,8.02-27.79,17.77-11.35,19.78,8.41,45.22,27.79,51.26.39.12.83.79,1.84.92.71.09,3.56.14,3.69,0,.62-.62-.09-14.78,0-17.49.07-2.32-.04-11.57.99-12.83.2-.24,1.24-.06,1.77-.05,1.38,3.93-1.45,7.04-.92,11.04,9.79,1.51,7.17-3.71,7.36-11.04-1.62-.89-4.34,2.09-4.59,1.84s.2-1.63,0-1.84c-.83-3.77,4.52-.32,6.44-2.76.61.01,1.23,0,1.84,0,.87,1.48,4.6,1.51,5.52,0,1.23,0,2.46.01,3.68,0,.7,2.96-1.9,1.01-3.68,2.76-1.24,1.22-.85,1.66-.97,3.14-.56,6.63-.53,18.33,0,24.99.08,1.03-.29,2.81.97,3.16l.46.91c.25-.05.25-.83.46-.91,9.99-3.95,14.38-11.28,17.49-21.17.02-.06.6.34.92-.92.24-.95-.11-2.54,0-3.68.19-1.93.81-.44,0-3.68-.21-.85-.86-1.59-.92-1.84-.17-.79.12-1.89,0-2.76.3-.04.62.03.92,0l.93-1.39c-.07-.82-.91-1.23-.93-1.38-.3-1.65-.44-4.06-.92-5.52-.3-.92-.73-1.36-.92-1.84-6.18-15.53-16.95-25.41-34.06-26.69-.91-.07-1.85,0-2.76,0-1.21,0-2.48-.09-3.68,0l-.46-.9-.46.9ZM191.24,527.42c-13.42,14.64-25.85,30.23-39.46,44.75-2.47,5.77-.72,7.92,4.48,9.55.92.29,1.14.72,2.76.92,1.49.18,3.09-.12,4.6,0,2.7.22,6.62,1.5,8.28,0,2.45.32,4.9.67,7.36.92,3.35.34,6.76.67,10.12.92,1.82.13,3.7-.13,5.52,0,1.22.09,2.47-.09,3.68,0,.61.04,1.23-.04,1.84,0,.61,1.45,4,1.45,4.6,0,1.87.11,4.08.76,6.44.92,3.12.21,6.05,1.21,9.2.92l8.28-.91c-2.67-1.17-6.85-2.26-9.2-3.69-18.06-11.05-26.93-32.74-23.01-53.38.49-2.56,3.06-6.15,2.75-9.2-3.31,2.17-5.66,5.43-8.27,8.28ZM250.14,557.79c.57.74.18,1.19,1.84.92,2.9-.47-.76-5.87-2.31-6.44-1.08,1.79-.71,3.99.46,5.52ZM251.98,561.48h-1.83v.9h1.83v-.9ZM253.82,565.15h-13.81v18.41c0,.7,13.81,1.62,13.81.92v-19.33ZM780.3,589.08c.47-.19,1.61.56,1.88-.58.51-2.14.1-10.89-.74-13.03-.46-1.19-1.8-1.61-2.06-2.04-.95-1.54-1.51-3.02-3.35-4.43-8.79-6.72-5.11-.92-4.9,4.86.32,8.63-3.66,20.33,9.17,15.22ZM754.52,576.66c-.95,3.29.69,10.44,0,14.27h11.97c-.37-7.97-1.4-15.88-.93-23.93-2.58-1.84-10.83,8.93-11.04,9.66ZM608.18,735.43v-18.87c0-5.75-17.15-18.2-21.65-22.53-6.77-6.51-12.94-13.44-18.84-20.74.67-1.26,2.41-.15,3.26.42,6.13,4.11,16.63,13.65,22.52,18.9,5.43,4.84,16.75,14.31,18.85,20.73,3.06,9.37-.74,18.44,1.58,27.87.81,3.28,7.31,6.91,9.94,9.38,17.9,16.78,36.08,33.24,53.85,50.15,5.89,4.77,13.23,6.23,14.27-3.18,2.14-19.39,1.04-42.75,1.78-62.65.32-8.53,1.66-18.1,1.92-26.62.27-9.04-.27-18.15-.05-27.19-4.21,2.34-16.26,7.73-17.97,11.94-.82,2.02-1.82,8.41-1.19,10.43.76,2.45,7.22,4.07,8.08,10.38,2.19,16.13-22.11,17.43-21.2.82.46-8.3,5.84-7.47,6.82-9.84,1.1-2.66.22-5.61.82-8.33,3.09-13.95,16.56-14.79,25.39-23.4.93-11.93.7-23.82,1.06-35.76.25-8.3,2.11-17.39,1.01-25.78-.29-2.2-1-3.3-2.85-4.57-11.45.59-23.3.67-34.54,2.26-4.78,2.83-3.35,17.15-4.18,22.51-3.75,24.23-22.83,39.16-47.29,37.36-19.64-1.45-31.67-14.99-45.63-27.11-19.01-16.5-37.08-35.03-56.99-50.67l-97.13-21.62c-1.92-.11-1.18-.01-1.38,1.36-.42,2.93.77,25.21,1.94,26.17,17.47,2.67,40.6-1.19,55.6,9.3,45.99,42.06,92.29,83.77,137.58,126.58l4.62,2.28ZM790.74,585.07c-1-.83-.88-2.97-3.07-2.43-1.15,4.9.99,9.94,6.45,6.91,2.27-1.26-2.69-3.91-3.38-4.49ZM749.92,587.25c-1.22-1.56-4.24,4.1-3.67,4.59,3.67,1.84,4.97-2.93,3.67-4.59ZM671.42,710.77c-4.89,1.44-4.08,9.42-.02,10.67,11.11,3.4,11.32-14.01.02-10.67Z"/>
    <path class="st4" d="M608.18,735.43l-4.62-2.28c-45.3-42.81-91.59-84.52-137.58-126.58-14.99-10.48-38.13-6.63-55.6-9.3-1.17-.96-2.36-23.23-1.94-26.17.2-1.37-.54-1.47,1.38-1.36l97.13,21.62c19.91,15.64,37.98,34.16,56.99,50.67,13.96,12.12,25.99,25.66,45.63,27.11,24.46,1.8,43.53-13.13,47.29-37.36.83-5.36-.61-19.69,4.18-22.51,11.24-1.59,23.09-1.67,34.54-2.26,1.85,1.27,2.56,2.37,2.85,4.57,1.11,8.4-.76,17.48-1.01,25.78-.35,11.94-.13,23.83-1.06,35.76-8.83,8.61-22.3,9.45-25.39,23.4-.6,2.72.28,5.66-.82,8.33-.98,2.38-6.37,1.54-6.82,9.84-.91,16.61,23.39,15.32,21.2-.82-.86-6.3-7.31-7.93-8.08-10.38-.63-2.03.37-8.42,1.19-10.43,1.7-4.21,13.76-9.6,17.97-11.94-.22,9.04.32,18.15.05,27.19-.25,8.51-1.6,18.09-1.92,26.62-.74,19.9.36,43.26-1.78,62.65-1.04,9.41-8.37,7.95-14.27,3.18-17.78-16.91-35.96-33.37-53.85-50.15-2.64-2.47-9.14-6.11-9.94-9.38-2.32-9.43,1.47-18.5-1.58-27.87-2.1-6.42-13.42-15.89-18.85-20.73-5.89-5.24-16.39-14.78-22.52-18.9-.85-.57-2.59-1.68-3.26-.42,5.9,7.3,12.07,14.23,18.84,20.74,4.5,4.32,21.65,16.78,21.65,22.53v18.87ZM635.79,692.17h-14.73c.28,7.71,13.75,3.16,15.52,4.74.22.2.39,2.34,1.44,3.6,1.73,2.07,5.72,3.47,5.91,3.77.52.83.53,18.37.21,19.54-.21.75-2.49.72-3.77,1.9-.36.33-3.75,4.68-4.03,5.19-2.2,3.94-.8,6.7,1.74,10.07,9.62,12.76,26.41-3.38,15.16-14.25-1.04-1-2.92-.82-3.63-2.1-1.21-2.18-1.33-14.36-.97-17.32.48-3.95,6.98-5.06,8.12-12.13,1.04-6.45-4.64-12.66-11.18-12.17-8.27.62-8.81,8.53-9.77,9.17Z"/>
    <path class="st7" d="M493.13,263.26c-1.02.82-2.38,1.23-3.29,2.22l-4.07,5.14c-8.54,7.84-12.18,11.28-24.5,12.77-45.67,5.54-94.2,3.96-139.78,9.33-35.42,4.17-53.8,43.84-32.15,72.62,3.68,4.88,13.57,11.99,12.19,18.73-.33,1.6-5.3,7.38-6.73,8.97-2.75,3.05-10.4,11.15-13.34,13.35-3.24,2.43-4.49,3.27-8.26.85-3.15-2.01-11.49-13.31-13.43-16.94-6.11-11.45-6.29-29.13-13.3-39.16-9.27-13.28-26.08-17.35-39.28-25.14-16.87-9.96-39.75-34.53-51.82-50.34-4.76-6.24-7.65-12.94,3.17-14.27,26.43-3.26,53.56-2.11,80.09-4.56,20.75,1.59,29.33,24.43,55.03,15.42,14.69-5.15,20.83-16.66,38.21-19.77,32.89-5.88,72.63-3.34,106.49-6.73,25.56-2.56,25.94-10.12,42.8-24.39,3.04-2.57,6.91-7.24,10.6-3.2l25.37,23.45c.02,1.84-10.04,9.15-12.06,11.02-4.36,4.03-7.29,6.88-11.93,10.62ZM255.66,313.88c6.29,3.04,10.61-6.52,11.09-11.46,1.28-13.21-3.95-13.91-11.06-22.17-2.24-2.61-9.16-16.31-13.35-6.85-2.1,4.73.79,33.75-.48,34.96-.2.19-4.01.01-5.58.4-11.12,2.76-14.92,19.62-.16,21.45,7.54.93,8.23-3.15,12.18-3.44.17-.01.89,1.32,1.68.82.11-2.1,2.76-2.3,3.39-3.56,1.35-2.72-.26-6.98.43-9.56.25-.94,1.8-.52,1.86-.59Z"/>
    <path class="st10" d="M513.98,359.61c-2.13,3-7.78,6.9-10.76,9.93-30.46,31.06-52.08,69.05-25.9,111.55,14.23,23.1,39.92,32.58,66.38,30.72.8.78,1.7,13.61,2.1,15.85.49,2.73,2.01,5.57,2.45,8.6,2.64,18.42.2,36.54-22.91,33.96,16.7-9.17,11.79-38.71-6.06-42.73-13.9-3.13-24.48,3.05-29.9,15.99-.77,1.85-.54,7.54-3.15,6.95-.86-.2-11.83-9.45-13.85-11.01-56.76-43.63-123.74-116.81-82.37-193.8,21.25-39.54,77.2-52.12,111.86-23.46,3.32,2.75,8.05,4.57,9.22,9.19.78,3.08.07,5.77.55,8.65.81,4.86,2.99,11.66,3.36,16.01.14,1.63-.11,2.31-1.03,3.61ZM389.12,379.23c.09,1.17-.24,4.47,1.84,2.76.24-.19-.2-1.5,0-1.84,4.09-6.75,5.7-14.14,9.74-21.09,7.3-12.52,21.54-24.21,34.1-31.25,3.16-1.77,24.22-10.28,24.24-11.63,0-.22-1.02-1.11-1.49-1.25-2.09-.64-15.34.58-17.85,1.22-6.49,1.65-24.22,11.99-29.33,16.69-10.46,9.64-22.4,32.02-21.27,46.38ZM412.73,452.53c2.4-2.1,11.67-13.96,13.79-14.33,3.6,1.16,16.66,16.39,18.32,16.55,3.35.32,3.91-3.33,5.9-5.15s6.94-4.89,7.87-6.88c2.03-4.36-2.18-4.69-4.14-6.89-1.59-1.79-10.72-11.36-10.92-12.15-1.29-4.98,15.65-15.1,15.48-20.06-.11-3.13-11.47-13.39-14.08-13.15-3.32.31-5.44,5.23-7.51,7.17-1.31,1.23-9.43,8.93-10.11,8.99-2.95.23-15.57-16.38-18.42-16.38-2.19,0-12.54,11.1-12.5,14.32.03,2.12,5.55,8.22,7.41,10.13s7.42,4.9,7.43,7.33c0,3.6-16.54,14.38-14.6,20.97.19.66,8.52,9.88,9.1,10.27,2.79,1.89,4.65,1.31,6.99-.73Z"/>
    <path class="st5" d="M364.66,476.41c8.04,8.95,24.01,22.61,25.89,34.39,3.79,38.96,3.49,78.5,7.78,117.39,4.5,40.78,44.47,57.4,76.4,31.31,4.99-4.08,9.23-9.75,14.25-13.39l25.91,22.45c1.54,2.45,4.36,3.9,1.88,6.76l-140.94,128.26c-1.86,1.28-6.8,1.56-8.36-.02-3.61-3.67-2.81-29.85-3.16-36.42-4-74.48-7.12-149.03-11.12-223.58-.99-18.39,2.23-39.91-8.78-55.65-2.86-4.08-22.41-23.67-22.46-25.36-.03-1.21.8-2.25,1.42-3.2,1.1-1.67,8.81-10.19,10.46-11.62.94-.81,1.68-1.67,3.1-1.22,9.69,9.54,18.65,19.79,27.72,29.89ZM419.04,733.59h-21.63c1.81-5.42,17.42-18.04,17.42-22.55,0-3.94-14.76-17.4-17.42-21.63h20.71c2.13,0,3.53,7.85,5.05,8.76,1.43.86,9.74.9,10.66-.42s-2.4-18.51-3.29-20.54c-.42-.96-.88-.92-1.76-1.19-6.67-.06-54.86-1.68-56.68.49s-1.18,6.81.08,9.15l22.51,26.3c0,1-3.24,4.87-4.16,5.99-3.89,4.73-17.5,16.9-19.32,21.17-1.25,2.93-1.18,8.64,2.77,9.16h54.25c.73-.08,1.39-.33,1.96-.8.73-.6,4.79-16.21,4.93-18.18.47-6.8-6.56-4.85-11.34-4.8l-4.73,9.08Z"/>
    <path class="st7" d="M666.17,578.04c6.07.16,12.81.27,18.86,0,8.5-.4,29.31-5.14,35.47,1.37l6.42,13.36-108.13,5.54c-18.97,1.85-24.75,6.48-38.09,19.02-2.35,2.21-9.3,11.38-11.62,11.38-1.3,0-17-15.26-19.35-17.5-7.31-6.95-3.56-4.57,1.33-7.92,18.17-12.48,37.52-28.38,56.29-39.43,15.37-9.04,41.07-6.6,59.28-7.91,22.32-1.6,44.99-2.58,67.19-4.6,39.84-3.64,57-42.98,32.66-74.98-2.86-3.75-11.58-10.99-10.86-15.48.23-1.41,3.35-5.23,4.47-6.61,3.58-4.4,11.98-14.23,15.94-17.65,1.18-1.01,3.1-2.34,4.69-2.21,1.31.1,11.93,11.71,13.86,13.84,3.49,3.83,13.08,14.16,15.2,17.93,7.38,13.11,5.39,30.18,15.14,41.92,8.72,10.49,19.9,10.52,31.19,15.75,20.3,9.41,35.26,35.69,50.99,51.2,2.2,3.36-.46,7.54-3.99,8.46l-91.06,4.65c-7.37-1.1-11.86-2.59-17.52-7.33-8.72-7.31-20.16-27.99-34.03-18.43-8.37,5.76-11.53,17.85-17.91,24.43-3.75,3.86-6.7,6.6-10.54,2.18-5.18-5.96-6.46-16.19-15.94-18.11-10.07-2.05-39.94,2.78-50.87,5.31-6.18,1.43-4.03,1.71.92,1.84ZM832.76,549.97v-13.81c0-1.17-2.88-2.18-4.1-2.35-10.37-1.4-24.09.97-34.84.23-3.63,1.07-4.31,16.73.76,17.28,11.04-.93,24.25,1.33,35,.07,1.08-.13,2.8-.23,3.17-1.43Z"/>
    <path class="st10" d="M566.77,553.19l-6.47-46.47c.48-2.55,5.62-4.03,8.06-5.78,25.14-18.15,29.87-49.64,13.53-75.63-6.34-10.09-19.14-16.16-30.57-18.21-5.14-.92-9.18,1.83-10.85-4.8-1.23-4.87-3.05-15.15-2.2-19.81.71-3.85,10.69-12.34,13.77-16.61,9.17-12.74,14.92-27.57,17.37-43.38.49-3.16-.95-7.27,1.44-9.61,2.56-2.5,16.4-6.04,20.32-6.37,74.16-6.23,107.64,68.76,82.8,130.67-16.71,41.64-60.05,85.97-96.79,111.23-1.59,1.09-9.11,6.03-10.42,4.77ZM668.92,383.83c1.64-6.36.21-12.04-1.57-18.2-7.87-27.12-33.63-50.98-62.84-50.82-.33,1.55.42,1.87,1.51,2.63,2.59,1.79,9.52,3.41,13.11,5.29,24.05,12.62,36.72,31.19,46.6,55.57.62,1.52,1.76,4.79,3.2,5.53ZM622.91,411.44c-1.03.81-22.68,0-26.23,0-.26,0-2.51,1.43-2.76,1.84-.83,1.37-.82,17.06,0,18.41.25.41,2.5,1.84,2.76,1.84h26.23c-.95,2.38-4.03,2.12-5.43,4.24-4.66,7.04-.07,19.65,8.87,21.31,11.84,2.2,18.97-5.96,16.59-17.51-.87-4.23-4.17-4.54-5.31-8.03h25.31c5.62,0,2.7-22.09,1.38-22.09h-26.69c14.49-12.15-2.26-36.37-17.43-22.49-4.57,4.18-5.48,14.29-1.39,18.77.77.84,5.83,2.36,4.1,3.73Z"/>
    <path class="st9" d="M813.43,264.18c2.95,2.6,7.21-2.52,9.29-3.1,13.1-3.63,55.77-.86,71.28.31,1.41.11,10.12,1.55,10.55,1.87.21.16,1.19,4.1,2.76,4.6,0,.12.65.18.27,1.49-1.33,4.52-13.94,15.64-17.75,19.67-2.36-.32-4.23,1.45-5.52,3.22-1.72,2.36-1.25,3.96-1.84,5.06-4.52,8.43-25.43,28.23-33.77,33.88-18.48,12.53-51.75,12.07-57.86,38.78-5,21.85-1.66,30.01-17.43,48.84-19.59,23.41-43.58,44.85-62.32,69.3-7.13,15.24-4.24,33.74-6.36,50.25l-17.38,1.94c.08-2.59-.18-5.22,0-7.82,1.9-27.34,8.59-56.05,10.23-83.65,1.77-10.08,12.58-20.13,19.66-28.2,13.92-15.87,51-51.43,57.06-69.04,8.99-26.15-8.81-56.96-36.81-59.79-7.16-.72-18.39,2.65-19.69-7-.48-3.57-.86-9.98-1-13.73-.17-4.59-1.44-17.09,2.97-19.1s24.72.16,30.34,1.43c18.35,4.18,23.94,20.14,46.98,16.98,5.92-.81,11.12-4.11,16.35-6.2ZM819.87,286.27c-.08,5.48-.19,11.09,0,16.57.13,3.71-.05,7.24.06,10.52.33,9.55,10.97,9.9,18.18,8.16,10.22-2.46,12.04-18.94,8.64-27.61-10.18-25.88-46.13-19.67-59.47.72-3.13,4.79-9.71,20.82-6.55,25.72s4.32-8.28,4.6-9.26c3.9-13.8,15.21-27.93,30.52-29.34,6.34-.58,4.08.94,4.03,4.52Z"/>
    <path class="st5" d="M386.9,53.79c12.47,10.55,24.3,22.11,36.27,33.22,9.41,8.73,20.62,15.79,26.59,27.71,9.1,18.19,3.36,38.06,21.74,51.89,5.06,3.8,12.91,6.1,17.89,9.72,6.32,4.61,6.24,13.65,15.7,14.2.32-2.33-2.3-2.96-3.15-4.67-.67-1.35-4.18-11.24-4.06-12.13.48-3.33,8.17-12.87,11.57-9.63,5.7,5.43-3.35,23.87,3.15,35.03,4.23,7.27,22.46,19.28,29.91,25.78.87.76,1.41,2.37,2.57,3.41,6.33,5.66,12.65,11.36,19.39,16.5.34-.93-.58-2.71-1.04-3.56-4.29-7.91-20.33-23.33-27.53-29.53-4.25-3.66-17.31-11.58-19.07-15.91-1.18-2.9-1.23-19.75,0-22.56.44-1-.09-1.41,1.59-1.12l67.65,62.13c4.76,3.8,9.31,7.23,15.43,8.5,15.6,1.65,31.39,2.01,47.07,3.1,1.6,10.29,2.11,20.78,1.93,31.19l-83.02-16.83c-12.89-2.33-21.59-9.44-31.11-17.67-20.98-18.11-41.43-40.64-63.06-57.52-24.71-19.28-64.6-7.38-72.49,23.19-2.33,9.01-.32,17.93-4.33,26.04l-33.41,2.09c-5.35-1.37-4.55-5.84-4.37-10.43.18-4.61.7-12.48,1.6-16.8,2.74-13.07,19.11-23.29,20.52-35.62,2.07-18.02-15.99-28.64-15.46-46.95,2.29-24.4,2.05-49.14,4.53-73.52,1.37-13.44,11.52-3.89,16.98.73ZM433.17,128.75c1.7-2.71,1.59-12.55-1.38-13.55-10.19,1.18-30.22-3.23-38.38,2.79-4.98,3.67-12.02,17.96-1.13,16.44,3.16-.44,3.55-4.18,6.03-5.55,1.82,8.45-8.96,17.85-8.25,24.3.35,3.14,2.76,6.39,6.01,6.94,10.31,1.74,12.11-9.66,12.84-17.44-.48,7.71,3.61,18.29,12.89,18.29,10.15,0,17.76-20.3,7.45-20.11-4.34.08-3.04,3.82-6.06,5.51l.91-17.49,9.08-.12Z"/>
    <path class="st6" d="M676.29,178.58c-1.9,7.93-4.02,13.92-1.36,22.06,3.6,11,14.43,18.64,19.92,28.86,6.97,12.99,7.29,27.15,8.17,41.54,1.25,20.57-1.3,69.96,10.63,85.09,2.56,3.24,7.48,8.36,10.48,11.61,2.48,2.68,12.42,10.39,11.65,13.34l-24.52,28.11c-1.82,1.29-7.85-6.79-8.09-7.61-1.08-3.61.2-11.09-.2-15.45-2.89-31.99-14.57-59.49-38.46-81.2l-4.9-92.66c-3.9-31.32-39.02-49.48-66.81-33.9-5.16,2.89-20.88,18.53-24.49,18.37s-11.36-7.53-14.44-10.34c-2.52-2.3-12.12-11.53-12.74-14.05-.89-3.63,13.32-12.74,15.5-16.35,5.35-4.42,11.69-9.76,18.88-10.57,8.44-.96,16.49,1.96,24.75-.1,20.3-5.06,22.3-33.67,30.44-49.64,10.43-20.47,33.84-33.62,49.27-50.13,5.01-4.83,10.54-4.68,11.92,2.83,3.22,17.64,2.51,45.85,2.78,64.41.4,27.72-1.13,29.81-12.85,53.81-2.03-.47-4.41,5.42-4.81,6.71-.68,2.2-.36,3.77-.71,5.26ZM667.09,109.55h-25.77c-.36,0-1.79,5.78-.05,6.96,1.24.84,3.86-.48,3.73,1.31-25.58,4.47-23.38,39.09,1.84,41.44-.36,2.24-4.44-.19-5.61,1.45-1.42,1.98-.51,6.83,1.48,6.83h24.39c-.27-2.02.51-5-.11-6.79-.75-2.16-3.6-.53-3.57-2.4,8.15.85,16.8-9.44,17.53-16.99,1.21-12.58-4.76-19.19-15.69-23.98,2.64.46,2.15-7.5,1.84-7.82Z"/>
    <path class="st2" d="M534.93,377.8c-5.03,5.77-1.81,5.35-.62,12.25.54,3.13,2.45,19.12,3.41,20.53,1.12,1.65,9.22.62,11.92.96,37.47,4.71,47.43,51.35,24.46,77.65-5.73,6.56-12.31,9.27-19.37,13.97,1.69,14.4,6.93,30.65,7.41,44.97,1.51,44.81-60.64,47.62-67.68,9.71-2.84-15.33,10.28-30.02,25.99-23.23,16.58,7.17,10.7,35.21-7.99,33.31,3.81,12.81,25.34,9.89,33.33,2.76,16.9-15.09,4.27-47.14,1.63-66.28-33.07,8.2-63.97-11.14-72.95-43.47-9.14-32.93,4.28-56.3,25.54-79.87,3.11-3.45,19.55-17.78,20.3-20.19,1.75-5.6-3.78-26.64-4.22-34.53-1.1-19.43,4.58-47.92,19.85-61.22,7.22-6.28,8.29-6.41,14.71.88,10.71,12.16,15.15,34.37,14.29,50.21-1.43,26.49-13.52,42.64-30.03,61.58ZM527.19,354.38c1.07.96,6.37-4.9,7.38-5.96,13.23-13.83,24.35-32.49,21.96-52.39-2.1-17.54-15.87-13.69-23.06-1.18-10.09,17.56-9.58,40.17-6.28,59.52ZM529.02,481.39c-2.57,2.29-12.23-5.17-14.27-7.35-14.98-15.97-12.1-39.96,4.63-53.37,2.11-1.69,11.02-6.16,11.34-7.07,1.59-4.56-3.92-21.42-4.91-27-15.01,13.05-33.74,29.32-39.15,49.21-9.22,33.9,11.83,62.16,46.52,63.99,4.36.23,14.34,1.25,13.26-4.9-5.77-18.75-5.8-41.45-11.01-59.94-.28-.99-.26-1.7-1.33-2.31-16.12,5.65-25.24,25.96-13.38,40.02,1.1,1.3,9.47,7.68,8.3,8.72ZM552.96,495.21c18.6-6.35,25.29-30.55,16.72-47.57-4.97-9.87-16.3-17.57-27.78-15.94l11.05,63.51Z"/>
    <path class="st9" d="M371.64,301.92c3.35,3.11,17.32-1.96,19.21,1.03,3,4.76-8.7,11.67-10.98,15.06-.62.92-.66,2-.87,2.31-16.04,23.42-22.78,46.63-24,75-.14,3.13,1.33,5.9.6,8.75-.95,3.7-23.73,26.84-28.14,31.3-2.83,2.87-6.54,5.35-8.28,9.2-.3.32-.63.6-.92.92-2.35,2.53-3.4,3.79-5.52,6.44-14.91,18.63-35.48,33.76-31.98,60.97,2.12,16.52,17.2,34.11,33.77,37.1,6.01,1.08,20.79-1,24.41,4.12,1.36,1.92,2.1,7.91,2.31,10.57.34,4.35.76,21.34-.18,24.65-.72,2.51-3.44,3.48-5.77,3.51-10.98.13-24.65-2.17-35.92-2.84-10.32-.62-20.61-.9-30.82-1.85l-1.84-2.76c8.3-5.25,12.44-17.54,13.81-26.69.42-2.83,2.41-7.38,0-10.12-.07-1.21.13-2.48,0-3.68l-.92-.92c-.13-.87.16-1.93,0-2.76l-.92-1.84c-.14-.54.15-1.35,0-1.84l-.92-.92c-9.42-28.66-42.8-38.18-67.19-20.25-1.33-1.11-3.36-.55-2.76-2.76,4.76-9.71,11.59-19.46,21.25-25.23,14.87-8.89,27.56-1.38,41.83-12.51,5.51-4.3,26.6-28.64,28.77-34.7.87-2.42.82-6.37,1.56-7.64,1.12-1.91,7.25-2.42,9.41-3.47,4.04-1.97,10.08-14.38,13.3-18.91,4.11-5.79,8.57-11.4,12.73-17.18,1.29-1.79,3.58-2.33,3.7-5.05l-3.7,4.13c-5.65,3.5-11.91,9.58-16.12,14.72-3.25,3.96-9.67,15.91-12.48,17.89-5.14,3.62-11.64,2.21-16.5-.39-1.9-1.91-1.89-3.39-1.16-5.9l-.68-.55c15.28-18.82,33.67-35.78,49.25-54.29,14.86-17.65,11.92-28.16,13.33-49.72,2.97.52,1.54-1.5,1.81-3.21.4-2.6,1.03-5.19.96-7.84,3.65,1.21,7.66-.35,11.04-.91,1.83-.31,3.7-.63,5.52-.92Z"/>
    <path class="st2" d="M510.43,312.22c.36.61,1.12,9.07-1.18,8.09-10.18-9.82-24.89-16.99-38.89-19.1-45.34-6.86-84.16,21.1-94.98,64.74-17.5,70.58,31.89,128.94,82.34,170.64,8.13,6.72,23.53,15.68,29.93,22.54,1.85,1.98,3.67,5.95,4.38,8.51.38,1.36.72,2.47-1.18,2.1-7.08-6.64-15.85-11.19-23.47-17.06-61.24-47.12-129.47-123.51-91.79-206.79,20.13-44.49,78.17-67.01,122.05-42.51,1.44.81,12.4,8.16,12.79,8.83Z"/>
    <path class="st9" d="M191.24,527.42c2.52-.68,4.29-2.02,5.52.92-3.91,20.65,4.95,42.33,23.01,53.38,1.42,1.19,0,2.47,0,2.76-2.6.35-6.4-.99-8.28.92-2.36-.16-4.57-.81-6.44-.92-1.52-.09-3.08.1-4.6,0-.61-.04-1.23.04-1.84,0-.38-1.43-3.38-1.38-3.68,0-1.82-.13-3.7.13-5.52,0-2.04-2.51-7.77-2.65-10.12-.92-2.46-.25-4.91-.6-7.36-.92-2.26-.29-6.02-2.44-8.28,0-1.51-.12-3.11.18-4.6,0l-2.76-.92c-5.21-1.64-6.95-3.78-4.48-9.55,13.61-14.52,26.04-30.11,39.46-44.75Z"/>
    <path class="st9" d="M232.65,512.69c.3-.03.62.02.92,0,1.2-.09,2.47,0,3.68,0l.92,52.46c-.08,2.72.62,16.87,0,17.49-.13.13-2.97.09-3.69,0l-1.84-.92c-19.38-6.04-39.13-31.48-27.79-51.26,5.59-9.75,16.68-16.64,27.79-17.77Z"/>
    <path class="st9" d="M274.07,539.38l.92,1.84c.48,1.46.62,3.87.92,5.52v2.76c-.3.03-.62-.04-.92,0-4.32.54-10.15-.05-14.73,0-1.23.01-2.46,0-3.68,0-1.84-.01-3.68.02-5.52,0-.61,0-1.23.01-1.84,0-3.06-.06-6.15.04-9.21,0v-36.82c17.11,1.28,27.88,11.16,34.06,26.69Z"/>
    <path class="st9" d="M266.71,552.27c8.58,2.5,6.78-.19,7.35,7.84.06.81-.37,2.42.94,2.28-3.1,9.89-7.49,17.22-17.49,21.17h-.92c-1.26-.35-.89-2.13-.97-3.16-.53-6.66-.56-18.36,0-24.99.13-1.49-.27-1.92.97-3.14h10.12Z"/>
    <path class="st5" d="M457.58,117.43c2.88,2.57,19.47,16.36,19.83,18.48.22,1.26-10.31,12.94-11.47,13.21-1.68.39-2.18-1.81-2.57-2.91-3.28-9.12-3.07-20.57-7.08-29.74,1.03-1.54.87.59,1.29.96Z"/>
    <path class="st6" d="M603.58,138.99c-9.55,4.46-18.49,1.22-28.53,1.85-1.66-1.47,10.13-9.16,11.24-10.11,1.59-1.36,3.38-5.59,5.79-5.58.91,0,5.89,5.77,6.87,6.98.84,1.03,5.2,6.11,4.62,6.87Z"/>
    <path class="st6" d="M688.26,195.15c-3.22.11-6.03.93-9.2.92-.58-.58,1.14-13.81,1.84-13.81h17.49c.03,4.33-.43,8.71.92,12.88-3.35.15-6.78-.18-10.12,0-.31.02-.61-.01-.92,0Z"/>
    <path class="st5" d="M470.41,158.06c-1.04-1.25-1.48-2.76-.78-4.3.37-.81,10.75-13.04,11.54-13.44,1.29-.65,8.27,4.98,8.81,6.06,1.02,2.04-10.64,14.35-12.51,15.2s-5.81-2.02-7.06-3.52Z"/>
    <path class="st7" d="M754.52,576.66c.21-.73,8.46-11.5,11.04-9.66-.47,8.05.56,15.96.93,23.93h-11.97c.69-3.83-.95-10.98,0-14.27Z"/>
    <path class="st6" d="M606.32,112.32c.1.07.19,1.51.91,2.27,1.51,1.59,7.95,7.94,8.21,9.36.11.62-6.25,10.3-6.85,10.48-2.67.82-3.35-3.28-5.02-5.09-1.28-1.39-7.02-6-7.29-7.49-.22-1.22,8.85-10.39,10.05-9.54Z"/>
    <path class="st6" d="M682.74,177.65c-.38-1.52,1.49-.35,1.82-1.56,1.13-4.14,1.55-6.35,4.5-10.06l7.47-18.74c-.11,4.43,3.04,26.39,1.45,28.59-1.1,1.54-12.79,1.95-15.25,1.77Z"/>
    <path class="st9" d="M295.14,432.71c1.68,1.91-2.09,13.08-5.86,13.77l-13.29-11.69,6.97-7.6c1.62,1.98,11.75,5.02,12.19,5.53Z"/>
    <path class="st5" d="M494.64,152.03c1.88-.37,8.15,4.97,7.59,7.5-2.24,1.74-9.58,11.54-11.23,11.52-1.45-.02-9.08-4.03-8.83-5.66.14-.91,11.56-13.18,12.46-13.35Z"/>
    <path class="st7" d="M780.3,589.08c-12.83,5.11-8.84-6.59-9.17-15.22-.22-5.77-3.89-11.58,4.9-4.86,1.84,1.41,2.4,2.89,3.35,4.43l.92,15.65Z"/>
    <path class="st7" d="M280.51,259.58c-.16-1.81.1-3.71,0-5.53h14.74c-.49,8.48,3.06,12.81-7.13,14.51-1.92.32-3.83.28-5.76.22-.62-2.98,1.7-9.97-1.84-9.2Z"/>
    <path class="st6" d="M699.3,199.75l-.1,10.95c-9.8,3.27-15.93-.15-18.3-10.02,1.73.79,4.23-.92,5.06-.92h13.35Z"/>
    <path class="st9" d="M816.19,354.38c.13.08.14,1.93,1.31,2.84,1.27.99,2.82.57,3.29.84.86.49,1.68,3.73,2.76,4.6-.75,2.27-5.5,8.08-7.87,8.33s-4.91-3.63-5.94-5.57c-2.11-3.98-3.66-8.8,1.82-10.63.96-.32,4.02-.8,4.62-.42Z"/>
    <path class="st5" d="M374.4,173.06c2.98,3-9.51,16.58-11.7,19.07-.55.62.05,1.77-2.1,1.17l1.91-21.09,11.9.85Z"/>
    <path class="st9" d="M803.31,255.9c-.77,2.96,2.45,1.49,2.76,1.84,2.35,2.72-3.15,2.93-4.96,3.78-1.54.72-2.56,2.15.36,1.74-5.15,1.6-8.81,3.87-14.73,2.77v-11.05c5.61-.62,11.07.56,16.57.93Z"/>
    <path class="st5" d="M374.4,167.54l-11.95-.94.9-20.22c1.38-1.57,6.33,8.02,6.92,9.18,1.92,3.75,4.57,7.59,4.13,11.98Z"/>
    <path class="st9" d="M275.91,442.74c1.6,1.04,1.97,2.14,2.76,2.76,4.32,4.13,3.16,13.69-3.66,10.56-2.03-.93-3.4-5.02-6.46-5.04-.32-.3-.61-.61-.92-.92-3.24-3.54,2.32-9.95,5.76-8.99.92.26,1.72,1.11,2.53,1.63Z"/>
    <polygon class="st7" points="275.92 254.97 275.91 266.94 271.34 266.45 255.67 256.35 275.92 254.97"/>
    <path class="st1" d="M813.43,264.18c7.13-2.86,13.44-6.89,21.63-7.17,21.34,2.31,43.06,1.51,64.41,3.5,1.12.1,3.6.43,4.41.92,1.01.61.56,1.73.66,1.83,1.77,1.68,2.33-.98,2.76,4.6-1.57-.5-2.55-4.44-2.76-4.6-.43-.32-9.14-1.77-10.55-1.87-15.51-1.17-58.17-3.93-71.28-.31-2.08.57-6.34,5.7-9.29,3.1Z"/>
    <path class="st5" d="M240.02,512.69v36.82c3.05.04,6.14-.07,9.2,0-1.92,2.44-7.27-1.01-6.44,2.76-.09-.09-1.33,0-1.84,0s-1.57-.19-1.77.05c-1.03,1.27-.92,10.51-.99,12.83l-.92-52.46c.91,0,1.85-.07,2.76,0Z"/>
    <path class="st1" d="M253.82,565.15v19.33c0,.7-13.81-.22-13.81-.92v-18.41h13.81ZM251.07,567.91c-2.14.29-7.63-.82-8.81.87-.65.93-.68,9.09-.4,10.64.63,3.46,7.06,4.59,9.14,1.75,1.88-2.57-.95-9.68.07-13.26Z"/>
    <path class="st6" d="M618.3,116.92c-.5.46-1.26-.07-1.83-.57-1.71-1.48-6.92-5.91-6.36-8.01.29-1.11,12.33-10.8,14.19-12.57l-6,21.15Z"/>
    <path class="st1" d="M842.88,340.57v1.84c-1.76,2.5-10.02,11.04-12.44,12.88-5.04,3.82-2.43.34-3.21-.91,2.17.52,4.38-4.01,3.68-4.6-.3-.25-8.36-1.28-6.44,2.76-.61-.59-4.23-2.94-3.68-3.67l22.09-8.29Z"/>
    <path class="st2" d="M671.42,710.77c11.3-3.34,11.09,14.07-.02,10.67-4.07-1.25-4.87-9.22.02-10.67Z"/>
    <path class="st7" d="M856.69,518.2c-.72.57-15.35-5.18-17.22-6.24-4.67-2.65-.7-2.97,1.15-4.79.82-.81,1.32-2.55,1.46-2.64,2.98-1.78,12.54,11.18,14.61,13.67Z"/>
    <path class="st1" d="M253.82,469.43c-.27-.58-6.44-2.48-7.27-1.74l-2.85,8.18,9.1-.1c.11-1.58,1.58-5.13,1.02-6.34,1.96,1.6,4.98,2.82,6.45,5.06.57.88,1.53.79,0,1.84-4.41,3.05-18,.32-23.93,2.29-.9-.67,11.61-13.57,12.55-13.73,1.9-.33,3.79,3.6,4.94,4.54Z"/>
    <path class="st1" d="M782.03,255.07c.73.87-.17,6.41-.71,7.85-.26.7.14,1.89-1.46,1.24-2.49-1-10.34-6.25-13.09-8.09-1.2-.8-2.5-1.05-2.12-2.94l17.38,1.93Z"/>
    <path class="st7" d="M231.73,361.74v-.92c.15-.87-.18-1.76.48-2.7.25-.35,6.17-5.37,6.59-5.48,2.34-.64,4.59,3.41,4.75,5.13.13,1.5-6.94,7.43-7.8,7.58-1.17.2-3.4-2.54-4.01-3.61Z"/>
    <path class="st7" d="M251.05,381.99c-2.22-1.67-10.41-9.7-10.94-11.69-.58-2.17,3.75-6.39,5.85-5.79,1.67.47,3.83,14.72,5.09,17.48Z"/>
    <path class="st7" d="M824.48,482.32c6.52,6.86,10.64,7.22-.45,14.74-.94.02-1.95-13.56-2.31-14.74h2.76Z"/>
    <path class="st7" d="M835.19,494.35c1.77-.31,6.66,3.85,3.01,7.68-3.35,3.52-7.23,7.6-9.59,1.4-.96-2.52,5.15-8.83,6.58-9.08Z"/>
    <path class="st1" d="M795.93,382.01c.08.06-.11,1.27.67,1.82.89.62,3.63,1.74,3.79,2,1.8,2.99-5.5,10.84-8.59,11.79l2.31-15.06c-.2-.92,1.6-.7,1.82-.55Z"/>
    <path class="st1" d="M242.78,552.27c.2.21-.23,1.61,0,1.84.25.25,2.97-2.73,4.59-1.84-.19,7.34,2.43,12.55-7.36,11.04-.52-4,2.31-7.11.92-11.04.51,0,1.75-.09,1.84,0Z"/>
    <path class="st7" d="M229.55,344.45c1.71-.33,4.79,1.59,5.84,3.03-1.71,1.2-6.92,8.04-8.6,7.75-.83-.14-3.39-2.81-3.23-3.9s4.78-6.65,5.98-6.88Z"/>
    <path class="st7" d="M221.61,339.65c-1.35,2.1-1.47,4.27-4.6,3.68-.19-.19-1.55-.2-2.29-.89-3.47-3.26-6.86-6.9-9.22-11.05,5.26,3.08,10.99,4.94,16.12,8.26Z"/>
    <path class="st7" d="M312.73,253.14c-.78,1.77-11.19,9.17-11.96,8.27-2.62-11.79,3.21-7.68,11.96-8.27Z"/>
    <path class="st1" d="M799.62,378.31c-1.74-.82-4.2-2.15-4.32-4.23-.06-1.11,2.09-9.28,2.5-9.56,1.72-1.18,13.71,9.09,13.77,11.47.05,1.7-5.55,7.84-6.05,7.92-3.22.52-4.7-3.57-5.9-5.59,2.46,1.16,6.93,3.3,8.12-.66s-5.35-11.58-8.92-9.33c-.2.13-1.52,3.87-1.6,4.44-.35,2.62,1.19,3.51,2.39,5.55Z"/>
    <path class="st1" d="M803.31,255.9c2.4.16,4.7.77,6.81.83.4.01,9.11-2.11,6.07,1-1.23,1.26-12.21,4.76-14.72,5.54-2.92.41-1.89-1.01-.36-1.74,1.81-.85,7.3-1.06,4.96-3.78-.31-.35-3.53,1.12-2.76-1.84Z"/>
    <path class="st1" d="M816.19,354.38c-.6-.38-3.66.09-4.62.42-5.48,1.83-3.93,6.65-1.82,10.63-2.81-.97-8.35-4.54-6.28-8.12.28-.48,9.12-5.48,9.67-5.57,1.87-.29,2.33,2.12,3.05,2.64Z"/>
    <path class="st1" d="M371.64,301.92c.2-.03.92-.83,2.21-.97,2.06-.21,19.16-.64,19.88.05.4.38-.17,4.78-.88,5.79l-13.85,13.53c.21-.31.25-1.39.87-2.31,2.27-3.4,13.97-10.31,10.98-15.06-1.89-3-15.86,2.08-19.21-1.03Z"/>
    <path class="st1" d="M268.55,468.51c-.32.28-.72,4.03-3.1,3.61l-12.49-11.5c-.39-1.53,5.08-7.6,6.41-8.26,1.84-.91,13.38,9.03,14.24,10.64,1.96,3.69-3.25,3.96-5.06,5.51,7.99-1.96-4.26-15.51-9.17-13.38-7.4,3.21,1.29,15.31,9.17,13.38Z"/>
    <polygon class="st6" points="700.23 216.31 699.77 226.44 692.86 216.32 700.23 216.31"/>
    <path class="st5" d="M274.99,549.51c.12.87-.17,1.97,0,2.76h-18.41c1.78-1.75,4.38.2,3.68-2.76,4.58-.05,10.41.54,14.73,0Z"/>
    <path class="st1" d="M366.11,302.84c-3.38.57-7.39,2.13-11.04.91.07,2.65-.56,5.24-.96,7.84-.26,1.71,1.17,3.73-1.81,3.21.16-2.5.08-9.96,1.83-11.51,1.66-1.47,9.91-2.31,11.97-.45Z"/>
    <path class="st1" d="M268.55,451.02c3.06.02,4.43,4.1,6.46,5.04,6.83,3.13,7.98-6.43,3.66-10.56,1.48,1.17,5.87,2.98,6.3,5.2.24,1.25-5.2,8.33-5.96,8.56-1.87.57-8.65-6.51-10.47-8.23Z"/>
    <path class="st4" d="M790.74,585.07c.69.58,5.65,3.23,3.38,4.49-5.46,3.03-7.6-2.01-6.45-6.91,2.2-.54,2.08,1.6,3.07,2.43Z"/>
    <path class="st1" d="M196.76,528.34c-1.23-2.94-3-1.6-5.52-.92,2.62-2.86,4.96-6.12,8.27-8.28.31,3.06-2.27,6.64-2.75,9.2Z"/>
    <path class="st1" d="M779.38,573.44c.27.43,1.6.85,2.06,2.04.84,2.15,1.25,10.89.74,13.03-.27,1.14-1.41.39-1.88.58l-.92-15.65Z"/>
    <path class="st1" d="M217.01,343.33c3.13.59,3.25-1.58,4.6-3.68,1.43.93,4.76.67,1.82,4.12-.17.2-3.85,3.23-4.12,3.23-1.24.01-2.12-3.5-2.3-3.67Z"/>
    <path class="st1" d="M274.99,552.27c.06.26.71.99.92,1.84v3.68c-.11,1.15.24,2.73,0,3.68l-.92.92c-1.31.14-.88-1.47-.94-2.28-.56-8.03,1.23-5.34-7.35-7.84h8.28Z"/>
    <path class="st9" d="M824.48,352.54c-1.92-4.04,6.14-3,6.44-2.76.7.58-1.5,5.11-3.68,4.6-.09-.14-1.46-.58-2.76-1.84Z"/>
    <path class="st1" d="M207.8,513.61c-.6,2.21,1.43,1.65,2.76,2.76-1.68,1.23-3.28,2.52-4.61,4.14-1.2,1.46-1.23,3.76-2.75,4.14.09-4.5,2.89-7.56,4.59-11.04Z"/>
    <path class="st1" d="M681.81,166.62c-1.84,3.77-2.62,8.73-5.52,11.97.36-1.49.03-3.06.71-5.26.4-1.28,2.77-7.17,4.81-6.71Z"/>
    <path class="st1" d="M219.77,581.72c2.35,1.44,6.52,2.52,9.2,3.69l-8.28.91c-.17-.56-.91-1.4-.92-1.84,0-.29,1.42-1.57,0-2.76Z"/>
    <path class="st1" d="M889.82,289.03c-2.52,2.67-4.11,6.28-7.36,8.28.59-1.1.12-2.7,1.84-5.06,1.29-1.77,3.16-3.54,5.52-3.22Z"/>
    <path class="st1" d="M824.48,482.32h-2.76c-.09-.3-4.14-3.79-2.29-5.53,2.8.41,3.5,3.9,5.05,5.53Z"/>
    <path class="st1" d="M251.98,558.71l-1.84-.92c-1.17-1.52-1.55-3.73-.46-5.52,1.54.56,5.21,5.96,2.31,6.44Z"/>
    <path class="st6" d="M219.77,584.48c.01.44.75,1.28.92,1.84-3.16.29-6.09-.71-9.2-.92,1.88-1.91,5.69-.57,8.28-.92Z"/>
    <path class="st6" d="M749.92,587.25c1.29,1.66,0,6.43-3.67,4.59-.57-.5,2.45-6.16,3.67-4.59Z"/>
    <path class="st6" d="M189.39,584.48c-3.36-.25-6.77-.58-10.12-.92,2.36-1.73,8.08-1.59,10.12.92Z"/>
    <path class="st1" d="M291.56,425.25c-3.34-1.79-5.43-1.29-3.88-4.38.59-1.18,1.55-1.45,2.04-2.06l.68.55c-.72,2.5-.74,3.99,1.16,5.9Z"/>
    <path class="st1" d="M280.51,259.58c3.54-.77,1.22,6.23,1.84,9.2l-.84-.51c.53-3.05-.77-6.02-1-8.69Z"/>
    <path class="st6" d="M171.91,582.64c-1.66,1.5-5.59.22-8.28,0,2.26-2.44,6.03-.29,8.28,0Z"/>
    <path class="st1" d="M266.71,585.4l1.84,2.76c-1.51-.14-3.09.13-4.6,0l-.92-1.84c1-.3,3.05-.52,3.68-.92Z"/>
    <path class="st5" d="M280.51,558.71c-.13-3.36.19-6.78,0-10.12,2.41,2.75.42,7.29,0,10.12Z"/>
    <path class="st6" d="M820.79,358.06c-.47-.27-2.03.15-3.29-.84-1.16-.91-1.17-2.76-1.31-2.84,2.2,1.59,2.35,1.45,4.6,3.68Z"/>
    <path class="st4" d="M665.25,576.2l.92,1.84c-4.95-.13-7.1-.41-.92-1.84Z"/>
    <path class="st1" d="M275.91,442.74c-.8-.52-1.6-1.37-2.53-1.63-3.43-.96-9,5.45-5.76,8.99-1.09-1.1-3.32-1.41-2.66-3.96.14-.55,5.73-6.36,6.35-6.68,2.02-1.04,3.6,1.83,4.59,3.28Z"/>
    <path class="st5" d="M256.58,549.51c-.93,1.51-4.65,1.48-5.52,0,1.84.02,3.68-.01,5.52,0Z"/>
    <path class="st6" d="M842.88,340.57c.48-3.81,3.18-2.66,0,1.84v-1.84Z"/>
    <path class="st1" d="M485.77,270.62l4.07-5.14c.91-.99,2.27-1.4,3.29-2.22-1.86,3.04-4.81,5.02-7.36,7.36Z"/>
    <path class="st6" d="M205.04,584.48c-.61,1.45-4,1.45-4.6,0,1.52.1,3.08-.09,4.6,0Z"/>
    <path class="st5" d="M263.03,586.32l.92,1.84c-1.16-.1-4.45.25-2.76-1.84.16-.2,1.33.15,1.84,0Z"/>
    <path class="st1" d="M823.56,362.66c-1.08-.87-1.9-4.11-2.76-4.6,1.99,1.97,3.85,1.32,2.76,4.6Z"/>
    <path class="st5" d="M275.91,557.79v-3.68c.81,3.24.19,1.75,0,3.68Z"/>
    <path class="st6" d="M198.6,584.48c-1.22-.09-2.47.09-3.68,0,.3-1.38,3.3-1.43,3.68,0Z"/>
    <path class="st5" d="M275.91,549.51v-2.76c.03.14.86.56.93,1.38l-.93,1.39Z"/>
    <path class="st1" d="M319.17,444.58c1.75-3.85,5.45-6.34,8.28-9.2-2.36,3.41-5.49,6.2-8.28,9.2Z"/>
    <path class="st6" d="M159.02,582.64c-1.62-.2-1.84-.63-2.76-.92l2.76.92Z"/>
    <path class="st10" d="M336.66,393.04l3.7-4.13c-.11,2.72-2.41,3.25-3.7,5.05v-.92Z"/>
    <path class="st5" d="M251.98,558.71c-1.66.27-1.27-.18-1.84-.92l1.84.92Z"/>
    <path class="st1" d="M312.73,451.94c2.13-2.66,3.17-3.91,5.52-6.44l-5.52,6.44Z"/>
    <rect class="st1" x="250.15" y="561.48" width="1.83" height=".9"/>
    <path class="st5" d="M279.59,541.22c-.02-.1-.58-.53-.92-1.84l.92,1.84Z"/>
    <path class="st5" d="M274.99,541.22l-.92-1.84c.19.48.62.92.92,1.84Z"/>
    <path class="st5" d="M234.49,582.64c-1.01-.13-1.45-.8-1.84-.92l1.84.92Z"/>
    <path class="st5" d="M231.73,361.74c-.09-.16-.57-.19-.61-.46-.03-.22.6-.35.61-.46v.92Z"/>
    <path class="st5" d="M278.67,537.54c-.02-.06-.68-.18-.92-.92l.92.92Z"/>
    <path class="st5" d="M280.51,544.9c0-.06-.82-.23-.92-.92l.92.92Z"/>
    <path class="st5" d="M274.99,562.39l.92-.92c-.32,1.26-.9.86-.92.92Z"/>
    <path class="st2" d="M569.52,305.6c-1.5-6.61,3.2-6.91,8.48-8.55,55.12-17.14,105.63,25.45,113.85,79.04,13.29,86.7-67.2,153.31-130.16,197.32.7-3.06,1.73-7.62,3.76-10.04,4.83-5.75,22.25-16.38,29.36-22.19,51.7-42.21,102.42-96.88,89.53-169.55-8.01-45.2-48.47-77.41-94.78-70.4-6.84,1.04-13.12,3.97-20.04,4.36Z"/>
    <path class="st5" d="M688.26,195.15c.31-.01.61.02.92,0h-.92Z"/>
    <path class="st5" d="M256.58,583.56h.92c-.2.08-.21.85-.46.91l-.46-.91Z"/>
    <path class="st5" d="M233.57,512.69c-.31.02-.62-.03-.92,0l.46-.9.46.9Z"/>
    <path class="st0" d="M635.79,692.17c.96-.64,1.51-8.55,9.77-9.17,6.54-.49,12.22,5.72,11.18,12.17-1.14,7.07-7.63,8.18-8.12,12.13-.36,2.96-.24,15.14.97,17.32.71,1.28,2.6,1.1,3.63,2.1,11.25,10.87-5.53,27.01-15.16,14.25-2.54-3.37-3.94-6.13-1.74-10.07.28-.51,3.67-4.86,4.03-5.19,1.29-1.18,3.56-1.15,3.77-1.9.33-1.17.32-18.71-.21-19.54-.19-.3-4.17-1.7-5.91-3.77-1.05-1.26-1.22-3.4-1.44-3.6-1.76-1.59-15.23,2.97-15.52-4.74h14.73ZM644.75,687.73c-7.15,1.5-5.41,14.44,4.19,11.6,6.32-1.87,3.13-13.14-4.19-11.6ZM643.81,729.18c-6.87,2.03-2.37,14.83,5.57,11.08,5.65-2.66,3.25-13.69-5.57-11.08Z"/>
    <path class="st0" d="M255.66,313.88c.13-.17-1.08-2.48-1-4.12.2-3.87,5.53-13.47-2.68-14.29v19.79c0,.76,1.3,1.84.78,4.38s-3.79,4.44-4.46,7.12c-3.95.3-4.64,4.38-12.18,3.44-14.76-1.83-10.96-18.68.16-21.45,1.58-.39,5.38-.21,5.58-.4,1.27-1.2-1.62-30.23.48-34.96,4.19-9.45,11.11,4.25,13.35,6.85,7.11,8.26,12.34,8.95,11.06,22.17-.48,4.93-4.79,14.5-11.09,11.46ZM245.54,274.3v38.66c-6.77-3.53-20.77,4.07-13.39,11.1,4.49,4.27,13.65,1.17,16-4.34,1.84-4.31,1.27-14.12,1.11-19.22-.12-3.66-2.71-8.42.44-11.47,8.08,4.49,12.98,9.5,9.66,19.33,3.96-2.83,4.5-10.57,3.25-14.77-1.59-5.31-9.59-9.94-12.5-14.19-1.54-2.24-.25-5.92-4.57-5.1ZM258.89,309.28v.92c.6-.31.6-.61,0-.92Z"/>
    <path class="st1" d="M248.3,326.77c.67-2.68,3.93-4.56,4.46-7.12s-.78-3.62-.78-4.38v-19.79c8.21.82,2.88,10.41,2.68,14.29-.08,1.64,1.13,3.95,1,4.12-.06.08-1.6-.35-1.86.59-.69,2.58.92,6.84-.43,9.56-.63,1.26-3.28,1.46-3.39,3.56-.8.5-1.51-.83-1.68-.82Z"/>
    <path class="st0" d="M412.73,452.53c-2.34,2.05-4.2,2.63-6.99.73-.58-.39-8.91-9.61-9.1-10.27-1.93-6.59,14.6-17.37,14.6-20.97,0-2.43-5.61-5.47-7.43-7.33s-7.38-8.01-7.41-10.13c-.04-3.22,10.31-14.32,12.5-14.32,2.85,0,15.47,16.61,18.42,16.38.67-.05,8.79-7.76,10.11-8.99,2.07-1.94,4.19-6.86,7.51-7.17,2.61-.25,13.98,10.02,14.08,13.15.17,4.96-16.77,15.09-15.48,20.06.21.79,9.33,10.37,10.92,12.15,1.96,2.2,6.17,2.53,4.14,6.89-.93,1.99-5.94,5.11-7.87,6.88s-2.55,5.47-5.9,5.15c-1.66-.16-14.73-15.39-18.32-16.55-2.12.37-11.39,12.23-13.79,14.33ZM410.28,396.72c-.71-.48-8.77,5.42-8.16,7.65.76,2.8,17.78,15.81,17.32,18.45-4.82,5.02-9.66,10.06-14.65,14.9-1.68,1.63-4.27,1.09-2.3,5,.28.56,6.07,5.36,6.47,5.5,1.66.57,1.59-1.63,2.66-2.75,5.1-5.35,10.84-10.03,15.7-15.61l18.41,18.37,6.84-7.68c-1.91-3-17.69-16.54-17.35-18.41,1.95-3.1,17.45-16.94,17.45-18.53,0-1.73-6.78-7.07-7.75-6.87-1.22.25-13.83,16.75-17.59,17.48-6.03-4.79-13.01-11-17.04-17.51Z"/>
    <path class="st1" d="M389.12,379.23c-1.13-14.36,10.81-36.75,21.27-46.38,5.11-4.71,22.84-15.04,29.33-16.69,2.51-.64,15.76-1.86,17.85-1.22.46.14,1.49,1.04,1.49,1.25-.02,1.35-21.09,9.86-24.24,11.63-12.56,7.04-26.81,18.73-34.1,31.25-4.05,6.95-5.65,14.34-9.74,21.09l-1.84-.92Z"/>
    <path class="st6" d="M390.96,380.15c-.2.34.23,1.64,0,1.84-2.07,1.71-1.75-1.59-1.84-2.76l1.84.92Z"/>
    <path class="st0" d="M419.04,733.59l4.73-9.08c4.78-.05,11.81-2,11.34,4.8-.14,1.97-4.2,17.58-4.93,18.18-.57.47-1.23.72-1.96.8h-54.25c-3.95-.52-4.02-6.24-2.77-9.16,1.82-4.27,15.43-16.44,19.32-21.17.93-1.13,4.16-4.99,4.16-5.99l-22.51-26.3c-1.26-2.34-1.88-7.02-.08-9.15s50.01-.54,56.68-.49c.88.27,1.34.23,1.76,1.19.89,2.03,4.2,19.24,3.29,20.54s-9.23,1.28-10.66.42c-1.51-.91-2.91-8.76-5.05-8.76h-20.71c2.67,4.23,17.42,17.69,17.42,21.63,0,4.51-15.61,17.13-17.42,22.55h21.63ZM427.78,679.28h-53.38l1.42,5.48,23.46,27.19-23.46,27.19-1.42,5.48h52.92c1.35,0,3.7-14.22,4.14-16.56-8.88-1.45-5.25,1.97-8.78,6.4-.59.74-3.04,2.8-3.64,2.8h-28.99l1.86-4.13c2.28-3.1,18.83-19.57,19.17-21.32.43-2.22-13.97-17.09-16.4-20.14-1.31-1.64-3.39-3.89-3.7-5.96h28.07c.23,0,3.08,2.35,3.55,2.99,3.29,4.56.19,8.61,7.96,7.13l-2.77-16.57Z"/>
    <path class="st0" d="M832.76,549.97c-.37,1.2-2.09,1.3-3.17,1.43-10.75,1.26-23.96-1.01-35-.07-5.07-.54-4.39-16.21-.76-17.28,10.74.74,24.47-1.63,34.84-.23,1.22.16,4.1,1.18,4.1,2.35v13.81ZM829.08,538.46h-33.13v9.21c10.69-.93,21.43-1.13,32.22-.92l.92-8.29Z"/>
    <path class="st0" d="M622.91,411.44c1.73-1.37-3.33-2.88-4.1-3.73-4.09-4.48-3.17-14.59,1.39-18.77,15.17-13.88,31.93,10.35,17.43,22.49h26.69c1.32,0,4.24,22.09-1.38,22.09h-25.31c1.13,3.49,4.44,3.8,5.31,8.03,2.38,11.56-4.76,19.71-16.59,17.51-8.94-1.66-13.53-14.27-8.87-21.31,1.4-2.12,4.48-1.86,5.43-4.24h-26.23c-.26,0-2.51-1.43-2.76-1.84-.82-1.35-.83-17.03,0-18.41.25-.41,2.5-1.84,2.76-1.84,3.55,0,25.2.81,26.23,0ZM636.44,404.74c5.49-6.73-4.29-20.43-12.19-11.74-8.04,8.83,5.14,20.4,12.19,11.74ZM598.98,428.01h61.67v-10.13c-20.46-1.7-41.12-.62-61.67-.92v11.05ZM628.21,437.4c-11.08,2.74-7.36,19.89,5.09,16.19,8.91-2.65,4.86-18.64-5.09-16.19Z"/>
    <path class="st1" d="M668.92,383.83c-1.43-.74-2.58-4.01-3.2-5.53-9.88-24.38-22.55-42.95-46.6-55.57-3.6-1.89-10.52-3.5-13.11-5.29-1.09-.75-1.83-1.07-1.51-2.63,29.22-.16,54.97,23.7,62.84,50.82,1.79,6.16,3.21,11.84,1.57,18.2Z"/>
    <path class="st0" d="M819.87,286.27c.05-3.59,2.31-5.11-4.03-4.52-15.31,1.41-26.62,15.54-30.52,29.34-.28.99-1.45,14.15-4.6,9.26s3.42-20.93,6.55-25.72c13.34-20.4,49.29-26.6,59.47-.72,3.41,8.67,1.59,25.15-8.64,27.61-7.21,1.73-17.85,1.39-18.18-8.16-.11-3.28.07-6.81-.06-10.52.87.12,1.98-.18,2.76,0,5.27,1.2,9.27.92,14.73.92-1.1.8-2.44,1.3-3.68,1.84-.44.19-1.68-.56-1.88.57l.05,12.32c5.87.01,8.01-2.64,10.12-7.37,1.88-4.22.69-3.28.92-5.52.06-.55.93-1.44.92-1.84-.21-9.13-4.25-16.22-12.67-20-4.41-1.98-10.02-4.45-9.42,2.52h-1.84ZM830.91,306.52h-4.59s0,.91,0,.91l4.59.93v-1.83ZM830,317.56l.9-.47c.05-5.36,1.46-6.7-4.59-5.97-.44-1.4-.73-4.38-2.76-3.68-.87,5.34.92,9.21,6.44,10.12Z"/>
    <path class="st10" d="M821.71,286.27c.06.66.88,1.77.93,3.17.15,4.46-.11,8.94,0,13.39-.78-.18-1.89.12-2.76,0-.19-5.47-.08-11.09,0-16.57h1.84Z"/>
    <path class="st0" d="M433.17,128.75l-9.08.12-.91,17.49c3.02-1.69,1.72-5.43,6.06-5.51,10.31-.19,2.7,20.11-7.45,20.11-9.27,0-13.37-10.58-12.89-18.29-.73,7.78-2.53,19.18-12.84,17.44-3.25-.55-5.66-3.8-6.01-6.94-.71-6.45,10.07-15.86,8.25-24.3-2.48,1.36-2.87,5.11-6.03,5.55-10.89,1.52-3.85-12.77,1.13-16.44,8.16-6.02,28.19-1.61,38.38-2.79,2.96,1,3.08,10.84,1.38,13.55ZM430.55,125.2c-.12-2.67,1.05-5.83-2.3-6.45-5.3-.98-24.68-.17-30.18,1.11-3.79.88-7.11,6.1-7.09,9.93,2.67.41,1.92-2.25,4.23-3.57,9.52-5.43,6.91,8.27,5.44,13.72-1.14,4.19-6.5,10.22-6.7,12.56-.27,3.12,2.59,4.7,5.57,3.82,6.28-1.85,6.52-25.28,7.1-31.13h8.29c.57,7.97-6.05,31.27,6.9,31.35,5.59.04,9.04-7.08,8.74-12.02-3.24-.32-2.06,4.49-5.25,5.4-9.73,2.76-4.25-19.94-4.88-24.73h10.13ZM410.28,139.92c-.51-1.82,1.18-6.54-.9-7.35.51,1.82-1.18,6.54.9,7.35Z"/>
    <path class="st0" d="M667.09,109.55c.31.31.8,8.28-1.84,7.82,10.93,4.8,16.9,11.4,15.69,23.98-.73,7.54-9.37,17.84-17.53,16.99-.03,1.87,2.82.24,3.57,2.4.62,1.79-.16,4.78.11,6.79h-24.39c-1.99,0-2.89-4.85-1.48-6.83,1.17-1.64,5.26.79,5.61-1.45-25.22-2.35-27.42-36.97-1.84-41.44.13-1.79-2.48-.48-3.73-1.31-1.74-1.17-.31-6.96.05-6.96h25.77ZM664.32,112.31h-21.17c-.45,3.15,3.12,1.34,5.26,3.04,6.72,5.35-4.13,5.31-7.72,6.93-12.63,5.68-14.59,21.4-3.91,30,3.81,3.07,11.91,3.42,12.42,4.14,4.23,5.92-5.6,6.18-6.04,6.52-.31.23,1.17,1.83,1.38,1.83h19.79c.14,0,.11-2.66,0-2.76-.29-.28-3.96.76-5.62-1.3-4.31-5.34,4.01-4.41,7.44-5.62,16.15-5.65,15.99-29.37-1.08-33.88-3.59-.95-10.5.55-6.36-4.85.83-1.08,7.7-2.4,5.6-4.06Z"/>
    <path class="st0" d="M529.02,481.39c1.17-1.04-7.2-7.42-8.3-8.72-11.86-14.07-2.75-34.37,13.38-40.02,1.07.61,1.05,1.32,1.33,2.31,5.21,18.48,5.24,41.19,11.01,59.94,1.08,6.15-8.9,5.13-13.26,4.9-34.69-1.83-55.74-30.08-46.52-63.99,5.41-19.89,24.14-36.16,39.15-49.21.99,5.58,6.5,22.44,4.91,27-.32.91-9.23,5.38-11.34,7.07-16.73,13.41-19.61,37.4-4.63,53.37,2.04,2.18,11.71,9.64,14.27,7.35ZM524.26,410.35l-2.13-12.71c-15.53,11.95-30.29,28.72-31.79,49.2-1.39,18.88,4.78,32.17,21.09,41.57,9.18,5.29,18.13,6.35,28.65,5.87l-9.66-51.55c-1.09-1.73-3.31,1.37-4.17,2.29-6.24,6.66-7.88,15.06-2.59,22.88,2.59,3.83,18.12,13.69,7.77,18.18-10.49,4.56-26.1-11.63-29.13-20.75-3.2-9.59-3.07-20.26-.45-30,2.53-9.4,9.31-14.37,16.14-20.68,1.2-1.11,6.1-3.98,6.29-4.31Z"/>
    <path class="st0" d="M527.19,354.38c-3.3-19.35-3.81-41.95,6.28-59.52,7.19-12.51,20.96-16.37,23.06,1.18,2.38,19.9-8.73,38.56-21.96,52.39-1.01,1.06-6.31,6.91-7.38,5.96Z"/>
    <path class="st0" d="M552.96,495.21l-11.05-63.51c11.48-1.63,22.81,6.07,27.78,15.94,8.56,17.02,1.88,41.22-16.72,47.57ZM549.27,443.66c1.45,11.06,3.21,26.34,5.91,36.88,2.06,8.05,4.43,5.94,7.71.22s5.32-13.57,4.68-19.98-6.02-20.28-13.7-19.88c.79-2.72-3.3-1.93-5.52-2.76.52,1.83.67,3.64.92,5.52Z"/>
    <path class="st9" d="M251.07,567.91c-1.02,3.58,1.81,10.69-.07,13.26-2.08,2.84-8.51,1.71-9.14-1.75-.28-1.55-.25-9.71.4-10.64,1.17-1.69,6.66-.57,8.81-.87Z"/>
    <path class="st9" d="M253.82,469.43c.56,1.21-.91,4.76-1.02,6.34l-9.1.1,2.85-8.18c.83-.74,7,1.17,7.27,1.74Z"/>
    <path class="st9" d="M799.62,378.31c-1.2-2.03-2.74-2.93-2.39-5.55.08-.57,1.4-4.32,1.6-4.44,3.57-2.25,10.05,5.57,8.92,9.33-1.19,3.96-5.66,1.82-8.12.66Z"/>
    <path class="st9" d="M268.55,468.51c-7.88,1.93-16.57-10.18-9.17-13.38,4.91-2.13,17.17,11.43,9.17,13.38Z"/>
    <path class="st2" d="M644.75,687.73c7.32-1.54,10.51,9.73,4.19,11.6-9.6,2.84-11.35-10.1-4.19-11.6Z"/>
    <path class="st2" d="M643.81,729.18c8.82-2.61,11.22,8.43,5.57,11.08-7.95,3.74-12.44-9.05-5.57-11.08Z"/>
    <path class="st2" d="M245.54,274.3c4.32-.83,3.03,2.86,4.57,5.1,2.91,4.25,10.91,8.87,12.5,14.19,1.25,4.19.7,11.94-3.25,14.77,3.32-9.82-1.57-14.84-9.66-19.33-3.15,3.04-.56,7.8-.44,11.47.17,5.1.74,14.91-1.11,19.22-2.36,5.51-11.52,8.61-16,4.34-7.38-7.02,6.62-14.62,13.39-11.1v-38.66Z"/>
    <path class="st1" d="M258.89,309.28c.6.31.6.61,0,.92v-.92Z"/>
    <path class="st2" d="M410.28,396.72c4.03,6.52,11.02,12.72,17.04,17.51,3.76-.73,16.37-17.23,17.59-17.48.97-.2,7.76,5.14,7.75,6.87,0,1.59-15.5,15.43-17.45,18.53-.33,1.87,15.44,15.41,17.35,18.41l-6.84,7.68-18.41-18.37c-4.86,5.58-10.6,10.26-15.7,15.61-1.07,1.12-1.01,3.32-2.66,2.75-.4-.14-6.19-4.95-6.47-5.5-1.97-3.9.62-3.37,2.3-5,4.99-4.85,9.83-9.89,14.65-14.9.46-2.64-16.56-15.65-17.32-18.45-.61-2.23,7.45-8.13,8.16-7.65Z"/>
    <path class="st2" d="M427.78,679.28l2.77,16.57c-7.78,1.48-4.67-2.57-7.96-7.13-.47-.65-3.31-2.99-3.55-2.99h-28.07c.31,2.07,2.39,4.31,3.7,5.96,2.43,3.05,16.83,17.92,16.4,20.14-.34,1.75-16.89,18.21-19.17,21.32l-1.86,4.13h28.99c.6,0,3.06-2.06,3.64-2.8,3.53-4.43-.1-7.86,8.78-6.4-.44,2.34-2.79,16.56-4.14,16.56h-52.92l1.42-5.48,23.46-27.19-23.46-27.19-1.42-5.48h53.38Z"/>
    <path class="st2" d="M829.08,538.46l-.92,8.29c-10.79-.21-21.53-.01-32.22.92v-9.21h33.14Z"/>
    <path class="st2" d="M598.98,428.01v-11.05c20.55.31,41.2-.78,61.67.92v10.13h-61.67Z"/>
    <path class="st2" d="M628.21,437.4c9.96-2.46,14.01,13.53,5.09,16.19-12.45,3.71-16.17-13.45-5.09-16.19Z"/>
    <path class="st2" d="M636.44,404.74c-7.05,8.65-20.23-2.91-12.19-11.74,7.9-8.69,17.68,5.02,12.19,11.74Z"/>
    <path class="st9" d="M843.8,303.76c-2.15,0-4.3,0-6.44,0-5.46,0-9.46.28-14.73-.92-.11-4.45.15-8.94,0-13.39-.05-1.4-.87-2.51-.93-3.17-.6-6.97,5.01-4.5,9.42-2.52,8.42,3.78,12.46,10.88,12.67,20Z"/>
    <path class="st9" d="M833.68,305.6h4.6c.58,2.32.66,5.62,3.68,5.52-2.11,4.73-4.25,7.38-10.12,7.37l-.05-12.32c.2-1.13,1.44-.38,1.88-.57Z"/>
    <path class="st6" d="M826.32,311.12c6.05-.73,4.64.61,4.59,5.97l-.9.47c-4.02-2.09-2.82-3.71-3.68-6.44Z"/>
    <path class="st1" d="M842.88,305.6c-.23,2.24.96,1.31-.92,5.52-3.02.1-3.1-3.2-3.68-5.52h4.6Z"/>
    <path class="st1" d="M830,317.56c-5.52-.91-7.31-4.78-6.44-10.12,2.03-.7,2.32,2.27,2.76,3.68.86,2.74-.33,4.35,3.68,6.44Z"/>
    <path class="st5" d="M843.8,303.76c0,.4-.86,1.3-.92,1.84h-9.2c1.24-.54,2.58-1.04,3.68-1.84,2.15,0,4.3,0,6.44,0Z"/>
    <polygon class="st6" points="830.91 306.52 830.91 308.36 826.32 307.43 826.32 306.53 830.91 306.52"/>
    <path class="st2" d="M430.55,125.2h-10.13c.63,4.79-4.85,27.49,4.88,24.73,3.19-.91,2-5.72,5.25-5.4.3,4.94-3.15,12.05-8.74,12.02-12.95-.08-6.33-23.39-6.9-31.35h-8.29c-.58,5.85-.82,29.28-7.1,31.13-2.98.88-5.84-.7-5.57-3.82.2-2.34,5.56-8.37,6.7-12.56,1.47-5.44,4.08-19.15-5.44-13.72-2.31,1.32-1.57,3.99-4.23,3.57-.02-3.83,3.3-9.04,7.09-9.93,5.5-1.28,24.88-2.1,30.18-1.11,3.35.62,2.18,3.78,2.3,6.45Z"/>
    <path class="st5" d="M410.28,139.92c-2.09-.81-.39-5.53-.9-7.35,2.09.81.39,5.53.9,7.35Z"/>
    <path class="st2" d="M664.32,112.31c2.09,1.66-4.78,2.98-5.6,4.06-4.14,5.4,2.77,3.9,6.36,4.85,17.07,4.51,17.23,28.23,1.08,33.88-3.43,1.2-11.75.28-7.44,5.62,1.66,2.06,5.32,1.02,5.62,1.3.1.1.13,2.76,0,2.76h-19.79c-.21,0-1.69-1.6-1.38-1.83.44-.34,10.27-.59,6.04-6.52-.51-.72-8.61-1.08-12.42-4.14-10.68-8.61-8.72-24.32,3.91-30,3.59-1.61,14.44-1.57,7.72-6.93-2.14-1.7-5.71.11-5.26-3.04h21.17ZM650.52,123.36c-16.71.15-16.53,29.49,0,30.37v-30.37ZM657.88,153.73c12.64-1.62,15.45-17.13,8.28-26.23-2.22-2.81-4.41-4.88-8.28-4.15v30.37Z"/>
    <path class="st10" d="M524.26,410.35c-.19.33-5.09,3.2-6.29,4.31-6.83,6.31-13.61,11.28-16.14,20.68-2.62,9.74-2.74,20.41.45,30,3.04,9.11,18.64,25.3,29.13,20.75,10.36-4.5-5.18-14.36-7.77-18.18-5.29-7.82-3.65-16.22,2.59-22.88.86-.92,3.08-4.02,4.17-2.29l9.66,51.55c-10.51.49-19.46-.58-28.65-5.87-16.31-9.4-22.48-22.69-21.09-41.57,1.51-20.48,16.26-37.25,31.79-49.2l2.13,12.71Z"/>
    <path class="st10" d="M553.88,440.9c7.68-.4,13.06,13.42,13.7,19.88s-1.49,14.41-4.68,19.98-5.65,7.83-7.71-.22c-2.7-10.54-4.46-25.82-5.91-36.88,1.49-2.19,1.97-2.62,4.6-2.76Z"/>
    <path class="st5" d="M549.27,443.66c-.25-1.88-.39-3.69-.92-5.52,2.22.83,6.31.04,5.52,2.76-2.63.14-3.11.57-4.6,2.76Z"/>
    <path class="st0" d="M650.52,123.36v30.37c-16.53-.88-16.71-30.22,0-30.37ZM641.31,136.24c-.29,3.27-.34,6.33,1.42,9.16,2.81,4.52,5.69,5.88,5.02-.88-.62-6.21-1.44-11.07,0-17.48-4.43.93-6.08,5.22-6.44,9.2Z"/>
    <path class="st0" d="M657.88,153.73v-30.37c3.87-.73,6.06,1.33,8.28,4.15,7.17,9.1,4.36,24.61-8.28,26.23ZM660.64,150.97c8.66-5.68,8.12-19.09,0-24.85v24.85Z"/>
    <path class="st6" d="M641.31,136.24c.35-3.98,2.01-8.27,6.44-9.2-1.43,6.41-.61,11.27,0,17.48-2.1-.94-1.58,3.45-3.7,1.4s-.87-7.43-2.74-9.68Z"/>
    <path class="st1" d="M641.31,136.24c1.88,2.25.64,7.64,2.74,9.68s1.59-2.34,3.7-1.4c.67,6.76-2.21,5.4-5.02.88-1.77-2.84-1.71-5.89-1.42-9.16Z"/>
    <path class="st6" d="M660.64,150.97v-24.85c8.12,5.76,8.66,19.17,0,24.85Z"/>
    <g>
      <path class="st3" d="M1136.59,220.09v353.67h69.91v88.49h-184.89V220.09h114.98Z"/>
      <path class="st3" d="M1488.62,478.99c0,44.43-1.05,75.88-3.14,94.36-2.1,18.48-8.65,35.37-19.66,50.66-11.02,15.29-25.9,27.04-44.65,35.23-18.75,8.19-40.6,12.29-65.55,12.29s-44.93-3.87-63.77-11.61c-18.84-7.74-34-19.34-45.47-34.82-11.47-15.47-18.3-32.31-20.48-50.53-2.19-18.2-3.28-50.07-3.28-95.59v-75.65c0-44.42,1.04-75.87,3.14-94.36,2.09-18.48,8.64-35.37,19.66-50.66,11.01-15.29,25.9-27.04,44.65-35.23,18.75-8.19,40.6-12.29,65.55-12.29,23.67,0,44.93,3.87,63.77,11.61,18.84,7.74,34,19.35,45.47,34.82,11.47,15.48,18.3,32.32,20.48,50.53,2.18,18.21,3.28,50.07,3.28,95.59v75.65ZM1373.65,333.7c0-20.57-1.14-33.73-3.41-39.46-2.28-5.74-6.96-8.61-14.07-8.61-6.01,0-10.61,2.32-13.79,6.97-3.19,4.64-4.78,18.34-4.78,41.1v206.47c0,25.67,1.04,41.51,3.14,47.52,2.09,6.01,6.96,9.01,14.61,9.01s12.84-3.46,15.02-10.38c2.19-6.92,3.28-23.39,3.28-49.43v-203.19Z"/>
      <path class="st3" d="M1792.87,220.09v295.5c0,33.5-1.09,57.04-3.28,70.6-2.19,13.56-8.65,27.49-19.39,41.78-10.74,14.3-24.9,25.13-42.47,32.5-17.57,7.37-38.28,11.06-62.13,11.06-26.4,0-49.71-4.37-69.91-13.11-20.21-8.74-35.32-20.12-45.34-34.14-10.01-14.02-15.93-28.81-17.75-44.38-1.82-15.57-2.73-48.29-2.73-98.18V220.09h114.98v331.55c0,19.3,1.05,31.64,3.14,37.01,2.09,5.37,6.32,8.06,12.7,8.06,7.28,0,11.97-2.96,14.06-8.88,2.09-5.91,3.14-19.89,3.14-41.92V220.09h114.98Z"/>
      <path class="st3" d="M1837.38,220.09h86.03c55.53,0,93.08,2.55,112.66,7.65,19.57,5.1,34.45,13.48,44.65,25.12,10.2,11.65,16.57,24.63,19.12,38.92,2.55,14.29,3.82,42.38,3.82,84.25v154.85c0,39.69-1.87,66.23-5.6,79.61-3.73,13.38-10.24,23.85-19.53,31.41-9.29,7.56-20.76,12.84-34.41,15.84-13.66,3-34.23,4.51-61.72,4.51h-145.02V220.09ZM1952.36,295.74v290.86c16.57,0,26.76-3.32,30.59-9.97,3.82-6.64,5.73-24.72,5.73-54.21v-171.78c0-20.03-.64-32.86-1.91-38.51-1.28-5.64-4.19-9.78-8.74-12.42-4.55-2.64-13.11-3.96-25.67-3.96Z"/>
      <path class="st3" d="M2599.89,220.09v442.16h-100.5l-.14-298.5-40.01,298.5h-71.28l-42.2-291.68-.14,291.68h-100.5V220.09h148.77c4.41,26.59,8.96,57.92,13.65,94l16.33,112.47,26.42-206.47h149.59Z"/>
      <path class="st3" d="M2844.8,220.09l65.75,442.16h-117.5l-6.17-79.47h-41.13l-6.91,79.47h-118.87l58.65-442.16h166.19ZM2783.87,504.39c-5.82-50.08-11.66-111.98-17.51-185.71-11.71,84.67-19.07,146.57-22.06,185.71h39.58Z"/>
      <path class="st3" d="M3130.81,220.09v88.49h-68.28v353.67h-114.98v-353.67h-68.01v-88.49h251.26Z"/>
      <path class="st3" d="M3421.4,220.09v442.16h-114.98v-185.71h-34.41v185.71h-114.98V220.09h114.98v158.13h34.41v-158.13h114.98Z"/>
    </g>
  </g>
</svg>