<?xml version="1.0" encoding="UTF-8"?>
<svg id="Tribe_of_Abraham_Logo" xmlns="http://www.w3.org/2000/svg" version="1.1" viewBox="0 0 864 864">
  <!-- Generator: Adobe Illustrator 30.2.1, SVG Export Plug-In . SVG Version: 2.1.1 Build 1)  -->
  <defs>
    <style>
      .st0 {
        fill: #4cafdd;
      }

      .st1 {
        fill: #245dab;
      }

      .st2 {
        fill: #fff;
      }

      .st3 {
        fill: #c12827;
      }

      .st4 {
        fill: #7ea840;
      }

      .st5 {
        fill: #ffc80f;
      }
    </style>
  </defs>
  <g id="Inside_Fill">
    <path d="M497.17,99.41c8.65-.02,17.27.27,25.9.93,5.62.43,11.26.68,16.88,1.17,6.23.54,12.42,1.04,18.43,2.93,7.38,2.33,12.54,6.76,14.09,14.68.1.5.22,1.01.42,1.48.74,1.73,2.21,2.28,4.01,1.6.77-.29,1.24-.88,1.79-1.41,2.83-2.77,5.9-5.41,9.58-6.78,5.46-2.03,11.15-3.24,17.09-2.7,6.39.57,12.7,1.65,18.99,2.84,8.64,1.64,17.28,3.23,25.85,5.21,7.24,1.67,13.16,5.57,18.52,10.47,1.53,1.4,2.61,1.75,4.33.76,3.58-2.07,7.46-2.78,11.53-2.9,2.12-.06,4.05.64,6.03,1.1,4.66,1.08,9.29,2.27,13.95,3.32,2.59.58,5.03,1.64,7.59,2.3,4.05,1.05,8.08,2.17,12.15,3.15,4.16,1.01,8.09,2.72,12.27,3.69,4.76,1.1,9.25,2.86,13.36,5.66,5.77,3.93,10.53,8.76,13.93,14.83,1.42,2.52,3.01,4.97,3.99,7.75,1.84,5.25,2.71,10.75,4.31,16.07,1.04,3.47,1.25,7.06,1.71,10.62.73,5.6,1.26,11.24,1.65,16.86.66,9.47,1.53,18.94,2.01,28.42.06,1.2.31,2.38.09,3.58-.62,3.37-1.13,6.76-1.9,10.1-.8,3.48-1.57,6.97-3.72,10.02-1.58,2.23-3,4.57-4.72,6.71-1.74,2.16-1.51,3.81.69,5.4.62.45,1.28.86,1.89,1.34,2.57,1.99,4.26,4.49,5.27,7.66,1.15,3.61,1.26,7.29,1.15,10.92-.16,5.17-1.97,9.85-6.79,12.49-3.66,2-7.77,2.49-11.95,2.12-3.49-.31-6.98-.63-10.47-.86-3.36-.22-6.65.59-9.93,1.12-3.39.54-4.6,2.93-3.62,6.24.1.33.28.62.41.94,1.59,4.19,4.07,7.9,6.51,11.61,3.63,5.5,7.75,10.65,11.75,15.89,3.89,5.1,7.96,10.08,11.76,15.24,4.31,5.84,8.78,11.62,11.97,18.2,1.52,3.14,3.12,6.28,4.28,9.56,1.97,5.55,3.11,11.36,4.66,17.04.18.65.61,4.14.61,5.25,0,1.29-.44,4.56-.51,4.98-.7,4.32-2.01,8.41-4.47,12.09-.93,1.4-.78,2.76.22,4.03,1.14,1.45,1.7,3.12,2.1,4.88.64,2.74,1.3,5.47,2,8.18.18.71.18,33.75.15,34.67-.22,9.33.16,18.66-.47,27.99-.55,8.19-.42,16.44-.63,24.66-.06,2.31-.15,4.62-.37,6.92-.71,7.5-.67,15.05-1.16,22.56-.43,6.49-.78,12.98-1.19,19.47-.26,4.18-.57,8.36-.86,12.54-.26,3.84-.37,7.7-.8,11.52-.71,6.38-.86,12.8-1.72,19.16-.44,3.21-.32,6.5-.64,9.73-1.19,11.92-2.45,23.83-3.68,35.74-.67,6.47-1.4,12.93-2.33,19.37-.58,4-1.33,7.88-3.1,11.56-3.1,6.41-8.08,10.75-14.64,13.27-4.38,1.68-8.98,2.7-13.49,4-6.73,1.93-13.41,4.02-20.21,5.72-1.42.36-2.88.74-4.31.44-3.99-.82-8.11-1.35-11.26-4.4-1.36-1.31-2.65-2.66-3.77-4.19-.81-1.1-1.9-1.76-3.33-1.45-1.41.31-2.2,1.33-2.45,2.69-.7,3.73-2.62,6.83-4.84,9.8-2.58,3.47-5.9,6.05-10,7.28-4.82,1.46-9.75,2.54-14.65,3.7-4.9,1.16-9.82,2.25-14.75,3.3-3.09.65-6.18,1.42-9.38.48-1.55-.45-2.77.16-3.81,1.44-2.42,2.99-5.46,5.32-9.11,6.41-4.16,1.24-8.47,1.99-12.74,2.84-3.52.7-7.1,1.11-10.6,1.86-1.63.35-3.12.62-4.73-.01-1.52-.6-2.98-.46-4.4.5-1.13.77-2.41,1.32-3.76,1.6-4.18.86-8.35,1.81-12.57,2.47-2.44.38-4.9.75-7.39.89-4.73.27-9.15-1.14-13.59-2.33-1.67-.45-2.84-.26-3.89.96-.62.72-1.31,1.35-2.02,1.97-3.32,2.9-7.53,3.38-11.55,3.66-6.4.45-12.85.23-19.28.29-.69,0-1.34-.15-2-.38-2.59-.91-5.26-.98-7.81-.06-2.25.82-4.51.89-6.82.88-5.23-.01-10.46,0-15.69.02-.91,0-18.01.13-18.21.13-3.9.06-7.51-1.29-11.22-2.17-.76-.18-1.52-.09-2.28.09-3.38.78-6.67,2.04-10.22,2.02-.29,0-8.52.47-12.35.47s-16.38-2.35-19.31-1.6c-2.55.65-12.34,1.6-14.1,1.6-1.84,0-14.47-1.82-18.49-2.53-.95-.17-1.83,0-2.77.21-3.37.79-6.66,1.83-10.28,1.39-4.4-.53-8.88-.58-13.23-1.55-6.26-1.41-12.44-3.15-18.19-6.06-2.55-1.29-4.59-.72-6.63.85-.81.62-1.58,1.24-2.6,1.59-3.72,1.25-7.51,1.53-11.34.84-5.73-1.04-11.57-1.01-17.33-1.77-4.47-.58-8.98-.75-13.45-1.6-5.02-.96-8.86-3.56-11.74-7.56-1.54-2.14-3.21-2.83-5.69-2.19-3.15.8-6.33,1.46-9.5,2.18-1.87.42-3.76.41-5.62.09-5.06-.86-10.17-1.25-15.26-1.88-6.61-.82-13.26-1.36-19.83-2.5-7.4-1.28-14.85-2.27-22.18-3.98-3.98-.93-6.96-3.17-9.76-5.8-1.12-1.05-2.11-1.57-3.61-1.28-2.21.42-4.42.31-6.62-.25-5.46-1.38-10.95-2.67-16.41-4.08-1.98-.51-4.27-.49-5.87-1.71-3.52-2.69-7.56-3.07-11.7-3.7-3.01-.46-6.02-1.19-9.01-1.88-4.63-1.07-8.97-2.74-13.11-5-11.92-6.49-18.96-16.97-23.64-29.3-1.49-3.92-2.46-8.01-3.4-12.09-1.21-5.23-3-10.35-3.2-15.79-.05-1.37-.17-2.74-.39-4.08-.92-5.75-1.08-11.58-1.76-17.36-.53-4.5-.79-9.03-1.19-13.55-.47-5.28-.98-10.55-1.42-15.84-.26-3.24-.19-6.52-.66-9.73-.65-4.47-.32-8.92.38-13.27,1.02-6.39,2.21-12.76,4.64-18.88,2.51-6.35,6.34-11.68,10.98-16.51,1.76-1.83,1.68-4.06-.51-5.28-2.56-1.42-5-3.04-7.12-5.02-3.64-3.4-6.65-7.32-8.8-11.88-1.47-3.11-2.08-6.49-3.23-9.7-.65-1.84-1.14-3.8-1.31-5.74-.76-8.61-.43-17.27-1-25.9-.4-6.06-.26-12.16-.35-18.24-.01-.95.14-11.22.37-12.01.66-2.21,1.31-4.43,1.82-6.68.97-4.31,2.54-8.32,5.3-11.84,1.6-2.04,1.48-3.03-.19-4.95-1.8-2.09-3.49-4.24-3.72-7.16-.05-.59-.26-1.17-.43-1.74-.65-2.16-.99-4.34-.52-6.58.6-2.84.97-5.78,2.06-8.46,2-4.9,4.08-9.77,6.41-14.52,3.53-7.2,7.04-14.42,11-21.41,1.73-3.05,3.34-6.18,4.61-9.45,1-2.6-.57-4.48-3.3-4.04-.84.14-1.72.22-2.51.53-4.05,1.59-8.04,1.2-12-.3-3.14-1.19-5.34-3.49-6.47-6.54-1.15-3.13-1.7-6.45-1.42-9.84.13-1.53.29-3.08.28-4.61-.04-6.6.57-13.17.81-19.76.09-2.56.14-5.13.35-7.69.38-4.6.47-9.22.85-13.83.37-4.43.21-8.91.63-13.34.79-8.27,1.15-16.56,1.87-24.83.44-5.03.69-10.08,1.12-15.11.55-6.39,1.19-12.77,1.78-19.16.69-7.41,1.35-14.83,2.09-22.23.63-6.3,1.36-12.6,2.05-18.89.52-4.76.88-9.54,1.77-14.26.55-2.95,1.69-5.72,2.53-8.58,2.13-7.28,6.62-12.52,13.68-15.26,4.21-1.63,8.6-2.79,12.96-4.01,4.85-1.37,9.77-2.47,14.61-3.88,3.69-1.08,7.36-2.16,11.12-2.99,3.59-.79,7.21-1.54,10.67-2.71,6.25-2.12,12.74-3.2,19.1-4.86,4.96-1.29,10.02-2.19,14.96-3.53,3.9-1.05,7.69-1.37,11.54.06,1.39.52,2.59.25,3.83-.67,1.71-1.26,3.42-2.53,5.54-3.18,6.97-2.12,14.12-3.38,21.27-4.58,3.71-.62,7.37-1.46,11.07-2.07,4.13-.68,8.23-1.52,12.37-2.19,4.55-.74,9.16-1.15,13.67-2.08,6.78-1.41,13.43-1.31,20.01.8,2.27.73,4.64,1.13,6.79,2.28,3.05,1.62,3.73,1.45,5.77-1.33,2.17-2.97,4.79-5.47,8.25-6.72,3.85-1.4,7.89-2.28,11.99-2.56,6.74-.45,13.5-.75,20.25-1.14,2.39-.14,4.78-.18,7.17-.34,2.2-.14,4.41-.72,6.63-.38,1.94.3,3.89.66,5.77,1.22,2.45.73,7.55-.58,7.79-.66,4.84-1.62,9.88-2.01,14.91-2.26,5.3-.26,10.63-.14,15.94-.22.91-.01,34.45.01,34.96,0,4.59-.1,8.88,1.4,13.24,2.53.49.13.96.33,1.42.55,2.61,1.24,5.22,2.45,7.59,4.18,1.94,1.42,3.24,1.16,5.01-.49.31-.29.59-.63.91-.9,2.37-1.96,4.68-4.08,7.85-4.58,2.6-.41,5.06-1.6,7.78-1.36.18.02,13.51.06,14.31.06Z"/>
  </g>
  <g id="Outside_Stroke">
    <path class="st3" d="M370.96,772.06c-2.23.08-4.41-.48-6.64-.44-4.23.08-8.31-.96-12.34-2.06-4.93-1.34-9.95-2.45-14.51-4.91-.81-.44-1.55-.3-2.39.21-4.14,2.52-8.69,3.37-13.49,3.17-5.97-.25-11.89-1.14-17.84-1.63-3.74-.31-7.47-.76-11.21-1.05-7.51-.58-14.66-2.35-19.94-8.05-2.21-2.39-4.24-2.24-6.76-1.55-.74.2-1.47.47-2.22.62-2.86.58-5.77,1.1-8.65.65-6.83-1.07-13.73-1.54-20.57-2.47-5.07-.69-10.16-1.19-15.23-1.92-4.8-.7-9.57-1.63-14.37-2.38-4.13-.65-8.2-1.49-12.19-2.79-2.85-.93-5.09-2.75-7.47-4.4-.91-.63-1.75-1.32-3-1.25-4.08.22-7.91-1.12-11.82-2.01-4.41-1-8.75-2.3-13.16-3.33-3.11-.72-6.39-1.35-8.8-3.79-.54-.54-1.16-.62-1.87-.64-5.69-.13-11.11-1.73-16.57-3.09-4.09-1.01-7.9-2.65-11.56-4.68-3.9-2.17-7.59-4.67-10.91-7.63-4.22-3.77-7.67-8.21-10.43-13.17-3.41-6.14-6.35-12.45-7.96-19.34-1.17-4.99-2.7-9.9-3.74-14.91-1.42-6.86-1.82-13.87-2.48-20.82-.64-6.62-1.15-13.27-1.81-19.89-.85-8.58-1.44-17.18-2.37-25.75-.61-5.62-.17-11.25.61-16.87.49-3.48,1.26-6.88,1.95-10.31,1.06-5.29,2.95-10.31,5.4-15.13,1.65-3.23,3.92-6.01,5.97-8.96,1.1-1.58,1.12-1.63-.47-2.72-5.27-3.64-8.96-8.67-12.07-14.1-2.91-5.08-4.02-10.86-5.56-16.45-.25-.9-.45-1.84-.5-2.77-.38-6.4-.79-12.8-1.03-19.2-.19-4.88-.16-9.76-.2-14.65-.04-4.18-.91-8.32-.61-12.51.02-.31-.3-3.93-.3-5.4s.84-5.55,1.01-6.32c1.47-6.58,3.02-13.15,6.41-19.08.45-.79.53-1.42-.07-2.09-1.81-1.99-2.35-4.53-2.93-7.01-.71-3.07-1.57-6.15-1.19-9.36.72-6.05,2.32-11.79,4.88-17.4,3.73-8.16,7.67-16.21,11.72-24.21,1.38-2.73,2.81-5.43,4.36-8.4-2.89.02-5.38-.85-7.93-1.39-6.12-1.28-10.19-5.06-12.53-10.64-1.58-3.79-2.3-7.86-2.11-12.02.05-1.11.27-2.21.32-3.31.25-6.32.55-12.65.67-18.98.08-4.28.49-8.52.83-12.77.38-4.77.4-9.57.57-14.35.07-2.05-.07-4.14.24-6.15.88-5.67.75-11.4,1.27-17.1.33-3.65.73-7.3.88-10.98.2-4.94.87-9.86,1.13-14.8.29-5.38,1.07-10.71,1.38-16.08.26-4.42.88-8.83,1.26-13.25.3-3.49.24-7.02.79-10.47,1.02-6.41,1.38-12.89,2.25-19.32.9-6.66,1.02-13.42,2.62-20,1.52-6.25,3.32-12.35,7.19-17.64,2.85-3.89,6.46-6.81,10.85-8.7,5.42-2.34,11.16-3.74,16.8-5.39,4.74-1.39,9.62-2.26,14.32-3.83,1.68-.57,3.36-1.19,5.12-1.57,5-1.1,10.03-2.13,14.9-3.67,7.1-2.25,14.37-3.71,21.59-5.42,5.14-1.22,10.26-2.57,15.42-3.7,3.48-.76,6.87-1.35,10.33-.08,1.05.39,1.96.21,2.88-.47,2.01-1.49,4.31-2.38,6.74-2.98,2.73-.68,5.43-1.48,8.16-2.11,2.66-.61,5.35-1.09,8.04-1.57,3.86-.69,7.78-1.13,11.59-2.04,3.58-.85,7.23-1.23,10.82-1.98,6-1.25,12.1-2.07,18.18-2.85,2.54-.33,5.01-.98,7.56-1.26,7.45-.81,14.39,1.33,21.32,3.48,1.08.33,1.55.27,2.32-.61,1.93-2.19,4.32-3.88,6.87-5.28,4.89-2.68,10.38-3.34,15.75-4.15,3.95-.6,8.02-.36,12.03-.53,4.19-.18,8.36-.61,12.54-.81,5.97-.3,11.94-1.11,17.79.87,1,.34,2.01.37,3.02,0,4.61-1.63,9.32-2.62,14.24-2.77,1.9-.06,23.23-.63,31.97-.63s27.87.43,28.45.55c5.78,1.14,11.53,2.41,16.67,5.46,1.53.91,2.62.74,3.89-.31,2.2-1.81,4.73-2.89,7.45-3.78,2.44-.8,17.68-1.92,22.83-1.92,4.8,0,15.98.51,16.83.53,6.14.21,12.28.32,18.42.95,6.44.66,12.94.81,19.38,1.62,4,.5,7.97,1.29,11.74,2.57,5.77,1.95,10.68,5.31,14.01,10.62.5.8,1.03,1.57,1.5,2.38.5.85,1.03.99,1.84.33,1.47-1.19,3.06-2.22,4.76-3.01,5.41-2.51,11.16-3.74,17.08-4.13,2.63-.17,5.27.17,7.91.42,7.84.74,15.5,2.48,23.24,3.75,5.97.98,11.87,2.37,17.78,3.65,4.34.94,8.53,2.32,12.47,4.47,2.8,1.52,5.31,3.44,7.89,5.26,1.36.96,2.59,1.13,4.28.61,4.59-1.42,9.25-2.31,14.14-1.26,2.59.55,5.19,1.1,7.74,1.76,4.71,1.2,9.51,2.04,14.11,3.68,2,.71,4.03,1.34,6.12,1.8,4.25.94,8.43,2.15,12.61,3.38,3.6,1.06,7.08,2.51,10.77,3.23,3.47.67,6.73,1.95,9.78,3.66,8.67,4.84,15.64,11.39,20.57,20.14,2.76,4.89,4.71,10.04,6.15,15.39.89,3.29,1.67,6.63,2.48,9.95.59,2.4,1.2,4.83,1.45,7.29.79,7.89,1.42,15.8,2.08,23.7.37,4.43.75,8.85,1.03,13.29.26,4.26.46,8.52.98,12.76.2,1.62.33,3.29-.06,4.86-.9,3.65-1.01,7.44-2.11,11.05-.91,3.01-1.31,6.21-2.92,8.98-1.41,2.44-2.96,4.79-4.46,7.2.16.21.29.43.47.61,3.38,3.38,5.85,7.21,6.69,12.06.48,2.79.66,5.59,1.07,8.36.66,4.46-1.09,8.39-2.01,12.52-.03.16-.19.28-.28.43-3.31,5.5-7.59,9.65-14.34,10.43-.5.06-.99.26-1.48.41-2.68.8-5.44.68-8.15.37-4.33-.49-8.65-1-13.02-.75-.94.05-1.85.11-2.7.93,1.79,3.26,3.71,6.48,5.91,9.5,6.84,9.39,14,18.55,21.04,27.79,4.96,6.51,9.87,13.08,13.61,20.44,3.03,5.95,5.9,11.93,7.09,18.55.56,3.14,2.01,5.99,2.59,9.12.23,1.24.74,6.59.74,8.03s-.5,6.57-.64,7.63c-.46,3.44-2.23,6.41-3.3,9.63-.33.98-.51,1.78-.08,2.86,1.58,3.95,2.46,8.12,3.4,12.26.22.97.63,13.48.63,18.75s-.32,17.4-.33,18.34c-.08,7.62-.22,15.25-.23,22.87,0,9.33-.61,18.63-.89,27.95-.14,4.61-.58,9.22-.62,13.83-.04,5.05-.68,10.06-.9,15.09-.3,6.99-.43,13.99-1.16,20.97-.73,6.87-.64,13.81-1.38,20.7-.45,4.16-.18,8.41-.83,12.52-.98,6.26-.89,12.59-1.78,18.84-.61,4.31-.54,8.68-1.19,13-.62,4.14-.49,8.38-1.18,12.48-.92,5.49-1.03,11.03-1.83,16.52-1.01,6.91-1.6,13.86-2.91,20.75-.72,3.81-2.21,7.21-4.08,10.42-4.62,7.91-11.66,12.75-20.41,15.22-4.35,1.22-8.68,2.51-13.03,3.76-5.33,1.52-10.65,3.1-16.02,4.51-4.04,1.06-8.12,2.21-12.29.43-.15-.06-.34-.02-.51-.06-3.28-.7-6.46-1.63-9.13-3.84-.64-.53-1.29-1.14-2.29-1.37-.58.88-1.15,1.83-1.8,2.71-1.66,2.27-3.05,4.78-5.19,6.66-4.46,3.91-9.66,6.31-15.47,7.57-7.25,1.57-14.41,3.54-21.68,5-4.16.83-8.29,2.2-12.63,1.82-.98-.09-1.57.37-2.22.99-3.99,3.89-8.91,5.89-14.24,7.15-6.56,1.55-13.24,2.45-19.84,3.79-1.19.24-2.35.53-3.55.42-2.72-.25-5.31-.1-7.9,1.01-2.9,1.25-6.11,1.54-9.19,2.24-3.58.81-7.28.87-10.83,1.86-.48.13-1.02.02-1.54.05-4.22.25-8.37-.16-12.4-1.48-1.73-.57-3.2-.26-4.66.96-3.77,3.16-8.46,4.22-13.13,4.53-6.39.43-12.82.67-19.24.49-2.06-.06-4.11-.06-6.12-.52-2.79-.64-5.38.02-7.9,1.17h-43.22c-5.15-2.49-10.29-2.3-15.44,0h-28.81c-3.09-1.45-6.17-1.83-9.26,0h-22.64c-5.32-2.36-18.83-.65-19.36-.63ZM776.12,241.72c0-.71.06-1.74-.01-2.76-.3-4.01-.56-8.02-.99-12.01-.36-3.32-.33-6.66-.62-9.98-.39-4.43-.78-8.85-1.27-13.27-.62-5.59-.71-11.26-2.19-16.74-.4-1.48-1.05-2.9-1.31-4.4-1.16-6.61-3.08-12.88-6.34-18.83-4.35-7.93-10.57-13.78-18.39-18.07-1.57-.86-3.22-1.63-4.98-2.03-6.93-1.57-13.54-4.23-20.45-5.89-4.9-1.18-9.7-2.74-14.57-4.04-4.29-1.15-8.6-2.19-12.91-3.23-2.24-.54-4.49-1.28-6.76-1.41-4.07-.23-7.96.72-11.55,2.76-2.23,1.27-4.21.88-6.02-.93-4.18-4.17-9.05-7.37-14.62-9.25-7.39-2.49-15.16-3.38-22.77-4.97-6.02-1.26-12.09-2.27-18.18-3.16-5.87-.85-11.59-1.28-17.55.05-5.98,1.34-10.77,4.23-14.99,8.36-1.56,1.52-3.2,2.22-5.31,1.75-2.23-.5-2.96-2.27-3.19-4.2-.42-3.41-2.07-6.17-4.4-8.5-2.3-2.3-4.89-4.29-8.15-5.14-5.3-1.39-10.65-2.35-16.13-2.82-7.75-.67-15.51-1.27-23.27-1.72-7.61-.44-15.23-.87-22.86-.62-.51.02-1.03,0-1.54-.04-5.72-.36-11.37-.38-17.08.88-4.06.9-7.31,2.7-10.18,5.51-2.32,2.27-4.44,2.5-7.15.77-1.15-.74-2.24-1.56-3.46-2.21-6.79-3.64-14.14-5.01-21.73-5.17-14.31-.3-28.62.18-42.93.33-4.26.04-8.54.39-12.77,1.06-2.29.36-4.69.65-6.67,1.76-2.43,1.37-4.62,1.17-7.12.47-2.53-.71-5.1-1.5-7.81-1.34-8.8.53-17.59,1.06-26.39,1.57-4.18.24-8.31.62-12.46,1.4-5.61,1.05-9.77,3.78-12.98,8.33-1.54,2.19-3.93,2.78-6.31,1.51-1.68-.89-3.42-1.5-5.24-2.02-1.64-.46-3.34-.77-4.95-1.31-3.83-1.29-7.78-1.49-11.67-.83-7.58,1.29-15.24,2.02-22.78,3.61-8.27,1.74-16.65,2.94-24.97,4.46-3.7.68-7.34,1.65-11.03,2.38-3.33.66-6.46,1.75-9.07,3.95-1.79,1.51-3.68,1.67-5.75.92-3.27-1.18-6.49-.96-9.8-.08-4.87,1.29-9.81,2.35-14.71,3.52-4.65,1.11-9.29,2.3-13.95,3.35-4.51,1.01-8.85,2.61-13.38,3.55-3.51.73-7.07,1.43-10.45,2.6-5.11,1.76-10.36,2.9-15.55,4.31-4.7,1.27-9.38,2.61-14.01,4.1-5.68,1.84-10.01,5.35-12.88,10.7-1.48,2.75-2.09,5.76-3.11,8.64-1.59,4.45-2.02,9.18-2.41,13.86-.5,6.05-1.21,12.08-1.9,18.1-.77,6.71-1.52,13.42-2.12,20.14-.76,8.51-1.57,17.01-2.28,25.53-.67,8.01-1.47,16.01-1.87,24.03-.45,9.05-1.6,18.06-1.63,27.14,0,1.54,0,3.1-.21,4.62-.94,7.05-.84,14.16-1.25,21.24-.23,3.92-.54,7.85-.62,11.79-.07,3.5.07,7.01-.42,10.51-.49,3.46.38,6.82,1.42,10.08,1.32,4.15,7.88,7.66,12.64,6.81,2.27-.41,4.48-1.11,6.75-1.52,3.78-.68,6.12,2.13,4.9,5.8-.13.4-.31.8-.48,1.19-1.69,3.84-3.78,7.47-5.7,11.19-3.98,7.74-8.13,15.4-11.65,23.38-1.13,2.57-2.16,5.19-3.5,7.68-1.31,2.42-1.48,5.24-2.2,7.88-1.45,5.34,0,12.23,3.52,16.35,2.59,3.03,2.65,4.39.21,7.65-1.55,2.07-2.66,4.33-3.57,6.77-.96,2.58-1.38,5.28-2.27,7.87-1.14,3.32-1.64,6.81-1.31,10.37.47,5.04.25,10.1.41,15.14.21,6.67.84,13.33.62,20.02-.09,2.74-.04,5.49.21,8.22.24,2.63.24,5.29,1.05,7.86,1.02,3.26,1.86,6.57,2.89,9.82.43,1.37,1.01,2.75,1.77,3.96,3.12,4.96,6.63,9.59,11.76,12.7.95.58,1.91,1.14,2.86,1.71,2.64,1.57,3.13,5.16.91,7.21-3.36,3.1-5.97,6.79-8.3,10.67-2.79,4.66-4.34,9.79-5.51,15.08-1.41,6.35-2.55,12.72-2.34,19.25.05,1.62.22,3.24.34,4.85.21,3.07.38,6.14.65,9.21.5,5.7,1.06,11.39,1.57,17.09.37,4.17.65,8.35,1.05,12.52.6,6.21,1.25,12.41,1.92,18.61.25,2.29.41,4.57.9,6.84.88,4.09,2.18,8.08,3.03,12.17,1.66,7.95,4.74,15.31,8.99,22.2,5.26,8.51,12.72,14.41,21.83,18.37,3.71,1.61,7.63,2.57,11.56,3.31,3.51.66,6.96,1.82,10.62,1.59,1.34-.09,2.46.6,3.49,1.41,1.35,1.07,2.8,1.96,4.5,2.38,7.05,1.74,14.1,3.48,21.14,5.23,1.78.44,3.53.52,5.34.09,1.97-.46,3.51.15,5.02,1.68,2.27,2.3,4.79,4.38,8.08,5.21,4.06,1.02,8.18,1.77,12.3,2.49,8.76,1.54,17.56,2.76,26.39,3.78,6.79.78,13.62,1.26,20.37,2.46,1.18.21,2.38.13,3.57-.15,3.5-.81,7.04-1.45,10.51-2.37,2.82-.75,4.85.11,6.37,2.46.99,1.53,2.33,2.69,3.68,3.9,3.61,3.24,8.19,3.72,12.62,4.44,3.96.64,8,.59,11.99,1.06,5.77.67,11.57,1.13,17.36,1.59,3.21.25,6.27-.43,8.9-2.37,2.63-1.94,5.25-2.65,8.35-1.01,2.1,1.11,4.33,2.04,6.6,2.76,6.27,1.99,12.59,3.76,19.21,4.31,5.16.43,10.22.68,15.19-1.08,1.26-.45,2.52-.23,3.8.06,2.75.62,5.48,1.46,8.27,1.68,4.09.33,8.22.34,12.33.24,3.4-.09,6.85.16,10.15-1.1,2.12-.81,4.25-.37,6.29.31,1.9.63,3.82.86,5.81.84,5.14-.03,10.29-.08,15.43.01,4.92.09,9.71-.58,14.41-2,1.45-.44,2.88-.44,4.29.03,4.6,1.53,9.33,2.02,14.14,1.96,6.6-.09,13.2-.15,19.79-.2,3.77-.03,7.55-.02,11.32,0,1.47,0,2.87-.21,4.29-.62,2.38-.69,4.86-1.41,7.32-.61,2.93.96,5.9.82,8.89.9,4.63.13,9.26-.1,13.87-.44,4.9-.36,9.7-1.25,13.04-5.57,1-1.29,2.64-1.75,4.21-1.15,2.1.8,4.32,1.02,6.45,1.66,3.31.99,6.72,1.12,10.17.61,5.16-.76,10.28-1.69,15.38-2.8,1.61-.35,3.22-.67,4.57-1.6,1.95-1.35,3.99-1.34,6.14-.79.82.21,1.6.47,2.51.27,7.18-1.54,14.45-2.58,21.62-4.21,4.55-1.04,8.26-3.2,11.2-6.68,1.52-1.81,3.3-2.47,5.44-1.9,2.96.79,5.76.05,8.6-.54.67-.14,1.32-.37,1.99-.51,5.26-1.1,10.53-2.17,15.73-3.57,3.05-.82,6.15-1.45,9.24-2.14,4.23-.95,7.81-3.08,10.63-6.32,2.71-3.12,4.82-6.6,5.77-10.74.64-2.81,2.66-3.99,5.36-3.45,1.23.24,2.18.94,2.91,1.96,2.81,3.86,6.21,6.81,11.2,7.35.33.04.63.27.96.36,1.51.42,3.02.53,4.56.11,3.95-1.08,7.94-2.04,11.87-3.18,5.49-1.59,10.99-3.17,16.5-4.71,4.51-1.26,8.96-2.65,12.78-5.67,4.54-3.59,7.5-8.09,9.04-13.6,1.91-6.87,2.2-13.99,3.12-21,.9-6.85,1.19-13.79,2.09-20.64.86-6.53,1.2-13.1,1.97-19.63.41-3.56.24-7.2.76-10.74.96-6.44,1.13-12.93,1.8-19.39.69-6.63.98-13.3,1.41-19.94.57-8.79,1.28-17.57,1.62-26.37.26-6.66.51-13.32.97-19.98.47-6.74.44-13.52.62-20.28.02-.69.01-1.37.04-2.06.32-7.43.81-14.86.92-22.3.2-13.29.07-26.58.3-39.86.07-4.27-.58-8.36-1.67-12.4-.84-3.1-1.27-6.35-3.38-9.06-1.04-1.33-.87-3.13.1-4.61,2.09-3.17,3.24-6.7,4.17-10.34.99-3.9.96-7.72.06-11.65-.65-2.83-1.89-5.47-2.22-8.39-.18-1.59-.74-3.16-1.24-4.7-2.3-7.11-5.48-13.82-9.68-19.98-3.22-4.73-6.46-9.46-10.06-13.94-5.14-6.41-10.01-13.04-15.02-19.57-4.07-5.31-7.78-10.85-11.05-16.69-1.48-2.64-2.59-5.4-2.16-8.55.18-1.28.67-2.33,1.84-2.89,1-.48,2.05-.94,3.12-1.14,5.16-.94,10.32-1.25,15.59-.69,4.73.51,9.49,1.03,14.22-.67,3.33-1.2,5.54-3.37,6.87-6.43,1.84-4.22,1.52-8.74.88-13.13-.35-2.39-.96-4.83-2.5-6.92-1.31-1.77-2.93-3.09-4.71-4.29-3-2.04-3.37-4.79-1.13-7.6,1.18-1.47,2.41-2.92,3.35-4.54,1.24-2.13,2.95-4.04,3.57-6.49.86-3.4,1.75-6.8,2.35-10.25.43-2.5,1.24-5.01.71-7.94Z"/>
  </g>
  <g id="Accents_4">
    <path class="st5" d="M550.72,327c10.04.6,20.09,1.21,30.13,1.8,10.22.6,20.43,1.18,30.65,1.76,12.31.7,24.63,1.38,36.94,2.13,2.82.17,5.65.14,8.45.63.25.04.51.07.76.14,2.7.8,3.33,2.07,2.47,5.01-.37,1.28-1.28,2.32-2.18,3.3-12.06,13.19-24.12,26.38-36.17,39.57-16.8,18.38-33.58,36.77-50.38,55.15-4.05,4.43-8.1,8.85-12.16,13.28-.38.41-.77.81-1.19,1.18-1.66,1.46-3.51,1.59-5.26.24-1.01-.78-1.92-1.7-2.84-2.6-2.75-2.7-5.51-5.41-8.23-8.14-2.25-2.26-2.31-4.05-.15-6.35,10.07-10.71,19.47-22.02,29.25-32.99,1.99-2.24,4.15-4.34,5.94-6.75,4.45-5.99,5.98-12.62,4.23-19.92-1.54-6.41-4.25-12.2-9.12-16.81-3.66-3.47-8.06-5.29-13.06-5.62-3.12-.21-6.24-.39-9.34-.79-2.38-.31-3.59-1.56-3.79-3.94-.43-5.17-.63-10.35-.66-15.53-.02-3.81.84-4.66,4.67-4.72.34,0,.68,0,1.03,0,0,0,0-.02,0-.03ZM605.81,372.2c1.62.17,4.09-1.45,6.3-3.46,1.28-1.17,2.16-2.72,2.99-4.28.39-.74,1.1-1.32,1.17-2.23.11-1.53.43-3.06.26-4.6-.13-1.18-.02-2.47-.76-3.45-2.86-3.81-6.28-6.81-11.29-7.4-3.6-.43-6.58.83-9.25,3.12-1.37,1.18-2.15,2.73-2.93,4.28-1.6,3.17-1.97,6.54-.5,9.76,2.39,5.23,6.63,7.92,14.02,8.26Z"/>
    <path class="st5" d="M312.63,532.91c-6.97-.42-13.94-.84-20.91-1.27-4.62-.28-9.23-.56-13.85-.84-7.27-.43-14.53-.86-21.8-1.27-5.69-.32-11.38-.58-17.06-.91-9.87-.56-19.75-1.15-29.62-1.76-.97-.06-1.95-.28-2.9-.54-1.88-.51-2.66-1.92-2.23-3.85.38-1.69,1.36-3.04,2.49-4.28,5.83-6.4,11.67-12.78,17.51-19.17,11.3-12.37,22.61-24.73,33.91-37.1,9.8-10.72,19.6-21.44,29.4-32.17,5.78-6.33,11.56-12.66,17.34-18.98.61-.66,1.21-1.33,1.93-1.88,1.96-1.48,3.77-1.49,5.54.21,3.64,3.51,7.25,7.05,10.8,10.65,2.04,2.07,1.96,3.91-.11,6.21-4.33,4.8-8.74,9.54-13.03,14.39-7.35,8.32-14.69,16.64-21.9,25.07-4.35,5.09-5.95,11.12-4.89,17.74,1.23,7.75,4.35,14.58,10.34,19.86,3.57,3.14,7.84,4.63,12.55,4.99,2.99.23,5.97.47,8.96.75,2.3.21,3.5,1.33,3.81,3.6.21,1.52.31,3.06.38,4.6.16,3.98.32,7.96.38,11.95.04,2.91-1.02,3.9-3.97,3.95-1.03.02-2.06,0-3.09,0,0,.01,0,.02,0,.03ZM249.08,501.61c0,.83-.1,1.54.02,2.2.23,1.23-.02,2.61.99,3.63.9.91,1.76,1.87,2.72,2.72,3.33,2.92,7.22,4.32,11.59,3.41,4.86-1.01,7.79-4.37,9.33-8.92,1.08-3.19.91-6.32-.85-9.37-1.55-2.68-3.8-4.48-6.5-5.7-3.41-1.54-6.94-1.85-10.33.12-2.06,1.19-3.76,2.82-4.96,4.9-.63,1.09-1.69,1.94-1.8,3.34-.1,1.28-.29,2.55-.22,3.69Z"/>
    <path class="st5" d="M509.69,600.22c.12,3.6-2.84,7.82-6.46,7.67-4.24-.18-7.98-3.62-7.92-7.01.05-3.05,2.79-7.58,7.02-7.4,4.14.18,7.63,2.66,7.36,6.73Z"/>
    <path class="st5" d="M362.94,267c-4.15.14-6.4-1.99-7.44-5.44-.29-.97,0-1.9.2-2.77.42-1.79,1.26-3.43,2.66-4.68,1.17-1.05,2.73-1.43,4.14-1.13,1.44.31,2.98.36,4.3,1.4,2.43,1.91,3.94,4.37,2.7,7.46-.91,2.27-2.03,4.21-4.53,4.99-.68.21-1.35.14-2.03.17Z"/>
  </g>
  <g id="Accents_3">
    <path class="st4" d="M337.34,660.01c-2.45-1.09-2.99-3.34-3.13-5.63-.37-5.81-.6-11.64-.85-17.46-.55-12.45-1.07-24.91-1.61-37.36-.67-15.45-1.35-30.9-2.01-46.35-.39-9.03-.73-18.07-1.12-27.1-.27-6.29-.63-12.58-.87-18.87-.17-4.39,1.08-5.64,5.43-5.66,4.76-.02,9.52-.05,14.28-.01,2.64.02,3.9,1.17,3.87,3.74-.12,9.4.99,18.73,1.56,28.09.47,7.7.88,15.4,1.39,23.09.4,5.98,2.06,11.56,6.64,15.69,6.18,5.58,13.3,9.18,21.87,9.17,5.39,0,10.17-1.68,14.24-5.28,2.12-1.87,4.29-3.69,6.46-5.5,2.66-2.22,4.61-2.15,7.14.17,3.34,3.08,6.69,6.14,10.04,9.21.25.23.5.47.75.7,2.36,2.29,2.41,4.07-.04,6.3-8.29,7.51-16.61,14.99-24.94,22.45-13.09,11.72-26.2,23.43-39.32,35.11-4.93,4.39-9.76,8.88-14.85,13.09-1.12.93-2.33,1.73-3.62,2.4h-1.29ZM373.04,602.67c-.11-1.09.15-2.2-.19-3.31-1.24-4.12-3.8-7.14-7.72-8.85-2.77-1.2-5.76-1.07-8.54-.08-2.06.73-3.91,1.97-5.54,3.58-2.82,2.78-4.11,6.09-3.19,9.83.88,3.59,2.51,6.91,5.65,9.3,2.96,2.26,6.22,2.95,9.6,1.73,2.24-.81,4.5-1.76,6.26-3.72,2.23-2.48,4.06-4.94,3.65-8.48Z"/>
    <path class="st4" d="M254.25,357.21c.57-.9.98-1.9,1.84-2.61,1.97-1.63,4.35-2.41,6.77-2.3,2.65.11,4.53,1.84,5.37,4.39,1,3.06,1,5.73-1.66,7.9-3.95,3.22-10.06,2.46-11.73-3.28-.1-.34.02-.91-.58-1v-3.09Z"/>
    <path class="st4" d="M611.06,502.82c-.24,1.86-1.04,2.82-2.33,3.85-2.61,2.09-7.21,3.14-10.23.68-.7-.57-.92-1.34-1.26-2.02-1.36-2.7-1.64-6.55,1.16-8.77,2.07-1.64,4.38-2.29,7.22-1.45,3.22.94,4.1,3.39,5.04,6,.14.39.4,1.53.4,1.7Z"/>
    <path class="st4" d="M525.5,359.76c-2.57,0-5.14.06-7.7-.02-2.51-.07-3.67-1.16-3.65-3.66.06-6.91-.57-13.78-1.04-20.66-.71-10.38-1.24-20.78-1.98-31.16-.64-9.14-5.26-15.7-13.28-20.03-4.83-2.61-9.88-4.27-15.43-4.26-5.53,0-10.26,1.98-14.39,5.6-2.09,1.84-4.2,3.66-6.38,5.4-2.44,1.95-4.35,1.91-6.66-.17-3.69-3.33-7.34-6.71-10.96-10.12-2.42-2.29-2.38-4.15.1-6.42,4.53-4.13,9.08-8.23,13.65-12.32,10.77-9.63,21.55-19.25,32.33-28.86,10.91-9.72,21.83-19.44,32.76-29.14.73-.65,1.54-1.24,2.36-1.77,2.18-1.4,4.22-.77,5.26,1.6.67,1.52.8,3.15.86,4.78.49,11.81.95,23.63,1.46,35.44.49,11.56,1.02,23.11,1.53,34.67.41,9.33.83,18.66,1.25,27.99.58,12.93,1.16,25.85,1.73,38.78.14,3.21.31,6.42.36,9.63.05,3.14-1.24,4.51-4.36,4.62-2.61.09-5.23.02-7.84.02,0,.02,0,.04,0,.06ZM503.97,271.49c7.6-.11,13.22-5.54,13.26-11.72.04-7.1-4.76-13.46-11.8-13.68-7.78-.24-13.82,6.65-13.71,12.32.13,6.79,5.75,13.32,12.26,13.08Z"/>
  </g>
  <g id="Accents_2">
    <path class="st1" d="M254.25,501.81c.32-1.9.85-3.66,2.12-5.22,2.22-2.72,5.37-3.33,8.35-1.41,1.94,1.24,3.73,2.57,3.9,5.15.26,3.9-2.35,9.16-7.67,8.06-.5-.1-1.03-.08-1.51-.23-2.59-.79-4.58-2.22-5.19-5.06v-1.29Z"/>
    <path class="st1" d="M610.18,361.81c-.6,1.45-1.21,2.89-2.61,3.82-3.25,2.14-7.99,1.22-10.15-2.04-1.44-2.17-1.23-4.49-.33-6.74.41-1.02.85-2.1,1.88-2.83,2.65-1.89,5.27-1.64,8.07-.35,2.02.93,3.24,2.42,3.84,4.49.08.27-.35,2.78-.7,3.64Z"/>
    <path class="st1" d="M534.1,548.9c-.36,6.02-.74,12.21-1.1,18.41-.35,6.07-.65,12.15-1.01,18.22-.64,10.98-1.33,21.97-1.97,32.95-.41,7.05-.76,14.11-1.17,21.17-.28,4.83-.62,9.65-.94,14.48-.03.42-.14.84-.24,1.26-.79,3.15-2.65,3.99-5.57,2.53-1.12-.56-2.08-1.34-3-2.19-17.87-16.41-35.74-32.81-53.62-49.21-13.42-12.32-26.85-24.63-40.27-36.94-4.39-4.03-8.8-8.03-13.2-12.05-1.02-.93-1.99-1.88-2.5-3.21-.51-1.32-.41-2.56.58-3.59,3.84-3.98,7.68-7.96,11.61-11.85,1.63-1.62,3.39-1.5,5.26.17,1.79,1.6,3.52,3.26,5.28,4.9,7.51,7.03,15.51,13.51,23.18,20.36,3.13,2.8,6.09,5.79,9.26,8.54,4.99,4.32,10.73,7.14,17.44,6.64,9.49-.71,17.64-4.43,23.48-12.26,2.45-3.28,3.32-7.19,3.65-11.22.21-2.56.37-5.12.55-7.69.23-3.15,1.41-4.48,4.56-4.83,2.25-.25,4.53-.26,6.8-.36,2.82-.12,5.65-.26,8.48-.31,3.27-.05,4.42,1.11,4.48,4.37.01.51,0,1.03,0,1.72ZM503.12,613.4c6.43,0,11.52-5.61,12.04-12.09.64-7.8-7.02-13.28-12.85-13.24-7.04.05-12.43,6.66-12.82,13.12-.32,5.38,6.76,13.01,13.63,12.21Z"/>
    <path class="st1" d="M455.14,308.88c.01.96-.43,1.85-1.12,2.57-3.79,3.91-7.57,7.82-11.43,11.66-1.42,1.41-3,1.4-4.63.05-1.75-1.44-3.38-3.03-5.04-4.58-9.53-8.83-19.43-17.23-29.16-25.82-1.99-1.76-3.92-3.59-5.98-5.27-5.9-4.84-12.62-6.29-20.01-4.56-7.09,1.66-13.39,4.75-18.06,10.56-2.8,3.48-4.16,7.52-4.45,11.96-.19,2.99-.46,5.97-.76,8.95-.24,2.29-1.46,3.52-3.75,3.93-1.91.34-3.85.23-5.77.33-3.46.18-6.93.36-10.4.41-3.02.04-4.03-.92-4.16-3.94-.15-3.51.21-7.02.4-10.52.39-7.49.87-14.97,1.3-22.45.59-10.17,1.17-20.35,1.75-30.52.53-9.23,1.04-18.46,1.58-27.7.3-5.21.63-10.43.95-15.64.07-1.07.23-2.13.69-3.12.71-1.55,2.02-2.17,3.68-1.78,1.82.43,3.23,1.53,4.57,2.76,9.73,8.92,19.45,17.85,29.18,26.77,17.37,15.93,34.74,31.86,52.12,47.79,8.72,7.99,17.44,15.99,26.14,23.99,1.2,1.1,2.45,2.2,2.37,4.15ZM362.09,247.95c-6.56-1.14-12.71,6.02-12.3,13.75.29,5.46,5.18,11.39,13.6,11.24,6.21-.11,11.71-5.74,11.94-13.19.16-5.36-6.11-12.65-13.24-11.8Z"/>
  </g>
  <g id="Accents_1">
    <path class="st0" d="M357.99,609.47c-1.71-.82-2.74-2.24-3.5-3.89-.79-1.71-.92-3.51-.59-5.37.48-2.7,3.98-4.56,6.57-4.75,4.17-.3,6.24,1.74,7.23,5.23,1.03,3.66-.44,7.19-4.51,8.43-.8.24-1.58.58-2.37.87-.09,0-2.01-.12-2.84-.52Z"/>
    <path class="st0" d="M362.61,334.62c0,3.47,0,6.93,0,10.4,0,.34,0,.69,0,1.03-.07,3.06-1.18,4.22-4.22,4.24-3.64.02-7.28.09-10.92.35-6.41.46-12.81.98-19.22,1.41-5.17.35-10.35.58-15.52.93-3.37.23-6.76.2-10.08,1.03-5.61,1.4-10.11,4.42-13.35,9.17-3.58,5.24-6.02,10.94-6.34,17.4-.29,5.79,1.4,10.89,5.16,15.3,1.86,2.18,3.75,4.35,5.57,6.57,2.21,2.71,2.18,4.56-.18,7.16-3.19,3.53-6.41,7.04-9.66,10.5-2.57,2.74-4.33,2.71-6.86-.09-7.59-8.45-15.16-16.92-22.72-25.39-10.07-11.29-20.14-22.59-30.19-33.89-5.84-6.57-11.65-13.16-17.45-19.75-.62-.7-1.16-1.49-1.61-2.32-.97-1.79-.42-3.51,1.35-4.49,1.34-.74,2.82-.99,4.33-1.05,9.46-.41,18.92-.8,28.38-1.21,7.57-.33,15.15-.68,22.72-1.02,14.81-.67,29.61-1.34,44.42-1.99,8.69-.38,17.38-.72,26.07-1.1,8.26-.36,16.52-.76,24.77-1.13.43-.02.86-.02,1.29,0,2.36.1,3.61,1.24,3.95,3.58.21,1.45.13,2.91.3,4.36ZM274.61,359.58c.05-3.41-1.31-6.79-4.23-9.46-2.38-2.18-5.15-3.85-8.46-3.43-3.18.41-6.28,1.58-8.69,3.74-1.85,1.66-3.86,3.44-3.89,6.33-.02,1.54-.13,3.08.08,4.62.14.96-.02,1.99.58,2.84,1.42,2.03,2.88,4.04,4.81,5.64,2.42,2.01,5.32,2.71,8.3,2.25,3.22-.49,6.15-1.79,8.4-4.41,1.9-2.22,3.15-4.61,3.11-8.12Z"/>
    <path class="st0" d="M502.19,522.96c0-2.4.01-4.8,0-7.2-.02-3.16,1.14-4.39,4.32-4.38,7.89.02,15.74-.72,23.6-1.32,6.02-.46,12.05-.74,18.08-1.11,3.38-.21,6.76-.35,10.13-.66,7.55-.69,13.52-4.15,17.69-10.51,3.61-5.51,5.9-11.49,5.89-18.2-.01-5.09-1.7-9.57-4.94-13.47-1.89-2.27-3.85-4.49-5.74-6.76-2.31-2.8-2.27-4.69.16-7.36,3.17-3.49,6.37-6.96,9.55-10.43.23-.25.48-.49.74-.72,2.02-1.78,3.61-1.79,5.49.16,2.02,2.1,3.95,4.28,5.89,6.46,15.92,17.85,31.84,35.7,47.75,53.56,5.56,6.24,11.1,12.49,16.64,18.75.85.96,1.67,1.96,2.3,3.09,1.14,2.04.6,3.71-1.52,4.76-1.42.7-2.96.83-4.5.9-10.91.49-21.83.97-32.74,1.45-7.75.34-15.49.68-23.24,1.03-18.75.83-37.49,1.67-56.24,2.5-8.77.39-17.55.74-26.33,1.1-2.82.12-5.65.28-8.47.32-2.83.04-4.17-1.28-4.32-4.11,0-.13-.01-.26-.01-.39,0-2.49-.11-7.46-.17-7.46ZM591.08,501.37c-.05,2.52.61,4.82,1.82,6.97,2.38,4.25,6.16,6.58,10.88,6.29,3.8-.23,7.45-1.78,9.99-4.97.94-1.18,2.3-2.14,2.59-3.71.57-3.01.68-5.99-1-8.79-.34-.57-.68-1.16-1.01-1.75-1.47-2.61-3.61-4.61-6.46-5.47-3.42-1.03-6.79-.92-10.09.95-4.17,2.36-6.52,5.69-6.72,10.48Z"/>
    <path class="st0" d="M504.53,265.9c-4.04-.03-6.91-3.11-6.96-7.39-.05-4.14,4.42-6.89,8.21-7.19,2.79-.22,6.3,4.65,6.29,8.42,0,3.1-3.35,6.62-7.54,6.16Z"/>
  </g>
  <g id="Heart_Highlights">
    <path class="st2" d="M389.65,364.46c.67.14,1.33.32,2.01.4.92.11,1.38.62,1.46,1.49.09.91-.33,1.54-1.14,1.94-4.36,2.15-8.74,4.26-13.08,6.46-5.84,2.97-11.36,6.4-15.84,11.3-3.6,3.94-6.4,8.38-8.64,13.2-.97,2.08-1.91,4.18-2.81,6.29-.38.91-.91,1.57-1.94,1.57-.99,0-1.64-.57-1.96-1.5,0-1.8,0-3.6,0-5.4.1-.41.25-.81.3-1.23.6-5.13,2.37-9.84,5.16-14.16,2.73-4.23,6.24-7.76,10.15-10.89,3.84-3.07,7.98-5.66,12.61-7.38,2.94-1.1,6.01-1.59,9.08-2.09,1.54,0,3.09,0,4.63,0Z"/>
    <path class="st2" d="M516.48,411.03c-.69-.34-1.05-.88-1.26-1.63-2.16-7.52-5.43-14.52-10.11-20.8-4.8-6.46-10.82-11.55-17.85-15.46-3.28-1.83-6.69-3.38-10.24-4.61-.83-.29-1.47-.79-1.39-1.76.08-.92.68-1.37,1.58-1.59,4.74-1.15,9.26-.39,13.62,1.55,6.05,2.69,11.58,6.17,16.19,11.02,5,5.26,8.45,11.4,10.49,18.34.58,1.96,1.02,3.96,1.53,5.94v5.15c-.29.32-.17.74-.26,1.1-.26,1.06-.37,2.21-1.54,2.76h-.77Z"/>
  </g>
  <g id="Heart">
    <path class="st3" d="M527.44,412.83c0,1.99-.25,7.06-.29,7.61-.79,10.28-3.62,19.98-8.19,29.19-5.22,10.52-12.39,19.63-20.45,28.09-3.66,3.85-7.55,7.47-11.47,11.06-5.05,4.62-10.16,9.18-15.45,13.53-9.34,7.68-19.1,14.81-29.18,21.5-2.27,1.5-4.41,3.23-7.02,4.19-.78.29-2.89.66-3.15.66-2.37-.47-4.54-1.34-6.57-2.71-4.81-3.24-9.64-6.47-14.36-9.85-11.37-8.15-22.27-16.89-32.56-26.38-5.95-5.49-11.69-11.19-17.09-17.23-7.2-8.05-13.35-16.79-17.65-26.73-3.97-9.17-6.36-18.75-6.78-28.77-.39-9.21,1.05-18.14,4.3-26.78,2.35-6.26,5.55-12.01,10.05-16.99,6.89-7.61,15.57-12.09,25.43-14.54,2.87-.71,11.58-1.61,13.04-1.61,1.38,0,4.95.27,5.36.31,4.98.55,9.7,1.99,14.17,4.2,7.36,3.64,13.45,8.88,18.82,15.03.87.99,1.63,2.11,2.7,2.91,1.11.84,1.84.79,2.83-.15.37-.35.74-.72,1.08-1.1,3.27-3.74,6.59-7.43,10.51-10.51,5.79-4.55,12.16-7.86,19.42-9.41,2.72-.58,10.49-1.29,11.63-1.29s8.61.62,11.24,1.26c7.96,1.94,14.91,5.73,21.12,11.06,9.01,7.75,14.73,17.38,17.16,29,.6,2.84,1.35,12.49,1.35,14.44ZM391.72,366.64c-2.89-.84-8.11-.64-11.85.37-8.91,2.4-16.01,7.63-22.08,14.35-5.94,6.57-8.86,14.34-8.62,23.24,0,.36-.18.9.3,1,.5.1.52-.49.67-.8.89-1.9,1.77-3.8,2.61-5.72,3.79-8.58,9.35-15.71,17.2-20.95,5-3.34,10.44-5.85,15.8-8.52,1.9-.95,3.81-1.9,5.96-2.97ZM477.26,366.88c20.38,7.4,33.41,21.62,39.53,42.35.73-2.63.9-5.27.36-7.87-3.44-16.62-13.33-27.77-29.02-33.92-3.51-1.38-7.14-1.51-10.87-.56Z"/>
  </g>
  <g id="Text">
    <path class="st2" d="M93.02,462.91c.2-4.56,1-8.98,2.86-13.22,3.57-8.09,9.9-12.42,18.36-14.03,4.06-.77,8.19-.82,12.29-.9,22.71-.46,45.43-.72,68.14-1.3,12.94-.33,25.88-.63,38.83-.52,7.03.06,14.03.65,20.99,1.69,5.16.77,7.09,4.81,7.66,9.04.18,1.36-.39,2.66-1.39,3.74-3.49,3.77-6.92,7.61-10.42,11.37-9.76,10.47-19.51,20.95-29.33,31.37-7.47,7.92-14.95,15.83-22.58,23.59-6.15,6.25-9.3,13.81-10.71,22.31-1.65,9.92-2.27,19.91-2.22,29.95.1,17.75.21,35.49.36,53.24.24,28.89.49,57.78.76,86.67.03,3.01-.15,5.99-.47,8.98-.02.17-.03.34-.06.51-.72,4.8-2.65,6.21-7.37,5.27-5.71-1.13-11.28-2.84-16.92-4.29-2.56-.66-2.61-.75-2.24-3.37,1.13-7.98,1.55-16.03,2.17-24.05.66-8.46.82-16.94.93-25.43.13-9.86.11-19.72-.16-29.57-.28-10.02-.74-20.04-3.03-29.85-1.15-4.92-2.4-9.82-5.14-14.18-1.06-1.68-2.28-3.22-3.74-4.56-8.17-7.49-17.49-3-20.97,4.16-1.97,4.06-2.68,8.47-2.77,12.97-.18,9.08,3.06,16.9,8.73,23.84,2.28,2.79,5.16,4.73,8.57,5.88,1.4.47,2.81.68,4.29.56,2.05-.16,2.08-.13,2.61,1.86,1.24,4.73,2.06,9.54,2.74,14.38,1.83,13.02,2.01,26.12,1.87,39.23-.05,5.21-.23,10.45-1.37,15.59-.41,1.87-1.17,3.57-2.41,5.05-1.54,1.86-3.5,2.79-5.89,2.45-6.04-.87-11.91-2.27-17.42-5.04-7.36-3.71-12.46-9.44-16-16.79-4.21-8.75-6.58-17.99-7.56-27.61-1.26-12.36-2.43-24.72-3.78-37.07-.73-6.63-2.39-33.7-1.94-37.66,1.08-9.38,3.84-18.07,10.32-25.25,3.19-3.53,7.21-5.75,11.53-7.5,7.53-3.06,15.09-6.05,22.62-9.12,1.66-.68,3.29-1.45,4.87-2.31,6.21-3.39,10.1-8.61,11.95-15.38,1.13-4.14,2.07-8.31,2.02-12.64-.07-5.38-1.46-10.33-4.63-14.71-6.29-8.72-18.85-9.81-26.63-2.4-4.86,4.63-7.19,10.32-7.35,16.97-.07,3.1.07,6.17.86,9.18.4,1.51.06,2.81-.77,4.14-2.37,3.83-5.39,6.58-10.12,7.08-1.69.18-3.23-.21-4.78-.65-2.7-.76-5-2.25-6.95-4.23-3.84-3.9-6.19-8.58-7.15-13.96-.53-2.96-.83-5.93-.91-8.94-.16-5.99-.31-11.99-.69-17.97-.28-4.34-.49-25.1-.43-26.55Z"/>
    <path class="st2" d="M770.85,466.2c-.1,10.54-.09,21.09-.29,31.63-.18,9.5-.59,19-.91,28.5-.19,5.48-.36,10.95-.64,16.43-.39,7.86-.96,15.71-1.28,23.57-.16,4.02-.42,8.04-.67,12.05-.48,7.51-.94,15.03-1.51,22.53-.86,11.43-1.72,22.86-2.75,34.28-1.08,12.01-2.32,24.01-3.58,36-.69,6.63-1.26,13.28-2.41,19.85-1.07,6.12-4.38,10.13-10.6,11.85-9.23,2.55-18.37,5.44-27.55,8.18-4.24,1.26-6.59.22-8.5-3.78-1.47-3.08-1.73-6.44-2.15-9.75-1.24-9.77-2.37-19.56-2.94-29.4-.37-6.41-.78-12.83-.72-19.26.07-7.2-.4-14.39-.34-21.6.16-19.34,2.14-38.46,6.14-57.38,2.04-9.65,4.67-19.13,7.96-28.42.11-.32.25-.64.33-.97.34-1.36,1.04-1.46,2.28-.91,6.53,2.92,12.36,1.47,17.6-3.09,3.7-3.22,6.38-7.16,7.96-11.8,2.65-7.79,3.25-15.57-.35-23.27-2.36-5.06-5.71-9.17-11.22-11.01-4.81-1.61-9.29-.82-13.43,2.05-4.22,2.93-6.91,7.1-9.13,11.59-3.02,6.11-4.75,12.66-6.29,19.25-2.32,9.93-3.98,19.99-5.01,30.13-.61,6.05-1.02,12.12-1.31,18.2-.15,3.25-.27,6.51-.94,9.71-.16.75-.35,1.51-.61,2.23-.22.62-.4,1.46-1.25,1.4-.79-.06-1.01-.84-1.22-1.49-.92-2.79-1.22-5.7-1.45-8.59-1.18-15.04-3.29-29.96-6.3-44.74-1.25-6.12-2.77-12.2-5-18.06-1.78-4.67-4.09-9.03-7.14-13.01-5.18-6.76-13.57-7.07-19.3-.18-2.5,3.01-2.4,2.54-4.66.09-16.61-18.03-32.85-36.41-49.24-54.64-.62-.69-1.28-1.32-1.58-2.29-1.28-4.12.98-7.39,5.57-7.84,1.7-.16,3.43-.18,5.14-.18,18.18.03,36.35.08,54.53.12,2.4,0,4.8-.03,7.2-.07,6.43-.1,11.19,2.6,14.22,8.34,1.61,3.06,2.64,6.31,3.4,9.66,1.65,7.26,2.68,14.67,5.18,21.72.27.75.11,2.01,1.15,2.06.99.04,1.15-1.16,1.4-1.93,1.77-5.45,3.48-10.93,5.24-16.39,1.18-3.67,2.34-7.35,3.65-10.97,2.91-8.05,9.04-12.39,17.98-12.22,10.63.21,21.26.03,31.89.3,1.97.05,3.91.39,5.81.96,3.93,1.18,6.14,3.87,6.87,7.85.48,2.62.67,5.26.76,7.92.03.92.03,13.85.02,14.78Z"/>
    <path class="st2" d="M136.15,256.11c.29,1.67.18,3.19.05,4.69-1.44,17.15-4.54,33.95-11.12,49.94-3.81,9.27-8.13,18.32-13.86,26.62-1.76,2.55-3.77,4.87-6.16,6.87-2.7,2.25-5.8,3.62-9.23,4.25-1.45.27-1.68.12-1.64-1.37.07-2.74.28-5.47.36-8.21.43-13.7,1.07-27.4,2-41.07.26-3.76.34-7.53.6-11.29.62-9.06,1.29-18.11,1.94-27.17.39-5.38.71-10.77,1.17-16.15.77-8.88,1.74-17.73,2.41-26.62.56-7.44,1.45-14.84,2.21-22.25.73-7.07,1.39-14.15,2.23-21.21.3-2.54,1-5.04,1.88-7.46,1.35-3.7,3.87-6.15,7.75-7.22,6.52-1.79,13.01-3.67,19.51-5.5,12.84-3.63,25.74-7.07,38.71-10.23,7.4-1.8,14.82-3.49,22.24-5.22,3.17-.74,4.56.03,5.77,3.11,1.03,2.6,1.18,5.33,1.14,8.09-.22,14.92-.42,29.84-.66,44.75-.16,10.12-.36,20.23-.57,30.35-.31,15.17-.55,30.34-.98,45.51-.52,18.17-.28,36.35-.31,54.53,0,3.2-.63,3.81-3.81,3.1-3.56-.8-6.05-3.13-7.93-6.12-4.03-6.39-7.39-13.13-10.3-20.1-4.29-10.26-6.98-20.94-8.49-31.94-.85-6.21-.93-12.47-1.03-18.72-.01-.83-.07-1.72.41-2.55,2.09.35,4.14.78,6.33.51,3.41-.42,6.17-1.91,8.53-4.3,5.39-5.48,8.02-12.24,9.16-19.7,1.01-6.55.02-12.8-2.67-18.81-1.14-2.55-2.78-4.76-5.21-6.22-3.73-2.25-7.54-1.92-11.29-.06-4.83,2.4-7.86,6.54-10.31,11.14-3.04,5.7-4.49,11.83-4.5,18.28-.02,7.2-.13,14.41.12,21.6.34,9.93,1.28,19.81,2.68,29.66,1.23,8.68,3.2,17.17,5.48,25.6.56,2.06,1.27,4.05,2.37,5.93,1.55,2.66,2.77,5.51,4.26,8.21,3.39,6.14,8.14,11.26,12.92,16.28,7.75,8.13,15.38,16.37,23.06,24.57,14.35,15.34,28.48,30.88,42.48,46.53,1.49,1.66,2.84,3.44,4.3,5.12,2.02,2.33,2.68,5.12,2.85,8.08.12,2.17-1.02,3.55-2.95,4.34-3.21,1.32-6.58,1.92-10.02,1.99-4.89.1-9.77.05-14.66.04-36.53-.11-73.06.13-109.58.76-6.6.11-13.2.22-19.8.32-1.2.02-2.38-.08-3.55-.43-4.66-1.38-6.25-4.08-5.02-8.74.55-2.07,1.25-4.09,2.08-6.07,4.54-10.75,9.94-21.06,15.34-31.39,8.58-16.42,16.19-33.28,21.68-51.01,2.87-9.25,4.74-18.75,6.36-28.29,1.59-9.37,3.07-18.75,4.08-28.2.6-5.61,1.24-11.23,1.54-16.86.46-8.39,1.29-16.76,1.25-25.17-.02-3.25.13-6.51-.66-9.72-.83-3.38-2.27-6.46-4.47-9.16-3.24-3.98-7.73-5.28-12.68-3.74-3.72,1.16-6.76,3.43-9.29,6.24-5.95,6.61-9.67,14.29-10.26,23.29-.31,4.72.72,9.22,2.76,13.45,3.66,7.64,12.16,10.1,20.13,5.93.88-.46,1.65-1.18,2.86-1.41Z"/>
    <path class="st2" d="M676.02,234.8c0-27.26,0-54.52,0-81.79,0-2.86.48-5.63,1.37-8.33.99-3,2.79-4.27,5.9-4.34,3.06-.07,5.9,1,8.78,1.74,13.75,3.53,27.39,7.48,41.04,11.39,10.3,2.95,17.19,9.54,21.18,19.36,2.87,7.05,4.33,14.4,5.1,21.94.99,9.72,1.76,19.45,2.48,29.19.45,6.15,1.19,12.29,1.31,18.45.12,5.93-.65,11.78-4.12,16.95-5.05,7.52-11.9,9.48-20.11,6.54-5.04-1.81-8.37-5.5-10.9-10.05-.45-.8-.43-1.45.38-1.97,5.37-3.44,6.57-8.98,7.2-14.68,1.12-10.12-1.33-19.39-7.15-27.75-2.52-3.62-5.76-6.29-10.13-7.43-2.96-.77-5.61-.08-8.03,1.61-1.99,1.4-3.54,3.19-4.66,5.38-2.64,5.18-3.59,10.7-3.31,16.44.74,15.58,7.09,28.96,16.55,41.01,4.15,5.29,9.7,8.9,15.67,11.84,6.95,3.43,14.38,5.43,21.89,7.22,6.51,1.55,5.33.09,5.84,6.74.28,3.65.2,3.62-3.55,3.41-5.64-.3-11.28-.9-16.94-.46-4.46.35-8.83,1.17-13.01,2.78-6.52,2.51-9.01,7.77-9.54,14.28-.4,4.87,1.15,9.28,3.43,13.5,4.17,7.72,9.46,14.68,14.7,21.68,6.52,8.71,13.51,17.08,19.68,26.05,5.42,7.88,9.91,16.22,12.19,25.6,1.1,4.52,1.67,9.1,1.4,13.75-.43,7.26-6.13,11.5-10.93,11.69-1.11.04-2.22.16-3.33.15-34.55-.25-69.1.1-103.65.3-16.03.09-32.06.47-48.09.42-1.72,0-3.43-.12-5.1-.52-2.59-.62-3.27-2.09-2.29-4.61.49-1.26,1.47-2.1,2.32-3.04,8.05-8.78,16.11-17.57,24.21-26.3,10.78-11.62,21.6-23.22,32.44-34.8,3.22-3.44,6.54-6.8,9.87-10.13,2.17-2.16,3.62-4.75,4.91-7.47,2.64-5.56,3.87-11.47,4.53-17.56.67-6.24.69-12.49.75-18.74.22-23.15.15-46.29-.25-69.44Z"/>
    <path class="st2" d="M252.79,322.46c-2.7.15-5.08.33-7.47.42-7.36.26-14.73.51-22.08.98-3.08.2-6.17.12-9.25.27-1.38.07-1.85-.53-1.84-1.79,0-.86-.14-1.71-.14-2.57.06-17.23-.02-34.46.22-51.69.46-33.86.26-67.72.33-101.58.01-6.69.01-13.37.08-20.06.02-1.88.18-3.76.38-5.63.46-4.19,2.95-6.69,6.9-7.65,4.65-1.13,9.34-2.12,14.05-3.01,7.31-1.38,14.65-2.67,21.98-3.91,7.51-1.27,15-2.64,22.57-3.49,3.26-.37,6.5-.18,9.69.63,5.83,1.48,10.02,4.97,12.82,10.26,2.4,4.54,3.8,9.35,4.09,14.47.63,10.96.52,21.94.36,32.91-.08,5.22-.15,10.45-.92,15.63-.33,2.21-.98,4.34-1.7,6.45-2.04,5.92-6,10.09-11.64,12.7-1.01.47-2.07.84-3.04,1.37-.91.5-1.75,1.19-1.62,2.4.11,1.08.96,1.59,1.85,1.95.95.38,1.95.65,2.92.98,6.39,2.18,10.56,6.37,12.24,13.05,1.2,4.79,1.57,9.62,1.56,14.52-.04,18.95-.06,37.89-.11,56.84-.01,3.96.22,7.87,1.42,11.68.46,1.45.31,1.64-1.24,1.71-4.62.23-9.25.4-13.87.6-2.23.09-4.46.11-6.67.32-2.33.22-4.31-.35-6.25-1.71-5.47-3.82-10.16-8.4-14.09-13.78-8.39-11.47-13.94-24.15-16.17-38.2-1.34-8.41-1.43-16.87-.78-25.36.7-9.2,2.47-18.14,5.76-26.77,1.5-3.93,3.39-7.68,5.49-11.31,1.07-1.84,1.09-1.86,3.19-1.51,7.27,1.22,12.72-1.92,16.95-7.42,4.41-5.74,5.28-12.39,3.61-19.29-1.3-5.36-6-10.64-12.68-11.14-3.17-.24-6.1.65-8.82,2.23-2.61,1.52-4.88,3.46-6.8,5.82-4.81,5.92-7.66,12.72-9.17,20.14-2.23,10.91-4.25,21.86-5.55,32.92-1.37,11.69-1.58,23.39-.32,35.13,2.01,18.8,5.92,37.18,11.73,55.17.65,2.02,1.63,3.95,2.08,6.34Z"/>
    <path class="st2" d="M665.56,233.85c-.36,20.57-.7,42.6-1.16,64.62-.09,4.35-.13,8.74-1.31,13.01-1.37,4.94-3.72,9.18-8.09,12.12-1.47.99-3.01,1.51-4.82,1.41-5.9-.34-11.8-.64-17.71-.91-9.24-.42-18.49-.81-27.73-1.22-4.79-.22-9.58-.52-14.38-.69-5.3-.19-8.93-3.19-11.93-7.11-3.46-4.53-4.62-9.88-4.81-15.45-.24-6.69.5-13.36.72-20.04.19-5.56.61-11.11.91-16.67.47-8.73.94-17.45,1.39-26.18.25-4.79.45-9.58.69-14.37.43-8.47.86-16.94,1.3-25.41.46-8.9.91-17.79,1.39-26.69.44-8.12.88-16.25,1.39-24.37.18-2.91.8-5.78,1.75-8.53,3.32-9.56,10.63-14.14,20.93-13.24,8.02.7,15.95,2.15,23.86,3.61,5.64,1.04,11.27,2.11,16.85,3.4,6.04,1.4,11.4,4.14,15.52,8.98,3.99,4.68,5.85,10.2,6.44,16.21.76,7.7-.08,15.41-.1,23.12-.02,11.14-.22,22.29-.58,33.42-.21,6.51-.23,13.03-.52,21ZM638.99,185.72c0-.69.04-1.37,0-2.06-.37-5.84-2.2-11.05-6.56-15.18-7.1-6.72-18.91-5.49-23.43,4.34-4.18,9.1-.76,20.51,7.75,25.73,1.69,1.04,3.48,1.82,5.5,2,2.36.2,2.53.48,2.04,2.89-1.4,6.92-3.68,13.54-6.52,19.98-2.87,6.5-6.35,12.72-8.95,19.35-2.59,6.57-4.51,13.3-4.99,20.38-.43,6.41,1.48,12.02,6.1,16.57,5.08,5.02,13,6.02,19.06,1.8,5.91-4.11,7.85-9.99,7.73-16.71-.1-5.76-2.88-10.48-6.82-14.55-1.76-1.82-3.83-3.22-6.33-3.73-1.99-.4-2.43-.64-1.94-3.27.83-4.47,1.95-8.86,3.29-13.2,2.89-9.43,6.99-18.41,10.32-27.67,1.94-5.4,3.88-10.81,3.76-16.68Z"/>
    <path class="st2" d="M627.53,643.88c.24,17.31.47,34.63.73,51.94.15,9.94.36,19.88.51,29.82.02,1.62-.1,3.26-.23,4.88-.3,3.8-2.43,6.11-6.02,7.13-1.89.53-3.8,1.02-5.73,1.41-4.53.9-9.08,1.74-13.62,2.58-1.77.33-2.08.07-1.68-1.66,1.9-8.12,2.61-16.4,3.43-24.66.56-5.63.76-11.28.78-16.94.03-8.31.33-16.63-.17-24.94-.44-7.21-1.4-14.33-4.65-20.92-2.31-4.68-5.91-7.48-11.25-7.68-4.36-.16-8.06,1.6-11.15,4.49-5.71,5.35-7.69,11.99-6.22,19.64.73,3.75,2.12,7.21,4.94,9.98,4.28,4.21,9.26,5.24,14.9,3.46,2.21-.7,2.22-.74,2.94,1.52,1.8,5.66,2.76,11.49,3.23,17.4.42,5.38.68,10.78.46,16.18-.23,5.4-.71,10.77-2,16.04-1.43,5.88-5.1,9.67-11.01,10.93-5.34,1.14-10.69,2.48-16.21,2.39-6.59-.12-11.66-2.89-14.96-8.75-2.32-4.12-3.39-8.57-4-13.19-.38-2.89-.41-5.81-.5-8.72-.34-11.14-.75-22.27-1.11-33.41-.17-5.4-.43-10.8-.38-16.19.09-8.83,1.7-17.36,5.56-25.39,2.38-4.96,5.96-8.72,10.86-11.26,7.14-3.71,14.24-7.51,21.37-11.24,3.57-1.87,7.11-3.78,10.14-6.49,7.05-6.3,8.77-17.02,3.96-24.82-4.94-8.01-14.17-10.16-22.04-5.01-7.39,4.83-10.48,12.29-8.38,21.69.44,1.98.18,3.36-.97,4.93-3.82,5.23-8.88,7.41-15.33,7.03-4.7-.27-8.64-1.77-11.77-5.37-1.36-1.56-2.09-3.15-1.97-5.32.38-6.84.39-13.71.85-20.55.54-7.94.49-15.98,2.05-23.78,2.36-11.81,8.45-17.96,18.01-20.11,3.27-.74,6.66-.56,9.99-.71,10.01-.47,20.03-.8,30.05-1.1,3.84-.12,7.7-.39,11.52.47,5.1,1.14,8.75,4.06,11.18,8.66,2.16,4.11,3.14,8.51,3.2,13.1.36,26.57,1,53.14.77,79.72,0,.94,0,1.88,0,2.82-.01,0-.03,0-.04,0Z"/>
    <path class="st2" d="M195.52,632c0-7.71-.03-15.43,0-23.14.06-16.2.16-32.41.24-48.61.02-4.71-.01-9.43.01-14.14,0-1.54.03-3.09.22-4.62.43-3.57,2.14-5.2,5.69-5.4,1.88-.11,3.78-.08,5.65.03,7.86.47,15.73.99,23.59,1.52,6.92.47,13.84.9,20.75,1.48,4.3.36,8.4,1.53,12.18,3.73,6.27,3.65,9.64,9.34,11.29,16.18,1.53,6.36,1.82,12.87,2.14,19.38.35,7.28.37,14.57-.15,21.84-.48,6.57-1.01,13.16-3.57,19.37-2.34,5.68-5.88,10.21-11.64,12.77-.84.37-1.92.71-1.98,1.8-.06,1.09.98,1.53,1.79,1.98,1.57.88,3.15,1.73,4.6,2.81,5.94,4.43,8.73,10.6,9.87,17.7.65,4.07.89,8.17.89,12.29.01,13.89-.02,27.78-.32,41.66-.11,5.26-.93,10.38-2.95,15.3-2.63,6.38-7.43,9.6-14.18,10.18-3.88.33-7.7-.2-11.52-.67-7.9-.98-15.81-1.9-23.7-2.97-7.04-.95-14.07-1.99-21.07-3.15-6.24-1.04-7.96-3.23-7.97-9.85-.02-23.58,0-47.15,0-70.73,0-5.57,0-11.14,0-16.71.05,0,.1,0,.15,0ZM221.33,634.73c.02-2.97.4-7.73,1.33-12.46.6-3.05,1.43-5.99,2.99-8.69q1.14-1.97,3.35-1.1c5.56,2.17,10.64.84,14.55-3.72,3.83-4.47,4.93-9.7,4.3-15.36-.61-5.51-2.99-10.13-7.44-13.59-6.12-4.76-13.64-3.74-18.25,2.5-1.91,2.58-3.1,5.51-4.01,8.56-2.34,7.87-2.85,16-3.14,24.12-.47,13.28.16,26.56-.01,39.84-.05,3.78.16,7.53.54,11.28.67,6.6,2.09,13.01,5.06,19,1.59,3.21,3.71,5.97,6.83,7.83,2.56,1.53,5.25,2.3,8.32,1.74,4-.74,6.84-3.02,8.98-6.29,5.26-8.04,3.1-20.51-4.48-26.83-3.09-2.57-6.51-3.68-10.48-3.08-3.09.47-3.12.5-4.33-2.4-2.6-6.24-3.84-12.77-4.12-21.34Z"/>
    <path class="st2" d="M373.64,751.38c-15.84.07-30.04-3.77-41.71-14.76-5.34-5.03-10.05-10.51-13.29-17.18-3.39-6.97-2.71-17.2,4-23.49.75-.7,1.53-1.38,2.28-2.08,2.19-2.04,4.52-2.86,7.7-2.23,4.51.89,9.05.22,13.27-1.84,2.35-1.14,4.34-2.79,4.33-5.57-.01-2.66-1.9-4.27-4.17-5.41-5.56-2.79-11.35-2.96-17.28-1.56-3.71.88-7.48,2.07-9.97,5-5.85,6.88-9.82,14.63-8.88,24.07.5,5.04,1.85,9.91,3.13,14.8,1.78,6.84,4.43,13.31,7.47,19.66.99,2.07,2,4.14,2.7,6.51-2.8.27-5.41-.31-8.02-.53-8.11-.71-16.2-1.6-24.29-2.43-.68-.07-1.36-.18-2.01-.38-2.57-.81-3.67-2.16-3.78-4.86-.12-2.83-.17-5.66-.15-8.49.17-25.29.38-50.58.55-75.87.12-17.49.16-34.98.29-52.47.13-17.66.32-35.32.49-52.98,0-.94.12-1.88.22-2.81.29-2.77,1.53-4.21,4.21-4.72,1.85-.35,3.7-.64,5.6-.69,6.01-.15,11.99.33,17.98.68,3.13.18,4.97,1.83,5.75,4.96,1.06,4.26,1.24,8.63,1.45,13,.43,8.82.89,17.63,1.34,26.44.25,4.88.49,9.76.73,14.63.3,6.08.83,12.15.82,18.23,0,4.27.06,8.54.21,12.8.28,8.05.33,16.11,1.51,24.1.11.76.31,1.51.36,2.28.29,4.15,3.06,6.57,6.16,8.68,1.53,1.04,3.42,1.21,5.2,1.07,2.65-.21,5.24-.78,7.57-2.22,3.35-2.08,6.82-3.99,9.79-6.6,2.42-2.13,5.18-2.58,8.15-2.09,2.39.39,3.87,2.02,4.78,4.21,1.07,2.57,1.45,5.3,1.68,8.02.52,6.32.63,12.67.47,19.01-.12,4.6-2.73,7.81-7.46,9.37-2.36.78-4.8,1.26-7.29,1.42-.82.05-2.02-.03-2.07.98-.05,1.05,1.2,1,1.99,1.15,2.61.5,5.19,1.15,7.65,2.15,4.23,1.73,6.81,4.54,6.94,9.47.1,4.03.25,8.04-.01,12.07-.38,5.91.13,11.82.46,17.72.1,1.72.96,3.26,1.72,4.81.59,1.21,1.41,2.35,1.45,3.98Z"/>
    <path class="st2" d="M413.59,111.83c9.12,0,16.32-.09,23.52.03,6.8.11,12.92,2.38,18.28,6.57,4.37,3.41,6.92,7.98,8.14,13.33,1.88,8.25,2.2,16.62,2.01,25.03-.1,4.55-.47,9.07-1.62,13.48-1.73,6.62-5.54,11.51-12.04,14.06-2.01.79-4.14,1.06-6.28,1.23-.43.03-3.84-.62-4.12.91-.24,1.27,1.23,1.68,2.16,2.21,3.98,2.24,7.56,5.02,10.98,8.03,5.48,4.81,9.12,10.73,10.08,17.99.68,5.08.96,10.23.54,15.37-.27,3.33-.11,6.67-.57,10-.29,2.11-.95,3.97-2.29,5.61-1.25,1.53-2.55,3.01-4.04,4.31-6.91,6.03-13.84,12.04-20.74,18.08-.72.63-1.5,1.12-2.3,1.63-1.92,1.23-3.89,1.14-5.88.24-2.3-1.04-4.13-2.72-6.03-4.34-5.47-4.69-10.6-9.74-15.87-14.65-8.78-8.18-17.6-16.31-26.5-24.37-2.03-1.84-2.85-3.94-2.85-6.57.03-12.26-.24-24.52-.65-36.77-.32-9.68-1.06-19.34-1.4-29.01-.4-11.48-1.17-22.94-1.12-34.43.02-5.3.96-6.29,6.34-6.81,11.36-1.1,22.75-1.29,32.24-1.18ZM392.37,169.51c-.05,7.46.26,15.78,1.23,24.03,1.1,9.29,4.33,17.78,10.78,24.81,3.01,3.28,6.5,5.84,10.82,7.1,5.22,1.53,10.03-1.87,10.31-7.26.08-1.54-.09-3.06-.34-4.6-1.11-6.82-9.98-17.54-18.28-19.33-2.13-.46-3.43-1.64-4.37-3.56-3.07-6.25-4.22-12.83-3.6-19.72.26-2.93,1.18-5.7,2.87-8.16,1.3-1.89,1.7-2,3.74-.94,2.54,1.32,5.2,2.23,8.06,2.39,3.45.2,6.66-.53,9.28-2.95,3.92-3.61,4.57-9.22,1.47-14.06-4.16-6.49-10.35-9.12-17.89-9.22-4.74-.07-7.92,2.29-10.35,6.02-1.86,2.86-2.7,6.07-3.12,9.43-.63,5.03-.64,10.08-.6,16Z"/>
    <path class="st2" d="M422.87,752.02c1.64-4.76,2.86-9.29,3.7-13.93.72-3.96,1.18-7.96,1.48-11.97.56-7.44.85-14.89.47-22.34-.19-3.68-.63-7.34-2.13-10.78-2.91-6.66-8.01-9.23-14.97-7.29-5.45,1.52-9.69,4.72-12.16,9.92-3.27,6.87.54,14.01,8.02,15.4,2.69.5,5.27.3,7.88-.31,2.06-.48,2.25-.39,3,1.65,1.23,3.31,2,6.73,2.3,10.25.58,6.86.59,13.68-1.03,20.44-1.47,6.17-4.67,8.55-10.85,9.09-4.76.42-9.6.25-14.39.04-2.63-.11-5.25-.79-7.71-1.84-5.61-2.37-8.29-6.92-9.31-12.65-.27-1.51-.4-3.05-.34-4.6.32-9.68.28-19.36.71-29.05.51-11.28,5.89-19.44,15.26-25.23,3.06-1.89,6.26-3.55,9.4-5.3,3.89-2.17,7.83-4.25,11.67-6.51,4.29-2.52,8.46-5.22,11.43-9.4,1.71-2.4,2.53-4.99,2.38-7.95-.23-4.71-3.76-8.43-8.45-8.78-2.98-.22-5.79.37-8.44,1.73-3.5,1.79-6.42,4.29-8.66,7.51-2.28,3.28-3.52,6.86-2.38,10.9.2.7.27,1.25-.18,1.91-2.73,3.93-6.31,6.47-11.15,7.01-5.3.59-8.93-2.51-8.81-7.79.16-6.94.47-13.87.84-20.8.17-3.23,1.45-6.15,3.29-8.8,2.45-3.54,5.45-6.6,8.54-9.58,5.56-5.36,11.65-10.1,17.66-14.94,3.54-2.85,6.95-5.85,10.57-8.59,5.23-3.96,11-6.18,17.75-4.84,2.39.48,4.18,1.92,6.04,3.26,3.18,2.29,5.16,5.29,5.87,9.28,1.28,7.19,1.9,14.43,2.07,21.71.43,17.65.79,35.3,1.14,52.96.16,8.23.28,16.45.42,24.68.19,11.48.37,22.97.53,34.45.03,1.8-.02,3.6-.13,5.4-.18,2.8-1.62,4.6-4.39,5.32-1.08.28-2.14.6-3.27.6-7.37,0-14.75,0-22.12,0-.41,0-.83-.12-1.54-.23Z"/>
    <path class="st2" d="M671.14,543.56c1.56,3.92,2.55,7.65,3.62,11.34,4.19,14.5,7.31,29.22,9.07,44.22,1.11,9.44,1.99,18.89,2.54,28.39.89,15.42.77,30.84.12,46.25-.51,12.06-1.48,24.1-3.78,35.99-.39,2.02-.96,4-1.71,5.91-1.51,3.85-4.21,6.39-8.31,7.32-9.01,2.04-18.01,4.12-27.03,6.11-4.07.9-6.18-.41-7.41-4.32-.62-1.99-.8-4.02-.8-6.09.02-20.83,0-41.66.03-62.49.04-25.2.21-50.4-.03-75.6-.09-9.86-.23-19.71-.47-29.57-.09-3.85-.52-7.69-.81-11.53-.14-1.79-.09-1.97,1.73-1.95,3.52.04,7.02-.22,10.53-.44,1.55-.1,2.52.31,3.18,1.84.89,2.05,2.3,3.82,3.88,5.4,4.18,4.19,9.24,4.45,13.82.77.52-.42,1.03-.87,1.84-1.55Z"/>
    <path class="st2" d="M536.28,146.63c.51-1.05,1.38-1.32,2.04-1.84,1.55-1.24,3.01-2.56,3.91-4.37,1.59-3.21.63-6.18-2.57-7.77-2.58-1.29-5.36-1.8-8.23-1.61-4.69.32-9.1,1.57-13.09,4.12-1.61,1.03-3,2.27-3.99,3.93-1.89,3.17-1.67,6.43.59,9.33,2.34,3.01,5.6,4.46,9.17,5.26,4.68,1.05,9.36.75,14.02-.24,5.45-1.16,10.84-2.52,15.98-4.7.87-.37,1.8-.76,2.53.29.62.89.39,2.13-.66,2.95-.67.52-1.46.88-2.23,1.25-7.88,3.77-15.74,7.6-23.35,11.9-3.51,1.99-6.97,4.05-10.26,6.38-3.27,2.32-5.78,5.34-7.71,8.83-.62,1.13-1.03,2.35-1.14,3.66-.25,2.97,1.11,4.82,4.06,5.17,2.12.25,4.26.26,6.38-.33,4.56-1.27,8.97-2.86,13.03-5.32,1.92-1.16,3.68-2.51,5.22-4.15.82-.88,1.58-1.82,2.11-2.9,1.35-2.74.42-4.91-2.49-5.8-.87-.27-1.76-.45-2.88-.74,1.7-1.62,3.58-2.44,5.43-3.22,3.43-1.45,7.01-2.28,10.77-1.74,2.49.36,3.49,1.38,3.52,3.91.07,5.05.19,10.11-.22,15.16-.2,2.39-.13,4.8-.21,7.2-.39,11.82-.78,23.65-1.18,35.47-.63,18.93-1.21,37.87-1.91,56.8-.37,10.02-.83,20.04-.99,30.07-.02.96-.2,1.87-.47,2.78-.59,1.99-1.36,2.55-3.31,2.47-1.94-.09-3.06-.99-3.43-2.8-.09-.42-.15-.85-.17-1.27-.26-6.25-.49-12.5-.77-18.75-.42-9.07-.9-18.14-1.31-27.22-.29-6.42-.5-12.85-.8-19.27-.41-8.56-.86-17.11-1.32-25.67-.3-5.56-.75-11.12-.91-16.68-.27-9.15-7.96-11.93-14.91-11.04-2.32.3-4.49,1.21-6.46,2.41-3.36,2.05-6.68,4.15-9.65,6.79-10.04,8.96-20.18,17.82-30.29,26.71-.32.28-.62.6-.97.84-2.07,1.44-4.2.55-4.53-1.91-.1-.76-.06-1.54-.05-2.31.2-16.28.58-32.57.57-48.85-.01-15.69.81-31.36,1.08-47.04.05-2.74.07-5.49.13-8.23.04-1.8.04-3.6.18-5.4.36-4.62,1.75-6.17,6.29-7.05.92-.18,1.87-.24,2.81-.25,11.49-.17,22.97.25,34.43,1.04,6.07.42,12.15.7,18.21,1.19,5.12.41,10.27.58,15.32,1.6,1.68.34,3.33.81,4.8,1.75,2.19,1.39,3.45,3.32,3.31,5.98-.19,3.76-.41,7.53-.68,11.29-.1,1.38-.62,2.63-1.44,3.79-3.42,4.82-8.16,7.45-13.88,8.47-1.43.25-2.86.54-4.34.49-1.04-.03-2.02-.18-3.09-.82Z"/>
    <path class="st2" d="M463.46,685.66c0-10.54.15-21.09-.05-31.63-.17-9.08.29-18.16-.14-27.24-.23-4.96,3.26-7.09,7.74-4.76,1.08.56,1.94,1.4,2.83,2.2,6.54,5.93,12.79,12.17,19.04,18.41,1.94,1.94,3.96,3.79,5.91,5.72.85.84,1.69,1.72,2.39,2.68,1.28,1.76,1.31,2.94,0,4.69-1.38,1.86-2.67,3.78-3.9,5.73-3.64,5.77-3.93,11.86-1.05,17.9,3.51,7.38,9.4,12.3,17.12,15.01,2.23.78,4.56.93,6.86.62,4.1-.55,6.09-3.19,3.85-7.3-1.25-2.3-3.02-4.14-5.18-5.62-2.13-1.45-4.39-2.67-6.73-3.74-1.85-.85-2.93-2.2-3.56-4.12-.92-2.82-1.33-5.66-.87-8.6.46-2.95,2.28-4.05,5.16-3.18,1.16.35,2.18.97,3.25,1.52,1.82.95,3.68,1.81,5.7,2.28,5.07,1.17,9.29-.16,12.62-4.18,1.25-1.51,2.32-3.18,4.45-3.67,2.11-.49,3.04.09,3.24,2.29.05.6.01,1.2.02,1.8.04,7.11-.06,14.23.14,21.34.33,11.82.86,23.62,1.28,35.44.27,7.71.53,15.41.71,23.12.04,1.88.47,3.75.2,5.64-.31,2.17-.78,2.85-2.84,2.91-6.6.18-13.18.66-19.79.54-1.48-.03-1.62-.25-1.09-1.73,1.24-3.47,2.59-6.89,3.76-10.38,1.4-4.18,2.26-8.41,1.02-12.85-.89-3.18-2.52-5.88-5.08-7.85-5.95-4.57-12.64-6.29-20.07-4.64-.58.13-1.15.34-1.7.58-3.78,1.67-4.98,5.43-2.78,8.93,2.39,3.8,5.96,6.06,10.14,7.45,1.72.57,3.52.8,5.3.93,1.74.13,2.58.98,3.11,2.53,1.29,3.84,1.45,7.7.5,11.64-.75,3.12-2.78,4.82-5.82,5.42-1.68.33-3.38.54-5.1.58-11.14.26-22.28.2-33.43.2-.17,0-.34,0-.51,0-4.73-.2-6.46-1.93-6.5-6.68-.06-6.86-.06-13.71-.06-20.57,0-13.11,0-26.23,0-39.34h-.08Z"/>
    <path class="st2" d="M365.45,212.37c-2.59-2.3-5.08-4.52-7.57-6.72-3.53-3.12-6.89-6.42-10.82-9.08-6.19-4.19-15.23-2.13-17.69,5.93-.77,2.5-.94,5.04-1.11,7.59-.55,8.38-1.03,16.76-1.52,25.14-.28,4.88-.5,9.76-.78,14.63-.54,9.15-1.12,18.3-1.67,27.45-.45,7.61-.89,15.23-1.32,22.84-.3,5.3-.57,10.61-.89,15.91-.16,2.56-1.53,3.7-3.81,3.3-1.63-.29-2.23-.9-2.35-2.84-.16-2.56-.23-5.13-.25-7.7-.14-19.38-.11-38.76-.41-58.14-.38-25.46-.25-50.92-.43-76.38-.03-3.6-.01-7.2-.1-10.8-.03-1.28.14-2.09,1.69-2.21,3.9-.3,6.86-2.39,9.43-5.19,2.45-2.67,5.38-4.72,8.57-6.46,4.02-2.19,8.07-2.05,12.1-.35,4.04,1.7,7.42,4.59,11.32,6.57,1.76.89,3.49,1.82,5.38,2.42,2.79.89,2.33.95,2.33,3.19.01,8.75-.04,17.49.01,26.24.05,7.72.2,15.43.3,23.15,0,.41.14.84-.4,1.51Z"/>
    <path class="st2" d="M365.52,152c-.6.26-1.01-.1-1.45-.35-3.01-1.8-6.04-3.53-8.77-5.8-5-4.15-10.72-5.65-17.25-4.76-4.07.56-7.8,1.82-11.42,3.58-1.78.87-3.3,2.11-4.61,3.63-1.23,1.43-2.62,2.72-4.29,3.65-.81.45-1.59,1.04-2.97.63,0-3.49,0-7.08,0-10.66,0-5.91-.06-11.83-.03-17.74.03-4.74,1.88-6.82,6.58-7.58,5.09-.82,10.24-.85,15.37-1.16,6.58-.41,13.16-.83,19.75-1.22,1.71-.1,3.41-.05,5.11.32,2.18.48,3.47,1.76,3.87,3.93.14.75.26,1.53.26,2.29.05,9.77.08,19.54.1,29.32,0,.65.2,1.36-.25,1.94Z"/>
  </g>
</svg>