<?xml version="1.0" encoding="UTF-8"?>
<svg xmlns="http://www.w3.org/2000/svg" version="1.1" viewBox="0 0 1024 1024">
  <!-- Generator: Adobe Illustrator 29.8.5, SVG Export Plug-In . SVG Version: 2.1.1 Build 2)  -->
  <defs>
    <style>
      .st0 {
        fill: #010101;
      }

      .st1 {
        fill: #b7b6ad;
      }

      .st2, .st3 {
        fill: #fff;
      }

      .st4 {
        fill: #285080;
      }

      .st5 {
        fill: #2d5939;
      }

      .st6 {
        fill: #779c35;
      }

      .st3 {
        stroke: #000;
        stroke-miterlimit: 10;
        stroke-width: 5px;
      }

      .st7 {
        fill: #529ebf;
      }

      .st8 {
        display: none;
      }

      .st9 {
        fill: #f4b803;
      }

      .st10 {
        fill: #a61415;
      }
    </style>
  </defs>
  <g id="Layer_1" class="st8">
    <path class="st0" d="M1024,0v1024H0V0h1024ZM103,322c-13.12,3.01-20.68,14.46-17.31,27.82,2.03,8.06,19.51,25.98,25.8,33.2,10.96,12.58,22.9,24.45,34.03,36.97,27.1,30.49,53.87,61.36,81.28,91.53l-135.21,150.57c-6.48,8.48-9.18,17.74-3.98,27.82,7.89,15.29,31.73,12.17,45.94,13.06,51.62,3.22,103.22,6.51,154.92,9.08,3.38.17,17.82-.94,19.1.9.47.68,1.37,14.13,1.48,16.52,3.06,65.22,5.1,130.64,9.02,195.98,5.39,14.38,15.46,21.61,30.98,17.1,8.41-2.44,23.71-19.59,30.95-26.06,38.13-34.06,76.21-68.73,114.03-102.97,2.68-2.42,16.12-16.83,18.35-16.44l149.62,137.45c11.75,11.74,29.64,13.51,39.02-2.01,6.77-11.19,4.38-36.46,4.95-50.05,1.89-45.2,4.05-90.62,6.08-135.92.5-11.18-.83-22.44.96-33.55,7.81-.27,15.73.36,23.54.05,47.63-1.91,95.29-5.18,142.97-8.03,12.69-.76,39.68.96,50.02-4.98,6.69-3.85,10.93-14.5,10.07-22.05-1.53-13.47-27.42-36.06-37.12-46.97-32.54-36.61-66.17-72.83-98-110-1.31-1.53-7.59-9.15-7.37-10.37,44.33-51.55,91.1-100.9,136.31-151.73,10.39-12.4,5.87-33.16-10.61-37.24-12.57-3.11-30.95-1.88-44.31-2.69-51.31-3.13-102.71-6.82-154-9.06-2.35-.1-7.47,1.43-8.56.65-2.13-1.52-1.71-22.26-1.96-26.07-3.28-50.35-5.22-101.05-7.98-151.02-.65-11.74,1.44-34.53-6.97-43.03-11.88-12-24.01-7.52-35.39,1.73-35.34,28.74-71.4,63.57-105.66,94.29-15.26,13.69-29.89,28.44-45.66,41.37-2.54.21-30.88-27.41-35.31-31.37-24.46-21.89-49.52-43.14-74.03-64.97-13.37-11.91-26.61-26.45-40.52-37.48-15.5-12.3-32.89-8.04-39.41,10.53-3.65,59.99-7.08,120-11.07,179.93-.35,5.25-1.81,11.84-1.99,17.01-.08,2.24,2.08,5.46.58,7.57-.47.65-11.08,1.8-13.08,1.92-61.29,3.65-123.58,4.34-184.49,10.01-3.87.36-5.88.06-10,1Z"/>
  </g>
  <g id="Layer_2">
    <path class="st0" d="M113,240c8.27-.61,17.19.44,25.54.04,45.37-2.19,90.83-5.62,135.97-8.03,14.81-.79,29.73-.51,44.49-2.01-2.22-6.33-2.23-11.85-2.04-18.54,1.44-51.86,7.32-106.98,11.03-158.97.7-9.76-.18-21.38.99-31.01,1.8-14.9,19.82-18.32,29.5-8.45l156.02,139.98c2.25-8.81,11.22-13.64,17.52-19.5,40.76-37.92,82.77-75.35,125-112,8.47-7.35,19.57-22.83,32.31-16.33,7.3,3.72,8.55,8.73,9.67,16.33,2.27,15.43,1.24,34.11,2.02,49.98.9,18.25,2.16,36.69,3.03,54.97,1.7,35.51,3.08,71.05,4.96,106.54,3.78.09,6.66-3,10.48-3.01,6.16,0,14.69,1.72,21.02,2,53.62,2.34,107.48,3.93,160.98,8.02,5.35.41,16.27.75,20.73,2.27,9.55,3.24,13.82,16.13,8.24,24.68-42.25,47.53-85.57,93.76-127.97,141.03-2.04,2.28-15.51,17.29-15.5,18.5,0,.59,2.1,1.06,3.04,1.95,8.67,8.35,16,17.94,23.99,26.77,36.74,40.64,78.81,83,112.96,125.32,4.73,5.86,6.89,8.97,6.03,16.98-1.35,12.5-13.27,13.67-23.51,14.49-58.16,4.62-119.36,6.01-177.95,9.05-4.96.26-21.86-1.3-24.57,1.43-2,2.02-.74,25.1-.93,30.07-2,51.68-4.49,103.28-7.08,154.92-.49,9.83,2.13,31.5-4.91,38.81-.62.64-6.84,4.56-7.56,4.71-6.8,1.35-13.74-1.93-18.96-6-19.04-14.86-39.15-36.83-57.51-53.49-32.67-29.65-65.82-58.8-97.65-89.41-44.7,40.57-89.47,81.06-134.38,121.41-7.74,6.95-23.6,25.12-32.93,27.07-12.26,2.57-19.66-4.12-21.06-16.05-2.11-17.89-2.09-39.62-3.04-57.96-2.47-48.2-2.7-96.78-5.92-145.08-.1-1.55-1.18-10.08-1.47-10.53-1.19-1.77-13.83-.76-17.06-.94-61.1-3.51-124.36-4.9-185-10-6.57-.55-13.05-2.25-17.06-7.94-7.07-10.04-.76-17.66,5.57-25.51,39.52-49.01,87.03-95.86,128.46-143.54,1.63-1.88,7.98-7.17,8.51-8.5.71-1.79-7.64-4.34-8.52-6.46-45.01-49.59-89.16-100.12-133.91-150.09-4.99-6.81-4.23-16.23,1.94-21.93.72-.67,7-4.86,7.49-5.01,1.1-.32,7.23-.87,9-1ZM678,148c12.73-26.07,14.39-28.35,13.96-58.46-.29-20.16.48-50.81-3.02-69.98-1.49-8.16-7.51-8.32-12.95-3.08-16.77,17.94-42.2,32.23-53.53,54.47-8.84,17.35-11.02,48.43-33.07,53.93-8.97,2.24-17.72-.93-26.89.11-7.81.89-14.7,6.69-20.51,11.49-2.37,3.92-17.81,13.82-16.84,17.77.67,2.73,11.1,12.76,13.84,15.26,3.36,3.06,11.67,11.07,15.69,11.24s21.01-16.82,26.61-19.96c30.19-16.92,68.34,2.8,72.58,36.83l5.33,100.67c25.95,23.59,38.65,53.47,41.78,88.22.43,4.74-.96,12.86.21,16.79.27.89,6.81,9.67,8.79,8.26l26.64-30.54c.84-3.21-9.97-11.58-12.66-14.5-3.26-3.53-8.61-9.09-11.39-12.61-12.96-16.44-10.18-70.11-11.55-92.45-.95-15.63-1.3-31.02-8.87-45.13-5.96-11.11-17.73-19.41-21.64-31.36-2.89-8.84-.59-15.36,1.47-23.97,3.15-3.52,4-8.9,6-13ZM357.58,25.42c-5.94-5.02-16.96-15.4-18.45-.79-2.7,26.48-2.43,53.36-4.92,79.87-.58,19.89,19.04,31.43,16.8,51.01-1.54,13.4-19.33,24.5-22.3,38.7-.98,4.69-1.54,13.25-1.74,18.25s-1.06,9.83,4.75,11.33l36.3-2.27c4.36-8.81,2.18-18.51,4.71-28.29,8.58-33.21,51.91-46.14,78.76-25.19,23.5,18.33,45.72,42.81,68.51,62.49,10.35,8.93,19.8,16.67,33.81,19.19l90.2,18.29c.19-11.31-.36-22.7-2.1-33.89-17.03-1.18-34.19-1.57-51.14-3.36-6.66-1.38-11.6-5.11-16.77-9.23l-73.5-67.5c-1.83-.31-1.25.14-1.73,1.22-1.34,3.05-1.28,21.36,0,24.51,1.91,4.7,16.1,13.31,20.71,17.29,7.82,6.74,25.25,23.5,29.91,32.09.5.92,1.49,2.86,1.13,3.86-7.33-5.59-14.2-11.78-21.07-17.93-1.25-1.12-1.84-2.87-2.79-3.7-8.09-7.07-27.9-20.11-32.49-28.01-7.06-12.13,2.77-32.17-3.42-38.06-3.69-3.52-12.05,6.85-12.57,10.46-.14.97,3.67,11.72,4.41,13.18.93,1.85,3.77,2.54,3.42,5.07-10.28-.6-10.19-10.43-17.06-15.43-5.41-3.94-13.94-6.43-19.43-10.57-19.98-15.02-13.73-36.61-23.62-56.38-6.48-12.95-18.67-20.62-28.89-30.11-13-12.08-25.85-24.63-39.4-36.1ZM608.99,94l6.52-22.98c-2.03,1.93-15.1,12.45-15.42,13.66-.6,2.29,5.05,7.1,6.91,8.71.62.53,1.45,1.12,1.99.61ZM595.98,89.01c-1.3-.92-11.15,9.03-10.91,10.36.29,1.62,6.53,6.62,7.92,8.14,1.81,1.96,2.55,6.42,5.45,5.53.65-.2,7.56-10.72,7.44-11.39-.27-1.54-7.28-8.44-8.92-10.17-.78-.83-.88-2.39-.99-2.47ZM434.38,94.56c-.46-.41-.28-2.72-1.4-1.05,4.36,9.96,4.13,22.41,7.69,32.31.43,1.19.97,3.58,2.8,3.16,1.26-.29,12.69-12.98,12.46-14.35-.39-2.3-18.42-17.29-21.55-20.08ZM593,117.99c.63-.83-4.11-6.34-5.02-7.46-1.07-1.31-6.47-7.58-7.46-7.58-2.62-.01-4.57,4.59-6.29,6.07-1.21,1.03-14.01,9.39-12.22,10.99,10.9-.68,20.62,2.84,30.99-2.01ZM448.31,138.71c1.36,1.63,5.58,4.78,7.67,3.82s14.7-14.3,13.59-16.51c-.59-1.17-8.17-7.29-9.57-6.58-.86.44-12.14,13.73-12.54,14.6-.76,1.67-.29,3.31.85,4.67ZM344,149c.48-4.78-2.39-8.95-4.48-13.02-.64-1.25-6.02-11.68-7.52-9.97l-.98,21.97,12.98,1.02ZM679.01,159.99c2.66.19,15.36-.25,16.56-1.92,1.72-2.39-1.7-26.25-1.58-31.06l-8.12,20.36c-3.21,4.04-3.66,6.44-4.89,10.93-.36,1.31-2.38.04-1.98,1.69ZM474.64,132.15c-.98.19-13.39,13.52-13.54,14.51-.27,1.78,8.01,6.13,9.59,6.15,1.78.02,9.76-10.62,12.2-12.52.61-2.74-6.21-8.55-8.25-8.14ZM344,155l-12.93-.92-2.07,22.91c2.34.65,1.69-.6,2.28-1.27,2.38-2.7,15.95-17.46,12.72-20.72ZM686,179c3.63-.21,7.36.16,11,0-1.47-4.53-.96-9.29-1-13.99h-19c-.76,0-2.63,14.37-2,15,3.45,0,6.5-.89,10-1h1ZM697,184h-14.5c-.9,0-3.62,1.87-5.5,1,2.58,10.72,9.25,14.44,19.89,10.89l.11-11.89ZM473,253c5.04-4.07,8.22-7.17,12.96-11.54,2.2-2.03,13.13-9.97,13.11-11.97l-27.56-25.48c-4.01-4.39-8.21.68-11.51,3.48-18.31,15.5-18.73,23.73-46.5,26.5-36.78,3.68-79.96.91-115.69,7.31-18.88,3.38-25.56,15.89-41.52,21.48-27.92,9.79-37.24-15.03-59.79-16.76-28.82,2.67-58.3,1.42-87.01,4.95-11.76,1.45-8.62,8.72-3.45,15.5,13.11,17.18,37.98,43.87,56.3,54.7,14.34,8.47,32.61,12.9,42.68,27.32,7.61,10.91,7.81,30.11,14.45,42.55,2.1,3.94,11.16,16.22,14.59,18.41,4.1,2.62,5.45,1.71,8.98-.93,3.19-2.39,11.51-11.19,14.49-14.5,1.56-1.73,6.96-8.01,7.31-9.75,1.5-7.33-9.25-15.04-13.24-20.35-23.53-31.27-3.55-74.37,34.93-78.9,49.52-5.83,102.24-4.12,151.86-10.14,13.39-1.62,17.35-5.36,26.62-13.88,2.77-2.55,5.98-4.7,8-8ZM698.01,201.99h-8s7.5,11,7.5,11l.5-11ZM821,254c-5.68,2.28-11.32,5.86-17.76,6.74-25.02,3.44-31.11-13.9-51.04-18.44-6.11-1.39-28.08-3.79-32.96-1.56s-3.41,15.76-3.23,20.75c.15,4.07.56,11.04,1.08,14.92,1.41,10.49,13.62,6.82,21.39,7.61,30.41,3.07,49.76,36.55,39.99,64.96-6.58,19.13-46.87,57.77-61.99,75.01-7.69,8.77-19.44,19.68-21.36,30.64-1.78,29.99-9.05,61.19-11.11,90.88-.2,2.82.08,5.68,0,8.49l18.89-2.11c2.3-17.94-.83-38.03,6.91-54.59,20.36-26.57,46.43-49.86,67.71-75.29,17.12-20.46,13.5-29.33,18.93-53.07,6.65-29.02,42.79-28.52,62.87-42.13,9.06-6.14,31.77-27.66,36.69-36.81,3.53-2.18,5.26-6.1,8-9,4.15-4.39,17.85-16.46,19.29-21.38.42-1.42-.28-1.49-.29-1.62-.46-6.07-1.08-3.18-3-5-.11-.11.38-1.32-.72-1.99-.88-.53-3.58-.89-4.79-1-23.2-2.16-46.8-1.3-69.98-3.81-8.9.3-15.76,4.68-23.5,7.79ZM277,242.01c-9.51.64-15.85-3.83-12.99,8.99.83.98,12.15-7.07,12.99-8.99ZM786.89,244.11l-18.88-2.1c-.42,2.05,1,2.32,2.3,3.19,2.98,2,11.51,7.7,14.22,8.79,1.74.7,1.3-.59,1.59-1.35.59-1.57,1.57-7.59.77-8.53ZM242,249c.25,2.91,1.65,6.14,1.08,9.45l.92.55c2.1.07,4.17.11,6.26-.24,11.08-1.85,7.21-6.55,7.75-15.76h-16.01c.11,1.98-.16,4.04,0,6.01ZM237.01,243.99l-22,1.5,17.03,10.97,4.96.54v-13.01ZM810,245c-5.97-.4-11.91-1.68-18.01-1.01v12.01c6.44,1.2,10.41-1.27,16.01-3.01,2.73-.85,14.66-4.65,16-6.02,3.3-3.37-6.17-1.07-6.6-1.08-2.29-.07-4.79-.73-7.4-.9ZM518.42,377.45c17.93-20.58,31.07-38.12,32.62-66.91.93-17.21-3.89-41.34-15.53-54.55-6.98-7.92-8.14-7.79-15.99-.96-16.6,14.45-22.76,45.4-21.57,66.52.49,8.57,6.49,31.43,4.59,37.51-.82,2.62-18.68,18.18-22.06,21.93-23.1,25.61-37.68,50.99-27.75,86.77,9.75,35.14,43.33,56.15,79.25,47.23,2.86,20.79,16.58,55.62-1.78,72.01-8.68,7.75-32.07,10.91-36.21-3,20.31,2.07,26.7-28.4,8.68-36.19-17.06-7.38-31.32,8.59-28.23,25.24,7.64,41.19,75.17,38.14,73.53-10.55-.53-15.56-6.22-33.21-8.06-48.86,7.67-5.11,14.81-8.05,21.04-15.18,24.96-28.57,14.14-79.25-26.58-84.36-2.94-.37-11.74.75-12.95-1.05-1.03-1.52-3.11-18.9-3.7-22.3-1.29-7.5-4.79-7.04.68-13.31ZM491.79,306.2c-.43-.73-12.33-8.72-13.9-9.59-47.67-26.62-110.73-2.15-132.6,46.18-40.94,90.48,33.19,173.48,99.72,224.67,8.28,6.37,17.81,11.32,25.5,18.53,2.07.4,1.7-.81,1.29-2.29-.77-2.78-2.75-7.09-4.76-9.25-6.95-7.45-23.68-17.18-32.51-24.49-54.81-45.31-108.47-108.71-89.46-185.4,11.75-47.41,53.93-77.79,103.19-70.33,15.2,2.3,31.19,10.09,42.25,20.75,2.49,1.06,1.66-8.13,1.28-8.79ZM556,299c7.52-.42,14.34-3.61,21.77-4.73,50.31-7.62,94.26,27.38,102.97,76.49,14,78.96-41.1,138.36-97.27,184.21-7.72,6.3-26.65,17.85-31.89,24.11-2.2,2.62-3.32,7.58-4.09,10.9,68.4-47.82,155.86-120.19,141.42-214.39-8.93-58.23-63.8-104.5-123.69-85.88-5.73,1.78-10.84,2.11-9.21,9.29ZM341,295c-1.98.31-4.01.67-6,1-2.24-2.02-11.21-1.1-13.01.49-1.91,1.69-1.81,9.8-1.99,12.51-1.53,23.42,1.66,34.84-14.49,54.01-16.93,20.11-36.92,38.54-53.51,58.99-.54.66-1.58.96-2.22,2.24-1.68,3.36.59,2.81,4.22,4.76,5.28,2.83,12.35,4.36,17.93.43,3.05-2.15,10.03-15.13,13.56-19.44,4.57-5.58,11.38-12.18,17.51-15.99v1c-4.52,6.28-9.36,12.38-13.83,18.67-3.5,4.92-10.06,18.41-14.45,20.55-2.35,1.14-9.02,1.69-10.23,3.77-.8,1.38-.75,5.68-1.69,8.31-2.36,6.59-25.27,33.03-31.26,37.7-15.51,12.09-29.29,3.93-45.45,13.59-10.5,6.27-17.91,16.87-23.09,27.41-1.86,3.78-4.89,7.11-4.99,11.99,1.65-.41,1.68-2.92,2.98-4.5,1.45-1.76,3.19-3.16,5.01-4.49,26.49-19.48,62.77-9.14,73,22,.26.8.98.93,1,1,.17.54-.15,1.42,0,2,.37,1.42.98,1.89,1,2,.17.9-.14,2.06,0,3,.11.76.99.93,1,1,.14,1.3-.07,2.68,0,4,.2,3.64-.14,7.35,0,11-1.48,9.95-5.99,23.29-15,29-.68.43-2.91.67-4,1-.55.17-1.82-.21-2,0-1.84,2.27,1.73,1.89,3,2,1.64.14,3.36-.15,5,0,11.1,1.03,22.28,1.34,33.49,2.01,12.24.73,27.1,3.23,39.03,3.09,2.54-.03,5.49-1.08,6.27-3.81,1.03-3.59.57-22.05.2-26.78-.23-2.9-1.03-9.4-2.51-11.49-3.94-5.56-19.99-3.3-26.53-4.47-18.01-3.25-34.39-22.36-36.7-40.31-3.8-29.57,18.54-46,34.74-66.24l6-7c.32-.34.68-.65,1-1,3.04-3.27,6.44-6.29,9-10,4.79-4.85,29.54-29.98,30.57-34.01.8-3.1-.8-6.11-.65-9.51,1.33-30.83,8.66-56.04,26.08-81.48l15.04-14.7c.78-1.1,1.4-5.88.96-6.29-.79-.74-19.36-.28-21.6-.05-1.41.15-2.19,1.02-2.4,1.05ZM495.66,357.69c1-1.41,1.26-2.15,1.12-3.92-.4-4.72-2.77-12.11-3.65-17.39-.52-3.13.25-6.06-.6-9.4-1.28-5.01-6.41-7-10.02-9.98-37.65-31.14-98.45-17.48-121.53,25.49-44.94,83.64,27.82,163.15,89.49,210.55,2.2,1.69,14.12,11.74,15.05,11.96,2.83.65,2.58-5.54,3.42-7.55,5.88-14.06,17.38-20.77,32.48-17.37,19.39,4.37,24.73,36.47,6.58,46.43,25.1,2.8,27.76-16.88,24.89-36.9-.47-3.29-2.13-6.38-2.66-9.34-.43-2.43-1.41-16.37-2.28-17.22-28.75,2.02-56.67-8.28-72.12-33.38-28.44-46.18-4.95-87.45,28.14-121.19,3.23-3.29,9.37-7.53,11.69-10.79ZM553,568c1.42,1.37,9.59-3.99,11.32-5.18,39.91-27.45,87.01-75.61,105.16-120.84,26.99-67.26-9.4-148.73-89.96-141.96-4.25.36-19.3,4.2-22.08,6.92-2.59,2.54-1.03,7.01-1.56,10.44-2.66,17.17-8.9,33.29-18.87,47.13-3.34,4.64-14.19,13.85-14.96,18.04-.93,5.06,1.05,16.22,2.39,21.52,1.81,7.2,6.2,4.21,11.79,5.21,12.42,2.23,26.32,8.83,33.21,19.79,17.76,28.23,12.62,62.45-14.7,82.17-2.65,1.91-8.24,3.51-8.76,6.28l7.03,50.49ZM173,340c.2.19,1.15,4,2.5,3.98.28,0,4.29-3.29,4.47-3.51,3.2-3.74-.41-3.46-1.97-4.47-5.58-3.61-11.8-5.63-17.51-8.98,2.57,4.51,6.25,8.47,10.02,12.01.81.76,2.28.77,2.49.97ZM853,337l-24,9.01c-.6.79,3.33,3.34,4,3.99,1.41,1.37,2.9,1.85,3,2,.85,1.36-1.99,5.14,3.49.99,2.63-1.99,11.59-11.27,13.51-13.99,3.45-4.89.52-6.13,0-2ZM186.63,341.21c-1.3.25-6.32,6.32-6.5,7.48s2.61,4.08,3.51,4.23c1.83.31,7.48-7.11,9.34-8.42-1.15-1.57-4.5-3.65-6.35-3.29ZM824,352c-.79-.57-1.28-3.18-3.32-2.87-.6.09-10.21,5.52-10.51,6.05-2.24,3.89,3.77,7.77,6.83,8.82,1.12,2.11,3.92,6.32,6.45,6.05s7.73-6.58,8.55-9.05c1.18-3.57-.84-2.86-3-5-2.45-2.42-2.61-2.27-5-4ZM189,359c-.02.11-.7.25-.67.5.05.3.57.33.67.5.66,1.17,3.09,4.14,4.36,3.93.94-.16,8.62-6.61,8.48-8.24-.17-1.87-2.62-6.26-5.16-5.57-.45.12-6.89,5.58-7.16,5.95-.73,1.02-.36,1.99-.53,2.93ZM209.99,382c-1.37-3-3.72-18.47-5.53-18.99-2.28-.65-6.98,3.93-6.35,6.29.57,2.16,9.47,10.88,11.89,12.7ZM806,378c1.3,2.2,2.91,6.63,6.41,6.07.54-.09,6.62-6.76,6.57-8.6-.07-2.59-13.1-13.75-14.96-12.46-.44.31-2.78,9.18-2.71,10.39.13,2.26,2.8,3.71,4.69,4.6ZM801.98,382.02c-.24-.17-2.19-.41-1.98.59l-2.51,16.37c3.36-1.03,11.29-9.56,9.34-12.81-.17-.28-3.15-1.49-4.11-2.17-.85-.6-.64-1.92-.73-1.98ZM257.89,437.1c-.48-.55-11.49-3.85-13.24-6l-7.57,8.26,14.44,12.7c4.1-.74,8.19-12.89,6.37-14.96ZM660,593c11.88-2.75,44.34-8,55.27-5.77,10.29,2.09,11.69,13.2,17.31,19.68,4.17,4.8,7.38,1.83,11.45-2.36,6.93-7.15,10.36-20.28,19.46-26.54,15.08-10.38,27.5,12.09,36.97,20.03,6.15,5.16,11.03,6.77,19.03,7.97l98.94-5.05c3.84-1,6.73-5.54,4.33-9.19-17.09-16.85-33.34-45.4-55.4-55.63-12.26-5.68-24.42-5.72-33.89-17.11-10.6-12.75-8.44-31.3-16.45-45.55-2.31-4.1-12.73-15.32-16.52-19.48-2.1-2.31-13.64-14.92-15.06-15.04-1.73-.14-3.82,1.3-5.1,2.4-4.31,3.71-13.43,14.4-17.32,19.18-1.22,1.49-4.61,5.64-4.86,7.18-.78,4.88,8.7,12.74,11.8,16.82,26.45,34.76,7.8,77.5-35.49,81.46-24.11,2.2-48.75,3.26-73,5-19.78,1.42-47.71-1.23-64.41,8.59-20.39,12-41.42,29.28-61.16,42.84-5.31,3.65-9.39,1.05-1.44,8.61,2.55,2.43,19.61,19.01,21.03,19.01,2.52,0,10.06-9.96,12.62-12.36,14.5-13.62,20.78-18.66,41.39-20.66l117.48-6.02-6.97-14.52c-6.69-7.07-29.3-1.92-38.53-1.49-6.58.31-13.89.19-20.49.01l-1-2ZM228,456c.33.33.66.68,1,1,1.97,1.87,9.33,9.57,11.37,8.94.82-.25,6.73-7.94,6.47-9.3-.47-2.41-5.24-4.38-6.84-5.65-.85-.67-1.26-1.87-3-3-1.08-1.57-2.79-4.69-4.99-3.56-.68.35-6.75,6.66-6.9,7.26-.72,2.77,1.71,3.11,2.89,4.3ZM333.42,484.58c-9.86-10.97-19.59-22.11-30.12-32.47-1.55-.49-2.35.44-3.37,1.32-1.79,1.55-10.18,10.8-11.37,12.62-.68,1.03-1.58,2.16-1.54,3.47.05,1.84,21.29,23.12,24.4,27.56,11.97,17.09,8.47,40.48,9.54,60.46,4.34,81,7.74,162,12.08,242.92.38,7.14-.49,35.58,3.43,39.57,1.7,1.72,7.06,1.42,9.08.03l153.13-139.35c2.7-3.12-.37-4.68-2.04-7.35l-28.15-24.39c-5.46,3.96-10.06,10.12-15.49,14.55-34.69,28.35-78.12,10.29-83.01-34.02-4.66-42.26-4.34-85.22-8.45-127.55-2.05-12.8-19.39-27.64-28.13-37.37ZM229,476c1.97-1.69,7.63-1.99,5.5-5.99-.93-1.75-13.47-12.55-15.47-11.56-1.45.72-7.39,7.31-6.97,8.98l13.57,12.5c2.59.45,3.02-3.62,3.37-3.93ZM213,477c-1.24-1.02-3.29-5.29-5.36-4.93-1.03.18-14.61,14.19-13.64,14.92,6.44-2.14,21.21.83,26-2.49,1.66-1.15.63-1.05,0-2-1.59-2.44-4.88-3.76-7.01-5.5ZM830,491c.39,1.27,1.49,16.03,2.51,16.01,12.05-8.16,7.58-8.55.49-16.01-1.68-1.77-2.45-5.57-5.49-6.01-2,1.89,2.39,5.69,2.49,6.01ZM844.64,504.07c-1.55.27-8.19,7.12-7.15,9.87,2.56,6.74,6.78,2.3,10.42-1.52,3.97-4.16-1.35-8.68-3.27-8.35ZM868,529.99c-2.25-2.7-12.64-16.79-15.87-14.85-.15.09-.69,1.99-1.58,2.86-2.01,1.98-6.32,2.32-1.25,5.21,2.03,1.15,17.93,7.4,18.71,6.78ZM190,524c-12.07,1.23-24.11,8.71-30.19,19.31-12.33,21.49,9.14,49.13,30.19,55.69.43.13.9.86,2,1,.77.1,3.86.15,4,0,.67-.68-.09-16.05,0-19.01.08-2.52-.04-12.57,1.08-13.94.22-.27,1.35-.06,1.92-.06,1.5,4.28-1.57,7.65-1,12,10.64,1.64,7.79-4.03,8-12-1.76-.96-4.71,2.27-4.99,2s.21-1.77,0-2c-.9-4.1,4.91-.35,7-3,.67.01,1.33,0,2,0,.95,1.61,4.99,1.64,6,0,1.33,0,2.67.01,4,0,.76,3.22-2.06,1.1-4,3-1.35,1.32-.92,1.8-1.06,3.41-.61,7.21-.57,19.92,0,27.15.09,1.12-.32,3.05,1.05,3.43l.5.98c.27-.06.28-.9.5-.98,10.86-4.29,15.63-12.25,19-23,.02-.07.66.37,1-1,.26-1.03-.12-2.75,0-4,.21-2.1.88-.48,0-4-.23-.92-.94-1.72-1-2-.19-.86.13-2.05,0-3,.33-.04.67.03,1,0l1.01-1.51c-.08-.89-.99-1.34-1.01-1.49-.32-1.79-.48-4.41-1-6-.33-1-.79-1.48-1-2-6.72-16.88-18.42-27.61-37-29-.98-.07-2.01,0-3,0-1.32,0-2.69-.1-4,0l-.5-.98-.5.98ZM145,540c-14.58,15.91-28.08,32.85-42.87,48.62-2.68,6.27-.79,8.6,4.87,10.38,1,.31,1.24.79,3,1,1.62.2,3.36-.13,5,0,2.93.23,7.19,1.63,9,0,2.67.35,5.32.73,8,1,3.64.37,7.35.73,11,1,1.98.15,4.02-.14,6,0,1.32.1,2.68-.09,4,0,.66.05,1.34-.04,2,0,.66,1.58,4.34,1.58,5,0,2.04.12,4.44.83,7,1,3.38.23,6.57,1.32,10,1l8.99-.99c-2.9-1.27-7.44-2.45-9.99-4.01-19.63-12.01-29.25-35.57-25-58,.53-2.78,3.33-6.68,2.99-10-3.6,2.35-6.14,5.9-8.99,9ZM209,573c.62.8.2,1.3,2,1,3.15-.52-.83-6.38-2.5-7-1.18,1.94-.77,4.34.5,6ZM210.99,577.01h-1.99v.98h1.99v-.98ZM213,581h-15v20c0,.76,15,1.76,15,1v-21ZM785,607c.51-.2,1.75.61,2.04-.63.56-2.33.11-11.83-.8-14.16-.5-1.29-1.95-1.74-2.24-2.21-1.04-1.67-1.64-3.28-3.64-4.82-9.55-7.3-5.55-1-5.32,5.28.35,9.38-3.98,22.09,9.96,16.54ZM757,593.5c-1.03,3.57.75,11.35,0,15.5h13c-.4-8.66-1.52-17.25-1.01-26-2.8-2-11.77,9.7-11.99,10.5ZM598,766v-20.5c0-6.24-18.64-19.78-23.53-24.47-7.36-7.07-14.06-14.6-20.47-22.53.73-1.37,2.62-.16,3.54.46,6.66,4.47,18.07,14.84,24.47,20.53,5.9,5.25,18.2,15.54,20.48,22.52,3.32,10.18-.8,20.04,1.72,30.28.88,3.56,7.94,7.51,10.8,10.2,19.45,18.23,39.2,36.12,58.51,54.49,6.4,5.18,14.37,6.77,15.5-3.45,2.33-21.07,1.13-46.45,1.93-68.06.34-9.27,1.81-19.67,2.08-28.92.29-9.82-.29-19.72-.05-29.54-4.57,2.54-17.67,8.4-19.52,12.97-.89,2.19-1.98,9.13-1.29,11.34.83,2.66,7.85,4.43,8.78,11.28,2.38,17.53-24.02,18.94-23.03.89.49-9.02,6.34-8.11,7.41-10.7,1.2-2.89.24-6.1.89-9.05,3.36-15.15,17.99-16.06,27.58-25.42,1.01-12.97.76-25.88,1.15-38.85.27-9.02,2.29-18.89,1.09-28.01-.31-2.39-1.09-3.58-3.09-4.97-12.44.64-25.32.73-37.53,2.45-5.2,3.07-3.64,18.63-4.54,24.46-4.08,26.32-24.81,42.55-51.38,40.59-21.34-1.57-34.41-16.29-49.58-29.45-20.66-17.93-40.29-38.06-61.92-55.05l-105.53-23.49c-2.08-.12-1.28-.01-1.5,1.48-.46,3.19.83,27.39,2.1,28.43,18.98,2.9,44.11-1.29,60.4,10.1,49.97,45.69,100.27,91.01,149.48,137.52l5.02,2.48ZM796.34,602.64c-1.08-.9-.95-3.22-3.34-2.64-1.25,5.32,1.08,10.8,7.01,7.51,2.46-1.36-2.92-4.25-3.67-4.87ZM751.99,605.01c-1.33-1.7-4.6,4.45-3.99,4.99,3.99,2,5.4-3.19,3.99-4.99ZM666.71,739.21c-5.31,1.57-4.44,10.24-.02,11.59,12.07,3.7,12.3-15.22.02-11.59Z"/>
    <path class="st4" d="M598,766l-5.02-2.48c-49.21-46.51-99.51-91.83-149.48-137.52-16.29-11.39-41.42-7.2-60.4-10.1-1.27-1.04-2.56-25.24-2.1-28.43.22-1.49-.59-1.6,1.5-1.48l105.53,23.49c21.63,16.99,41.27,37.12,61.92,55.05,15.16,13.17,28.24,27.88,49.58,29.45,26.57,1.96,47.3-14.27,51.38-40.59.9-5.83-.66-21.39,4.54-24.46,12.21-1.72,25.08-1.81,37.53-2.45,2.01,1.38,2.78,2.58,3.09,4.97,1.2,9.12-.83,19-1.09,28.01-.38,12.97-.14,25.89-1.15,38.85-9.59,9.35-24.23,10.27-27.58,25.42-.65,2.95.31,6.15-.89,9.05-1.07,2.58-6.92,1.68-7.41,10.7-.99,18.05,25.41,16.64,23.03-.89-.93-6.85-7.95-8.61-8.78-11.28-.69-2.2.4-9.15,1.29-11.34,1.85-4.57,14.95-10.43,19.52-12.97-.24,9.82.34,19.72.05,29.54-.28,9.25-1.74,19.65-2.08,28.92-.8,21.62.39,47-1.93,68.06-1.13,10.22-9.1,8.64-15.5,3.45-19.31-18.37-39.07-36.26-58.51-54.49-2.86-2.68-9.93-6.64-10.8-10.2-2.52-10.24,1.6-20.1-1.72-30.28-2.28-6.98-14.58-17.27-20.48-22.52-6.4-5.7-17.8-16.06-24.47-20.53-.92-.62-2.81-1.83-3.54-.46,6.41,7.93,13.11,15.46,20.47,22.53,4.89,4.7,23.53,18.23,23.53,24.47v20.5ZM628,719h-16c.31,8.38,14.94,3.43,16.86,5.15.24.21.42,2.54,1.57,3.91,1.88,2.25,6.21,3.77,6.42,4.1.57.9.58,19.96.22,21.23-.23.81-2.7.79-4.1,2.07-.4.36-4.07,5.09-4.38,5.64-2.39,4.28-.87,7.28,1.89,10.94,10.46,13.86,28.69-3.67,16.47-15.48-1.13-1.09-3.18-.89-3.95-2.28-1.31-2.37-1.45-15.6-1.05-18.82.53-4.29,7.58-5.5,8.82-13.18,1.13-7.01-5.04-13.76-12.14-13.22-8.98.67-9.57,9.27-10.62,9.96Z"/>
    <path class="st7" d="M473,253c-1.11.89-2.58,1.34-3.57,2.41l-4.43,5.59c-9.27,8.52-13.24,12.26-26.62,13.88-49.62,6.01-102.34,4.31-151.86,10.14-38.48,4.53-58.46,47.63-34.93,78.9,3.99,5.31,14.75,13.03,13.24,20.35-.36,1.74-5.75,8.02-7.31,9.75-2.99,3.32-11.3,12.11-14.49,14.5-3.52,2.64-4.88,3.55-8.98.93-3.43-2.19-12.48-14.46-14.59-18.41-6.64-12.44-6.84-31.64-14.45-42.55-10.07-14.42-28.34-18.85-42.68-27.32-18.33-10.82-43.19-37.52-56.3-54.7-5.18-6.78-8.31-14.05,3.45-15.5,28.71-3.54,58.2-2.29,87.01-4.95,22.55,1.73,31.87,26.54,59.79,16.76,15.96-5.6,22.64-18.1,41.52-21.48,35.73-6.39,78.91-3.63,115.69-7.31,27.77-2.78,28.18-11,46.5-26.5,3.3-2.79,7.51-7.87,11.51-3.48l27.56,25.48c.02,2-10.91,9.94-13.11,11.97-4.73,4.37-7.92,7.47-12.96,11.54ZM215,308c6.84,3.3,11.53-7.09,12.05-12.45,1.39-14.36-4.29-15.11-12.01-24.09-2.44-2.83-9.96-17.72-14.51-7.44-2.28,5.14.86,36.67-.52,37.98-.22.21-4.35.01-6.07.44-12.08,3-16.22,21.32-.17,23.3,8.19,1.01,8.94-3.42,13.23-3.74.19-.01.96,1.44,1.83.89.12-2.28,3-2.5,3.68-3.86,1.47-2.95-.28-7.58.47-10.38.27-1.02,1.95-.56,2.02-.64Z"/>
    <path class="st10" d="M495.66,357.69c-2.31,3.26-8.45,7.49-11.69,10.79-33.09,33.74-56.58,75.02-28.14,121.19,15.46,25.1,43.37,35.4,72.12,33.38.87.84,1.85,14.78,2.28,17.22.53,2.96,2.19,6.05,2.66,9.34,2.87,20.02.21,39.7-24.89,36.9,18.15-9.96,12.81-42.06-6.58-46.43-15.1-3.4-26.6,3.31-32.48,17.37-.84,2.01-.59,8.2-3.42,7.55-.94-.21-12.86-10.27-15.05-11.96-61.67-47.4-134.44-126.92-89.49-210.55,23.09-42.96,83.88-56.63,121.53-25.49,3.61,2.99,8.74,4.97,10.02,9.98.85,3.35.08,6.27.6,9.4.88,5.28,3.25,12.67,3.65,17.39.15,1.77-.12,2.51-1.12,3.92ZM360,379c.1,1.27-.26,4.85,2,3,.26-.21-.22-1.63,0-2,4.44-7.34,6.19-15.37,10.59-22.91,7.93-13.6,23.4-26.3,37.05-33.95,3.43-1.92,26.32-11.17,26.34-12.64,0-.24-1.11-1.21-1.61-1.36-2.27-.69-16.67.64-19.4,1.33-7.05,1.79-26.31,13.02-31.86,18.14-11.37,10.47-24.33,34.79-23.11,50.39ZM385.65,458.64c2.61-2.28,12.68-15.17,14.99-15.57,3.91,1.26,18.1,17.81,19.91,17.98,3.63.34,4.25-3.62,6.41-5.6s7.55-5.31,8.55-7.47c2.21-4.74-2.37-5.09-4.5-7.48-1.73-1.94-11.65-12.34-11.87-13.2-1.4-5.41,17-16.41,16.82-21.8-.11-3.4-12.46-14.55-15.3-14.29-3.6.34-5.91,5.68-8.16,7.79-1.42,1.34-10.25,9.7-10.98,9.76-3.21.25-16.92-17.79-20.01-17.79-2.38,0-13.63,12.06-13.58,15.56.03,2.31,6.03,8.93,8.05,11.01s8.07,5.33,8.07,7.97c0,3.91-17.97,15.62-15.87,22.78.21.72,9.26,10.73,9.89,11.16,3.03,2.06,5.05,1.43,7.59-.8Z"/>
    <path class="st5" d="M333.42,484.58c8.74,9.72,26.09,24.57,28.13,37.37,4.11,42.33,3.79,85.29,8.45,127.55,4.89,44.31,48.31,62.36,83.01,34.02,5.42-4.43,10.03-10.59,15.49-14.55l28.15,24.39c1.67,2.66,4.74,4.23,2.04,7.35l-153.13,139.35c-2.02,1.39-7.39,1.7-9.08-.03-3.92-3.98-3.05-32.43-3.43-39.57-4.34-80.92-7.74-161.92-12.08-242.92-1.07-19.98,2.43-43.36-9.54-60.46-3.1-4.43-24.35-25.72-24.4-27.56-.04-1.31.87-2.44,1.54-3.47,1.19-1.82,9.57-11.07,11.37-12.62,1.02-.89,1.82-1.82,3.37-1.32,10.53,10.36,20.26,21.5,30.12,32.47ZM392.5,764h-23.5c1.97-5.89,18.93-19.59,18.93-24.5,0-4.28-16.03-18.9-18.93-23.5h22.5c2.32,0,3.84,8.53,5.48,9.52,1.55.93,10.58.98,11.58-.45s-2.6-20.11-3.57-22.32c-.46-1.04-.95-1-1.91-1.29-7.25-.06-59.6-1.82-61.58.53s-1.28,7.4.09,9.94l24.46,28.57c0,1.09-3.52,5.29-4.52,6.51-4.23,5.14-19.01,18.37-20.99,23-1.36,3.18-1.28,9.39,3.01,9.96h58.94c.8-.09,1.51-.36,2.13-.87.8-.65,5.21-17.61,5.35-19.75.51-7.39-7.13-5.27-12.32-5.22l-5.14,9.86Z"/>
    <path class="st7" d="M661,595c6.6.18,13.91.3,20.49-.01,9.23-.43,31.84-5.59,38.53,1.49l6.97,14.52-117.48,6.02c-20.61,2-26.89,7.04-41.39,20.66-2.56,2.4-10.1,12.36-12.62,12.36-1.42,0-18.47-16.58-21.03-19.01-7.95-7.55-3.87-4.96,1.44-8.61,19.74-13.55,40.77-30.84,61.16-42.84,16.7-9.83,44.63-7.17,64.41-8.59,24.25-1.74,48.89-2.8,73-5,43.28-3.96,61.93-46.7,35.49-81.46-3.1-4.08-12.58-11.94-11.8-16.82.25-1.53,3.64-5.68,4.86-7.18,3.89-4.78,13.01-15.46,17.32-19.18,1.28-1.1,3.37-2.54,5.1-2.4,1.42.11,12.96,12.73,15.06,15.04,3.79,4.16,14.21,15.38,16.52,19.48,8.02,14.25,5.85,32.79,16.45,45.55,9.47,11.39,21.63,11.42,33.89,17.11,22.06,10.22,38.31,38.77,55.4,55.63,2.39,3.65-.5,8.19-4.33,9.19l-98.94,5.05c-8.01-1.19-12.88-2.81-19.03-7.97-9.47-7.94-21.9-30.41-36.97-20.03-9.09,6.26-12.53,19.4-19.46,26.54-4.07,4.2-7.28,7.17-11.45,2.36-5.63-6.48-7.02-17.59-17.31-19.68-10.94-2.22-43.39,3.02-55.27,5.77-6.71,1.55-4.37,1.86,1,2ZM842,564.5v-15c0-1.27-3.13-2.37-4.45-2.55-11.26-1.52-26.18,1.06-37.85.25-3.94,1.16-4.68,18.18.83,18.77,11.99-1.01,26.34,1.45,38.02.08,1.17-.14,3.05-.25,3.45-1.55Z"/>
    <path class="st10" d="M553,568l-7.03-50.49c.52-2.77,6.11-4.37,8.76-6.28,27.32-19.71,32.46-53.93,14.7-82.17-6.89-10.96-20.8-17.55-33.21-19.79-5.58-1-9.97,1.99-11.79-5.21-1.33-5.29-3.32-16.46-2.39-21.52.77-4.19,11.62-13.41,14.96-18.04,9.97-13.84,16.21-29.96,18.87-47.13.53-3.43-1.03-7.9,1.56-10.44,2.78-2.72,17.82-6.57,22.08-6.92,80.57-6.77,116.95,74.71,89.96,141.96-18.15,45.24-65.24,93.4-105.16,120.84-1.73,1.19-9.9,6.55-11.32,5.18ZM663.99,383.99c1.78-6.91.23-13.08-1.71-19.78-8.55-29.47-36.53-55.39-68.28-55.21-.35,1.69.45,2.03,1.64,2.85,2.82,1.95,10.34,3.7,14.25,5.75,26.13,13.72,39.89,33.89,50.62,60.37.67,1.65,1.92,5.21,3.47,6.01ZM614,414c-1.12.88-24.64,0-28.5,0-.28,0-2.73,1.55-3,2-.9,1.49-.89,18.53,0,20,.27.45,2.72,2,3,2h28.5c-1.04,2.58-4.38,2.3-5.9,4.6-5.06,7.65-.08,21.35,9.63,23.16,12.86,2.39,20.61-6.47,18.03-19.03-.95-4.6-4.53-4.94-5.77-8.73h27.5c6.11,0,2.94-24,1.5-24h-29c15.75-13.2-2.46-39.52-18.94-24.44-4.96,4.54-5.95,15.53-1.51,20.39.84.92,6.33,2.56,4.45,4.05Z"/>
    <path class="st9" d="M821,254c3.21,2.83,7.84-2.74,10.09-3.37,14.24-3.94,60.59-.94,77.44.33,1.54.12,11,1.68,11.46,2.04.23.18,1.29,4.45,3,5,.01.13.71.2.29,1.62-1.44,4.91-15.14,16.99-19.29,21.38-2.57-.35-4.6,1.58-6,3.5-1.87,2.56-1.36,4.31-2,5.5-4.91,9.15-27.62,30.67-36.69,36.81-20.07,13.61-56.22,13.11-62.87,42.13-5.44,23.73-1.81,32.6-18.93,53.07-21.28,25.43-47.35,48.72-67.71,75.29-7.74,16.56-4.61,36.65-6.91,54.59l-18.89,2.11c.09-2.81-.19-5.67,0-8.49,2.07-29.7,9.34-60.9,11.11-90.88,1.92-10.96,13.67-21.87,21.36-30.64,15.12-17.24,55.41-55.88,61.99-75.01,9.77-28.41-9.58-61.88-39.99-64.96-7.78-.79-19.98,2.88-21.39-7.61-.52-3.88-.93-10.84-1.08-14.92-.18-4.99-1.56-18.56,3.23-20.75s26.86.17,32.96,1.56c19.93,4.54,26.02,21.89,51.04,18.44,6.43-.89,12.08-4.46,17.76-6.74ZM828,278c-.09,5.95-.2,12.05,0,18,.14,4.03-.06,7.87.06,11.43.36,10.38,11.92,10.75,19.75,8.87,11.11-2.67,13.09-20.57,9.38-29.99-11.06-28.11-50.12-21.38-64.61.79-3.41,5.21-10.55,22.62-7.12,27.94,3.42,5.31,4.69-8.99,5-10.07,4.24-15,16.52-30.35,33.16-31.88,6.88-.64,4.43,1.02,4.38,4.91Z"/>
    <path class="st5" d="M357.58,25.42c13.55,11.46,26.4,24.02,39.4,36.1,10.22,9.49,22.41,17.16,28.89,30.11,9.89,19.76,3.65,41.35,23.62,56.38,5.5,4.13,14.03,6.63,19.43,10.57,6.87,5.01,6.78,14.83,17.06,15.43.35-2.53-2.49-3.21-3.42-5.07-.73-1.46-4.54-12.21-4.41-13.18.52-3.62,8.87-13.98,12.57-10.46,6.19,5.89-3.64,25.93,3.42,38.06,4.59,7.9,24.4,20.94,32.49,28.01.95.83,1.54,2.58,2.79,3.7,6.87,6.15,13.74,12.34,21.07,17.93.37-1.01-.63-2.94-1.13-3.86-4.66-8.59-22.09-25.35-29.91-32.09-4.61-3.98-18.81-12.58-20.71-17.29-1.28-3.15-1.33-21.46,0-24.51.48-1.08-.1-1.53,1.73-1.22l73.5,67.5c5.17,4.12,10.11,7.85,16.77,9.23,16.95,1.8,34.11,2.19,51.14,3.36,1.74,11.18,2.29,22.58,2.1,33.89l-90.2-18.29c-14.01-2.53-23.46-10.26-33.81-19.19-22.79-19.68-45.01-44.16-68.51-62.49-26.85-20.95-70.18-8.02-78.76,25.19-2.53,9.79-.35,19.48-4.71,28.29l-36.3,2.27c-5.81-1.49-4.94-6.34-4.75-11.33s.76-13.56,1.74-18.25c2.97-14.2,20.76-25.3,22.3-38.7,2.25-19.58-17.38-31.12-16.8-51.01,2.49-26.51,2.22-53.39,4.92-79.87,1.49-14.6,12.52-4.23,18.45.79ZM407.86,106.86c1.85-2.95,1.72-13.64-1.49-14.72-11.07,1.28-32.83-3.51-41.7,3.03-5.41,3.99-13.06,19.51-1.22,17.86,3.43-.48,3.86-4.55,6.55-6.03,1.98,9.18-9.74,19.39-8.96,26.4.38,3.41,3,6.94,6.53,7.54,11.2,1.89,13.16-10.5,13.95-18.95-.52,8.38,3.93,19.87,14,19.87,11.03,0,19.29-22.06,8.09-21.85-4.72.09-3.31,4.15-6.58,5.99l.98-19.01,9.86-.13Z"/>
    <path class="st6" d="M672,161c-2.07,8.61-4.37,15.13-1.47,23.97,3.91,11.95,15.68,20.25,21.64,31.36,7.58,14.11,7.92,29.49,8.87,45.13,1.36,22.35-1.41,76.01,11.55,92.45,2.78,3.52,8.12,9.08,11.39,12.61,2.69,2.91,13.5,11.29,12.66,14.5l-26.64,30.54c-1.98,1.4-8.53-7.37-8.79-8.26-1.18-3.92.21-12.04-.21-16.79-3.13-34.75-15.83-64.63-41.78-88.22l-5.33-100.67c-4.24-34.03-42.4-53.75-72.58-36.83-5.61,3.14-22.69,20.13-26.61,19.96s-12.34-8.18-15.69-11.24c-2.74-2.5-13.17-12.53-13.84-15.26-.97-3.95,14.47-13.84,16.84-17.77,5.81-4.8,12.7-10.6,20.51-11.49,9.16-1.04,17.91,2.13,26.89-.11,22.06-5.5,24.23-36.58,33.07-53.93,11.33-22.24,36.77-36.53,53.53-54.47,5.44-5.24,11.46-5.09,12.95,3.08,3.5,19.17,2.73,49.81,3.02,69.98.43,30.11-1.23,32.39-13.96,58.46-2.21-.51-4.79,5.89-5.22,7.29-.74,2.39-.39,4.1-.78,5.71ZM662,86h-28c-.39,0-1.95,6.28-.05,7.56,1.35.91,4.19-.52,4.05,1.43-27.79,4.85-25.4,42.47,2,45.02-.39,2.43-4.82-.21-6.1,1.57-1.54,2.15-.56,7.42,1.61,7.42h26.5c-.29-2.19.55-5.43-.12-7.38-.81-2.35-3.91-.58-3.88-2.61,8.86.92,18.25-10.26,19.04-18.46,1.32-13.67-5.17-20.85-17.04-26.06,2.87.5,2.34-8.15,2-8.49Z"/>
    <path class="st2" d="M518.42,377.45c-5.47,6.27-1.97,5.81-.68,13.31.59,3.4,2.67,20.78,3.7,22.3,1.22,1.79,10.02.68,12.95,1.05,40.71,5.12,51.53,55.79,26.58,84.36-6.23,7.13-13.37,10.07-21.04,15.18,1.83,15.64,7.53,33.3,8.06,48.86,1.64,48.69-65.89,51.74-73.53,10.55-3.09-16.65,11.17-32.62,28.23-25.24,18.01,7.79,11.63,38.26-8.68,36.19,4.14,13.91,27.53,10.75,36.21,3,18.36-16.39,4.64-51.22,1.78-72.01-35.93,8.91-69.5-12.1-79.25-47.23-9.93-35.78,4.65-61.17,27.75-86.77,3.38-3.75,21.24-19.31,22.06-21.93,1.91-6.08-4.1-28.95-4.59-37.51-1.2-21.11,4.97-52.07,21.57-66.52,7.84-6.83,9.01-6.96,15.99.96,11.64,13.21,16.45,37.34,15.53,54.55-1.55,28.79-14.69,46.33-32.62,66.91ZM510.01,352c1.16,1.04,6.92-5.32,8.02-6.47,14.38-15.02,26.45-35.3,23.86-56.92-2.28-19.06-17.24-14.87-25.05-1.28-10.96,19.08-10.41,43.64-6.83,64.66ZM512,489.99c-2.79,2.49-13.29-5.62-15.51-7.98-16.27-17.35-13.15-43.42,5.03-57.99,2.29-1.83,11.97-6.69,12.32-7.68,1.73-4.96-4.26-23.27-5.33-29.34-16.3,14.18-36.66,31.86-42.54,53.46-10.02,36.83,12.85,67.53,50.54,69.52,4.74.25,15.58,1.36,14.41-5.32-6.27-20.37-6.3-45.04-11.96-65.12-.3-1.07-.28-1.85-1.44-2.51-17.52,6.14-27.42,28.2-14.54,43.48,1.19,1.41,10.29,8.34,9.02,9.47ZM538.01,505c20.21-6.9,27.47-33.19,18.17-51.68-5.4-10.73-17.7-19.09-30.18-17.32l12.01,69Z"/>
    <path class="st9" d="M341,295c3.63,3.38,18.82-2.13,20.87,1.12,3.26,5.17-9.45,12.68-11.92,16.37-.67,1-.72,2.17-.95,2.51-17.42,25.44-24.75,50.66-26.08,81.48-.15,3.4,1.45,6.41.65,9.51-1.04,4.02-25.79,29.16-30.57,34.01-3.08,3.12-7.1,5.81-9,10-.32.35-.68.66-1,1-2.55,2.75-3.69,4.11-6,7-16.2,20.24-38.55,36.68-34.74,66.24,2.31,17.94,18.69,37.06,36.7,40.31,6.53,1.18,22.58-1.08,26.53,4.47,1.48,2.09,2.29,8.59,2.51,11.49.37,4.72.83,23.19-.2,26.78-.78,2.73-3.73,3.78-6.27,3.81-11.93.14-26.78-2.36-39.03-3.09-11.21-.67-22.39-.98-33.49-2.01l-2-3c9.01-5.71,13.52-19.05,15-29,.46-3.08,2.62-8.01,0-11-.07-1.32.14-2.7,0-4l-1-1c-.14-.94.17-2.1,0-3l-1-2c-.15-.58.17-1.46,0-2l-1-1c-10.23-31.14-46.51-41.48-73-22-1.44-1.2-3.66-.6-3-3,5.17-10.54,12.59-21.14,23.09-27.41,16.16-9.66,29.94-1.5,45.45-13.59,5.99-4.67,28.9-31.11,31.26-37.7.94-2.63.89-6.93,1.69-8.31,1.21-2.08,7.88-2.63,10.23-3.77,4.39-2.14,10.95-15.62,14.45-20.55,4.47-6.29,9.31-12.39,13.83-18.67,1.4-1.95,3.89-2.53,4.02-5.48l-4.02,4.48c-6.14,3.8-12.94,10.41-17.51,15.99-3.53,4.31-10.51,17.29-13.56,19.44-5.58,3.93-12.65,2.4-17.93-.43-2.07-2.08-2.05-3.69-1.27-6.41l-.73-.59c16.6-20.45,36.59-38.88,53.51-58.99,16.14-19.18,12.95-30.6,14.49-54.01,3.23.56,1.68-1.63,1.96-3.49.44-2.83,1.12-5.64,1.04-8.52,3.97,1.32,8.33-.38,11.99-.99,1.99-.33,4.02-.69,6-1Z"/>
    <path class="st2" d="M491.79,306.2c.39.66,1.21,9.85-1.28,8.79-11.06-10.66-27.05-18.45-42.25-20.75-49.26-7.45-91.44,22.93-103.19,70.33-19.01,76.69,34.65,140.09,89.46,185.4,8.84,7.31,25.57,17.03,32.51,24.49,2.01,2.15,3.98,6.46,4.76,9.25.41,1.48.78,2.68-1.29,2.29-7.69-7.21-17.22-12.16-25.5-18.53-66.54-51.19-140.66-134.19-99.72-224.67,21.87-48.33,84.93-72.8,132.6-46.18,1.57.88,13.47,8.86,13.9,9.59Z"/>
    <path class="st9" d="M145,540c2.74-.74,4.67-2.2,6,1-4.25,22.43,5.37,45.99,25,58,1.54,1.29,0,2.68,0,3-2.82.38-6.95-1.08-9,1-2.56-.17-4.96-.88-7-1-1.66-.1-3.34.1-5,0-.66-.04-1.34.05-2,0-.41-1.56-3.68-1.5-4,0-1.98-.14-4.02.15-6,0-2.22-2.73-8.44-2.88-11-1-2.68-.27-5.33-.65-8-1-2.45-.32-6.54-2.65-9,0-1.64-.13-3.38.2-5,0l-3-1c-5.66-1.78-7.55-4.11-4.87-10.38,14.79-15.77,28.29-32.72,42.87-48.62Z"/>
    <path class="st9" d="M190,524c.33-.03.67.02,1,0,1.31-.1,2.68,0,4,0l1,57c-.09,2.95.67,18.33,0,19.01-.14.14-3.23.1-4,0l-2-1c-21.06-6.56-42.52-34.2-30.19-55.69,6.08-10.6,18.12-18.08,30.19-19.31Z"/>
    <path class="st9" d="M235,553l1,2c.52,1.59.68,4.21,1,6v3c-.33.03-.67-.04-1,0-4.69.58-11.03-.05-16,0-1.33.01-2.67,0-4,0-2-.01-4,.03-6,0-.67,0-1.33.01-2,0-3.32-.07-6.68.05-10.01,0v-40.01c18.59,1.39,30.29,12.12,37.01,29Z"/>
    <path class="st9" d="M227,567c9.32,2.71,7.37-.2,7.98,8.52.06.88-.41,2.63,1.02,2.48-3.37,10.75-8.14,18.71-19,23h-1c-1.37-.38-.96-2.31-1.05-3.43-.58-7.23-.61-19.95,0-27.15.14-1.61-.29-2.09,1.06-3.41h11Z"/>
    <path class="st5" d="M434.38,94.56c3.13,2.79,21.15,17.78,21.55,20.08.24,1.37-11.2,14.06-12.46,14.35-1.83.42-2.37-1.97-2.8-3.16-3.56-9.9-3.33-22.35-7.69-32.31,1.11-1.68.94.64,1.4,1.05Z"/>
    <path class="st6" d="M593,117.99c-10.37,4.84-20.09,1.33-30.99,2.01-1.8-1.59,11.01-9.96,12.22-10.99,1.73-1.47,3.68-6.08,6.29-6.07.99,0,6.39,6.27,7.46,7.58.91,1.12,5.65,6.64,5.02,7.46Z"/>
    <path class="st6" d="M685,179c-3.5.12-6.55,1.01-10,1-.63-.63,1.24-15,2-15h19c.03,4.71-.47,9.46,1,13.99-3.64.16-7.36-.2-11,0-.33.02-.67-.01-1,0Z"/>
    <path class="st5" d="M448.31,138.71c-1.13-1.36-1.61-2.99-.85-4.67.4-.88,11.68-14.17,12.54-14.6,1.4-.71,8.98,5.41,9.57,6.58,1.11,2.22-11.56,15.59-13.59,16.51s-6.31-2.19-7.67-3.82Z"/>
    <path class="st7" d="M757,593.5c.23-.8,9.19-12.5,11.99-10.5-.51,8.75.61,17.33,1.01,26h-13c.75-4.16-1.03-11.93,0-15.5Z"/>
    <path class="st6" d="M595.98,89.01c.11.08.21,1.64.99,2.47,1.64,1.73,8.64,8.63,8.92,10.17.12.67-6.79,11.19-7.44,11.39-2.9.89-3.64-3.57-5.45-5.53-1.39-1.51-7.63-6.51-7.92-8.14-.24-1.33,9.61-11.28,10.91-10.36Z"/>
    <path class="st6" d="M679.01,159.99c-.41-1.65,1.62-.38,1.98-1.69,1.23-4.49,1.68-6.89,4.89-10.93l8.12-20.36c-.12,4.81,3.3,28.67,1.58,31.06-1.2,1.67-13.9,2.11-16.56,1.92Z"/>
    <path class="st9" d="M257.89,437.1c1.82,2.07-2.27,14.21-6.37,14.96l-14.44-12.7,7.57-8.26c1.76,2.15,12.76,5.45,13.24,6Z"/>
    <path class="st5" d="M474.64,132.15c2.04-.4,8.86,5.4,8.25,8.14-2.44,1.9-10.41,12.53-12.2,12.52-1.58-.02-9.86-4.37-9.59-6.15.15-.98,12.56-14.32,13.54-14.51Z"/>
    <path class="st7" d="M785,607c-13.94,5.55-9.61-7.16-9.96-16.54-.23-6.27-4.23-12.58,5.32-5.28,2,1.53,2.61,3.14,3.64,4.82l1,17Z"/>
    <path class="st7" d="M242,249c-.17-1.97.11-4.03,0-6.01h16.01c-.54,9.22,3.33,13.91-7.75,15.77-2.09.35-4.16.31-6.26.24-.67-3.24,1.85-10.84-2-10Z"/>
    <path class="st6" d="M697,184l-.11,11.89c-10.64,3.55-17.31-.17-19.89-10.89,1.88.86,4.6-1,5.5-1h14.5Z"/>
    <path class="st9" d="M824,352c.14.09.16,2.09,1.42,3.08,1.38,1.08,3.06.62,3.58.92.94.53,1.83,4.06,3,5-.82,2.47-5.97,8.78-8.55,9.05s-5.33-3.94-6.45-6.05c-2.3-4.32-3.98-9.56,1.98-11.55,1.05-.35,4.37-.87,5.02-.45Z"/>
    <path class="st5" d="M344,155c3.24,3.26-10.33,18.01-12.72,20.72-.6.68.06,1.92-2.28,1.27l2.07-22.91,12.93.92Z"/>
    <path class="st9" d="M810,245c-.84,3.22,2.67,1.62,3,2,2.55,2.96-3.42,3.18-5.39,4.11-1.67.79-2.78,2.34.39,1.89-5.6,1.74-9.57,4.21-16.01,3.01v-12.01c6.09-.67,12.03.61,18.01,1.01Z"/>
    <path class="st5" d="M344,149l-12.98-1.02.98-21.97c1.49-1.71,6.87,8.72,7.52,9.97,2.09,4.07,4.96,8.24,4.48,13.02Z"/>
    <path class="st9" d="M237,448c1.74,1.13,2.15,2.33,3,3,4.69,4.49,3.43,14.88-3.98,11.47-2.21-1.01-3.7-5.45-7.02-5.47-.34-.32-.67-.67-1-1-3.52-3.85,2.53-10.81,6.25-9.77,1,.28,1.87,1.2,2.75,1.77Z"/>
    <polygon class="st7" points="237.01 243.99 237 257 232.04 256.46 215.01 245.49 237.01 243.99"/>
    <path class="st1" d="M821,254c7.75-3.11,14.61-7.49,23.5-7.79,23.19,2.51,46.79,1.64,69.98,3.81,1.21.11,3.92.47,4.79,1,1.09.66.61,1.88.72,1.99,1.92,1.82,2.54-1.07,3,5-1.71-.55-2.77-4.82-3-5-.46-.35-9.93-1.92-11.46-2.04-16.85-1.27-63.2-4.27-77.44-.33-2.26.62-6.88,6.19-10.09,3.37Z"/>
    <path class="st5" d="M198,524v40.01c3.32.04,6.68-.07,10,0-2.09,2.65-7.9-1.1-7,3-.1-.1-1.45,0-2,0s-1.7-.21-1.92.06c-1.12,1.38-1,11.42-1.08,13.94l-1-57c.99,0,2.02-.07,3,0Z"/>
    <path class="st1" d="M213,581v21c0,.76-15-.24-15-1v-20h15ZM210.01,584c-2.33.32-8.29-.89-9.57.94-.7,1.01-.74,9.87-.44,11.56.68,3.76,7.67,4.99,9.93,1.91,2.05-2.79-1.03-10.52.08-14.41Z"/>
    <path class="st6" d="M608.99,94c-.54.5-1.37-.08-1.99-.61-1.86-1.6-7.51-6.42-6.91-8.71.32-1.21,13.39-11.73,15.42-13.66l-6.52,22.98Z"/>
    <path class="st1" d="M853,337v2c-1.92,2.72-10.88,12-13.51,13.99-5.48,4.15-2.64.37-3.49-.99,2.36.56,4.76-4.36,4-4.99-.32-.27-9.08-1.39-7,2.99-.66-.64-4.6-3.2-4-3.99l24-9.01Z"/>
    <path class="st2" d="M666.71,739.21c12.28-3.63,12.05,15.29-.02,11.59-4.42-1.35-5.29-10.02.02-11.59Z"/>
    <path class="st7" d="M868,529.99c-.78.62-16.68-5.63-18.71-6.78-5.08-2.88-.76-3.23,1.25-5.21.89-.88,1.43-2.77,1.58-2.86,3.24-1.93,13.62,12.15,15.87,14.85Z"/>
    <path class="st1" d="M213,477c-.29-.63-7-2.69-7.9-1.89l-3.1,8.89,9.89-.1c.12-1.71,1.72-5.58,1.11-6.89,2.13,1.74,5.42,3.06,7.01,5.5.62.96,1.66.85,0,2-4.79,3.32-19.56.34-26,2.49-.98-.72,12.61-14.74,13.64-14.92,2.07-.36,4.12,3.91,5.36,4.93Z"/>
    <path class="st1" d="M786.89,244.11c.79.94-.18,6.96-.77,8.53-.29.76.15,2.05-1.59,1.35-2.71-1.09-11.24-6.79-14.22-8.79-1.3-.87-2.72-1.14-2.3-3.19l18.88,2.1Z"/>
    <path class="st7" d="M189,360v-1c.16-.94-.2-1.91.53-2.93.27-.38,6.71-5.83,7.16-5.95,2.54-.69,4.99,3.7,5.16,5.57.15,1.63-7.54,8.08-8.48,8.24-1.28.22-3.7-2.76-4.36-3.93Z"/>
    <path class="st7" d="M209.99,382c-2.42-1.81-11.31-10.54-11.89-12.7-.63-2.36,4.08-6.94,6.35-6.29,1.82.51,4.16,15.99,5.53,18.99Z"/>
    <path class="st7" d="M833,491c7.09,7.46,11.56,7.85-.49,16.01-1.02.02-2.12-14.74-2.51-16.01h3Z"/>
    <path class="st7" d="M844.64,504.07c1.92-.34,7.24,4.18,3.27,8.35-3.64,3.82-7.86,8.26-10.42,1.52-1.04-2.74,5.6-9.59,7.15-9.87Z"/>
    <path class="st1" d="M801.98,382.02c.09.06-.12,1.38.73,1.98.96.68,3.95,1.89,4.11,2.17,1.95,3.25-5.98,11.78-9.34,12.81l2.51-16.37c-.21-1,1.74-.76,1.98-.59Z"/>
    <path class="st1" d="M201,567c.22.23-.25,1.74,0,2,.27.27,3.23-2.96,4.99-2-.21,7.97,2.64,13.64-8,12-.57-4.35,2.5-7.73,1-12,.55,0,1.9-.1,2,0Z"/>
    <path class="st7" d="M186.63,341.21c1.85-.36,5.2,1.73,6.35,3.29-1.86,1.31-7.51,8.74-9.34,8.42-.9-.15-3.69-3.05-3.51-4.23s5.2-7.22,6.5-7.48Z"/>
    <path class="st7" d="M178,336c-1.47,2.29-1.6,4.64-5,4-.21-.2-1.68-.21-2.49-.97-3.77-3.54-7.45-7.49-10.02-12.01,5.71,3.34,11.94,5.37,17.51,8.98Z"/>
    <path class="st7" d="M277,242.01c-.85,1.92-12.16,9.96-12.99,8.99-2.85-12.81,3.48-8.35,12.99-8.99Z"/>
    <path class="st1" d="M806,378c-1.89-.89-4.57-2.34-4.69-4.6-.07-1.21,2.27-10.08,2.71-10.39,1.86-1.29,14.89,9.87,14.96,12.46.05,1.84-6.03,8.51-6.57,8.6-3.5.56-5.11-3.88-6.41-6.07,2.68,1.26,7.53,3.59,8.83-.72s-5.81-12.58-9.69-10.14c-.22.14-1.65,4.21-1.73,4.83-.38,2.85,1.29,3.82,2.59,6.03Z"/>
    <path class="st1" d="M810,245c2.61.17,5.1.83,7.4.9.43.01,9.9-2.29,6.6,1.08-1.34,1.37-13.27,5.17-16,6.02-3.17.45-2.06-1.1-.39-1.89,1.97-.93,7.94-1.15,5.39-4.11-.33-.39-3.84,1.21-3-2Z"/>
    <path class="st1" d="M824,352c-.66-.41-3.98.1-5.02.45-5.95,1.99-4.27,7.22-1.98,11.55-3.05-1.05-9.07-4.93-6.83-8.82.3-.53,9.91-5.96,10.51-6.05,2.03-.31,2.53,2.3,3.32,2.87Z"/>
    <path class="st1" d="M341,295c.21-.03,1-.9,2.4-1.05,2.24-.23,20.82-.69,21.6.05.44.41-.18,5.19-.96,6.29l-15.04,14.7c.23-.34.28-1.51.95-2.51,2.47-3.69,15.18-11.2,11.92-16.37-2.05-3.26-17.24,2.26-20.87-1.12Z"/>
    <path class="st1" d="M229,476c-.35.3-.78,4.38-3.37,3.93l-13.57-12.5c-.42-1.66,5.51-8.26,6.97-8.98,2-.99,14.54,9.81,15.47,11.56,2.13,4.01-3.53,4.31-5.5,5.99,8.69-2.13-4.63-16.86-9.97-14.54-8.04,3.48,1.4,16.64,9.97,14.54Z"/>
    <polygon class="st6" points="698.01 201.99 697.51 212.99 690.01 202.01 698.01 201.99"/>
    <path class="st5" d="M236,564c.13.95-.19,2.14,0,3h-20c1.94-1.9,4.76.22,4-3,4.97-.05,11.31.58,16,0Z"/>
    <path class="st1" d="M335,296c-3.67.62-8.03,2.31-11.99.99.07,2.88-.61,5.69-1.04,8.52-.29,1.86,1.27,4.05-1.96,3.49.18-2.71.08-10.82,1.99-12.51,1.8-1.59,10.77-2.5,13.01-.49Z"/>
    <path class="st1" d="M229,457c3.32.02,4.81,4.46,7.02,5.47,7.42,3.4,8.67-6.99,3.98-11.47,1.61,1.27,6.38,3.24,6.84,5.65.26,1.36-5.65,9.04-6.47,9.3-2.04.62-9.4-7.07-11.37-8.94Z"/>
    <path class="st4" d="M796.34,602.64c.75.63,6.13,3.51,3.67,4.87-5.93,3.29-8.26-2.19-7.01-7.51,2.39-.59,2.26,1.73,3.34,2.64Z"/>
    <path class="st1" d="M151,541c-1.33-3.2-3.26-1.74-6-1,2.85-3.1,5.39-6.65,8.99-9,.34,3.32-2.46,7.22-2.99,10Z"/>
    <path class="st1" d="M784,590c.29.47,1.74.92,2.24,2.21.91,2.33,1.36,11.83.8,14.16-.3,1.23-1.54.43-2.04.63l-1-17Z"/>
    <path class="st1" d="M173,340c3.4.64,3.53-1.71,5-4,1.56,1.01,5.17.73,1.97,4.47-.18.22-4.19,3.51-4.47,3.51-1.35.02-2.31-3.8-2.5-3.98Z"/>
    <path class="st1" d="M236,567c.06.28.77,1.08,1,2v4c-.12,1.25.26,2.97,0,4l-1,1c-1.43.15-.96-1.6-1.02-2.48-.61-8.72,1.34-5.8-7.98-8.52h9Z"/>
    <path class="st9" d="M833,350c-2.09-4.39,6.67-3.26,7-2.99.76.63-1.63,5.56-4,4.99-.1-.15-1.59-.63-3-2Z"/>
    <path class="st1" d="M163,525c-.66,2.4,1.56,1.8,3,3-1.82,1.34-3.56,2.74-5.01,4.49-1.3,1.58-1.34,4.09-2.98,4.5.1-4.89,3.14-8.21,4.99-11.99Z"/>
    <path class="st1" d="M678,148c-2,4.1-2.85,9.48-6,13,.39-1.62.04-3.33.78-5.71.43-1.39,3.01-7.8,5.22-7.29Z"/>
    <path class="st1" d="M176,599c2.55,1.56,7.09,2.74,9.99,4.01l-8.99.99c-.18-.61-.99-1.52-1-2,0-.32,1.54-1.71,0-3Z"/>
    <path class="st1" d="M904,281c-2.74,2.9-4.47,6.82-8,9,.64-1.19.13-2.94,2-5.5,1.4-1.92,3.43-3.85,6-3.5Z"/>
    <path class="st1" d="M833,491h-3c-.1-.32-4.49-4.12-2.49-6.01,3.04.44,3.81,4.24,5.49,6.01Z"/>
    <path class="st1" d="M211,574l-2-1c-1.27-1.66-1.68-4.05-.5-6,1.68.61,5.66,6.48,2.5,7Z"/>
    <path class="st6" d="M176,602c.01.48.82,1.39,1,2-3.43.32-6.62-.77-10-1,2.05-2.08,6.18-.62,9-1Z"/>
    <path class="st6" d="M751.99,605.01c1.41,1.8,0,6.99-3.99,4.99-.61-.54,2.66-6.69,3.99-4.99Z"/>
    <path class="st6" d="M143,602c-3.65-.27-7.36-.63-11-1,2.56-1.88,8.78-1.73,11,1Z"/>
    <path class="st1" d="M254,429c-3.63-1.95-5.9-1.4-4.22-4.76.64-1.28,1.68-1.58,2.22-2.24l.73.59c-.79,2.72-.8,4.33,1.27,6.41Z"/>
    <path class="st1" d="M242,249c3.85-.84,1.33,6.76,2,10l-.92-.55c.57-3.31-.83-6.54-1.08-9.45Z"/>
    <path class="st6" d="M124,600c-1.81,1.63-6.07.23-9,0,2.46-2.65,6.55-.32,9,0Z"/>
    <path class="st1" d="M227,603l2,3c-1.64-.15-3.36.14-5,0l-1-2c1.09-.33,3.32-.57,4-1Z"/>
    <path class="st5" d="M242,574c-.14-3.65.2-7.36,0-11,2.62,2.99.46,7.92,0,11Z"/>
    <path class="st6" d="M829,356c-.52-.29-2.2.16-3.58-.92-1.26-.99-1.28-2.99-1.42-3.08,2.39,1.73,2.55,1.58,5,4Z"/>
    <path class="st4" d="M660,593l1,2c-5.37-.14-7.71-.45-1-2Z"/>
    <path class="st1" d="M237,448c-.87-.57-1.74-1.49-2.75-1.77-3.73-1.04-9.77,5.92-6.25,9.77-1.18-1.19-3.61-1.53-2.89-4.3.15-.59,6.23-6.91,6.9-7.26,2.2-1.13,3.92,1.99,4.99,3.56Z"/>
    <path class="st5" d="M216,564c-1.01,1.64-5.05,1.61-6,0,2,.03,4-.01,6,0Z"/>
    <path class="st6" d="M853,337c.52-4.13,3.45-2.89,0,2v-2Z"/>
    <path class="st1" d="M465,261l4.43-5.59c.99-1.07,2.47-1.52,3.57-2.41-2.02,3.3-5.23,5.45-8,8Z"/>
    <path class="st6" d="M160,602c-.66,1.58-4.34,1.58-5,0,1.66.1,3.34-.1,5,0Z"/>
    <path class="st5" d="M223,604l1,2c-1.26-.11-4.83.27-3-2,.18-.22,1.44.16,2,0Z"/>
    <path class="st1" d="M832,361c-1.17-.94-2.06-4.47-3-5,2.16,2.14,4.18,1.43,3,5Z"/>
    <path class="st5" d="M237,573v-4c.88,3.52.21,1.9,0,4Z"/>
    <path class="st6" d="M153,602c-1.32-.09-2.68.1-4,0,.32-1.5,3.59-1.56,4,0Z"/>
    <path class="st5" d="M237,564v-3c.03.15.94.6,1.01,1.49l-1.01,1.51Z"/>
    <path class="st1" d="M284,450c1.9-4.19,5.92-6.88,9-10-2.56,3.71-5.96,6.73-9,10Z"/>
    <path class="st6" d="M110,600c-1.76-.21-2-.69-3-1l3,1Z"/>
    <path class="st10" d="M303,394l4.02-4.48c-.12,2.95-2.61,3.54-4.02,5.48v-1Z"/>
    <path class="st5" d="M211,574c-1.8.3-1.38-.2-2-1l2,1Z"/>
    <path class="st1" d="M277,458c2.31-2.89,3.45-4.25,6-7l-6,7Z"/>
    <rect class="st1" x="209.01" y="577.01" width="1.99" height=".98"/>
    <path class="st5" d="M241,555c-.02-.11-.63-.58-1-2l1,2Z"/>
    <path class="st5" d="M236,555l-1-2c.21.52.67,1,1,2Z"/>
    <path class="st5" d="M192,600c-1.1-.14-1.57-.87-2-1l2,1Z"/>
    <path class="st5" d="M189,360c-.1-.18-.62-.21-.67-.5-.04-.24.65-.38.67-.5v1Z"/>
    <path class="st5" d="M240,551c-.02-.07-.74-.2-1-1l1,1Z"/>
    <path class="st5" d="M242,559c0-.07-.89-.24-1-1l1,1Z"/>
    <path class="st5" d="M236,578l1-1c-.34,1.37-.98.93-1,1Z"/>
    <path class="st2" d="M556,299c-1.63-7.18,3.48-7.5,9.21-9.29,59.89-18.63,114.76,27.65,123.69,85.88,14.44,94.2-73.01,166.57-141.42,214.39.76-3.33,1.88-8.28,4.09-10.9,5.24-6.25,24.17-17.8,31.89-24.11,56.17-45.86,111.27-105.25,97.27-184.21-8.71-49.11-52.66-84.11-102.97-76.49-7.43,1.13-14.25,4.31-21.77,4.73Z"/>
    <path class="st5" d="M685,179c.33-.01.67.02,1,0h-1Z"/>
    <path class="st5" d="M216,601h1c-.22.09-.23.93-.5.98l-.5-.98Z"/>
    <path class="st5" d="M191,524c-.33.02-.67-.03-1,0l.5-.98.5.98Z"/>
    <path class="st0" d="M628,719c1.05-.69,1.64-9.29,10.62-9.96,7.1-.53,13.27,6.21,12.14,13.22-1.24,7.68-8.29,8.89-8.82,13.18-.39,3.22-.26,16.45,1.05,18.82.77,1.39,2.82,1.19,3.95,2.28,12.22,11.81-6.01,29.34-16.47,15.48-2.76-3.66-4.28-6.66-1.89-10.94.31-.55,3.98-5.28,4.38-5.64,1.4-1.28,3.87-1.25,4.1-2.07.35-1.27.34-20.33-.22-21.23-.2-.32-4.53-1.85-6.42-4.1-1.14-1.36-1.33-3.69-1.57-3.91-1.92-1.72-16.55,3.22-16.86-5.15h16ZM637.73,714.18c-7.77,1.63-5.88,15.69,4.56,12.61,6.87-2.03,3.4-14.28-4.56-12.61ZM636.71,759.21c-7.46,2.21-2.58,16.11,6.05,12.04,6.13-2.89,3.53-14.88-6.05-12.04Z"/>
    <path class="st0" d="M215,308c.14-.18-1.18-2.7-1.09-4.48.22-4.21,6-14.63-2.91-15.52v21.5c0,.82,1.41,1.99.84,4.76s-4.11,4.83-4.84,7.74c-4.29.32-5.04,4.76-13.23,3.74-16.04-1.98-11.91-20.3.17-23.3,1.71-.43,5.85-.23,6.07-.44,1.38-1.31-1.76-32.84.52-37.98,4.55-10.27,12.07,4.61,14.51,7.44,7.73,8.98,13.41,9.73,12.01,24.09-.52,5.36-5.21,15.75-12.05,12.45ZM204,265v42c-7.35-3.83-22.57,4.43-14.55,12.06,4.88,4.64,14.83,1.27,17.39-4.72,2-4.68,1.38-15.34,1.2-20.88-.13-3.98-2.95-9.15.48-12.46,8.78,4.87,14.1,10.33,10.49,21,4.3-3.07,4.89-11.49,3.53-16.04-1.72-5.77-10.42-10.8-13.58-15.42-1.67-2.44-.27-6.44-4.96-5.54ZM218.5,303v1c.65-.33.65-.67,0-1Z"/>
    <path class="st1" d="M207,322c.73-2.91,4.27-4.95,4.84-7.74s-.84-3.94-.84-4.76v-21.5c8.92.89,3.13,11.31,2.91,15.52-.09,1.78,1.22,4.29,1.09,4.48-.06.08-1.74-.38-2.02.64-.75,2.8,1,7.43-.47,10.38-.68,1.37-3.56,1.59-3.68,3.86-.86.55-1.64-.91-1.83-.89Z"/>
    <path class="st0" d="M385.65,458.64c-2.54,2.22-4.57,2.85-7.59.8-.63-.43-9.68-10.44-9.89-11.16-2.1-7.16,15.87-18.87,15.87-22.78,0-2.64-6.1-5.95-8.07-7.97s-8.02-8.7-8.05-11.01c-.05-3.5,11.2-15.56,13.58-15.56,3.09,0,16.81,18.05,20.01,17.79.73-.06,9.56-8.43,10.98-9.76,2.25-2.11,4.56-7.45,8.16-7.79,2.84-.27,15.19,10.88,15.3,14.29.18,5.39-18.22,16.39-16.82,21.8.22.86,10.14,11.26,11.87,13.2,2.13,2.39,6.71,2.74,4.5,7.48-1.01,2.16-6.45,5.55-8.55,7.47s-2.77,5.94-6.41,5.6c-1.81-.17-16-16.72-19.91-17.98-2.31.4-12.38,13.29-14.99,15.57ZM382.98,398.01c-.78-.53-9.53,5.89-8.87,8.31.82,3.04,19.32,17.18,18.82,20.04-5.24,5.45-10.5,10.92-15.92,16.19-1.82,1.77-4.64,1.19-2.49,5.43.31.61,6.6,5.83,7.03,5.98,1.8.62,1.73-1.77,2.89-2.99,5.54-5.81,11.78-10.89,17.06-16.96l20,19.96,7.43-8.34c-2.08-3.26-19.22-17.97-18.86-20,2.12-3.37,18.95-18.41,18.96-20.14,0-1.88-7.37-7.68-8.42-7.46-1.32.27-15.02,18.2-19.11,18.99-6.55-5.21-14.14-11.95-18.52-19.03Z"/>
    <path class="st1" d="M360,379c-1.23-15.6,11.74-39.92,23.11-50.39,5.55-5.12,24.81-16.34,31.86-18.14,2.73-.69,17.13-2.02,19.4-1.33.51.15,1.62,1.12,1.61,1.36-.02,1.46-22.91,10.72-26.34,12.64-13.65,7.65-29.13,20.35-37.05,33.95-4.4,7.55-6.14,15.58-10.59,22.91l-2-1Z"/>
    <path class="st6" d="M362,380c-.22.37.25,1.79,0,2-2.25,1.85-1.9-1.73-2-3l2,1Z"/>
    <path class="st0" d="M392.5,764l5.14-9.86c5.19-.05,12.83-2.17,12.32,5.22-.15,2.14-4.56,19.1-5.35,19.75-.62.51-1.34.78-2.13.87h-58.94c-4.29-.57-4.36-6.77-3.01-9.96,1.98-4.64,16.77-17.86,20.99-23,1.01-1.22,4.52-5.42,4.52-6.51l-24.46-28.57c-1.37-2.54-2.04-7.62-.09-9.94s54.33-.59,61.58-.53c.96.29,1.45.25,1.91,1.29.97,2.2,4.56,20.9,3.57,22.32s-10.03,1.39-11.58.45c-1.64-.99-3.16-9.52-5.48-9.52h-22.5c2.9,4.6,18.93,19.22,18.93,23.5,0,4.91-16.97,18.61-18.93,24.5h23.5ZM402,705h-58l1.55,5.95,25.49,29.55-25.49,29.55-1.55,5.95h57.5c1.46,0,4.02-15.45,4.5-17.99-9.64-1.58-5.71,2.14-9.54,6.96-.64.8-3.3,3.04-3.96,3.04h-31.5l2.02-4.48c2.48-3.37,20.46-21.26,20.83-23.16.47-2.41-15.18-18.57-17.82-21.88-1.43-1.79-3.69-4.22-4.03-6.47h30.5c.25,0,3.35,2.55,3.85,3.25,3.58,4.96.2,9.35,8.65,7.75l-3-18Z"/>
    <path class="st0" d="M842,564.5c-.4,1.3-2.28,1.41-3.45,1.55-11.68,1.37-26.03-1.09-38.02-.08-5.51-.59-4.77-17.61-.83-18.77,11.67.81,26.58-1.77,37.85-.25,1.32.18,4.45,1.28,4.45,2.55v15ZM838,552h-36v10c11.61-1.01,23.29-1.22,35-1l1-9.01Z"/>
    <path class="st0" d="M614,414c1.88-1.49-3.62-3.13-4.45-4.05-4.44-4.86-3.45-15.85,1.51-20.39,16.48-15.08,34.69,11.24,18.94,24.44h29c1.44,0,4.61,24-1.5,24h-27.5c1.23,3.79,4.82,4.13,5.77,8.73,2.58,12.56-5.17,21.41-18.03,19.03-9.71-1.8-14.7-15.51-9.63-23.16,1.52-2.3,4.86-2.02,5.9-4.6h-28.5c-.28,0-2.73-1.55-3-2-.89-1.47-.9-18.51,0-20,.27-.45,2.72-2,3-2,3.86,0,27.38.88,28.5,0ZM628.71,406.72c5.96-7.31-4.66-22.2-13.25-12.76-8.73,9.59,5.59,22.16,13.25,12.76ZM588,432h67v-11c-22.23-1.85-44.68-.67-67.01-1v12.01ZM619.76,442.2c-12.04,2.97-8,21.61,5.53,17.58,9.68-2.88,5.28-20.26-5.53-17.58Z"/>
    <path class="st1" d="M663.99,383.99c-1.56-.8-2.8-4.36-3.47-6.01-10.73-26.48-24.5-46.66-50.62-60.37-3.91-2.05-11.43-3.8-14.25-5.75-1.19-.82-1.99-1.17-1.64-2.85,31.74-.18,59.73,25.74,68.28,55.21,1.94,6.69,3.49,12.86,1.71,19.78Z"/>
    <path class="st0" d="M828,278c.06-3.9,2.51-5.55-4.38-4.91-16.64,1.53-28.92,16.88-33.16,31.88-.3,1.07-1.58,15.38-5,10.07-3.43-5.32,3.71-22.74,7.12-27.94,14.49-22.16,53.56-28.9,64.61-.79,3.7,9.42,1.73,27.32-9.38,29.99-7.83,1.88-19.4,1.51-19.75-8.87-.12-3.56.07-7.4-.06-11.43.94.13,2.15-.19,3,0,5.72,1.31,10.07,1,16,1-1.2.87-2.66,1.41-4,2-.48.21-1.82-.61-2.05.62l.05,13.38c6.38.01,8.71-2.86,11-8,2.04-4.58.75-3.57,1-6,.06-.59,1.01-1.57,1-2-.23-9.92-4.62-17.62-13.77-21.73-4.79-2.16-10.89-4.84-10.23,2.73h-2ZM839.99,300.01h-4.99s0,.98,0,.98l4.99,1.01v-1.99ZM839,312l.98-.51c.05-5.83,1.59-7.28-4.98-6.49-.48-1.53-.79-4.76-2.99-3.99-.94,5.8,1,10,6.99,10.99Z"/>
    <path class="st10" d="M830,278c.06.72.96,1.93,1.01,3.45.16,4.84-.12,9.72,0,14.55-.85-.19-2.06.13-3,0-.2-5.95-.09-12.05,0-18h2Z"/>
    <path class="st0" d="M407.86,106.86l-9.86.13-.98,19.01c3.28-1.84,1.86-5.9,6.58-5.99,11.2-.21,2.94,21.85-8.09,21.85-10.07,0-14.52-11.5-14-19.87-.79,8.45-2.75,20.83-13.95,18.95-3.53-.59-6.15-4.13-6.53-7.54-.78-7.01,10.94-17.23,8.96-26.4-2.69,1.48-3.12,5.55-6.55,6.03-11.84,1.65-4.18-13.87,1.22-17.86,8.87-6.54,30.63-1.75,41.7-3.03,3.22,1.09,3.34,11.78,1.49,14.72ZM405,103c-.13-2.9,1.14-6.33-2.5-7.01-5.76-1.07-26.82-.18-32.79,1.21-4.11.96-7.72,6.63-7.7,10.79,2.9.45,2.08-2.45,4.6-3.88,10.34-5.9,7.51,8.99,5.91,14.9-1.23,4.55-7.06,11.11-7.28,13.65-.29,3.39,2.81,5.1,6.05,4.15,6.82-2.01,7.08-27.46,7.71-33.82h9.01c.62,8.66-6.58,33.98,7.5,34.07,6.07.04,9.82-7.69,9.49-13.05-3.52-.35-2.24,4.88-5.7,5.86-10.57,3-4.62-21.66-5.3-26.87h11.01ZM382.99,118.99c-.55-1.98,1.29-7.11-.98-7.99.55,1.98-1.29,7.11.98,7.99Z"/>
    <path class="st0" d="M662,86c.34.34.87,9-2,8.49,11.87,5.21,18.36,12.39,17.04,26.06-.79,8.19-10.18,19.38-19.04,18.46-.04,2.03,3.06.26,3.88,2.61.67,1.95-.17,5.19.12,7.38h-26.5c-2.16,0-3.14-5.27-1.61-7.42,1.28-1.78,5.71.86,6.1-1.57-27.41-2.56-29.79-40.17-2-45.02.14-1.95-2.7-.52-4.05-1.43-1.9-1.28-.34-7.56.05-7.56h28ZM659,89h-23c-.49,3.42,3.39,1.45,5.71,3.3,7.3,5.82-4.49,5.77-8.39,7.53-13.73,6.18-15.86,23.25-4.25,32.6,4.14,3.33,12.94,3.72,13.49,4.5,4.59,6.44-6.09,6.72-6.57,7.08-.33.25,1.27,1.99,1.5,1.99h21.5c.15,0,.12-2.89,0-3-.32-.31-4.3.82-6.1-1.41-4.68-5.8,4.36-4.79,8.09-6.1,17.55-6.14,17.37-31.91-1.17-36.81-3.9-1.03-11.41.6-6.91-5.27.9-1.17,8.36-2.6,6.09-4.41Z"/>
    <path class="st0" d="M512,489.99c1.27-1.13-7.83-8.06-9.02-9.47-12.88-15.28-2.98-37.34,14.54-43.48,1.16.66,1.14,1.43,1.44,2.51,5.66,20.08,5.69,44.75,11.96,65.12,1.17,6.68-9.67,5.57-14.41,5.32-37.69-1.99-60.56-32.69-50.54-69.52,5.88-21.61,26.23-39.28,42.54-53.46,1.07,6.06,7.06,24.38,5.33,29.34-.35.99-10.03,5.85-12.32,7.68-18.18,14.57-21.31,40.64-5.03,57.99,2.22,2.37,12.72,10.47,15.51,7.98ZM506.82,412.81l-2.32-13.8c-16.87,12.98-32.91,31.21-34.54,53.46-1.51,20.51,5.19,34.95,22.92,45.16,9.98,5.75,19.7,6.9,31.13,6.38l-10.5-56.01c-1.19-1.88-3.6,1.49-4.53,2.49-6.78,7.24-8.56,16.36-2.81,24.86,2.81,4.16,19.69,14.87,8.44,19.76-11.4,4.95-28.35-12.64-31.65-22.54-3.47-10.42-3.34-22.02-.49-32.59s10.11-15.61,17.53-22.47c1.3-1.2,6.62-4.32,6.83-4.68Z"/>
    <path class="st0" d="M510.01,352c-3.59-21.02-4.14-45.58,6.83-64.66,7.81-13.6,22.77-17.78,25.05,1.28,2.59,21.62-9.48,41.89-23.86,56.92-1.1,1.15-6.86,7.51-8.02,6.47Z"/>
    <path class="st0" d="M538.01,505l-12.01-69c12.47-1.77,24.78,6.6,30.18,17.32,9.3,18.49,2.04,44.78-18.17,51.68ZM534,449c1.58,12.02,3.49,28.62,6.42,40.07,2.24,8.74,4.81,6.45,8.38.23s5.78-14.75,5.08-21.7-6.54-22.03-14.89-21.6c.86-2.96-3.59-2.1-5.99-2.99.57,1.99.73,3.96.99,5.99Z"/>
    <path class="st9" d="M210.01,584c-1.11,3.89,1.97,11.62-.08,14.41-2.26,3.08-9.25,1.86-9.93-1.91-.31-1.69-.27-10.55.44-11.56,1.28-1.83,7.24-.62,9.57-.94Z"/>
    <path class="st9" d="M213,477c.61,1.31-.99,5.18-1.11,6.89l-9.89.1,3.1-8.89c.9-.8,7.61,1.27,7.9,1.89Z"/>
    <path class="st9" d="M806,378c-1.3-2.21-2.98-3.18-2.59-6.03.08-.62,1.52-4.69,1.73-4.83,3.88-2.45,10.92,6.05,9.69,10.14-1.3,4.3-6.15,1.98-8.83.72Z"/>
    <path class="st9" d="M229,476c-8.56,2.1-18.01-11.06-9.97-14.54,5.34-2.31,18.65,12.42,9.97,14.54Z"/>
    <path class="st2" d="M637.73,714.18c7.95-1.67,11.42,10.58,4.56,12.61-10.43,3.08-12.33-10.97-4.56-12.61Z"/>
    <path class="st2" d="M636.71,759.21c9.59-2.83,12.19,9.15,6.05,12.04-8.63,4.06-13.52-9.84-6.05-12.04Z"/>
    <path class="st2" d="M204,265c4.69-.9,3.29,3.1,4.96,5.54,3.16,4.62,11.86,9.64,13.58,15.42,1.36,4.56.77,12.97-3.53,16.04,3.61-10.67-1.71-16.12-10.49-21-3.43,3.31-.61,8.48-.48,12.46.18,5.54.8,16.2-1.2,20.88-2.56,5.99-12.51,9.36-17.39,4.72-8.02-7.63,7.2-15.89,14.55-12.06v-42Z"/>
    <path class="st1" d="M218.5,303c.65.33.65.67,0,1v-1Z"/>
    <path class="st2" d="M382.98,398.01c4.38,7.08,11.97,13.82,18.52,19.03,4.09-.79,17.78-18.72,19.11-18.99,1.05-.22,8.43,5.59,8.42,7.46,0,1.73-16.84,16.76-18.96,20.14-.36,2.03,16.78,16.74,18.86,20l-7.43,8.34-20-19.96c-5.28,6.07-11.52,11.15-17.06,16.96-1.16,1.22-1.09,3.61-2.89,2.99-.44-.15-6.73-5.37-7.03-5.98-2.15-4.24.67-3.66,2.49-5.43,5.42-5.27,10.68-10.74,15.92-16.19.5-2.87-17.99-17.01-18.82-20.04-.66-2.43,8.09-8.84,8.87-8.31Z"/>
    <path class="st2" d="M402,705l3,18c-8.45,1.6-5.07-2.79-8.65-7.75-.51-.7-3.6-3.25-3.85-3.25h-30.5c.34,2.25,2.6,4.69,4.03,6.47,2.64,3.31,18.29,19.47,17.82,21.88-.37,1.9-18.35,19.79-20.83,23.16l-2.02,4.48h31.5c.66,0,3.32-2.24,3.96-3.04,3.83-4.82-.11-8.53,9.54-6.96-.48,2.55-3.03,17.99-4.5,17.99h-57.5l1.55-5.95,25.49-29.55-25.49-29.55-1.55-5.95h58Z"/>
    <path class="st2" d="M838,552l-1,9.01c-11.72-.22-23.39-.01-35.01,1v-10h36Z"/>
    <path class="st2" d="M588,432v-12.01c22.32.33,44.77-.85,67.01,1v11h-67.01Z"/>
    <path class="st2" d="M619.76,442.2c10.82-2.67,15.22,14.7,5.53,17.58-13.53,4.03-17.57-14.61-5.53-17.58Z"/>
    <path class="st2" d="M628.71,406.72c-7.66,9.4-21.98-3.17-13.25-12.76,8.59-9.44,19.21,5.45,13.25,12.76Z"/>
    <path class="st9" d="M854,297c-2.33,0-4.67,0-7,0-5.93,0-10.28.31-16-1-.12-4.83.17-9.71,0-14.55-.05-1.52-.94-2.73-1.01-3.45-.65-7.57,5.44-4.89,10.23-2.73,9.15,4.11,13.54,11.82,13.77,21.73Z"/>
    <path class="st9" d="M843,299h5c.63,2.52.72,6.11,4,6-2.29,5.14-4.62,8.01-11,8l-.05-13.38c.22-1.23,1.57-.41,2.05-.62Z"/>
    <path class="st6" d="M835,305c6.57-.79,5.04.66,4.98,6.49l-.98.51c-4.36-2.28-3.07-4.03-4-7Z"/>
    <path class="st1" d="M853,299c-.25,2.43,1.04,1.42-1,6-3.28.11-3.37-3.48-4-6h5Z"/>
    <path class="st1" d="M839,312c-5.99-.99-7.94-5.2-6.99-10.99,2.2-.77,2.52,2.47,2.99,3.99.93,2.97-.36,4.72,4,7Z"/>
    <path class="st5" d="M854,297c0,.43-.94,1.41-1,2h-10c1.34-.59,2.8-1.13,4-2,2.33,0,4.67,0,7,0Z"/>
    <polygon class="st6" points="839.99 300.01 839.99 302 835.01 300.99 835 300.01 839.99 300.01"/>
    <path class="st2" d="M405,103h-11.01c.68,5.2-5.27,29.87,5.3,26.86,3.46-.98,2.18-6.21,5.7-5.86.32,5.36-3.42,13.09-9.49,13.05-14.07-.09-6.87-25.41-7.5-34.06h-9.01c-.63,6.36-.89,31.81-7.71,33.82-3.24.95-6.34-.76-6.05-4.15.22-2.54,6.05-9.1,7.28-13.65,1.6-5.91,4.43-20.81-5.91-14.9-2.51,1.44-1.7,4.33-4.6,3.88-.02-4.16,3.59-9.83,7.7-10.79,5.98-1.39,27.03-2.28,32.79-1.21,3.64.67,2.37,4.11,2.5,7.01Z"/>
    <path class="st5" d="M382.99,118.99c-2.27-.88-.43-6.01-.98-7.99,2.27.88.43,6.01.98,7.99Z"/>
    <path class="st2" d="M659,89c2.28,1.81-5.19,3.24-6.09,4.41-4.5,5.87,3.01,4.24,6.91,5.27,18.54,4.9,18.72,30.67,1.17,36.81-3.73,1.31-12.77.3-8.09,6.1,1.8,2.23,5.78,1.1,6.1,1.41.11.1.14,3,0,3h-21.5c-.23,0-1.83-1.74-1.5-1.99.48-.37,11.16-.65,6.57-7.08-.56-.78-9.36-1.17-13.49-4.5-11.6-9.35-9.47-26.42,4.25-32.6,3.9-1.75,15.68-1.71,8.39-7.53-2.32-1.85-6.2.12-5.71-3.3h23ZM644,101c-18.15.17-17.96,32.04,0,33v-33ZM652,134c13.74-1.76,16.78-18.61,9-28.5-2.41-3.06-4.8-5.3-9-4.5v33Z"/>
    <path class="st10" d="M506.82,412.81c-.21.36-5.53,3.48-6.83,4.68-7.42,6.86-14.78,12.26-17.53,22.47s-2.98,22.17.49,32.59c3.3,9.9,20.25,27.49,31.65,22.54,11.25-4.89-5.63-15.6-8.44-19.76-5.74-8.5-3.96-17.62,2.81-24.86.93-1,3.35-4.37,4.53-2.49l10.5,56.01c-11.42.53-21.15-.63-31.13-6.38-17.72-10.21-24.43-24.65-22.92-45.16,1.64-22.25,17.67-40.47,34.54-53.46l2.32,13.8Z"/>
    <path class="st10" d="M539,446c8.35-.43,14.18,14.58,14.89,21.6s-1.62,15.66-5.08,21.7-6.14,8.51-8.38-.23c-2.94-11.46-4.84-28.05-6.42-40.07,1.62-2.38,2.14-2.85,5-3Z"/>
    <path class="st5" d="M534,449c-.27-2.04-.43-4.01-.99-5.99,2.41.9,6.86.04,5.99,2.99-2.86.15-3.38.62-5,3Z"/>
    <path class="st0" d="M644,101v33c-17.96-.96-18.15-32.83,0-33ZM634,115c-.32,3.55-.37,6.87,1.55,9.95,3.06,4.91,6.19,6.39,5.45-.95-.67-6.75-1.56-12.03,0-19-4.81,1.01-6.61,5.67-6.99,10Z"/>
    <path class="st0" d="M652,134v-33c4.2-.8,6.59,1.45,9,4.5,7.78,9.89,4.74,26.74-9,28.5ZM655,131c9.4-6.17,8.82-20.74,0-27v27Z"/>
    <path class="st6" d="M634,115c.38-4.33,2.18-8.98,6.99-10-1.56,6.97-.67,12.25,0,19-2.29-1.02-1.72,3.75-4.02,1.52s-.94-8.07-2.98-10.52Z"/>
    <path class="st1" d="M634,115c2.04,2.44.7,8.3,2.98,10.52s1.73-2.54,4.02-1.52c.73,7.35-2.4,5.86-5.45.95-1.92-3.08-1.86-6.4-1.55-9.95Z"/>
    <path class="st6" d="M655,131v-27c8.82,6.26,9.4,20.83,0,27Z"/>
    <g>
      <path class="st3" d="M184.55,877.13v104.2h20.6v26.07h-54.48v-130.27h33.88Z"/>
      <path class="st3" d="M288.28,953.41c0,13.09-.31,22.36-.93,27.8-.62,5.44-2.55,10.42-5.79,14.93-3.25,4.51-7.63,7.97-13.16,10.38-5.53,2.41-11.96,3.62-19.31,3.62s-13.24-1.14-18.79-3.42c-5.55-2.28-10.02-5.7-13.4-10.26-3.38-4.56-5.39-9.52-6.03-14.89-.64-5.36-.97-14.75-.97-28.16v-22.29c0-13.09.31-22.36.93-27.8.62-5.44,2.55-10.42,5.79-14.93,3.24-4.51,7.63-7.97,13.16-10.38,5.52-2.41,11.96-3.62,19.31-3.62,6.97,0,13.24,1.14,18.79,3.42,5.55,2.28,10.02,5.7,13.4,10.26,3.38,4.56,5.39,9.52,6.03,14.89.64,5.36.97,14.75.97,28.16v22.29ZM254.4,910.61c0-6.06-.34-9.94-1.01-11.63-.67-1.69-2.05-2.54-4.14-2.54-1.77,0-3.13.68-4.06,2.05-.94,1.37-1.41,5.4-1.41,12.11v60.83c0,7.56.31,12.23.93,14,.62,1.77,2.05,2.66,4.3,2.66s3.78-1.02,4.43-3.06c.64-2.04.97-6.89.97-14.56v-59.87Z"/>
      <path class="st3" d="M377.92,877.13v87.06c0,9.87-.32,16.81-.97,20.8-.64,4-2.55,8.1-5.71,12.31-3.17,4.21-7.34,7.4-12.51,9.58-5.18,2.17-11.28,3.26-18.31,3.26-7.78,0-14.64-1.29-20.6-3.86-5.95-2.58-10.41-5.93-13.36-10.06-2.95-4.13-4.69-8.49-5.23-13.08-.54-4.59-.8-14.23-.8-28.93v-77.09h33.88v97.69c0,5.69.31,9.32.93,10.9.62,1.58,1.86,2.37,3.74,2.37,2.14,0,3.53-.87,4.14-2.62.62-1.74.93-5.86.93-12.35v-96h33.88Z"/>
      <path class="st3" d="M391.03,877.13h25.35c16.36,0,27.42.75,33.19,2.25,5.77,1.5,10.15,3.97,13.16,7.4,3,3.43,4.88,7.26,5.63,11.47.75,4.21,1.13,12.49,1.13,24.82v45.62c0,11.7-.55,19.51-1.65,23.46-1.1,3.94-3.02,7.03-5.75,9.25-2.74,2.23-6.12,3.78-10.14,4.67s-10.09,1.33-18.19,1.33h-42.73v-130.27ZM424.91,899.42v85.7c4.88,0,7.89-.98,9.01-2.94,1.13-1.96,1.69-7.28,1.69-15.97v-50.61c0-5.9-.19-9.68-.56-11.35-.38-1.66-1.23-2.88-2.57-3.66-1.34-.78-3.86-1.17-7.56-1.17Z"/>
      <path class="st3" d="M615.69,877.13v130.27h-29.61l-.04-87.95-11.79,87.95h-21l-12.43-85.94-.04,85.94h-29.61v-130.27h43.83c1.3,7.83,2.64,17.06,4.02,27.7l4.81,33.14,7.79-60.83h44.08Z"/>
      <path class="st3" d="M687.85,877.13l19.37,130.27h-34.62l-1.82-23.42h-12.12l-2.04,23.42h-35.02l17.28-130.27h48.96ZM669.9,960.9c-1.71-14.76-3.43-32.99-5.16-54.72-3.45,24.95-5.62,43.18-6.5,54.72h11.66Z"/>
      <path class="st3" d="M772.12,877.13v26.07h-20.12v104.2h-33.88v-104.2h-20.04v-26.07h74.03Z"/>
      <path class="st3" d="M857.74,877.13v130.27h-33.88v-54.72h-10.14v54.72h-33.88v-130.27h33.88v46.59h10.14v-46.59h33.88Z"/>
    </g>
  </g>
</svg>