<?xml version="1.0" encoding="UTF-8"?>
<svg id="outerRing" xmlns="http://www.w3.org/2000/svg" version="1.1" viewBox="0 0 587.9 587.9">
  <!-- Generator: Adobe Illustrator 29.8.1, SVG Export Plug-In . SVG Version: 2.1.1 Build 2)  -->
  <defs>
    <style>
      .st0, .st1 {
        fill: #fff;
      }

      .st2, .st1, .st3 {
        stroke-miterlimit: 10;
      }

      .st2, .st3 {
        stroke: #230000;
        stroke-width: 2px;
      }

      .st1 {
        stroke: #000;
      }

      .st3 {
        fill: #b4b4b4;
      }

      .st4 {
        display: none;
      }
    </style>
  </defs>
  <g id="keyOutline">
    <g id="circleBack">
      <g id="slice12">
        <path class="st1" d="M237.4,83.6l-19.6-73.2c-50.5,13.5-95.6,40.1-131.5,76l53.6,53.6c26.6-26.6,60.1-46.3,97.5-56.3h0v-.1Z"/>
      </g>
      <g id="slice11">
        <path class="st2" d="M139.9,139.9l-53.6-53.6C50.4,122.2,23.8,167.3,10.3,217.8l73.2,19.6c10-37.4,29.7-70.9,56.3-97.5h.1,0Z"/>
      </g>
      <g id="slice10">
        <path class="st1" d="M76.2,293.7c0-19.5,2.6-38.3,7.4-56.3l-73.2-19.6C3.9,242,.5,267.5.5,293.7s3.5,51.7,9.9,75.9l73.2-19.6c-4.8-18-7.4-36.8-7.4-56.3Z"/>
      </g>
      <g id="slice9">
        <path class="st2" d="M83.6,350l-73.2,19.6c13.5,50.5,40.1,95.6,76,131.5l53.6-53.6c-26.6-26.6-46.3-60.1-56.3-97.5h-.1Z"/>
      </g>
      <g id="slice8">
        <path class="st1" d="M139.9,447.5l-53.6,53.6c35.9,35.9,81,62.5,131.5,76l19.6-73.2c-37.4-10-70.9-29.7-97.5-56.3h0v-.1h0Z"/>
      </g>
      <g id="slice7">
        <path class="st2" d="M293.7,511.2c-19.5,0-38.3-2.6-56.3-7.4l-19.6,73.2c24.2,6.5,49.7,9.9,75.9,9.9s51.7-3.5,75.9-9.9l-19.6-73.2c-18,4.8-36.8,7.4-56.3,7.4h0Z"/>
      </g>
      <g id="slice6">
        <path class="st1" d="M350,503.8l19.6,73.2c50.5-13.5,95.6-40.1,131.5-76l-53.6-53.6c-26.6,26.6-60.1,46.3-97.5,56.3h0v.1Z"/>
      </g>
      <g id="slice5">
        <path class="st1" d="M503.8,350c-10,37.4-29.7,70.9-56.3,97.5l53.6,53.6c35.9-35.9,62.5-81,76-131.5l-73.2-19.6h-.1,0Z"/>
      </g>
      <g id="slice4">
        <path class="st2" d="M511.2,293.7c0,19.5-2.6,38.3-7.4,56.3l73.2,19.6c6.5-24.2,9.9-49.7,9.9-75.9s-3.5-51.7-9.9-75.9l-73.2,19.6c4.8,18,7.4,36.8,7.4,56.3h0Z"/>
      </g>
      <g id="slice3">
        <path class="st1" d="M503.8,237.4l73.2-19.6c-13.5-50.5-40.1-95.6-76-131.5l-53.6,53.6c26.6,26.6,46.3,60.1,56.3,97.5h.1Z"/>
      </g>
      <g id="slice2">
        <path class="st2" d="M447.5,139.9l53.6-53.6c-35.9-35.9-81-62.5-131.5-76l-19.6,73.2c37.4,10,70.9,29.7,97.5,56.3h0v.1Z"/>
      </g>
      <g id="slice1">
        <path class="st1" d="M293.7,76.2c19.5,0,38.3,2.6,56.3,7.4l19.6-73.2c-24.2-6.5-49.7-9.9-75.9-9.9s-51.7,3.5-75.9,9.9l19.6,73.2c18-4.8,36.8-7.4,56.3-7.4Z"/>
      </g>
      <g id="sliceOutline" class="st4">
        <polygon class="st3" points="293.7 293.7 293.7 293.7 293.7 293.7 293.7 293.7"/>
        <polygon class="st3" points="293.7 293.7 293.7 293.7 293.7 293.7 293.7 293.7"/>
        <polygon class="st3" points="293.7 293.7 293.7 293.7 293.7 293.7 293.7 293.7"/>
        <polygon class="st3" points="293.7 293.7 293.7 293.7 293.7 293.7 293.7 293.7"/>
        <polygon class="st3" points="293.7 293.7 293.7 293.7 293.7 293.7 293.7 293.7"/>
        <polygon class="st3" points="293.7 293.7 293.7 293.7 293.7 293.7 293.7 293.7"/>
        <polygon class="st3" points="293.7 293.7 293.7 293.7 293.7 293.7 293.7 293.7"/>
      </g>
    </g>
  </g>
  <g id="notesText">
    <g id="C" class="st4">
      <path class="st0" d="M295.8,58.9c-6.9,0-12.5-2.1-16.9-6.4-4.4-4.3-6.6-9.6-6.6-16.2s2.2-12.1,6.6-16.3,10-6.3,16.9-6.3,5.5.5,7.7,1.5l6.4,3.6c1.2,0,2-.4,2.4-1.2.4-.8.7-2,.8-3.5h1.2v19h-1c-1.8-4.9-3-8.2-3.8-9.9-.7-1.7-2-3.4-3.7-5s-3.9-2.4-6.6-2.4-6.1,2-7.7,5.9c-1.7,3.9-2.5,8.5-2.5,13.7s1,10.5,3,14.7c2,4.1,5,6.2,8.9,6.2s6.6-1.3,8.8-4c2.2-2.6,3.7-6.1,4.4-10.3l1,.2c-.6,4.8-2.4,8.8-5.5,11.9-3.1,3.2-7.7,4.7-13.7,4.7h0l-.1.1h0Z"/>
    </g>
    <g id="C_x23_" class="st4">
      <g>
        <g>
          <path class="st0" d="M408.8,91.3l.3-.5c.3.1.6.3.9.5s.8.3,1.2.5c.5.2.9.2,1.2.1.4-.1.8-.5,1.2-1.1l.8-1.3,8.1-14,.7-1.4c.3-.7.4-1.2.3-1.6,0-.4-.3-.7-.7-1s-.8-.6-1.1-.8-.6-.4-.9-.6l.3-.5,11.1,6.3c2.3,1.3,4.4,2.8,6.1,4.4,1.8,1.6,3,3.8,3.7,6.6s0,5.8-1.7,9c-1.8,3.1-3.9,4.9-6.3,5.5s-4.6.5-6.5,0c-1.9-.6-4-1.6-6.3-2.9l-12.4-7.2h0ZM434.7,78.7c-.2-.3-.6-.6-1.1-1-.6-.4-1-.7-1.5-.9l-.4-.2-11.8,20.4s.3.2.4.2.3.2.4.3c.7.4,1.5.8,2.1,1s1.4.3,2.2.3,1.9-.9,3.4-2.3c1.5-1.5,2.8-3.1,3.9-4.9,1.5-2.6,2.5-5,3-7.4s.3-4.2-.7-5.5h.1Z"/>
          <path class="st0" d="M448.9,108.8c-.8,1.3-1.8,2.1-3.2,2.4s-2.7,0-4.1-.8c-.9-.5-1.5-1.1-1.8-1.8s-.5-1.3-.6-1.9h0c-.3,0-.6.1-.9.3-.4.2-.7.4-1,.6h-.2c.3-.6.6-1,.8-1.4s.5-.9.9-1.5l4.7-8.2.4-.7c.2-.3.3-.6.2-.8,0-.2-.2-.4-.5-.6l-.7-.4.2-.3,4.9,2.8-2.3,4-.8,1.4c.3-.2.6-.3,1-.3s1,.1,1.8.6c1.1.6,1.8,1.6,2.1,2.8s0,2.5-.7,3.8h-.2,0ZM445.4,106.8c0-.2.3-.5.5-1s.4-.8.5-.9c.4-.6.6-1.2.6-1.7s-.2-.9-.6-1.1-.7-.3-1-.1c-.3.1-.5.3-.7.5s-.5.6-.8,1.1-.6,1-.9,1.5l-.7,1.2c-.2.3-.4.7-.5,1-.4.6-.6,1.2-.6,1.7s0,.9.5,1.1c.4.2.8.2,1.2-.1s.8-.8,1.2-1.4c0-.2.3-.5.5-.8s.4-.7.7-1h.1,0Z"/>
        </g>
        <g>
          <path class="st0" d="M396.6,64c-3.4-2-5.6-4.6-6.5-8-1-3.4-.5-6.6,1.3-9.8,1.9-3.3,4.5-5.3,7.9-6.2,3.3-.8,6.7-.2,10.1,1.7,1.5.8,2.6,1.8,3.4,2.9l2.1,3.6c.6.3,1.1.4,1.5,0,.4-.3.9-.8,1.4-1.5l.6.3-5.4,9.3-.5-.3c.5-2.9.8-4.9,1-5.9,0-1.1,0-2.2-.4-3.5s-1.2-2.3-2.6-3.1c-1.7-1-3.5-.8-5.5.7-1.9,1.5-3.7,3.5-5.1,6.1-1.6,2.8-2.5,5.5-2.7,8.1s.7,4.5,2.6,5.6c1.8,1,3.6,1.2,5.4.5,1.8-.7,3.5-2,5.1-3.8l.5.4c-1.6,2.2-3.7,3.6-6.1,4.3s-5.1.2-8.1-1.6v.2h0Z"/>
          <path class="st0" d="M426.5,47.9l.4.4-3.1,2.7,2.9,1.6,3.2-2.8.4.4-3.1,2.7,2.9,1.7-2,1.6-2.9-1.7-1.8,1.5,3,1.7-2,1.6-2.9-1.7-3.3,2.8-.4-.4,3.2-2.7-2.9-1.6-3.3,2.8-.4-.4,3.2-2.7-2.9-1.7,2-1.6,2.9,1.7,1.8-1.5-3-1.7,2-1.7,2.9,1.7,3.2-2.8h0v.1h0ZM421.7,52.6l-1.8,1.5,3,1.7,1.8-1.5-3-1.7Z"/>
        </g>
        <path class="st0" d="M399.6,82.6l34.1-25.7,1.4,1.6-34.1,25.7-1.4-1.6h0Z"/>
      </g>
    </g>
    <g id="D" class="st4">
      <path class="st0" d="M485.5,152.8l.8-.5c.3.5.6,1,1,1.5.4.6.8,1.2,1.4,1.9.5.7,1.1,1.1,1.8,1.3.7.1,1.6,0,2.7-.6l2.5-1.3,24.6-14.2,2.3-1.5c1-.7,1.7-1.5,1.9-2.1.2-.7.2-1.4-.2-2.2-.3-.8-.7-1.5-1-2.1s-.6-1.2-.9-1.7l.8-.5,11.3,19.3c2.3,4.1,4.2,8.1,5.5,12.1s1.3,8.5,0,13.3c-1.4,4.8-4.9,8.9-10.6,12.2-5.4,3.1-10.2,4.1-14.4,2.9s-7.4-3.2-9.8-5.8-4.7-6-7.1-10l-12.6-21.9h0v-.1h0ZM536,156.2c0-.6-.4-1.4-.9-2.5s-1-2-1.4-2.7l-.4-.6-35.9,20.7c0,.2.3.5.4.7,0,.2.2.5.4.8.8,1.3,1.5,2.5,2.3,3.5s1.8,1.8,3.1,2.3,3.7.4,7.3-.5,7-2.3,10.2-4.1c4.5-2.6,8.2-5.5,11.1-8.6,2.9-3.1,4.2-6.1,3.8-8.9h0v-.1h0Z"/>
    </g>
    <g id="D_x23_" class="st4">
      <g>
        <g>
          <path class="st0" d="M526.6,306.4v2.9c0,1,0,2.1.2,3.2,0,1.1,1.3,2.5,3.4,4.1s4.3,2.8,6.5,3.6v.5h-10.8v-26.8h.5v2.3c0,.5.2.9.5,1.1s.8.4,1.5.5h19.4c.7-.1,1.2-.3,1.5-.6.3-.3.5-.7.5-1.1v-2.4h.5v26.2h-10.1v-.5c2.5-1.2,4.7-2.6,6.4-4.2s2.7-3.1,2.8-4.2.2-2.1.2-2.8v-1.8h-11.2v1.4c0,1.3.8,2.3,1.9,3s2.4,1,3.9,1v.6h-12.4v-.6c1.5,0,2.9-.3,4-1s1.8-1.7,1.9-3v-1.4h-11.7.6,0Z"/>
          <path class="st0" d="M530.8,335c-1.5,0-2.8-.5-3.7-1.6s-1.4-2.4-1.4-4,.2-1.9.7-2.5.9-1.1,1.3-1.5h0c-.2-.3-.5-.5-.8-.7s-.7-.4-1-.6v-.2h13.6c.4,0,.6,0,.8-.2,0-.1.2-.4.3-.7v-.8h.4v5.7h-6.2c.3.1.5.3.8.7.3.3.4,1,.4,1.9s-.5,2.4-1.4,3.2-2.1,1.2-3.6,1.2h-.2v.1h0ZM530.7,330.8h2.1c.7,0,1.3-.1,1.8-.3.4-.2.7-.6.7-1.1s0-.7-.4-.9c-.2-.2-.5-.3-.8-.4-.3,0-.8,0-1.3-.1h-4.2c-.7,0-1.3.1-1.8.3s-.7.6-.7,1,.2.8.7,1,1.1.3,1.8.3h2.2v.2h-.1Z"/>
        </g>
        <g>
          <path class="st0" d="M543.9,252.5h.5v2.3c0,.5.2.9.5,1.1.3.3.8.4,1.5.5h19.4c.7-.1,1.2-.3,1.5-.6.3-.3.5-.7.5-1.1v-2.4h.5v12.7c0,2.7-.2,5.2-.7,7.5-.5,2.4-1.8,4.5-3.8,6.5s-4.9,3-8.7,3-6.2-.9-7.9-2.7c-1.7-1.8-2.8-3.7-3.2-5.7s-.6-4.3-.6-6.9v-14.4l.3.2h.2ZM567.8,268.6c0-.3.2-.8.3-1.5v-2.1h-23.6v.9c0,.9,0,1.7.2,2.4,0,.7.4,1.4.9,2s1.7,1.2,3.7,1.8c2,.6,4.1.9,6.2.9s5.6-.4,7.9-1.1c2.3-.7,3.8-1.8,4.4-3.3h0Z"/>
          <path class="st0" d="M572.3,289.5v.5l-4-1.4v3.3l4,1.4v.5l-4-1.4v3.4l-2.4-.9v-3.3l-2.2-.8v3.4l-2.4-.9v-3.4l-4-1.4v-.5l4,1.4v-3.3l-4-1.4v-.5l4,1.4v-3.4l2.4.9v3.3l2.2.8v-3.4l2.4.9v3.4l4,1.4ZM565.9,287.8l-2.2-.8v3.4l2.2.8v-3.4Z"/>
        </g>
        <path class="st0" d="M528.9,281.6l39.3,16.7-.7,2-39.3-16.7.7-2Z"/>
      </g>
    </g>
    <g id="E" class="st4">
      <path class="st0" d="M500.6,410.4c-.8,1.5-1.6,3-2.5,4.5s-1.7,3.2-2.4,5c-.8,1.8-.2,4.9,1.5,9.3,1.8,4.3,4,8.1,6.7,11.2l-.5.8-16.5-9.5,23.6-40.8.8.5c-.3.4-.5,1-.8,1.6s-.6,1.3-.9,2.1c-.3.8-.4,1.5-.2,2.2.2.6.8,1.3,1.9,2.1l2.3,1.5,24.6,14.2,2.5,1.3c1.2.5,2.1.7,2.8.6.7-.2,1.3-.6,1.8-1.3s1-1.3,1.4-1.9.7-1.1,1-1.6l.8.5-23.1,40-15.4-8.9.5-.8c4.9.5,9.4.2,13.5-.8s6.7-2.3,7.9-3.9,2.1-3,2.8-4.2,1.2-1.9,1.4-2.3l.3-.5-17-9.9-1.2,2.2c-1,2.1-.9,4.2.2,6.2,1.1,2,2.8,3.6,5.1,5l-.6,1-18.9-10.9.6-1c2.3,1.3,4.6,2,7,2s4.2-1,5.5-2.9l1.4-2.1-17.9-10.3v-.2h0Z"/>
    </g>
    <g id="F" class="st4">
      <path class="st0" d="M412.9,546.2l-9.7-16.8.8-.5c3.3,2.3,6.2,4.2,8.6,5.6s5.1,2.4,7.8,2.8c2.7.5,5.3,0,7.7-1.4l4-2.1-9.6-16.7-2.3,1.5c-1.9,1.4-2.9,3.2-2.9,5.5s.6,4.6,1.9,6.8l-1,.6-10.9-18.9,1-.6c1.3,2.3,3,4.1,5,5.2,2,1.2,4.1,1.2,6.3.3l2.5-1.3-7.2-12.5-1.5-2.3c-.7-1-1.5-1.7-2.2-1.9s-1.5-.2-2.3.2c-.8.3-1.5.7-2.1,1s-1.2.6-1.7.9l-.5-.8,25.3-14.6.5.8c-.5.3-1,.6-1.5,1-.6.4-1.2.8-1.9,1.4-.7.5-1.1,1.1-1.3,1.8,0,.7,0,1.6.6,2.7l1.3,2.5,14.2,24.6,1.5,2.3c.7,1,1.5,1.7,2.1,1.9.7.2,1.4.2,2.2-.2.8-.3,1.5-.7,2.1-1s1.2-.6,1.7-.9l.5.8-38.9,22.5v-.2h-.1Z"/>
    </g>
    <g id="F_x23_" class="st4">
      <g>
        <g>
          <path class="st0" d="M283.9,539.1c0-3.6-.4-6.6-1.1-9s-1.9-3.6-3.7-3.6-1.5.2-2,.5-.7.7-.9,1.1c-.1.4-.2.9-.2,1.5v3.4c0,1,0,1.6.1,2,0,.8.2,1.3.5,1.5.2.3.6.4,1.1.5h2.5v.5h-16v-.5h1.6c.7-.2,1.2-.3,1.4-.6.2-.3.4-.8.5-1.6v-9.2h.4c.3.7.8,1.3,1.6,1.8s1.6.8,2.4.8,1.9-.5,3.4-1.5,3.4-1.5,5.9-1.5,6.2,1.2,8.5,3.7c2.3,2.4,3.4,5.5,3.4,9.2s-1.3,7-3.8,9.3-5.7,3.5-9.7,3.5-4.2-.5-6.1-1.4c-1.9-1-3-1.5-3.2-1.5-.7,0-1.1.2-1.3.7-.2.5-.4,1.2-.6,2.1h-.7v-11h.6c.7,2.8,1.8,5.2,3.4,7.2s3.6,2.9,6.1,2.9,3.4-1.1,4.4-3.4,1.4-4.9,1.4-7.9v.4h.1v.1h0Z"/>
          <path class="st0" d="M251.7,531.1c0-1.5.5-2.8,1.6-3.7s2.4-1.4,4-1.4,1.9.2,2.5.7,1.1.9,1.5,1.3h.1c.2-.2.4-.5.6-.8s.4-.7.6-1h.2v13.6c0,.4,0,.6.2.8.1,0,.4.2.7.3h.8v.4h-5.7v-6.2c-.1.3-.3.5-.7.8-.3.3-1,.4-1.9.4s-2.4-.5-3.2-1.4-1.2-2.1-1.2-3.6v-.2h-.1ZM255.9,531.1v2.1c0,.7.1,1.3.3,1.8.2.4.6.7,1.1.7s.7,0,.9-.4c.2-.2.3-.5.4-.8,0-.3,0-.8.1-1.3v-4.2c0-.7-.1-1.3-.3-1.8s-.6-.7-1-.7-.8.2-1,.7-.3,1.1-.3,1.8v2.2h-.2v-.1h0Z"/>
        </g>
        <g>
          <path class="st0" d="M307.1,569.1v-11.1h.5c1,2.1,1.8,3.8,2.7,5.2s1.8,2.6,3,3.6,2.6,1.5,4.2,1.5h2.6v-10.8h-1.6c-1.3.2-2.3.8-3,1.9-.7,1.1-1,2.4-1,3.9h-.6v-12.4h.6c0,1.5.3,2.9,1,4s1.7,1.8,3,1.9h1.6v-9.8c-.1-.7-.3-1.3-.6-1.6-.3-.3-.7-.5-1.2-.6h-2.4v-.5h16.6v.5h-2.3c-.5,0-.9.2-1.1.5-.3.3-.4.8-.5,1.5v19.4c.1.7.3,1.2.6,1.5.3.3.7.5,1.1.5h2.4v.5h-25.6v.3h0v.1h0Z"/>
          <path class="st0" d="M300.9,572.7h-.5l1.4-4h-3.3l-1.4,4h-.5l1.4-4h-3.4l.9-2.4h3.3l.8-2.2h-3.4l.9-2.4h3.4l1.4-4h.5l-1.4,4h3.3l1.4-4h.5l-1.4,4h3.4l-.9,2.4h-3.3l-.8,2.2h3.4l-.9,2.4h-3.4l-1.4,4ZM302.7,566.2l.8-2.2h-3.4l-.8,2.2h3.4Z"/>
        </g>
        <path class="st0" d="M306.5,529.2l-16.7,39.3-2-.7,16.7-39.3,2,.7Z"/>
      </g>
    </g>
    <g id="G" class="st4">
      <path class="st0" d="M171.1,521.9c3.2-5.5,5.2-10.3,6.3-14.6,1-4.2.2-7.1-2.5-8.7-1.3-.8-2.5-1.1-3.5-1s-1.8.4-2.3,1c-.5.5-1.1,1.2-1.6,2.1-.5.8-1.2,1.9-1.9,3.2l-1.2,2c-.9,1.5-1.4,2.5-1.6,3.1-.6,1.2-.8,2.1-.6,2.7.1.6.5,1.2,1.2,1.8.7.5,1.4,1,2,1.4s1.2.7,1.7,1.1l-.5.8-24.3-14,.5-.8,2.5,1.2c1.1.5,2,.7,2.6.5s1.3-.8,2.1-2l1.5-2.4,3.9-6.8,2.6-4.7.8.5c-.1,1.3.1,2.6.8,4.1.6,1.5,1.6,2.6,3,3.4,1.2.7,3.4,1,6.5.8s6.5.8,10.2,2.9c5.1,3,8.4,7.3,9.7,13,1.4,5.7.4,11.4-2.8,17-3.4,5.9-8.1,9.5-14,10.9-5.9,1.3-11.8.3-17.8-3.1-3.3-1.9-5.9-4.4-8-7.5s-3.3-4.8-3.6-5.1c-1-.6-1.9-.6-2.7,0-.8.5-1.7,1.4-2.8,2.6l-1-.6,9.7-16.8.9.5c-1.4,4.9-1.8,9.5-1.1,13.9s2.9,7.6,6.6,9.8c3,1.7,6.2,1.3,9.6-1.3s6.5-6.2,9.1-10.8h0v-.1h0Z"/>
    </g>
    <g id="G_x23_" class="st4">
      <g>
        <g>
          <path class="st0" d="M80.5,407.5l3.6-.9c.8-.2,1.4-.4,1.9-.7s.7-.6.7-.9,0-.7-.1-1.1-.3-.8-.5-1.1c-.2-.3-.3-.7-.5-1l.5-.3,4.8,8.4-.5.3-1.1-1.7c-.5-.6-.9-1-1.3-1.2s-.9-.3-1.4-.2c-.5,0-1,0-1.7.2-.6,0-1.2.2-1.7.3l-20.2,4.1-1.9-3.2,13.3-16,1.8-2.2c.5-.6.7-1.2.8-1.6s0-.9-.2-1.5l-.6-1.3.5-.3,8.1,14-.5.3c-.1-.2-.3-.4-.4-.6s-.4-.5-.7-.9c-.4-.4-.7-.7-.9-.9-.3-.1-.6,0-1,.1-.4.2-1,.7-1.6,1.5l-2.5,2.9,3.2,5.6h0l.1-.1h0ZM76.8,402.6l-5.8,6.8,8.7-1.7-3-5.1h.1Z"/>
          <path class="st0" d="M66.8,378.1c1.3-.8,2.7-.9,4-.5s2.4,1.3,3.2,2.7c.5.9.7,1.7.7,2.5s-.2,1.4-.4,1.9h0c.3.2.6.2,1,.2h1.2v.2c-.4.3-.8.5-1.2.7s-.9.5-1.5.8l-8.2,4.7-.7.4c-.3.2-.5.4-.6.5s0,.4.1.8l.4.7-.3.2-2.8-4.9,4-2.3,1.4-.8c-.3,0-.7,0-1.1-.2s-.8-.6-1.3-1.4c-.6-1.1-.8-2.3-.4-3.4.4-1.2,1.2-2.1,2.5-2.9h0v.1h0ZM68.9,381.7c-.2,0-.5.3-.9.6-.5.3-.7.5-.8.5-.6.4-1.1.7-1.4,1.2-.3.4-.3.8,0,1.2.2.4.5.6.8.6h.9c.3-.1.7-.3,1.2-.6.5-.3,1-.6,1.5-.8l1.2-.7c.3-.2.6-.4,1-.6.6-.4,1.1-.8,1.4-1.2.3-.4.3-.8,0-1.2-.2-.4-.6-.6-1.1-.5s-1.1.2-1.7.6c-.2.1-.5.3-.9.5s-.7.4-1.1.6v-.2h-.1Z"/>
        </g>
        <g>
          <path class="st0" d="M78.3,450.1c3.1-1.8,5.5-3.6,7.2-5.4s2.1-3.5,1.2-5c-.4-.8-.9-1.2-1.4-1.5s-1-.3-1.4-.2-.9.3-1.4.6-1.1.6-1.8,1l-1.2.7c-.8.5-1.4.8-1.7,1.1-.6.4-1,.8-1.1,1.2s0,.8.1,1.2.4.9.6,1.2c.2.4.4.7.5,1l-.5.3-8-13.8.5-.3.9,1.3c.4.6.8.9,1.1,1,.3,0,.9,0,1.6-.4l1.4-.7,3.9-2.2,2.6-1.6.3.4c-.4.6-.7,1.3-.8,2.2s0,1.8.5,2.5c.4.7,1.4,1.4,3,2.2s3,2.2,4.2,4.3c1.7,2.9,2,6,1.1,9.2-1,3.2-3,5.7-6.2,7.6-3.3,1.9-6.7,2.4-10,1.4s-5.9-3.2-7.9-6.6c-1.1-1.9-1.7-3.8-1.8-6-.1-2.1-.2-3.3-.3-3.5-.3-.6-.8-.8-1.3-.8s-1.3.2-2.1.5l-.3-.6,9.5-5.5.3.5c-2.1,2-3.6,4.2-4.5,6.5s-.7,4.6.5,6.7c1,1.7,2.7,2.4,5.1,2.1s5-1.2,7.6-2.7h0v.1h0Z"/>
          <path class="st0" d="M52,435.6v-.5c-.1,0,3.9-.8,3.9-.8l-1.6-2.9-4.2.8v-.5c-.1,0,3.9-.8,3.9-.8l-1.7-2.9,2.6-.4,1.7,2.9,2.3-.4-1.7-3,2.6-.4,1.7,2.9,4.2-.8v.5c.1,0-3.9.7-3.9.7l1.6,2.9,4.2-.8v.5c.1,0-3.9.7-3.9.7l1.7,2.9-2.6.4-1.7-2.9-2.3.4,1.7,3-2.6.4-1.7-2.9-4.2.8v.2h0ZM58.5,433.9l2.3-.4-1.7-3-2.3.4,1.7,3Z"/>
        </g>
        <path class="st0" d="M93.1,419.8l-42.4,5.2-.4-2.1,42.3-5.2.4,2.1h.1Z"/>
      </g>
    </g>
    <g id="A" class="st4">
      <path class="st0" d="M44.6,304.3l6.2,1.9c1.4.4,2.6.6,3.4.6s1.6-.2,1.9-.7c.4-.5.6-1,.8-1.8.1-.7.2-1.4.3-2.1,0-.7,0-1.3.1-2h1v17h-1l-.2-3.6c-.2-1.3-.5-2.3-1-3s-1.1-1.2-1.9-1.5c-.8-.3-1.7-.7-2.7-1.1s-2-.8-2.8-1.1l-34.3-11.5v-6.6l34.3-12.7,4.7-1.9c1.2-.6,2.1-1.1,2.7-1.7.5-.6.9-1.4,1-2.4l.2-2.5h1v28.5h-1v-1.3c0-.4-.1-1.1-.3-2.1s-.4-1.7-.6-2.2c-.3-.4-.8-.7-1.6-.7s-2.1.3-3.8.8l-6.4,2.2v11.5h0ZM43.4,293.5l-14.8,5.3,14.8,5.1v-10.4Z"/>
    </g>
    <g id="A_x23_" class="st4">
      <g>
        <g>
          <path class="st0" d="M100.2,159.1l-8.4,14.4-.5-.3.5-.9c.2-.4.4-.9.5-1.3.2-.4.2-.8,0-1.2-.1-.4-.5-.8-1.1-1.2l-1.3-.8-14-8.1-1.4-.7c-.7-.3-1.2-.4-1.6-.3-.4,0-.7.3-1,.7s-.6.8-.8,1.1c-.2.3-.4.6-.6.9l-.5-.3,7.9-13.7c1.1-1.9,2-3.3,2.7-4.2s1.5-1.7,2.4-2.1,1.8-.6,2.7-.6,1.9.3,2.8.9c1.4.8,2.2,1.8,2.4,3,.1,1.2,0,2.3-.2,3.2-.3,1-.8,2-1.5,3.3h.2c.8-1.3,1.5-2.3,2-3s1.1-1.3,1.8-1.8,1.6-.9,2.8-.9,2.3.2,3.6,1c1.2.7,2.1,1.6,2.6,2.6s.7,2.1.6,3.2c-.1,1.1-.5,2.3-1.2,3.7-.7,1.3-1.3,2.4-1.8,3.4h.4ZM87.8,153.4c.3-.9.2-1.7-.5-2.5-.6-.7-1.6-1.5-2.8-2.2-1-.6-2.1-1-3.2-1.1-1.1-.2-1.9,0-2.4.4-.5.5-.8.9-1.1,1.4-.3.5-.5.8-.8,1.2l9.5,5.5c.2-.4.4-.8.6-1.1.2-.4.4-.9.6-1.5h0l.1-.1h0ZM99.3,158.5c.2-.7-.1-1.6-1-2.5s-2-1.7-3.1-2.4c-1.1-.6-2.2-1-3.5-1.1s-2.1,0-2.6.7c-.4.6-.8,1-1,1.4-.2.3-.4.6-.5.8l-.6,1,10.4,6,.2-.4c.4-.7.7-1.3,1-1.8.2-.5.5-1,.6-1.7h.1Z"/>
          <path class="st0" d="M108.3,135.1c1.3.8,2.1,1.8,2.4,3.2s0,2.7-.8,4.1c-.5.9-1.1,1.5-1.8,1.8s-1.3.5-1.9.6h0c0,.4.2.7.4,1,.2.4.4.7.6,1v.2c-.6-.3-1-.6-1.4-.8s-.9-.5-1.5-.9l-8.2-4.7-.7-.4c-.3-.2-.6-.3-.8-.2-.2,0-.4.2-.6.5l-.4.7-.3-.2,2.8-4.9,4,2.3,1.4.8c-.2-.3-.3-.6-.3-1s.1-1,.6-1.8c.6-1.1,1.6-1.8,2.8-2.1s2.5,0,3.8.7h-.1v.1h0ZM106.3,138.7c-.2,0-.5-.3-1-.5s-.8-.4-.9-.5c-.6-.4-1.2-.6-1.7-.6s-.9.2-1.1.6c-.2.4-.3.7-.1,1,.1.3.3.5.5.7s.6.5,1.1.8,1,.6,1.5.9l1.2.7c.3.2.7.4,1,.5.6.4,1.2.6,1.7.6s.9-.1,1.1-.5.2-.8-.1-1.2-.8-.8-1.4-1.2c-.2-.1-.5-.3-.8-.5s-.7-.4-1-.7h0s0-.1,0-.1Z"/>
        </g>
        <g>
          <path class="st0" d="M52.6,189.9l2.5,2.7c.6.6,1.1,1,1.5,1.3.5.3.8.3,1.1.2s.6-.3.9-.7c.3-.3.5-.6.7-1,.2-.3.4-.6.6-.9l.5.3-4.8,8.4-.5-.3.9-1.8c.3-.7.4-1.3.4-1.8s-.2-.9-.5-1.3-.6-.8-1-1.3-.8-.9-1.1-1.3l-13.6-15.4,1.9-3.2,20.5,3.5,2.8.4h1.8c.4-.1.8-.4,1.2-.9l.8-1.1.5.3-8.1,14-.5-.3c.1-.2.3-.5.4-.6,0-.2.2-.6.5-1.1.2-.5.3-1,.3-1.2,0-.3-.2-.6-.6-.8-.4-.2-1.1-.5-2.1-.7l-3.7-.7-3.2,5.6v-.3h-.1ZM55,184.2l-8.8-1.6,5.8,6.7,3-5.1h0Z"/>
          <path class="st0" d="M47.6,157.2l.4-.4,2.7,3.1,1.6-2.9-2.8-3.2.4-.4,2.7,3.1,1.7-2.9,1.6,2-1.7,2.9,1.5,1.8,1.7-3,1.6,2-1.7,2.9,2.8,3.3-.4.4-2.7-3.2-1.6,2.9,2.8,3.3-.4.4-2.7-3.2-1.7,2.9-1.6-2,1.7-2.9-1.5-1.8-1.7,3-1.7-2,1.7-2.9-2.8-3.2h.1ZM52.3,161.9l1.5,1.8,1.7-3-1.5-1.8-1.7,3Z"/>
        </g>
        <path class="st0" d="M83.1,182.6l-25.7-34.1,1.6-1.4,25.7,34.1-1.6,1.4Z"/>
      </g>
    </g>
    <g id="B" class="st4">
      <path class="st0" d="M179.1,87.4l-25.4,14.6-.5-.8,1.6-.9c.7-.5,1.3-1,2-1.5.6-.5,1-1.1,1.2-1.7.1-.7,0-1.6-.6-2.7l-1.3-2.4-14.2-24.6-1.5-2.3c-.7-1-1.5-1.7-2.1-1.9-.7-.2-1.4-.2-2.2.2-.8.3-1.5.7-2.1,1s-1.2.6-1.7.9l-.5-.8,24-13.9c3.3-1.9,5.9-3.2,7.8-4,2-.8,3.8-1.2,5.5-1,1.7.1,3.3.6,4.7,1.4,1.4.8,2.6,2.1,3.6,3.8,1.5,2.5,1.8,4.8.9,6.7-.8,2-1.9,3.5-3.1,4.8-1.3,1.2-3,2.4-5.1,3.7l.2.4c2.5-1.5,4.5-2.5,5.9-3s2.8-.9,4.4-1.1c1.6-.2,3.2.1,5,1s3.3,2.4,4.6,4.7c1.3,2.2,1.8,4.3,1.6,6.3s-.8,3.9-2,5.5-2.8,3.1-5,4.5-4.1,2.6-5.8,3.5v-.4h.1ZM165.4,67.9c1.3-1.1,1.8-2.5,1.4-4.2-.3-1.7-1.1-3.6-2.4-5.8-1-1.8-2.3-3.3-3.9-4.6s-2.9-1.8-4-1.5-2.1.7-2.9,1.1l-2.2,1.1,9.7,16.8c.7-.4,1.3-.8,2-1.2s1.4-1,2.3-1.8h0v.1h0ZM178.3,85.8c1-.9,1.2-2.5.6-4.7s-1.5-4.3-2.7-6.4c-1.1-1.9-2.5-3.5-4.3-4.8s-3.3-1.7-4.5-1.2-2.1.9-2.7,1.3c-.6.3-1.1.6-1.4.8l-1.7,1,10.6,18.3.6-.4c1.2-.7,2.3-1.3,3.1-1.9.8-.5,1.6-1.2,2.4-2h0Z"/>
    </g>
    <path d="M308.6,32.08h-12.33v-8.24c0-2.4-.13-3.89-.4-4.49-.26-.59-.85-.89-1.74-.89-1.02,0-1.66.36-1.93,1.08-.27.72-.41,2.29-.41,4.69v22.03c0,2.3.14,3.81.41,4.51.27.7.89,1.05,1.85,1.05s1.52-.35,1.8-1.06c.28-.7.42-2.36.42-4.96v-5.96h12.33v1.85c0,4.91-.35,8.39-1.04,10.44-.69,2.05-2.23,3.85-4.6,5.4s-5.3,2.32-8.77,2.32-6.59-.65-8.94-1.96-3.9-3.12-4.66-5.43-1.14-5.8-1.14-10.44v-13.86c0-3.42.12-5.98.35-7.69.23-1.71.93-3.35,2.09-4.94,1.16-1.58,2.77-2.83,4.83-3.74,2.06-.91,4.43-1.36,7.1-1.36,3.63,0,6.63.7,8.99,2.11,2.36,1.4,3.92,3.16,4.66,5.25.74,2.1,1.11,5.36,1.11,9.79v4.51Z"/>
    <g>
      <path class="st0" d="M397.92,58.44l-6.41-3.7,2.47-4.28c.72-1.25,1.1-2.06,1.14-2.45s-.17-.72-.64-.99c-.53-.3-.97-.31-1.33-.02s-.9,1.06-1.62,2.31l-6.61,11.45c-.69,1.2-1.07,2.02-1.14,2.47s.15.81.64,1.1c.48.28.89.27,1.25,0,.36-.28.93-1.1,1.71-2.45l1.79-3.1,6.41,3.7-.55.96c-1.47,2.55-2.7,4.26-3.67,5.12-.98.86-2.31,1.33-4.01,1.43-1.7.09-3.45-.38-5.25-1.43-1.88-1.08-3.23-2.32-4.05-3.7-.83-1.38-1.09-2.79-.79-4.22.3-1.43,1.15-3.36,2.54-5.77l4.16-7.2c1.03-1.78,1.86-3.07,2.49-3.89.63-.82,1.49-1.46,2.57-1.94,1.08-.47,2.29-.64,3.63-.49,1.34.15,2.71.62,4.1,1.42,1.89,1.09,3.24,2.35,4.04,3.79.81,1.44,1.09,2.81.85,4.13s-1.03,3.12-2.36,5.42l-1.35,2.34Z"/>
      <path class="st0" d="M400.78,57.1l4.74,2.74,4.59-5.12,2.88,1.66-4.58,5.13,5.38,3.1,4.58-5.13,2.88,1.66-4.57,5.13,2.55,1.47-1.67,2.89-3.15-1.82-3.61,4.05,4.1,2.37-1.66,2.88-4.69-2.71-4.54,5.09-2.89-1.67,4.54-5.09-5.38-3.11-4.55,5.09-2.91-1.68,4.55-5.08-2.57-1.48,1.66-2.88,3.17,1.83,3.62-4.04-4.14-2.39,1.67-2.89ZM406.13,64.05l-3.61,4.04,5.38,3.11,3.61-4.04-5.38-3.11Z"/>
      <path class="st0" d="M437.08,66.11l-22.07,21.38-4.66-2.69,22.11-21.35,4.61,2.66Z"/>
      <path class="st0" d="M438.27,67.43l4.79,2.77c3.1,1.79,5.11,3.14,6.03,4.05.93.91,1.49,1.86,1.68,2.84.19.98.13,1.91-.19,2.78-.32.88-1.15,2.49-2.5,4.82l-4.98,8.63c-1.28,2.21-2.24,3.63-2.87,4.26s-1.34,1-2.1,1.12c-.76.12-1.57.05-2.43-.22-.86-.27-2.05-.85-3.59-1.74l-8.08-4.67,14.23-24.65ZM442.25,75.34l-9.36,16.21c.92.53,1.6.68,2.03.43.43-.25,1.11-1.19,2.06-2.84l5.53-9.58c.64-1.12,1.02-1.85,1.13-2.21.11-.36.08-.68-.09-.97-.17-.29-.6-.64-1.3-1.05Z"/>
      <path class="st0" d="M461.47,80.82l-3.37,5.83c.85-.3,1.67-.41,2.46-.34s1.55.32,2.28.74c.84.49,1.5,1.04,1.96,1.66s.72,1.26.77,1.93c.05.67-.03,1.24-.22,1.74-.2.49-.73,1.49-1.59,2.98l-5.26,9.1c-.86,1.48-1.59,2.53-2.21,3.14-.62.61-1.45.97-2.48,1.08-1.04.11-2.06-.12-3.07-.7-.72-.42-1.3-.96-1.74-1.64s-.74-1.48-.89-2.41l-1.28,1.3-5.75-3.32,14.23-24.65,6.15,3.55ZM457.47,92.09c.6-1.05.93-1.77.98-2.16.05-.4-.11-.71-.5-.93-.38-.22-.7-.22-.97,0-.27.21-.73.89-1.38,2.01l-5.03,8.71c-.63,1.09-.96,1.82-1.01,2.2s.11.67.49.89c.38.22.73.21,1.03-.04.3-.25.79-.97,1.48-2.17l4.91-8.51Z"/>
    </g>
    <path d="M530.46,140.67l4.62,7.99c2.98,5.16,4.76,8.79,5.33,10.88.58,2.09.6,3.92.06,5.5-.54,1.57-1.4,2.86-2.59,3.86-1.19,1-3.73,2.63-7.62,4.87l-14.38,8.31c-3.69,2.13-6.25,3.38-7.7,3.75-1.44.37-2.76.33-3.96-.13-1.2-.46-2.3-1.24-3.32-2.35s-2.25-2.94-3.73-5.49l-7.78-13.47,41.08-23.72ZM529.6,155.41l-27.02,15.6c.89,1.54,1.74,2.31,2.57,2.31.82,0,2.6-.79,5.34-2.38l15.96-9.21c1.86-1.07,3.02-1.82,3.47-2.24.46-.42.68-.92.69-1.48,0-.56-.33-1.43-1.01-2.6Z"/>
    <g>
      <path class="st0" d="M561.45,248.01v5.54c0,3.57-.16,5.99-.49,7.25s-.87,2.22-1.62,2.87-1.58,1.07-2.5,1.23-2.73.25-5.42.25h-9.97c-2.55,0-4.26-.12-5.12-.36s-1.54-.66-2.02-1.26-.83-1.34-1.02-2.21-.29-2.2-.29-3.97v-9.33h28.46ZM556.58,255.41h-18.72c0,1.07.21,1.72.64,1.97s1.59.37,3.49.37h11.06c1.29,0,2.12-.04,2.48-.12s.63-.27.8-.56.25-.84.25-1.65Z"/>
      <path class="st0" d="M551.64,267.06v5.48l6.73,1.41v3.32l-6.73-1.4v6.21l6.73,1.4v3.32l-6.73-1.39v2.94h-3.34v-3.63l-5.31-1.1v4.73h-3.32v-5.42l-6.68-1.38v-3.34l6.68,1.39v-6.22l-6.68-1.39v-3.36l6.68,1.4v-2.97h3.32v3.66l5.31,1.11v-4.78h3.34ZM548.3,275.17l-5.31-1.11v6.22l5.31,1.1v-6.21Z"/>
      <path class="st0" d="M561.99,303l-29.55-8.42v-5.38l29.55,8.47v5.32Z"/>
      <path class="st0" d="M561.45,304.69v12.34h-5.7v-4.94h-5.4v4.62h-5.41v-4.62h-6.26v5.43h-5.7v-12.83h28.46Z"/>
      <path class="st0" d="M561.45,326.54h-6.74c.68.59,1.19,1.24,1.52,1.96s.5,1.5.5,2.35c0,.97-.15,1.82-.46,2.53s-.73,1.26-1.28,1.63-1.09.6-1.62.68-1.65.11-3.38.11h-10.51c-1.71,0-2.99-.11-3.82-.34s-1.56-.76-2.18-1.61-.92-1.85-.92-3.01c0-.83.18-1.61.55-2.33.36-.72.91-1.38,1.64-1.98l-1.76-.46v-6.64h28.46v7.1ZM549.69,328.71c1.21,0,2-.08,2.36-.23s.55-.45.55-.9-.16-.71-.48-.84-1.13-.19-2.43-.19h-10.05c-1.25,0-2.06.07-2.41.22s-.53.44-.53.87.18.74.54.87,1.24.2,2.62.2h9.83Z"/>
    </g>
    <path d="M542.53,427.09l-10.28,17.81-8.22-4.75,4.12-7.13-7.79-4.5-3.85,6.67-7.81-4.51,3.85-6.67-9.03-5.21-4.53,7.84-8.22-4.75,10.69-18.52,41.08,23.71Z"/>
    <path d="M445.04,531.99l-18.09,10.44-4.75-8.22,7.41-4.28-4.5-7.79-6.6,3.81-4.51-7.81,6.6-3.81-9.96-17.25,10.68-6.17,23.72,41.08Z"/>
    <g>
      <path class="st0" d="M336.66,562.03h-12.53v-5.7h5.13v-5.4h-4.57v-5.41h4.57v-11.95h7.4v28.46Z"/>
      <path class="st0" d="M323.17,552.22h-5.48l-1.41,6.73h-3.32l1.4-6.73h-6.21l-1.4,6.73h-3.32l1.39-6.73h-2.94v-3.34h3.63l1.1-5.31h-4.73v-3.32h5.42l1.38-6.68h3.34l-1.39,6.68h6.22l1.39-6.68h3.36l-1.4,6.68h2.97v3.32h-3.66l-1.11,5.31h4.78v3.34ZM315.06,548.88l1.11-5.31h-6.22l-1.1,5.31h6.21Z"/>
      <path class="st0" d="M287.24,562.57l8.42-29.55h5.38l-8.47,29.55h-5.32Z"/>
      <path class="st0" d="M268.56,551.55h7.4v2.58c0,1.63.07,2.65.21,3.06s.47.62,1,.62c.46,0,.77-.18.93-.53s.25-1.25.25-2.71v-13.66c0-1.28-.08-2.12-.25-2.52s-.49-.61-.98-.61c-.54,0-.91.23-1.1.69s-.29,1.35-.29,2.67v3.38h1.49v4.32h-8.67v-15.28h4.65l.68,2.04c.5-.88,1.14-1.54,1.91-1.98.77-.44,1.67-.66,2.72-.66,1.24,0,2.41.3,3.49.91,1.08.6,1.91,1.35,2.47,2.24.56.89.92,1.83,1.06,2.8s.21,2.45.21,4.4v8.46c0,2.72-.15,4.69-.44,5.92s-1.13,2.36-2.52,3.38-3.18,1.54-5.39,1.54-3.97-.45-5.4-1.34-2.36-1.95-2.79-3.17-.65-3-.65-5.33v-1.23Z"/>
      <path class="st0" d="M258.8,562.03v-6.74c-.59.68-1.24,1.19-1.96,1.52s-1.5.5-2.35.5c-.97,0-1.82-.15-2.53-.46s-1.26-.73-1.63-1.28-.6-1.09-.68-1.62-.11-1.65-.11-3.38v-10.51c0-1.71.11-2.99.34-3.82s.76-1.56,1.61-2.18,1.85-.92,3.01-.92c.83,0,1.61.18,2.33.55.72.36,1.38.91,1.98,1.64l.46-1.76h6.64v28.46h-7.1ZM256.64,550.27c0,1.21.08,2,.23,2.36s.45.55.9.55.71-.16.84-.48.19-1.13.19-2.43v-10.05c0-1.25-.07-2.06-.22-2.41s-.44-.53-.87-.53-.74.18-.87.54-.2,1.24-.2,2.62v9.83Z"/>
    </g>
    <path d="M148.06,516.28l10.68,6.17-2.15,3.73c-1.36,2.35-2.11,3.88-2.24,4.59-.14.71.17,1.28.93,1.72.66.38,1.25.39,1.78.02.53-.37,1.4-1.61,2.61-3.7l11.38-19.71c1.06-1.84,1.65-3.13,1.75-3.85.1-.72-.21-1.29-.92-1.7-.78-.45-1.5-.42-2.16.07-.66.5-1.54,1.7-2.65,3.62l-2.81,4.87,2.16,1.25-3.6,6.24-12.51-7.22,12.73-22.05,6.71,3.88-.71,3.51c1.46-.85,2.93-1.27,4.4-1.26s2.97.44,4.47,1.31c1.79,1.04,3.22,2.44,4.29,4.22,1.06,1.78,1.63,3.54,1.7,5.29.07,1.75-.2,3.4-.81,4.93-.61,1.53-1.73,3.71-3.36,6.53l-7.05,12.2c-2.27,3.92-4.12,6.65-5.57,8.18-1.45,1.53-3.6,2.46-6.46,2.78-2.86.32-5.88-.43-9.06-2.27-3.13-1.81-5.35-3.95-6.68-6.43-1.32-2.48-1.78-4.78-1.39-6.91.4-2.13,1.56-4.88,3.51-8.24l1.03-1.78Z"/>
    <g>
      <path class="st0" d="M84.97,446.94l3.7,6.41-2.24,1.29c-1.41.81-2.26,1.39-2.54,1.71-.28.33-.3.72-.03,1.17.23.4.54.58.92.54.39-.03,1.21-.41,2.47-1.14l11.83-6.83c1.11-.64,1.79-1.13,2.06-1.47s.28-.73.03-1.16c-.27-.47-.65-.67-1.14-.61-.49.06-1.31.42-2.46,1.08l-2.92,1.69.75,1.29-3.75,2.16-4.33-7.5,13.23-7.64,2.33,4.03-1.42,1.61c1.01,0,1.9.22,2.67.66s1.41,1.12,1.93,2.02c.62,1.08.94,2.24.96,3.48.02,1.24-.21,2.33-.71,3.26-.49.93-1.12,1.71-1.9,2.32-.78.61-2.01,1.41-3.71,2.38l-7.32,4.23c-2.35,1.36-4.14,2.22-5.35,2.58-1.21.36-2.61.2-4.19-.49-1.58-.69-2.92-1.99-4.03-3.9-1.08-1.88-1.6-3.66-1.54-5.34s.51-3.02,1.35-4.01,2.28-2.06,4.3-3.23l1.07-.62Z"/>
      <path class="st0" d="M83.38,445.52l-2.74-4.74-6.54,2.14-1.66-2.88,6.53-2.15-3.1-5.38-6.53,2.16-1.66-2.88,6.53-2.16-1.47-2.55,2.89-1.67,1.82,3.15,5.15-1.7-2.37-4.1,2.88-1.66,2.71,4.69,6.48-2.14,1.67,2.89-6.48,2.14,3.11,5.38,6.48-2.13,1.68,2.91-6.49,2.13,1.48,2.57-2.88,1.66-1.83-3.17-5.15,1.69,2.39,4.14-2.89,1.67ZM82.22,436.83l5.15-1.7-3.11-5.38-5.15,1.7,3.11,5.38Z"/>
      <path class="st0" d="M56.45,419.58l29.8-7.48,2.69,4.66-29.83,7.44-2.66-4.61Z"/>
      <path class="st0" d="M49.68,406.75l22.53-17.89,3.78,6.55-4.23,2.9,1.32,2.29,4.65-2.17,3.83,6.63-26.53,10.96-5.35-9.26ZM67.48,401c-2.6,1.94-5.87,4.25-9.79,6.95,5.1-2.07,8.78-3.65,11.06-4.75l-1.27-2.21Z"/>
      <path class="st0" d="M43.49,396.03l5.83-3.37c-.88-.17-1.65-.48-2.3-.93-.65-.46-1.19-1.05-1.61-1.78-.49-.84-.78-1.65-.87-2.42-.09-.77,0-1.46.29-2.06.29-.6.64-1.06,1.06-1.39.42-.33,1.37-.93,2.87-1.79l9.1-5.26c1.48-.86,2.64-1.39,3.48-1.61.84-.22,1.74-.12,2.69.3.96.42,1.72,1.14,2.3,2.14.42.72.65,1.48.69,2.29.04.81-.1,1.65-.43,2.53l1.75-.49,3.32,5.75-24.65,14.23-3.55-6.15ZM52.59,388.28c-1.05.6-1.69,1.06-1.93,1.38-.24.32-.25.67-.03,1.05.22.38.5.54.84.49.34-.05,1.08-.4,2.21-1.05l8.71-5.03c1.09-.63,1.74-1.09,1.98-1.39.23-.3.24-.64.02-1.02-.22-.39-.53-.55-.91-.48-.38.06-1.17.44-2.37,1.13l-8.51,4.91Z"/>
    </g>
    <path d="M11.52,283.85l47.43-7.05v12.6l-8.53.66v4.41l8.53.74v12.75l-47.43-6.29v-17.83ZM42.02,290.39c-5.37.62-12.01,1.25-19.92,1.88,9.08,1.26,15.72,2.05,19.92,2.37v-4.25Z"/>
    <g>
      <path class="st0" d="M45.15,186.91l26.76,10.56-3.78,6.55-4.63-2.21-1.32,2.29,4.21,2.94-3.83,6.63-22.76-17.5,5.35-9.26ZM59.04,199.46c-2.98-1.29-6.62-2.95-10.92-5,4.34,3.38,7.56,5.78,9.64,7.21l1.27-2.21Z"/>
      <path class="st0" d="M55.97,187.79l2.74-4.74-5.12-4.59,1.66-2.88,5.13,4.58,3.1-5.38-5.13-4.58,1.66-2.88,5.13,4.57,1.47-2.55,2.89,1.67-1.82,3.15,4.05,3.61,2.37-4.1,2.88,1.66-2.71,4.69,5.09,4.54-1.67,2.89-5.09-4.54-3.11,5.39,5.09,4.55-1.68,2.91-5.08-4.55-1.48,2.57-2.88-1.66,1.83-3.17-4.04-3.62-2.39,4.14-2.89-1.67ZM62.92,182.44l4.04,3.61,3.11-5.38-4.05-3.61-3.11,5.38Z"/>
      <path class="st0" d="M64.97,151.49l21.38,22.07-2.69,4.66-21.35-22.11,2.66-4.61Z"/>
      <path class="st0" d="M66.29,150.3l3.69-6.39c1.17-2.02,2.21-3.46,3.12-4.32.91-.86,2.04-1.33,3.36-1.42,1.33-.09,3.06.49,5.19,1.71,1.44.83,2.31,1.64,2.62,2.42.31.78.23,1.92-.23,3.43,1.19-1.29,2.33-1.97,3.41-2.05,1.08-.08,2.43.34,4.03,1.27l2.29,1.32c1.67.96,2.79,1.86,3.37,2.71.58.84.78,1.77.6,2.77-.19,1-1.02,2.79-2.51,5.37l-4.28,7.41-24.65-14.23ZM74.21,146.32l5.48,3.16c.15-.28.27-.5.35-.65.36-.63.44-1.12.23-1.47-.21-.35-1.04-.95-2.51-1.79-.77-.45-1.35-.69-1.75-.72-.39-.04-.69.04-.91.22s-.52.6-.91,1.25ZM83.53,151.7l6.9,3.98c.49-.92.68-1.58.57-1.97-.11-.4-.66-.88-1.66-1.45l-2.3-1.33c-1.05-.61-1.76-.87-2.11-.77-.35.09-.82.61-1.4,1.55Z"/>
      <path class="st0" d="M79.68,127.11l5.83,3.37c-.3-.85-.41-1.67-.34-2.46.07-.79.32-1.55.74-2.28.49-.84,1.04-1.5,1.66-1.96s1.26-.72,1.93-.77c.67-.05,1.24.02,1.74.22.49.2,1.49.73,2.98,1.59l9.1,5.26c1.48.86,2.53,1.59,3.14,2.21.61.62.97,1.44,1.08,2.48.11,1.04-.12,2.06-.7,3.06-.42.72-.96,1.3-1.64,1.74-.68.44-1.48.74-2.41.89l1.3,1.28-3.32,5.75-24.65-14.23,3.55-6.15ZM90.94,131.12c-1.04-.6-1.77-.93-2.16-.98-.4-.05-.71.11-.93.5-.22.38-.22.7,0,.97.21.27.89.73,2.01,1.38l8.71,5.03c1.09.63,1.82.96,2.2,1.01.38.05.67-.11.89-.49.22-.39.21-.73-.04-1.03s-.97-.79-2.17-1.48l-8.51-4.91Z"/>
    </g>
    <path d="M140.92,56.14l10.66-6.15c3.37-1.94,6.07-3.15,8.1-3.63,2.04-.48,4.05-.22,6.04.76,1.99.98,4.01,3.25,6.06,6.8,1.39,2.4,1.98,4.29,1.77,5.67-.21,1.38-1.27,2.96-3.19,4.75,2.79-.87,5-.91,6.63-.12,1.63.79,3.21,2.52,4.76,5.19l2.2,3.81c1.6,2.78,2.47,5.02,2.61,6.72.14,1.7-.35,3.2-1.45,4.49-1.1,1.29-3.8,3.18-8.1,5.66l-12.36,7.13-23.71-41.08ZM155.66,57l5.27,9.13c.45-.28.8-.49,1.05-.64,1.05-.61,1.57-1.25,1.56-1.93-.01-.68-.72-2.24-2.12-4.68-.74-1.29-1.38-2.12-1.92-2.5-.54-.38-1.03-.53-1.49-.44-.46.08-1.24.44-2.35,1.05ZM164.62,72.53l6.64,11.49c1.48-.92,2.3-1.71,2.47-2.37.17-.66-.22-1.82-1.18-3.48l-2.21-3.83c-1.02-1.76-1.82-2.72-2.4-2.88-.59-.16-1.69.2-3.31,1.06Z"/>
  </g>
</svg>